<svg preserveAspectRatio="xMidYMid meet" viewBox="0 0 24 24" fill="none" xmlns="http://www.w3.org/2000/svg">
    <path d="M19.3427 13.281C19.1192 13.2113 18.8773 13.2328 18.6696 13.3409C18.462 13.4489 18.3054 13.6347 18.2341 13.8578C17.8151 15.1397 16.9983 16.2544 15.9025 17.0397C14.8067 17.825 13.4891 18.2399 12.1414 18.2241C10.4744 18.2431 8.86791 17.5998 7.67423 16.4352C6.48055 15.2707 5.79709 13.68 5.77372 12.0119C5.79709 10.3438 6.48055 8.75313 7.67423 7.58858C8.86791 6.42404 10.4744 5.78071 12.1414 5.79967C13.6469 5.79603 15.1061 6.32044 16.2653 7.28173L14.3408 6.96225C14.2254 6.94326 14.1075 6.94727 13.9937 6.97405C13.8799 7.00084 13.7725 7.04987 13.6778 7.11832C13.583 7.18677 13.5027 7.2733 13.4414 7.37293C13.3802 7.47256 13.3392 7.58332 13.3209 7.69884C13.3019 7.81426 13.3059 7.93229 13.3327 8.04615C13.3595 8.16001 13.4085 8.26745 13.4769 8.3623C13.5453 8.45714 13.6317 8.53752 13.7313 8.59881C13.8309 8.6601 13.9415 8.70109 14.057 8.71942L17.8173 9.34064H17.968C18.0709 9.34052 18.1729 9.3225 18.2696 9.28739C18.302 9.27505 18.3321 9.25702 18.3582 9.23415C18.4218 9.21048 18.4816 9.17759 18.5356 9.13653L18.6154 9.0389C18.6154 8.99453 18.6953 8.95903 18.7307 8.90579C18.7662 8.85254 18.7307 8.81704 18.7751 8.78154C18.7996 8.72986 18.8203 8.67647 18.8372 8.6218L19.5023 5.07195C19.5244 4.95541 19.5234 4.83565 19.4993 4.7195C19.4751 4.60336 19.4284 4.4931 19.3617 4.39504C19.295 4.29697 19.2096 4.21301 19.1105 4.14796C19.0114 4.0829 18.9004 4.03802 18.7839 4.01588C18.6675 3.99373 18.5478 3.99476 18.4317 4.0189C18.3157 4.04304 18.2055 4.08983 18.1075 4.15658C17.9096 4.29139 17.7733 4.49935 17.7286 4.73472L17.4891 6.02154C16.0045 4.73405 14.1059 4.02513 12.1414 4.02475C10.004 4.00582 7.94638 4.83615 6.42007 6.33355C4.89375 7.83095 4.0234 9.8731 4 12.0119C4.0234 14.1507 4.89375 16.1928 6.42007 17.6902C7.94638 19.1876 10.004 20.018 12.1414 19.999C13.8735 20.0257 15.5685 19.4951 16.9766 18.4854C18.3848 17.4756 19.4318 16.0402 19.9635 14.3903C19.9971 14.2767 20.0077 14.1575 19.9945 14.0397C19.9814 13.9219 19.9448 13.808 19.8869 13.7046C19.8291 13.6012 19.7511 13.5104 19.6576 13.4377C19.5641 13.3649 19.4571 13.3116 19.3427 13.281Z"
          fill="#231F20"/>
</svg>
