<svg xmlns="http://www.w3.org/2000/svg" preserveAspectRatio="xMidYMid meet" viewBox="0 0 24 24" fill="none">
    <path d="M19.2808 5.77891L5.78084 19.2789C5.64011 19.4196 5.44924 19.4987 5.25022 19.4987C5.0512 19.4987 4.86033 19.4196 4.71959 19.2789C4.57886 19.1382 4.4998 18.9473 4.4998 18.7483C4.4998 18.5493 4.57886 18.3584 4.71959 18.2177L18.2196 4.71766C18.3602 4.57693 18.551 4.49782 18.7499 4.49773C18.9488 4.49764 19.1396 4.57659 19.2804 4.71719C19.4211 4.8578 19.5002 5.04855 19.5003 5.24749C19.5004 5.44642 19.4215 5.63724 19.2808 5.77797V5.77891ZM4.73834 9.51016C4.10543 8.87712 3.74991 8.01859 3.75 7.12342C3.75009 6.22826 4.10577 5.36979 4.73881 4.73688C5.37185 4.10397 6.23039 3.74845 7.12555 3.74854C8.02071 3.74862 8.87918 4.10431 9.51209 4.73735C10.145 5.37039 10.5005 6.22892 10.5004 7.12409C10.5004 8.01925 10.1447 8.87772 9.51163 9.51063C8.87859 10.1435 8.02005 10.4991 7.12489 10.499C6.22972 10.4989 5.37126 10.1432 4.73834 9.51016ZM5.25022 7.12516C5.25046 7.43346 5.32672 7.73694 5.47224 8.00872C5.61776 8.28051 5.82806 8.51223 6.0845 8.68334C6.34095 8.85446 6.63563 8.95971 6.94246 8.98976C7.24929 9.01981 7.55879 8.97374 7.84356 8.85562C8.12833 8.73751 8.37959 8.551 8.57508 8.31261C8.77056 8.07422 8.90425 7.7913 8.9643 7.48891C9.02436 7.18652 9.00892 6.87399 8.91936 6.57899C8.8298 6.28399 8.66887 6.01563 8.45084 5.79766C8.18851 5.53541 7.85428 5.35685 7.49044 5.2846C7.12661 5.21235 6.74951 5.24963 6.40688 5.39175C6.06424 5.53386 5.77145 5.77441 5.56556 6.08297C5.35967 6.39153 5.24993 6.75422 5.25022 7.12516ZM20.2502 16.8752C20.25 17.656 19.9791 18.4126 19.4837 19.016C18.9882 19.6195 18.2988 20.0325 17.5329 20.1847C16.7671 20.3368 15.9722 20.2188 15.2836 19.8505C14.5951 19.4823 14.0555 18.8868 13.7569 18.1653C13.4582 17.4439 13.4189 16.6412 13.6457 15.8941C13.8725 15.1469 14.3514 14.5015 15.0007 14.0678C15.65 13.6342 16.4296 13.439 17.2066 13.5157C17.9836 13.5924 18.7101 13.9361 19.2621 14.4883C19.5765 14.801 19.8257 15.173 19.9953 15.5827C20.1649 15.9924 20.2516 16.4317 20.2502 16.8752ZM18.7502 16.8752C18.7503 16.4414 18.6 16.021 18.3249 15.6856C18.0497 15.3502 17.6668 15.1206 17.2414 15.0359C16.8159 14.9511 16.3743 15.0166 15.9917 15.221C15.6091 15.4254 15.3092 15.7562 15.1431 16.1569C14.977 16.5577 14.955 17.0036 15.0809 17.4187C15.2067 17.8339 15.4726 18.1925 15.8333 18.4336C16.1939 18.6747 16.627 18.7832 17.0587 18.7408C17.4904 18.6983 17.8941 18.5075 18.2008 18.2008C18.3755 18.0271 18.514 17.8205 18.6083 17.593C18.7026 17.3655 18.7508 17.1215 18.7502 16.8752Z"
          fill="#636A7C"/>
</svg>
