<svg xmlns="http://www.w3.org/2000/svg" preserveAspectRatio="xMidYMid meet" viewBox="0 0 24 24" fill="none">
    <path d="M22.5 19.4999H21V10.8327C21 10.6251 20.957 10.4197 20.8735 10.2296C20.7901 10.0395 20.6681 9.86883 20.5153 9.72831L13.0153 2.65206C13.0116 2.64886 13.0082 2.64541 13.005 2.64175C12.7289 2.39062 12.369 2.25146 11.9958 2.25146C11.6225 2.25146 11.2627 2.39062 10.9866 2.64175L10.9763 2.65206L3.48469 9.72831C3.33187 9.86883 3.20989 10.0395 3.12646 10.2296C3.04303 10.4197 2.99997 10.6251 3 10.8327V19.4999H1.5C1.30109 19.4999 1.11032 19.5789 0.96967 19.7195C0.829018 19.8602 0.75 20.051 0.75 20.2499C0.75 20.4488 0.829018 20.6395 0.96967 20.7802C1.11032 20.9209 1.30109 20.9999 1.5 20.9999H22.5C22.6989 20.9999 22.8897 20.9209 23.0303 20.7802C23.171 20.6395 23.25 20.4488 23.25 20.2499C23.25 20.051 23.171 19.8602 23.0303 19.7195C22.8897 19.5789 22.6989 19.4999 22.5 19.4999ZM4.5 10.8327L4.51031 10.8233L12 3.74987L19.4906 10.8214L19.5009 10.8308V19.4999H15V14.9999C15 14.602 14.842 14.2205 14.5607 13.9392C14.2794 13.6579 13.8978 13.4999 13.5 13.4999H10.5C10.1022 13.4999 9.72064 13.6579 9.43934 13.9392C9.15804 14.2205 9 14.602 9 14.9999V19.4999H4.5V10.8327ZM13.5 19.4999H10.5V14.9999H13.5V19.4999Z"
          fill="#636A7C"/>
</svg>
