<svg xmlns="http://www.w3.org/2000/svg" preserveAspectRatio="xMidYMid meet" viewBox="0 0 24 24" fill="none">
    <path d="M3 6C3 5.80109 3.07902 5.61032 3.21967 5.46967C3.36032 5.32902 3.55109 5.25 3.75 5.25H20.25C20.4489 5.25 20.6397 5.32902 20.7803 5.46967C20.921 5.61032 21 5.80109 21 6C21 6.19891 20.921 6.38968 20.7803 6.53033C20.6397 6.67098 20.4489 6.75 20.25 6.75H3.75C3.55109 6.75 3.36032 6.67098 3.21967 6.53033C3.07902 6.38968 3 6.19891 3 6ZM3.75 12.75H20.25C20.4489 12.75 20.6397 12.671 20.7803 12.5303C20.921 12.3897 21 12.1989 21 12C21 11.8011 20.921 11.6103 20.7803 11.4697C20.6397 11.329 20.4489 11.25 20.25 11.25H3.75C3.55109 11.25 3.36032 11.329 3.21967 11.4697C3.07902 11.6103 3 11.8011 3 12C3 12.1989 3.07902 12.3897 3.21967 12.5303C3.36032 12.671 3.55109 12.75 3.75 12.75ZM13.5 17.25H3.75C3.55109 17.25 3.36032 17.329 3.21967 17.4697C3.07902 17.6103 3 17.8011 3 18C3 18.1989 3.07902 18.3897 3.21967 18.5303C3.36032 18.671 3.55109 18.75 3.75 18.75H13.5C13.6989 18.75 13.8897 18.671 14.0303 18.5303C14.171 18.3897 14.25 18.1989 14.25 18C14.25 17.8011 14.171 17.6103 14.0303 17.4697C13.8897 17.329 13.6989 17.25 13.5 17.25Z"
          fill="#636A7C"/>
    <path d="M17.7504 18.1891L20.2198 15.7188C20.3605 15.5781 20.5514 15.499 20.7504 15.499C20.9494 15.499 21.1403 15.5781 21.281 15.7188C21.4218 15.8595 21.5008 16.0504 21.5008 16.2494C21.5008 16.4484 21.4218 16.6393 21.281 16.78L18.281 19.78C18.2114 19.8498 18.1287 19.9051 18.0376 19.9428C17.9466 19.9806 17.849 20 17.7504 20C17.6519 20 17.5543 19.9806 17.4632 19.9428C17.3722 19.9051 17.2894 19.8498 17.2198 19.78L15.7198 18.28C15.6501 18.2104 15.5948 18.1276 15.5571 18.0366C15.5194 17.9455 15.5 17.848 15.5 17.7494C15.5 17.6509 15.5194 17.5533 15.5571 17.4622C15.5948 17.3712 15.6501 17.2885 15.7198 17.2188C15.7895 17.1491 15.8722 17.0938 15.9632 17.0561C16.0543 17.0184 16.1519 16.999 16.2504 16.999C16.349 16.999 16.4465 17.0184 16.5376 17.0561C16.6286 17.0938 16.7114 17.1491 16.781 17.2188L17.7504 18.1891Z"
          fill="#636A7C"/>
</svg>
