<svg preserveAspectRatio="xMidYMid meet" viewBox="0 0 200 140" fill="none" xmlns="http://www.w3.org/2000/svg">
    <path d="M46.3163 1.59167C36.8427 2.10042 27.2703 4.87992 19.8788 10.8546C13.3936 16.0992 8.71651 24.3447 9.85745 32.6294C11.2043 42.4093 19.8933 49.5235 23.1163 58.8526C25.1902 64.85 24.8669 71.4678 23.5097 77.6721C22.6365 81.6697 21.2937 85.6714 18.7132 88.8397C14.065 94.5393 5.67673 97.2898 3.39278 104.29C0.909053 111.903 7.16779 119.369 13.0476 124.783C17.7411 129.103 22.6571 133.403 28.5719 135.771C32.8968 137.504 37.5903 138.126 42.2426 138.374C55.0896 139.051 67.9337 136.99 79.931 132.327C85.6789 130.087 91.2395 127.248 97.2552 125.898C110.075 123.019 123.266 127.169 136.26 129.113C147.398 130.775 158.716 130.808 169.864 129.213C176.878 128.208 184.126 126.394 189.408 121.654C194.763 116.841 197.44 109.392 197.144 102.175C196.847 94.957 193.816 88.0083 189.351 82.3418C183.584 75.0229 175.63 69.8154 168.711 63.5781C161.665 57.2236 155.671 49.7833 150.954 41.5366C148.235 36.78 145.923 31.7318 142.401 27.544C136.908 21.0171 128.942 17.1353 120.982 14.1366C102.62 7.22925 83.5742 5.82296 64.4293 2.77048C58.4466 1.81296 52.3773 1.27319 46.3163 1.59167Z"
          fill="#E5E5E5"/>
    <rect x="43.1367" y="77.418" width="39.4157" height="22.0684" fill="white"/>
    <path d="M50.5585 91.3262C52.8247 91.3262 54.6619 89.4855 54.6619 87.2149C54.6619 84.9442 52.8247 83.1035 50.5585 83.1035C48.2922 83.1035 46.4551 84.9442 46.4551 87.2149C46.4551 89.4855 48.2922 91.3262 50.5585 91.3262Z"
          fill="#CDCDCD"/>
    <rect x="59.6641" y="82.3418" width="17.8791" height="1.1271" fill="#CDCDCD"/>
    <rect x="59.6641" y="85.2148" width="9.1088" height="1.1271" fill="#CDCDCD"/>
    <rect x="59.6641" y="88.0859" width="14.7314" height="1.1271" fill="#CDCDCD"/>
    <rect x="59.6641" y="90.959" width="17.8791" height="1.1271" fill="#CDCDCD"/>
    <rect x="72.5977" y="95.1055" width="4.94761" height="2.17768" fill="#CDCDCD"/>
    <rect x="76.3203" y="16.4277" width="39.4157" height="22.0684" fill="white"/>
    <path d="M83.744 30.336C86.0103 30.336 87.8474 28.4952 87.8474 26.2246C87.8474 23.954 86.0103 22.1133 83.744 22.1133C81.4778 22.1133 79.6406 23.954 79.6406 26.2246C79.6406 28.4952 81.4778 30.336 83.744 30.336Z"
          fill="#CDCDCD"/>
    <rect x="92.8496" y="21.3516" width="17.8791" height="1.1271" fill="#CDCDCD"/>
    <rect x="92.8496" y="24.2227" width="9.1088" height="1.1271" fill="#CDCDCD"/>
    <rect x="92.8496" y="27.0957" width="14.7314" height="1.1271" fill="#CDCDCD"/>
    <rect x="92.8496" y="29.9707" width="17.8791" height="1.1271" fill="#CDCDCD"/>
    <rect x="105.779" y="34.1152" width="4.94761" height="2.17768" fill="#CDCDCD"/>
    <rect x="89.4414" y="53.4785" width="39.4157" height="22.0684" fill="white"/>
    <path d="M96.8612 67.3887C99.1275 67.3887 100.965 65.548 100.965 63.2774C100.965 61.0067 99.1275 59.166 96.8612 59.166C94.595 59.166 92.7578 61.0067 92.7578 63.2774C92.7578 65.548 94.595 67.3887 96.8612 67.3887Z"
          fill="#CDCDCD"/>
    <rect x="105.971" y="58.4062" width="17.8791" height="1.1271" fill="#CDCDCD"/>
    <rect x="105.971" y="61.2773" width="9.1088" height="1.1271" fill="#CDCDCD"/>
    <rect x="105.971" y="64.1523" width="14.7314" height="1.1271" fill="#CDCDCD"/>
    <rect x="105.971" y="67.0234" width="17.8791" height="1.1271" fill="#CDCDCD"/>
    <rect x="118.9" y="71.1699" width="4.94761" height="2.17768" fill="#CDCDCD"/>

    <rect x="29.5234" y="30.7383" width="65.0553" height="35.9207" fill="white"/>
    <path class="pos_svg_theme_color"
          d="M42.1509 53.0898C45.9082 53.0898 48.9541 50.038 48.9541 46.2734C48.9541 42.5088 45.9082 39.457 42.1509 39.457C38.3936 39.457 35.3477 42.5088 35.3477 46.2734C35.3477 50.038 38.3936 53.0898 42.1509 53.0898Z"
          fill="yellow"/>
    <rect x="57.25" y="38.1934" width="29.6444" height="1.86747" fill="#CDCDCD"/>
    <rect x="57.25" y="42.957" width="15.1008" height="1.86747" fill="#CDCDCD"/>
    <rect x="57.25" y="47.7207" width="24.4243" height="1.86747" fill="#CDCDCD"/>
    <rect x="57.25" y="52.4824" width="29.6444" height="1.86747" fill="#CDCDCD"/>
    <rect class="pos_svg_theme_color" x="78.7324" y="59.1406" width="8.34043" height="3.34146" fill="yellow"/>

    <rect x="76.2305" y="80.8594" width="62.5532" height="34.25" fill="white"/>
    <path class="pos_svg_theme_color"
          d="M88.012 102.436C91.5869 102.436 94.485 99.5322 94.485 95.9503C94.485 92.3685 91.5869 89.4648 88.012 89.4648C84.4371 89.4648 81.5391 92.3685 81.5391 95.9503C81.5391 99.5322 84.4371 102.436 88.012 102.436Z"
          fill="yellow"/>
    <rect x="102.379" y="88.2637" width="28.2016" height="1.77648" fill="#CDCDCD"/>
    <rect x="102.379" y="92.7949" width="14.366" height="1.77648" fill="#CDCDCD"/>
    <rect x="102.379" y="97.3281" width="23.2354" height="1.77648" fill="#CDCDCD"/>
    <rect x="102.379" y="101.857" width="28.2016" height="1.77648" fill="#CDCDCD"/>
    <rect class="pos_svg_theme_color" x="122.771" y="108.398" width="7.8043" height="3.43507" fill="yellow"/>

</svg>
