<svg preserveAspectRatio="xMidYMid meet" viewBox="0 0 200 140" fill="none" xmlns="http://www.w3.org/2000/svg">
<path opacity="0.1" d="M46.3163 1.59167C36.8427 2.10042 27.2703 4.87992 19.8788 10.8546C13.3936 16.0992 8.71651 24.3447 9.85745 32.6294C11.2043 42.4093 19.8933 49.5235 23.1163 58.8526C25.1902 64.85 24.8669 71.4678 23.5097 77.6721C22.6365 81.6697 21.2937 85.6714 18.7132 88.8397C14.065 94.5393 5.67673 97.2898 3.39278 104.29C0.909053 111.903 7.16779 119.369 13.0476 124.783C17.7411 129.103 22.6571 133.403 28.5719 135.771C32.8968 137.504 37.5903 138.126 42.2426 138.374C55.0896 139.051 67.9337 136.99 79.931 132.327C85.6789 130.087 91.2395 127.248 97.2552 125.898C110.075 123.019 123.266 127.169 136.26 129.113C147.398 130.775 158.716 130.808 169.864 129.213C176.878 128.208 184.126 126.394 189.408 121.654C194.763 116.841 197.44 109.392 197.144 102.175C196.847 94.957 193.816 88.0083 189.351 82.3418C183.584 75.0229 175.63 69.8154 168.711 63.5781C161.665 57.2236 155.671 49.7833 150.954 41.5366C148.235 36.78 145.923 31.7318 142.401 27.544C136.908 21.0171 128.942 17.1353 120.982 14.1366C102.62 7.22925 83.5742 5.82296 64.4293 2.77048C58.4466 1.81296 52.3773 1.27319 46.3163 1.59167Z" fill="#1134E3"/>
<g opacity="0.7">
<rect x="43.1377" y="77.4182" width="39.4157" height="22.0684" fill="#F6F7F9"/>
<g opacity="0.2">
<path d="M50.559 91.3266C52.8252 91.3266 54.6624 89.4858 54.6624 87.2152C54.6624 84.9446 52.8252 83.1039 50.559 83.1039C48.2927 83.1039 46.4556 84.9446 46.4556 87.2152C46.4556 89.4858 48.2927 91.3266 50.559 91.3266Z" fill="#1134E3"/>
</g>
<g opacity="0.2">
<rect x="59.6641" y="82.3433" width="17.8791" height="1.1271" fill="#1134E3"/>
</g>
<g opacity="0.2">
<rect x="59.6641" y="85.2161" width="9.1088" height="1.1271" fill="#1134E3"/>
</g>
<g opacity="0.2">
<rect x="59.6641" y="88.0873" width="14.7314" height="1.1271" fill="#1134E3"/>
</g>
<g opacity="0.2">
<rect x="59.6641" y="90.9598" width="17.8791" height="1.1271" fill="#1134E3"/>
</g>
<g opacity="0.2">
<rect x="72.5981" y="95.1069" width="4.94761" height="2.17768" fill="#1134E3"/>
</g>
<rect x="76.3223" y="16.4287" width="39.4157" height="22.0684" fill="#F6F7F9"/>
<g opacity="0.2">
<path d="M83.745 30.3364C86.0112 30.3364 87.8484 28.4957 87.8484 26.225C87.8484 23.9544 86.0112 22.1137 83.745 22.1137C81.4788 22.1137 79.6416 23.9544 79.6416 26.225C79.6416 28.4957 81.4788 30.3364 83.745 30.3364Z" fill="#1134E3"/>
</g>
<g opacity="0.2">
<rect x="92.8506" y="21.3533" width="17.8791" height="1.1271" fill="#1134E3"/>
</g>
<g opacity="0.2">
<rect x="92.8506" y="24.2244" width="9.1088" height="1.1271" fill="#1134E3"/>
</g>
<g opacity="0.2">
<rect x="92.8506" y="27.0975" width="14.7314" height="1.1271" fill="#1134E3"/>
</g>
<g opacity="0.2">
<rect x="92.8506" y="29.9725" width="17.8791" height="1.1271" fill="#1134E3"/>
</g>
<g opacity="0.2">
<rect x="105.78" y="34.1169" width="4.94761" height="2.17768" fill="#1134E3"/>
</g>
<rect x="89.4419" y="53.4799" width="39.4157" height="22.0684" fill="#F6F7F9"/>
<g opacity="0.2">
<path d="M96.8612 67.3901C99.1275 67.3901 100.965 65.5494 100.965 63.2788C100.965 61.0081 99.1275 59.1674 96.8612 59.1674C94.595 59.1674 92.7578 61.0081 92.7578 63.2788C92.7578 65.5494 94.595 67.3901 96.8612 67.3901Z" fill="#1134E3"/>
</g>
<g opacity="0.2">
<rect x="105.971" y="58.4072" width="17.8791" height="1.1271" fill="#1134E3"/>
</g>
<g opacity="0.2">
<rect x="105.971" y="61.2784" width="9.1088" height="1.1271" fill="#1134E3"/>
</g>
<g opacity="0.2">
<rect x="105.971" y="64.1528" width="14.7314" height="1.1271" fill="#1134E3"/>
</g>
<g opacity="0.2">
<rect x="105.971" y="67.0241" width="17.8791" height="1.1271" fill="#1134E3"/>
</g>
<g opacity="0.2">
<rect x="118.9" y="71.1704" width="4.94761" height="2.17768" fill="#1134E3"/>
</g>
</g>
<rect x="29.5234" y="29.0671" width="65.8894" height="37.5915" fill="url(#paint0_linear_5000_4499)"/>
<rect x="29.5234" y="30.7378" width="65.0553" height="35.9207" fill="#F6F7F9"/>
<g opacity="0.2">
<path d="M42.1504 53.0893C45.9077 53.0893 48.9536 50.0375 48.9536 46.2729C48.9536 42.5083 45.9077 39.4565 42.1504 39.4565C38.3931 39.4565 35.3472 42.5083 35.3472 46.2729C35.3472 50.0375 38.3931 53.0893 42.1504 53.0893Z" fill="#1134E3"/>
</g>
<g opacity="0.2">
<rect x="57.2495" y="38.1927" width="29.6444" height="1.86747" fill="#1134E3"/>
</g>
<g opacity="0.2">
<rect x="57.2495" y="42.9575" width="15.1008" height="1.86747" fill="#1134E3"/>
</g>
<g opacity="0.2">
<rect x="57.2495" y="47.7205" width="24.4243" height="1.86747" fill="#1134E3"/>
</g>
<g opacity="0.2">
<rect x="57.2495" y="52.4828" width="29.6444" height="1.86747" fill="#1134E3"/>
</g>
<rect x="78.7319" y="59.1403" width="8.34043" height="3.34146" fill="#1134E3"/>
<rect x="75.3955" y="80.8597" width="63.3872" height="35.0854" fill="url(#paint1_linear_5000_4499)"/>
<rect x="76.2295" y="80.8597" width="62.5532" height="34.25" fill="#F6F7F9"/>
<g opacity="0.2">
<path d="M88.012 102.435C91.5869 102.435 94.485 99.5318 94.485 95.95C94.485 92.3681 91.5869 89.4645 88.012 89.4645C84.4371 89.4645 81.5391 92.3681 81.5391 95.95C81.5391 99.5318 84.4371 102.435 88.012 102.435Z" fill="#1134E3"/>
</g>
<g opacity="0.2">
<rect x="102.378" y="88.2632" width="28.2016" height="1.77648" fill="#1134E3"/>
</g>
<g opacity="0.2">
<rect x="102.378" y="92.7958" width="14.366" height="1.77648" fill="#1134E3"/>
</g>
<g opacity="0.2">
<rect x="102.378" y="97.3278" width="23.2354" height="1.77648" fill="#1134E3"/>
</g>
<g opacity="0.2">
<rect x="102.378" y="101.858" width="28.2016" height="1.77648" fill="#1134E3"/>
</g>
<g opacity="0.5">
<rect x="122.771" y="108.398" width="7.8043" height="3.43507" fill="#1134E3"/>
</g>
<defs>
<linearGradient id="paint0_linear_5000_4499" x1="95.4118" y1="66.6585" x2="95.4118" y2="29.0671" gradientUnits="userSpaceOnUse">
<stop stop-color="#808080" stop-opacity="0.25"/>
<stop offset="0.54" stop-color="#808080" stop-opacity="0.12"/>
<stop offset="1" stop-color="#808080" stop-opacity="0.1"/>
</linearGradient>
<linearGradient id="paint1_linear_5000_4499" x1="138.783" y1="115.945" x2="138.783" y2="80.8597" gradientUnits="userSpaceOnUse">
<stop stop-color="#808080" stop-opacity="0.25"/>
<stop offset="0.54" stop-color="#808080" stop-opacity="0.12"/>
<stop offset="1" stop-color="#808080" stop-opacity="0.1"/>
</linearGradient>
</defs>
</svg>
