<svg preserveAspectRatio="xMidYMid meet" viewBox="0 0 388 211" fill="none" xmlns="http://www.w3.org/2000/svg">
    <path d="M139.62 156.364C139.592 165.215 138.992 174.055 137.825 182.83C137.785 183.138 137.74 183.446 137.699 183.754H54.7445C54.4992 183.45 54.2578 183.141 54.0238 182.83C53.2435 181.798 52.5117 180.736 51.8392 179.637C48.6069 174.343 47.1059 168.132 48.5512 163.833L48.5771 163.767C48.889 162.825 49.384 161.955 50.0335 161.205C53.3624 157.418 60.1391 158.009 66.3026 161.016C60.7559 155.017 56.3235 147.432 55.952 140.642C55.5879 134.019 59.0281 129.268 62.7657 125.225C62.8883 125.091 63.011 124.961 63.1336 124.831C63.1931 124.764 63.2562 124.701 63.3156 124.635C66.2321 121.553 69.6353 118.513 74.5878 118.851C80.0194 119.222 86.0643 123.732 90.3146 129.004C94.5648 134.272 97.4032 140.267 100.279 146.118C103.158 151.965 106.272 157.96 110.867 162.946C104.637 155.161 99.5989 146.292 97.7079 137.65C95.8169 129.008 97.3921 120.688 102.883 116.582C104.55 115.374 106.483 114.582 108.519 114.273C108.757 114.232 108.999 114.199 109.244 114.169C114.345 113.561 120.449 115.291 125.658 119.478C131.394 124.089 135.392 130.949 137.398 137.472C139.404 143.995 139.65 150.283 139.62 156.364Z"
          fill="#EEEEEE"/>
    <path d="M85.5006 183.754H83.9143C83.4089 183.443 82.9011 183.134 82.391 182.83C82.0752 182.633 81.7557 182.444 81.4361 182.251C76.1567 179.069 70.8451 176.019 65.5014 173.1C60.1625 170.178 54.7976 167.393 49.4067 164.743C49.2639 164.682 49.147 164.573 49.0764 164.435C49.0058 164.296 48.986 164.138 49.0203 163.986C49.026 163.966 49.0348 163.947 49.0465 163.93C49.1207 163.789 49.2879 163.73 49.5332 163.849C50.1944 164.175 50.8595 164.502 51.5207 164.836C56.9265 167.531 62.31 170.363 67.6711 173.33C73.0285 176.296 78.3562 179.395 83.6542 182.626C83.7656 182.693 83.8771 182.763 83.9885 182.83C84.4937 183.138 84.9953 183.446 85.5006 183.754Z"
          fill="white"/>
    <path d="M105.952 183.754H104.972C104.749 183.445 104.529 183.137 104.307 182.829C99.0681 175.575 93.8308 168.321 88.5946 161.067C80.0198 149.191 71.4474 137.316 62.8776 125.44C62.8269 125.376 62.789 125.303 62.7661 125.224C62.6919 124.961 62.8851 124.805 63.134 124.831C63.2389 124.845 63.3396 124.882 63.4293 124.938C63.519 124.995 63.5956 125.069 63.6541 125.158C68.4616 131.818 73.2679 138.475 78.073 145.13C86.6033 156.947 95.1323 168.762 103.66 180.576C104.203 181.326 104.745 182.079 105.287 182.829C105.51 183.137 105.733 183.445 105.952 183.754Z"
          fill="white"/>
    <path d="M127.773 177.939C127.732 179.591 127.632 181.217 127.498 182.829C127.472 183.137 127.446 183.445 127.42 183.753H126.391C126.42 183.445 126.45 183.137 126.476 182.829C126.681 180.501 126.822 178.147 126.829 175.731C126.819 169.03 126.128 162.349 124.767 155.788C123.32 148.724 121.26 141.799 118.611 135.091C115.83 128.017 112.487 121.177 108.613 114.636C108.54 114.53 108.507 114.401 108.52 114.272C108.561 113.979 108.951 113.89 109.245 114.168C109.303 114.223 109.353 114.286 109.393 114.354C109.873 115.167 110.343 115.983 110.805 116.8C114.538 123.379 117.739 130.243 120.379 137.33C122.894 144.06 124.817 150.996 126.127 158.06C127.353 164.613 127.905 171.274 127.773 177.939Z"
          fill="white"/>
    <path d="M336.757 25H111.24C110.381 25.0008 109.557 25.3421 108.95 25.949C108.342 26.556 108.001 27.3789 108 28.2372V180.934C108.001 181.792 108.342 182.615 108.95 183.222C109.557 183.829 110.381 184.171 111.24 184.171H336.757C337.225 184.171 337.688 184.07 338.113 183.874C338.538 183.678 338.916 183.392 339.22 183.035C339.246 183.007 339.269 182.978 339.291 182.946C339.484 182.71 339.64 182.446 339.755 182.163C339.918 181.774 340.001 181.356 340 180.934V28.2372C339.999 27.3783 339.657 26.5549 339.049 25.9479C338.441 25.3409 337.616 25 336.757 25ZM339.075 180.934C339.075 181.386 338.942 181.828 338.692 182.204C338.47 182.535 338.169 182.806 337.815 182.991C337.488 183.16 337.125 183.248 336.757 183.247H111.24C110.626 183.246 110.038 183.002 109.604 182.569C109.17 182.135 108.926 181.547 108.925 180.934V28.2372C108.926 27.624 109.17 27.0362 109.604 26.6026C110.038 26.169 110.626 25.9251 111.24 25.9244H336.757C337.371 25.9243 337.96 26.1678 338.395 26.6015C338.829 27.0351 339.074 27.6234 339.075 28.2372V180.934Z"
          fill="#9095A3"/>
    <path d="M339.535 37.9766H108.461V38.902H339.535V37.9766Z" fill="#9095A3"/>
    <path d="M116.333 34.7166C117.868 34.7166 119.112 33.4736 119.112 31.9403C119.112 30.407 117.868 29.1641 116.333 29.1641C114.799 29.1641 113.555 30.407 113.555 31.9403C113.555 33.4736 114.799 34.7166 116.333 34.7166Z"
          fill="#9095A3"/>
    <path d="M124.321 34.7166C125.856 34.7166 127.1 33.4736 127.1 31.9403C127.1 30.407 125.856 29.1641 124.321 29.1641C122.787 29.1641 121.543 30.407 121.543 31.9403C121.543 33.4736 122.787 34.7166 124.321 34.7166Z"
          fill="#9095A3"/>
    <path d="M132.31 34.7166C133.844 34.7166 135.088 33.4736 135.088 31.9403C135.088 30.407 133.844 29.1641 132.31 29.1641C130.775 29.1641 129.531 30.407 129.531 31.9403C129.531 33.4736 130.775 34.7166 132.31 34.7166Z"
          fill="#9095A3"/>
    <path d="M210.904 116.648C208.125 114.841 206.743 110.64 207.424 106.799C208.104 102.957 210.669 99.6484 213.742 98.2215C215.238 97.5481 216.877 97.2564 218.513 97.3726C220.149 97.4888 221.73 98.0092 223.115 98.8872C225.934 100.609 229.921 101.553 231.259 104.999C232.288 107.647 230.983 113.024 229.599 115.596C228.402 117.819 226.128 118.836 223.992 119.278C221.628 119.759 219.189 119.728 216.838 119.186C214.488 118.644 212.282 117.604 210.368 116.137L210.904 116.648Z"
          fill="#202939"/>
    <path d="M209.455 137.051L207.234 140.878L206.94 141.383L206.513 142.126H199.963L200.405 141.383L201.549 139.456L204.217 134.957L207.237 136.164L209.455 137.051Z"
          fill="#FFB8B8"/>
    <path d="M199.472 142.124L198.276 141.382L198.127 141.289L205.636 127.616C205.958 127.025 206.396 126.503 206.922 126.081C207.448 125.659 208.052 125.346 208.701 125.159C209.519 124.915 210.386 124.883 211.22 125.066C211.706 125.169 212.175 125.344 212.609 125.586C212.788 125.684 212.96 125.793 213.126 125.912C213.76 126.357 214.282 126.945 214.649 127.628C215.085 128.427 215.301 129.328 215.273 130.238C215.246 131.148 214.976 132.035 214.493 132.806L211.599 137.428L209.124 141.382L208.66 142.124H199.472Z"
          fill="#202939"/>
    <path d="M218.764 121.502C223.803 121.502 227.889 117.419 227.889 112.384C227.889 107.348 223.803 103.266 218.764 103.266C213.724 103.266 209.639 107.348 209.639 112.384C209.639 117.419 213.724 121.502 218.764 121.502Z"
          fill="#FFB8B8"/>
    <path
            class="pos_svg_theme_color"
            d="M227.924 142.126H207.412L207.505 141.862C207.453 141.703 207.404 141.543 207.36 141.383C207.311 141.216 207.27 141.046 207.233 140.879C206.9 139.325 206.901 137.717 207.237 136.164C208.37 130.603 212.892 126.085 212.892 126.085C212.97 126.025 213.048 125.97 213.126 125.914C213.798 125.422 214.528 125.013 215.299 124.696C218.658 123.304 222.18 123.865 224.546 124.585C225.371 124.834 226.176 125.14 226.958 125.502C227.233 125.632 227.381 125.714 227.381 125.714L227.615 132.845L227.898 141.383L227.924 142.126Z"
            fill="yellow"
    />
    <path d="M237.413 141.384L235.845 133.417L234.262 125.384C234.196 125.052 234.032 124.748 233.79 124.511C233.548 124.275 233.24 124.117 232.906 124.059L229.592 123.487L226.509 122.956C226.211 122.902 225.905 122.931 225.623 123.039C225.34 123.147 225.093 123.33 224.907 123.568C224.676 123.857 224.549 124.216 224.547 124.586C224.547 124.814 224.594 125.04 224.684 125.25C226.293 129 226.323 134.936 225.914 141.384C225.896 141.629 225.881 141.878 225.862 142.127H237.562L237.413 141.384Z"
          fill="#202939"/>
    <path d="M215.299 124.695C215.231 124.425 215.096 124.176 214.908 123.971C214.719 123.765 214.483 123.61 214.219 123.519C213.956 123.427 213.674 123.403 213.399 123.448C213.123 123.492 212.864 123.605 212.643 123.774L211.22 125.066L205.394 130.368C205.212 130.53 205.07 130.732 204.978 130.958C204.32 132.528 203.039 135.628 201.549 139.455C201.307 140.079 201.058 140.721 200.802 141.382C200.713 141.627 200.616 141.876 200.52 142.125H210.12C210.198 141.876 210.276 141.627 210.354 141.382C210.781 140.035 211.197 138.713 211.599 137.429C212.772 133.698 213.831 130.308 214.649 127.628C214.875 126.885 215.082 126.2 215.269 125.571C215.357 125.287 215.367 124.985 215.299 124.695Z"
          fill="#202939"/>
    <path d="M239.568 142.126H240.189L240.103 141.918L239.877 141.383L236.381 133.094L235.846 133.417L231.551 136.012L233.754 141.383L234.059 142.126H237.562H239.568Z"
          fill="#FFB8B8"/>
    <path d="M236.024 126.519C235.551 125.281 234.617 124.275 233.419 123.71C232.22 123.144 230.849 123.064 229.593 123.486C229.432 123.539 229.275 123.601 229.121 123.671C228.241 124.064 227.491 124.698 226.959 125.501C226.742 125.822 226.563 126.167 226.427 126.53C226.186 127.159 226.072 127.83 226.092 128.503C226.112 129.177 226.265 129.84 226.543 130.454L227.616 132.844L231.458 141.383L231.792 142.125H239.568L240.103 141.917L241.493 141.383L241.686 141.309L236.024 126.519Z"
          fill="#202939"/>
    <path d="M225.93 101.911C226.249 102.007 226.589 101.994 226.9 101.877C227.21 101.759 227.473 101.542 227.648 101.26C227.813 100.973 227.911 100.651 227.932 100.32C227.954 99.989 227.9 99.6575 227.773 99.3508C227.514 98.7385 227.106 98.2006 226.586 97.7862C225.996 97.2521 225.277 96.8801 224.499 96.7065C224.111 96.623 223.709 96.6239 223.321 96.7091C222.933 96.7944 222.568 96.9619 222.25 97.2004C221.939 97.4469 221.708 97.7807 221.587 98.1592C221.466 98.5376 221.461 98.9435 221.572 99.3248C221.808 100.01 222.448 100.468 223.087 100.81C224.356 101.486 225.754 101.884 227.188 101.975L225.93 101.911Z"
          fill="#202939"/>
    <path d="M227.706 112.108C226.239 112.31 226.428 111.564 225.84 110.206C225.252 108.847 224.466 107.235 222.991 107.097C221.783 106.985 220.788 107.95 219.809 108.667C218.064 109.944 215.712 110.569 213.69 109.803C211.667 109.037 210.262 106.628 211.029 104.607C211.268 104.049 211.619 103.546 212.06 103.129C212.502 102.712 213.024 102.39 213.595 102.183C214.741 101.776 215.957 101.608 217.17 101.687C219.868 101.773 222.514 102.45 224.922 103.67C226.583 104.513 228.201 105.72 228.831 107.473C229.461 109.225 229.876 111.688 228.074 112.162L227.706 112.108Z"
          fill="#202939"/>
    <path d="M225.181 97.0881C224.455 95.8269 225.054 94.0963 226.24 93.2536C227.427 92.4109 229.018 92.3282 230.434 92.6662C231.835 93.0187 233.117 93.7328 234.154 94.7369C235.191 95.7411 235.945 97 236.342 98.3875C236.942 100.593 236.585 102.962 237.094 105.191C237.365 106.379 237.877 107.499 238.598 108.481C239.319 109.464 240.233 110.289 241.285 110.906C242.337 111.522 243.504 111.917 244.714 112.066C245.924 112.215 247.152 112.114 248.323 111.771C249.847 111.324 251.395 110.237 251.545 108.657C251.703 110.471 251.289 112.289 250.361 113.857C249.433 115.424 248.038 116.663 246.371 117.399C244.407 118.217 242.217 118.271 240.09 118.216C238.704 118.18 237.286 118.097 236.008 117.561C235.123 117.158 234.328 116.583 233.668 115.868C233.009 115.154 232.499 114.316 232.169 113.402C231.518 111.566 231.342 109.594 231.658 107.672C231.867 106.176 232.283 104.711 232.399 103.205C232.516 101.7 232.295 100.092 231.366 98.9011C230.437 97.71 228.663 97.1016 227.342 97.8356C226.812 98.1306 226.383 98.6125 225.807 98.8029C225.23 98.9932 224.413 98.6587 224.465 98.0541L225.181 97.0881Z"
          fill="#202939"/>
    <path
            class="pos_svg_theme_color"
            d="M287.449 142.127L287.52 141.385L289.615 119.601C290.302 119.063 291.04 118.595 291.818 118.201C296.132 116.03 300.293 117.069 302.544 117.967C303.141 118.201 303.718 118.483 304.268 118.81L305.494 141.385L305.535 142.127H287.449Z"
            fill="yellow"
    />
    <path d="M297.262 113.802C302.301 113.802 306.387 109.72 306.387 104.684C306.387 99.6487 302.301 95.5664 297.262 95.5664C292.222 95.5664 288.137 99.6487 288.137 104.684C288.137 109.72 292.222 113.802 297.262 113.802Z"
          fill="#FFB8B8"/>
    <path d="M304.668 110.243C305.346 109.529 305.796 108.629 305.961 107.658C306.126 106.687 305.999 105.689 305.595 104.791C305.191 103.893 304.528 103.136 303.692 102.615C302.856 102.094 301.883 101.833 300.899 101.866C299.637 101.908 298.448 102.424 297.243 102.803C295.418 103.423 293.471 103.599 291.565 103.314C289.647 103.016 287.916 101.995 286.729 100.461C285.6 98.9104 285.248 96.7598 286.045 95.0158C286.966 93.0025 289.117 91.8931 291.14 90.9917C291.956 90.5835 292.828 90.2973 293.727 90.1424C294.178 90.0677 294.639 90.0867 295.081 90.1982C295.524 90.3097 295.939 90.5114 296.3 90.7906C296.869 91.2793 297.202 92.0138 297.821 92.4373C298.517 92.914 299.422 92.9014 300.262 92.9855C302.154 93.1747 303.944 93.9351 305.393 95.1654C306.842 96.3958 307.882 98.0378 308.374 99.8731C308.867 101.708 308.788 103.65 308.149 105.44C307.51 107.229 306.341 108.782 304.798 109.892L304.668 110.243Z"
          fill="#202939"/>
    <path d="M293.178 121.972L291.819 118.2L291.734 117.965C291.694 117.854 291.629 117.753 291.544 117.67C291.459 117.588 291.356 117.526 291.243 117.488C291.131 117.451 291.011 117.44 290.893 117.456C290.776 117.472 290.664 117.515 290.565 117.58L289.021 118.609C289.021 118.609 279.12 118.609 278.325 124.545C278.314 124.638 278.299 124.742 278.288 124.853C278.287 124.858 278.286 124.863 278.284 124.868C278.184 125.258 276.315 132.474 274.71 141.384C274.665 141.629 274.621 141.878 274.576 142.127H296.091C296.791 133.176 296.4 124.855 293.178 121.972Z"
          fill="#202939"/>
    <path d="M318.844 141.384C317.67 132.244 315.991 124.852 315.991 124.852C315.976 124.741 315.961 124.637 315.95 124.544C315.158 118.608 305.257 118.608 305.257 118.608L303.714 117.58C303.615 117.515 303.503 117.472 303.385 117.456C303.268 117.44 303.148 117.451 303.035 117.489C302.923 117.526 302.82 117.588 302.735 117.671C302.65 117.753 302.585 117.854 302.545 117.966L301.1 121.972C297.878 124.854 297.487 133.176 298.187 142.126L318.937 142.126C318.907 141.877 318.873 141.629 318.844 141.384Z"
          fill="#202939"/>
    <path
            class="pos_svg_theme_color"
            d="M144.568 120.573L142.361 141.385L142.283 142.127H136.312C136.383 141.886 136.454 141.637 136.528 141.385C138.222 135.579 140.529 127.103 140.28 124.857C139.89 121.353 142.621 120.184 142.621 120.184L142.792 120.217L144.568 120.573Z"
            fill="yellow"
    />
    <path d="M154.197 114.146C159.237 114.146 163.322 110.064 163.322 105.028C163.322 99.9924 159.237 95.9102 154.197 95.9102C149.158 95.9102 145.072 99.9924 145.072 105.028C145.072 110.064 149.158 114.146 154.197 114.146Z"
          fill="#A0616A"/>
    <path
            class="pos_svg_theme_color"
            d="M166.009 137.708C165.549 138.556 165.172 139.446 164.883 140.366C164.776 140.693 164.672 141.035 164.575 141.384C164.504 141.625 164.441 141.874 164.378 142.126H140.311C140.344 141.881 140.374 141.632 140.407 141.384C141.637 131.676 142.633 121.823 142.792 120.216C142.807 120.063 142.815 119.985 142.815 119.985C157.237 112.39 167.763 122.324 167.763 122.324C167.763 122.324 167.778 122.395 167.8 122.532C168.03 123.921 169.204 132.028 166.009 137.708Z"
            fill="yellow"
    />
    <path
            class="pos_svg_theme_color"
            d="M164.882 140.364L163.277 136.926L163.667 123.295L167.799 122.53L167.944 122.504C170.079 123.744 171.732 125.67 172.632 127.968C173.435 129.973 174.962 136.002 176.251 141.381C176.311 141.63 176.37 141.879 176.429 142.124H165.703L165.358 141.381L164.882 140.364Z"
            fill="yellow"
    />
    <path d="M179.563 80.8711H126.798C125.666 80.8724 124.581 81.3223 123.781 82.1219C122.981 82.9216 122.531 84.0057 122.529 85.1366V137.86C122.531 138.99 122.981 140.075 123.781 140.874C124.581 141.674 125.666 142.124 126.798 142.125H179.563C180.694 142.124 181.78 141.675 182.58 140.875C183.381 140.075 183.831 138.991 183.831 137.86V85.1366C183.831 84.0056 183.381 82.921 182.58 82.1213C181.78 81.3215 180.694 80.8718 179.563 80.8711ZM183.088 137.86C183.087 138.794 182.716 139.689 182.055 140.35C181.394 141.01 180.497 141.382 179.563 141.383H126.798C125.864 141.381 124.968 141.01 124.307 140.349C123.646 139.689 123.274 138.794 123.272 137.86V85.1366C123.274 84.2027 123.646 83.3074 124.307 82.647C124.968 81.9866 125.864 81.615 126.798 81.6136H179.563C180.497 81.6144 181.394 81.9858 182.055 82.6463C182.716 83.3069 183.087 84.2025 183.088 85.1366V137.86ZM142.361 141.383L142.283 142.125H164.378C164.441 141.873 164.504 141.624 164.575 141.383H142.361Z"
          fill="#9095A3"/>
    <path d="M250.379 80.8711H197.615C196.483 80.8724 195.398 81.3223 194.598 82.1219C193.797 82.9216 193.347 84.0057 193.346 85.1366V137.86C193.347 138.99 193.797 140.075 194.598 140.874C195.398 141.674 196.483 142.124 197.615 142.125H250.379C251.511 142.124 252.596 141.675 253.397 140.875C254.197 140.075 254.647 138.991 254.648 137.86V85.1366C254.647 84.0056 254.197 82.921 253.397 82.1213C252.596 81.3215 251.511 80.8718 250.379 80.8711ZM253.905 137.86C253.904 138.794 253.532 139.689 252.871 140.35C252.21 141.01 251.314 141.382 250.379 141.383H197.615C196.68 141.381 195.784 141.01 195.123 140.349C194.462 139.689 194.09 138.794 194.089 137.86V85.1366C194.09 84.2027 194.462 83.3074 195.123 82.647C195.784 81.9866 196.68 81.615 197.615 81.6136H250.379C251.314 81.6144 252.21 81.9858 252.871 82.6463C253.532 83.3069 253.904 84.2025 253.905 85.1366V137.86ZM207.36 141.383C207.404 141.542 207.453 141.702 207.505 141.862L207.412 142.125H225.862C225.88 141.876 225.895 141.628 225.914 141.383H207.36Z"
          fill="#9095A3"/>
    <path d="M321.199 80.8711H268.435C267.303 80.8718 266.218 81.3214 265.417 82.1212C264.617 82.921 264.167 84.0055 264.166 85.1366V137.86C264.167 138.991 264.617 140.075 265.417 140.875C266.218 141.675 267.303 142.124 268.435 142.125H321.199C322.331 142.124 323.416 141.674 324.216 140.874C325.016 140.075 325.467 138.99 325.468 137.86V85.1366C325.467 84.0058 325.016 82.9216 324.216 82.122C323.416 81.3223 322.331 80.8725 321.199 80.8711ZM324.725 137.86C324.724 138.794 324.352 139.689 323.691 140.349C323.03 141.01 322.134 141.381 321.199 141.383H268.435C267.5 141.382 266.604 141.01 265.943 140.35C265.282 139.689 264.91 138.794 264.909 137.86V85.1366C264.91 84.2025 265.282 83.3068 265.943 82.6463C266.604 81.9858 267.5 81.6143 268.435 81.6136H321.199C322.134 81.615 323.03 81.9866 323.691 82.647C324.352 83.3074 324.724 84.2027 324.725 85.1366V137.86ZM296.147 141.383C296.129 141.628 296.11 141.876 296.091 142.125H312.1C312.13 141.88 312.164 141.631 312.193 141.383H296.147Z"
          fill="#9095A3"/>
    <path d="M285.301 163.659H162.697C161.909 163.659 161.153 163.346 160.595 162.789C160.038 162.232 159.725 161.476 159.725 160.689C159.725 159.901 160.038 159.146 160.595 158.589C161.153 158.032 161.909 157.719 162.697 157.719H285.301C286.089 157.719 286.845 158.032 287.402 158.589C287.96 159.146 288.273 159.901 288.273 160.689C288.273 161.476 287.96 162.232 287.402 162.789C286.845 163.346 286.089 163.659 285.301 163.659Z"
          fill="#EEEEEE"/>
    <path
            class="pos_svg_theme_color"
            d="M250.933 65.2796H197.062C196.274 65.2796 195.518 64.9667 194.96 64.4098C194.403 63.8528 194.09 63.0974 194.09 62.3097C194.09 61.5221 194.403 60.7667 194.96 60.2097C195.518 59.6528 196.274 59.3398 197.062 59.3398H250.933C251.722 59.3398 252.478 59.6528 253.035 60.2097C253.593 60.7667 253.906 61.5221 253.906 62.3097C253.906 63.0974 253.593 63.8528 253.035 64.4098C252.478 64.9667 251.722 65.2796 250.933 65.2796Z"
            fill="yellow"
    />
    <path d="M158.562 112.975C158.871 113.279 159.279 113.462 159.712 113.49C160.145 113.518 160.574 113.388 160.919 113.126C163.07 111.533 164.958 109.55 166.075 107.131C167.356 104.36 167.498 100.959 165.955 98.3256C164.65 96.099 162.346 94.6622 160.049 93.4824C159.157 92.9795 158.197 92.6096 157.198 92.3844C156.188 92.1619 155.132 92.3322 154.244 92.8607C153.809 93.133 153.467 93.5297 153.261 93.9993C153.056 94.4689 152.997 94.9895 153.092 95.4931C151.989 94.2355 150.576 93.2877 148.993 92.7439C147.997 92.3543 146.905 92.2752 145.863 92.5171C144.406 92.9302 143.342 94.224 142.76 95.6215C142.289 96.6845 142.127 97.8582 142.291 99.009C142.377 99.5816 142.583 100.13 142.894 100.618C143.206 101.106 143.617 101.524 144.1 101.843C145.305 102.588 146.842 102.534 148.226 102.23C149.61 101.926 150.949 101.396 152.36 101.263C153.77 101.129 155.341 101.48 156.2 102.607C156.804 103.4 156.959 104.436 157.095 105.424L157.801 110.561C157.859 111.305 158.049 112.032 158.362 112.708C158.416 112.806 158.483 112.895 158.562 112.975Z"
          fill="#202939"/>
</svg>
