<svg preserveAspectRatio="xMidYMid meet" viewBox="0 0 292 164" fill="none" xmlns="http://www.w3.org/2000/svg">
<g clip-path="url(#clip0_4991_27662)">
<path d="M91.6199 132.864C91.5917 141.715 90.9923 150.555 89.8254 159.33C89.7846 159.638 89.74 159.946 89.699 160.254H6.74451C6.49924 159.95 6.25779 159.641 6.02377 159.33C5.24353 158.298 4.51172 157.236 3.83923 156.137C0.606874 150.843 -0.89411 144.632 0.551183 140.333L0.577124 140.267C0.889033 139.325 1.38396 138.455 2.03348 137.705C5.36236 133.918 12.1391 134.509 18.3026 137.516C12.7559 131.517 8.32348 123.932 7.95195 117.142C7.58785 110.519 11.0281 105.768 14.7657 101.725C14.8883 101.591 15.011 101.461 15.1336 101.331C15.1931 101.264 15.2562 101.201 15.3156 101.135C18.2321 98.0533 21.6353 95.0128 26.5878 95.3507C32.0194 95.7219 38.0643 100.232 42.3146 105.504C46.5648 110.772 49.4032 116.767 52.2789 122.618C55.1582 128.465 58.2716 134.46 62.8674 139.446C56.6369 131.661 51.5989 122.792 49.7079 114.15C47.8169 105.508 49.3921 97.1883 54.8832 93.0824C56.5504 91.8741 58.4831 91.0823 60.5194 90.7733C60.7571 90.7325 60.9985 90.6991 61.2438 90.6694C66.3448 90.0606 72.4491 91.7905 77.6579 95.9781C83.3943 100.589 87.3918 107.449 89.3982 113.972C91.4044 120.495 91.6495 126.783 91.6199 132.864Z" fill="#9DAEEB"/>
<path d="M37.4996 160.254H35.9133C35.4079 159.943 34.9002 159.634 34.39 159.33C34.0742 159.133 33.7547 158.944 33.4351 158.751C28.1557 155.569 22.8442 152.519 17.5004 149.6C12.1615 146.678 6.79665 143.893 1.40576 141.243C1.26292 141.182 1.14604 141.073 1.07546 140.935C1.00487 140.796 0.985022 140.638 1.01937 140.486C1.02501 140.466 1.03383 140.447 1.04549 140.43C1.11968 140.289 1.28695 140.23 1.5322 140.349C2.19344 140.675 2.85849 141.002 3.51972 141.336C8.92556 144.031 14.309 146.863 19.6701 149.83C25.0275 152.796 30.3552 155.895 35.6532 159.126C35.7646 159.193 35.8761 159.263 35.9875 159.33C36.4927 159.638 36.9944 159.946 37.4996 160.254Z" fill="#1134E3" fill-opacity="0.1"/>
<path d="M57.9522 160.254H56.9713C56.7484 159.945 56.5292 159.637 56.3063 159.329C51.0679 152.075 45.8306 144.821 40.5944 137.567C32.0195 125.691 23.4472 113.816 14.8774 101.94C14.8266 101.876 14.7887 101.803 14.7658 101.724C14.6916 101.461 14.8848 101.305 15.1337 101.331C15.2387 101.345 15.3393 101.382 15.429 101.438C15.5187 101.495 15.5953 101.569 15.6538 101.658C20.4614 108.318 25.2677 114.975 30.0728 121.63C38.6031 133.447 47.1321 145.262 55.6599 157.076C56.2024 157.826 56.7448 158.579 57.2872 159.329C57.5101 159.637 57.733 159.945 57.9522 160.254Z" fill="#1134E3" fill-opacity="0.1"/>
<path d="M79.7721 154.439C79.7312 156.091 79.6309 157.717 79.497 159.329C79.4711 159.637 79.4451 159.945 79.419 160.253H78.3899C78.4196 159.945 78.4494 159.637 78.4753 159.329C78.6798 157.001 78.8209 154.647 78.8284 152.231C78.8183 145.53 78.1274 138.849 76.7665 132.288C75.3193 125.224 73.2594 118.299 70.6101 111.591C67.8294 104.517 64.4861 97.677 60.6125 91.1362C60.5396 91.0296 60.5067 90.9008 60.5196 90.7724C60.5604 90.4791 60.9504 90.39 61.244 90.6684C61.3019 90.7231 61.3519 90.7855 61.3925 90.8541C61.8718 91.6671 62.3424 92.4825 62.8044 93.3005C66.5368 99.8785 69.7384 106.743 72.3787 113.83C74.8935 120.56 76.8166 127.496 78.1261 134.56C79.3524 141.113 79.9039 147.774 79.7721 154.439Z" fill="#1134E3" fill-opacity="0.1"/>
<path d="M288.757 1.5H63.2396C62.3806 1.50078 61.5571 1.8421 60.9497 2.44903C60.3423 3.05595 60.0008 3.87888 60 4.73718V157.434C60.0008 158.292 60.3423 159.115 60.9497 159.722C61.5571 160.329 62.3806 160.671 63.2396 160.671H288.757C289.225 160.671 289.688 160.57 290.113 160.374C290.538 160.178 290.916 159.892 291.22 159.535C291.246 159.507 291.269 159.478 291.291 159.446C291.484 159.21 291.64 158.946 291.755 158.663C291.918 158.274 292.001 157.856 292 157.434V4.73721C291.999 3.87829 291.657 3.05488 291.049 2.44788C290.441 1.84089 289.616 1.49995 288.757 1.5ZM291.075 157.434C291.075 157.886 290.942 158.328 290.692 158.704C290.47 159.035 290.169 159.306 289.815 159.491C289.488 159.66 289.125 159.748 288.757 159.747H63.2396C62.626 159.746 62.0377 159.502 61.6038 159.069C61.1698 158.635 60.9257 158.047 60.925 157.434V4.73721C60.9257 4.12404 61.1698 3.53619 61.6038 3.10261C62.0377 2.66903 62.626 2.42512 63.2396 2.42438H288.757C289.371 2.4243 289.96 2.66783 290.395 3.10148C290.829 3.53513 291.074 4.12344 291.075 4.73721V157.434Z" fill="#3F3D56"/>
<path d="M291.535 14.4766H60.4617V15.402H291.535V14.4766Z" fill="#3F3D56"/>
<path d="M68.3339 11.2166C69.8684 11.2166 71.1123 9.97362 71.1123 8.44033C71.1123 6.90704 69.8684 5.66406 68.3339 5.66406C66.7994 5.66406 65.5554 6.90704 65.5554 8.44033C65.5554 9.97362 66.7994 11.2166 68.3339 11.2166Z" fill="#3F3D56"/>
<path d="M76.3219 11.2166C77.8564 11.2166 79.1003 9.97362 79.1003 8.44033C79.1003 6.90704 77.8564 5.66406 76.3219 5.66406C74.7874 5.66406 73.5435 6.90704 73.5435 8.44033C73.5435 9.97362 74.7874 11.2166 76.3219 11.2166Z" fill="#3F3D56"/>
<path d="M84.3099 11.2166C85.8444 11.2166 87.0884 9.97362 87.0884 8.44033C87.0884 6.90704 85.8444 5.66406 84.3099 5.66406C82.7754 5.66406 81.5315 6.90704 81.5315 8.44033C81.5315 9.97362 82.7754 11.2166 84.3099 11.2166Z" fill="#3F3D56"/>
<path d="M162.904 93.1481C160.126 91.3408 158.743 87.1402 159.424 83.2987C160.105 79.4572 162.669 76.1484 165.743 74.7215C167.238 74.0481 168.878 73.7564 170.514 73.8726C172.15 73.9888 173.731 74.5092 175.116 75.3872C177.935 77.1095 181.921 78.0528 183.26 81.4987C184.289 84.1467 182.984 89.5239 181.599 92.0959C180.403 94.3189 178.129 95.3358 175.993 95.7776C173.629 96.2592 171.19 96.2281 168.839 95.6862C166.489 95.1443 164.282 94.1043 162.369 92.6367L162.904 93.1481Z" fill="#2F2E41"/>
<path d="M161.455 113.551L159.233 117.378L158.94 117.883L158.513 118.626H151.963L152.405 117.883L153.549 115.956L156.217 111.457L159.237 112.664L161.455 113.551Z" fill="#FFB8B8"/>
<path d="M151.472 118.624L150.276 117.882L150.127 117.789L157.636 104.116C157.959 103.525 158.396 103.003 158.922 102.581C159.448 102.159 160.053 101.846 160.701 101.659C161.519 101.415 162.386 101.383 163.22 101.566C163.706 101.669 164.175 101.844 164.609 102.086C164.788 102.184 164.961 102.293 165.126 102.412C165.761 102.857 166.282 103.445 166.649 104.128C167.085 104.927 167.301 105.828 167.273 106.738C167.246 107.648 166.977 108.535 166.493 109.306L163.599 113.928L161.124 117.882L160.66 118.624H151.472Z" fill="#2F2E41"/>
<path d="M170.764 98.0015C175.803 98.0015 179.889 93.9193 179.889 88.8836C179.889 83.8479 175.803 79.7656 170.764 79.7656C165.724 79.7656 161.638 83.8479 161.638 88.8836C161.638 93.9193 165.724 98.0015 170.764 98.0015Z" fill="#FFB8B8"/>
<path d="M179.924 118.626H159.412L159.505 118.362C159.453 118.203 159.404 118.043 159.36 117.883C159.311 117.716 159.27 117.546 159.233 117.379C158.9 115.825 158.901 114.217 159.237 112.664C160.37 107.103 164.892 102.585 164.892 102.585C164.97 102.525 165.048 102.47 165.126 102.414C165.798 101.922 166.528 101.513 167.299 101.196C170.658 99.8042 174.18 100.365 176.546 101.085C177.371 101.334 178.176 101.64 178.958 102.002C179.233 102.132 179.381 102.214 179.381 102.214L179.615 109.345L179.898 117.883L179.924 118.626Z" fill="#1134E3"/>
<path d="M189.413 117.884L187.845 109.917L186.262 101.884C186.196 101.552 186.031 101.248 185.789 101.011C185.547 100.775 185.239 100.617 184.906 100.559L181.592 99.9868L178.508 99.4559C178.211 99.4024 177.905 99.4311 177.622 99.5391C177.34 99.6471 177.093 99.8301 176.907 100.068C176.675 100.357 176.548 100.716 176.547 101.086C176.547 101.314 176.593 101.54 176.684 101.75C178.293 105.5 178.323 111.436 177.914 117.884C177.895 118.129 177.881 118.378 177.862 118.627H189.561L189.413 117.884Z" fill="#2F2E41"/>
<path d="M167.299 101.195C167.231 100.925 167.097 100.676 166.908 100.471C166.72 100.265 166.483 100.11 166.22 100.019C165.956 99.9273 165.674 99.9028 165.399 99.9475C165.124 99.9922 164.864 100.105 164.643 100.274L163.22 101.566L157.394 106.868C157.213 107.03 157.07 107.232 156.978 107.458C156.32 109.028 155.039 112.128 153.549 115.955C153.307 116.579 153.059 117.221 152.802 117.882C152.713 118.127 152.616 118.376 152.52 118.625H162.12C162.198 118.376 162.276 118.127 162.354 117.882C162.781 116.535 163.198 115.213 163.599 113.929C164.773 110.198 165.832 106.808 166.649 104.128C166.876 103.385 167.082 102.7 167.269 102.071C167.357 101.787 167.367 101.485 167.299 101.195Z" fill="#2F2E41"/>
<path d="M191.567 118.626H192.188L192.102 118.418L191.876 117.883L188.38 109.594L187.845 109.917L183.55 112.512L185.753 117.883L186.058 118.626H189.561H191.567Z" fill="#FFB8B8"/>
<path d="M188.023 103.019C187.55 101.781 186.617 100.775 185.418 100.21C184.219 99.6443 182.848 99.5641 181.592 99.9856C181.431 100.039 181.274 100.101 181.12 100.171C180.24 100.564 179.49 101.198 178.958 102.001C178.741 102.322 178.562 102.667 178.427 103.03C178.185 103.659 178.072 104.33 178.091 105.003C178.111 105.677 178.264 106.34 178.542 106.954L179.616 109.344L183.457 117.883L183.791 118.625H191.568L192.102 118.417L193.492 117.883L193.685 117.809L188.023 103.019Z" fill="#2F2E41"/>
<path d="M177.93 78.4113C178.248 78.5066 178.589 78.4944 178.899 78.3767C179.21 78.259 179.473 78.0423 179.647 77.7602C179.813 77.4726 179.91 77.151 179.932 76.82C179.954 76.489 179.9 76.1575 179.773 75.8508C179.514 75.2385 179.106 74.7006 178.586 74.2862C177.995 73.7521 177.276 73.3801 176.499 73.2065C176.111 73.123 175.709 73.1239 175.321 73.2091C174.933 73.2944 174.568 73.4619 174.25 73.7004C173.938 73.9469 173.707 74.2807 173.586 74.6592C173.466 75.0376 173.461 75.4435 173.572 75.8248C173.808 76.5095 174.448 76.9682 175.087 77.3098C176.355 77.9863 177.754 78.3835 179.188 78.4748L177.93 78.4113Z" fill="#2F2E41"/>
<path d="M179.705 88.608C178.238 88.8101 178.427 88.064 177.839 86.7057C177.252 85.3474 176.465 83.7349 174.991 83.5973C173.782 83.4846 172.787 84.4498 171.808 85.1666C170.063 86.4442 167.711 87.0695 165.689 86.3031C163.666 85.5366 162.261 83.1281 163.028 81.1072C163.267 80.5492 163.618 80.0462 164.059 79.6292C164.501 79.2123 165.023 78.8904 165.594 78.6833C166.74 78.2764 167.956 78.1076 169.169 78.1871C171.867 78.2733 174.513 78.9501 176.921 80.1698C178.582 81.0134 180.2 82.2203 180.83 83.9728C181.46 85.7253 181.875 88.1881 180.073 88.6622L179.705 88.608Z" fill="#2F2E41"/>
<path d="M177.18 73.5881C176.455 72.3269 177.054 70.5963 178.24 69.7536C179.427 68.9109 181.018 68.8282 182.434 69.1662C183.834 69.5187 185.117 70.2328 186.154 71.2369C187.191 72.2411 187.945 73.5 188.341 74.8875C188.942 77.0931 188.585 79.462 189.094 81.6906C189.365 82.8786 189.877 83.9985 190.598 84.9814C191.318 85.9643 192.233 86.7894 193.285 87.4059C194.337 88.0223 195.504 88.4171 196.714 88.5659C197.924 88.7146 199.152 88.6143 200.322 88.2709C201.846 87.8237 203.395 86.7365 203.545 85.1565C203.703 86.9709 203.289 88.7892 202.361 90.3568C201.433 91.9244 200.038 93.1628 198.37 93.8987C196.407 94.7172 194.217 94.7705 192.09 94.716C190.704 94.6805 189.286 94.5971 188.007 94.0613C187.123 93.6581 186.327 93.0826 185.668 92.3684C185.009 91.6542 184.499 90.8156 184.168 89.902C183.517 88.0655 183.341 86.0944 183.657 84.1719C183.866 82.6764 184.283 81.2107 184.399 79.7052C184.516 78.1997 184.295 76.5921 183.366 75.4011C182.437 74.21 180.663 73.6016 179.342 74.3356C178.811 74.6306 178.383 75.1125 177.807 75.3029C177.23 75.4932 176.413 75.1587 176.465 74.5541L177.18 73.5881Z" fill="#2F2E41"/>
<path d="M239.45 118.627L239.52 117.885L241.616 96.1008C242.303 95.5635 243.041 95.0947 243.819 94.7013C248.132 92.5295 252.294 93.569 254.545 94.4674C255.142 94.7008 255.718 94.9826 256.269 95.3101L257.495 117.885L257.536 118.627H239.45Z" fill="#1134E3"/>
<path d="M249.263 90.3023C254.302 90.3023 258.388 86.2201 258.388 81.1844C258.388 76.1487 254.302 72.0664 249.263 72.0664C244.223 72.0664 240.138 76.1487 240.138 81.1844C240.138 86.2201 244.223 90.3023 249.263 90.3023Z" fill="#FFB8B8"/>
<path d="M256.667 86.7429C257.345 86.0286 257.795 85.1288 257.96 84.1581C258.125 83.1874 257.998 82.1895 257.594 81.2914C257.19 80.3934 256.527 79.6357 255.691 79.1148C254.855 78.594 253.882 78.3334 252.898 78.3663C251.636 78.4084 250.447 78.9244 249.243 79.3031C247.417 79.9234 245.47 80.0986 243.564 79.814C241.646 79.5165 239.915 78.4953 238.728 76.9608C237.599 75.4104 237.247 73.2598 238.044 71.5158C238.965 69.5025 241.116 68.3931 243.139 67.4917C243.955 67.0835 244.827 66.7973 245.726 66.6424C246.177 66.5677 246.638 66.5867 247.08 66.6982C247.523 66.8097 247.938 67.0114 248.299 67.2906C248.868 67.7793 249.201 68.5138 249.82 68.9373C250.516 69.414 251.421 69.4014 252.261 69.4855C254.153 69.6747 255.943 70.4351 257.392 71.6654C258.841 72.8958 259.881 74.5378 260.373 76.3731C260.866 78.2084 260.787 80.1499 260.148 81.9396C259.509 83.7292 258.34 85.282 256.797 86.3916L256.667 86.7429Z" fill="#2F2E41"/>
<path d="M245.179 98.4722L243.819 94.7004L243.734 94.4653C243.694 94.3538 243.629 94.253 243.544 94.1703C243.459 94.0877 243.356 94.0255 243.243 93.9884C243.131 93.9514 243.011 93.9404 242.894 93.9563C242.776 93.9723 242.664 94.0147 242.565 94.0804L241.021 95.1088C241.021 95.1088 231.12 95.1088 230.325 101.045C230.314 101.138 230.299 101.242 230.288 101.353C230.287 101.358 230.286 101.363 230.284 101.368C230.184 101.758 228.315 108.974 226.71 117.884C226.666 118.129 226.621 118.378 226.576 118.627H248.092C248.792 109.676 248.4 101.355 245.179 98.4722Z" fill="#2F2E41"/>
<path d="M270.844 117.884C269.67 108.744 267.991 101.352 267.991 101.352C267.976 101.241 267.961 101.137 267.95 101.044C267.158 95.1082 257.257 95.1082 257.257 95.1082L255.714 94.0804C255.615 94.0146 255.503 93.9722 255.385 93.9563C255.268 93.9404 255.148 93.9514 255.035 93.9886C254.923 94.0257 254.82 94.088 254.735 94.1707C254.65 94.2534 254.585 94.3544 254.545 94.466L253.1 98.4716C249.878 101.354 249.487 109.676 250.187 118.626L270.937 118.626C270.907 118.377 270.873 118.129 270.844 117.884Z" fill="#2F2E41"/>
<path d="M96.568 97.0734L94.3611 117.885L94.2831 118.627H88.3127C88.3833 118.386 88.4539 118.137 88.5283 117.885C90.2224 112.079 92.5296 103.603 92.2805 101.357C91.8905 97.853 94.6213 96.6836 94.6213 96.6836L94.7922 96.717L96.568 97.0734Z" fill="#1134E3"/>
<path d="M106.197 90.646C111.236 90.646 115.322 86.5638 115.322 81.5281C115.322 76.4924 111.236 72.4102 106.197 72.4102C101.157 72.4102 97.0715 76.4924 97.0715 81.5281C97.0715 86.5638 101.157 90.646 106.197 90.646Z" fill="#A0616A"/>
<path d="M118.009 114.208C117.548 115.056 117.171 115.946 116.883 116.866C116.775 117.193 116.671 117.535 116.575 117.884C116.504 118.125 116.441 118.374 116.378 118.626H92.3101C92.3436 118.381 92.3732 118.132 92.4067 117.884C93.6365 108.176 94.6321 98.3231 94.7919 96.7156C94.8068 96.5634 94.8142 96.4855 94.8142 96.4855C109.237 88.89 119.762 98.8242 119.762 98.8242C119.762 98.8242 119.777 98.8948 119.799 99.0321C120.03 100.421 121.204 108.528 118.009 114.208Z" fill="#1134E3"/>
<path d="M116.883 116.864L115.278 113.426L115.668 99.7946L119.8 99.0299L119.944 99.0039C122.08 100.244 123.732 102.17 124.633 104.468C125.436 106.473 126.962 112.502 128.252 117.881C128.311 118.13 128.371 118.379 128.43 118.624H117.704L117.358 117.881L116.883 116.864Z" fill="#1134E3"/>
<path d="M131.562 57.3711H78.798C77.6662 57.3724 76.5812 57.8223 75.7809 58.6219C74.9806 59.4216 74.5304 60.5057 74.5291 61.6366V114.36C74.5304 115.49 74.9806 116.575 75.7809 117.374C76.5812 118.174 77.6662 118.624 78.798 118.625H131.562C132.694 118.624 133.78 118.175 134.58 117.375C135.38 116.575 135.83 115.491 135.831 114.36V61.6366C135.83 60.5056 135.38 59.421 134.58 58.6213C133.78 57.8215 132.694 57.3718 131.562 57.3711ZM135.088 114.36C135.087 115.294 134.715 116.189 134.054 116.85C133.393 117.51 132.497 117.882 131.562 117.883H78.798C77.8633 117.881 76.9673 117.51 76.3064 116.849C75.6455 116.189 75.2735 115.294 75.2721 114.36V61.6366C75.2735 60.7027 75.6455 59.8074 76.3064 59.147C76.9673 58.4866 77.8633 58.115 78.798 58.1136H131.562C132.497 58.1144 133.393 58.4858 134.054 59.1463C134.715 59.8069 135.087 60.7025 135.088 61.6366V114.36ZM94.3611 117.883L94.2831 118.625H116.378C116.441 118.373 116.504 118.124 116.575 117.883H94.3611Z" fill="#3F3D56"/>
<path d="M202.379 57.3711H149.615C148.483 57.3724 147.398 57.8223 146.598 58.6219C145.797 59.4216 145.347 60.5057 145.346 61.6366V114.36C145.347 115.49 145.797 116.575 146.598 117.374C147.398 118.174 148.483 118.624 149.615 118.625H202.379C203.511 118.624 204.596 118.175 205.397 117.375C206.197 116.575 206.647 115.491 206.648 114.36V61.6366C206.647 60.5056 206.197 59.421 205.397 58.6213C204.596 57.8215 203.511 57.3718 202.379 57.3711ZM205.905 114.36C205.904 115.294 205.532 116.189 204.871 116.85C204.21 117.51 203.314 117.882 202.379 117.883H149.615C148.68 117.881 147.784 117.51 147.123 116.849C146.462 116.189 146.09 115.294 146.089 114.36V61.6366C146.09 60.7027 146.462 59.8074 147.123 59.147C147.784 58.4866 148.68 58.115 149.615 58.1136H202.379C203.314 58.1144 204.21 58.4858 204.871 59.1463C205.532 59.8069 205.904 60.7025 205.905 61.6366V114.36ZM159.36 117.883C159.404 118.042 159.453 118.202 159.505 118.362L159.412 118.625H177.862C177.88 118.376 177.895 118.128 177.914 117.883H159.36Z" fill="#3F3D56"/>
<path d="M273.199 57.3711H220.435C219.303 57.3718 218.218 57.8214 217.417 58.6212C216.617 59.421 216.167 60.5055 216.166 61.6366V114.36C216.167 115.491 216.617 116.575 217.417 117.375C218.218 118.175 219.303 118.624 220.435 118.625H273.199C274.331 118.624 275.416 118.174 276.216 117.374C277.017 116.575 277.467 115.49 277.468 114.36V61.6366C277.467 60.5058 277.017 59.4216 276.216 58.622C275.416 57.8223 274.331 57.3725 273.199 57.3711ZM276.725 114.36C276.724 115.294 276.352 116.189 275.691 116.849C275.03 117.51 274.134 117.881 273.199 117.883H220.435C219.5 117.882 218.604 117.51 217.943 116.85C217.282 116.189 216.91 115.294 216.909 114.36V61.6366C216.91 60.7025 217.282 59.8068 217.943 59.1463C218.604 58.4858 219.5 58.1143 220.435 58.1136H273.199C274.134 58.115 275.03 58.4866 275.691 59.147C276.352 59.8074 276.724 60.7027 276.725 61.6366V114.36ZM248.147 117.883C248.129 118.128 248.11 118.376 248.092 118.625H264.101C264.13 118.38 264.164 118.131 264.194 117.883H248.147Z" fill="#3F3D56"/>
<path d="M237.301 140.159H114.697C113.908 140.159 113.152 139.846 112.595 139.289C112.038 138.732 111.724 137.976 111.724 137.189C111.724 136.401 112.038 135.646 112.595 135.089C113.152 134.532 113.908 134.219 114.697 134.219H237.301C238.089 134.219 238.845 134.532 239.402 135.089C239.96 135.646 240.273 136.401 240.273 137.189C240.273 137.976 239.96 138.732 239.402 139.289C238.845 139.846 238.089 140.159 237.301 140.159Z" fill="#9DAEEB"/>
<path d="M202.934 41.7796H149.063C148.275 41.7796 147.519 41.4667 146.961 40.9098C146.404 40.3528 146.091 39.5974 146.091 38.8097C146.091 38.0221 146.404 37.2667 146.961 36.7097C147.519 36.1528 148.275 35.8398 149.063 35.8398H202.934C203.723 35.8398 204.479 36.1528 205.036 36.7097C205.593 37.2667 205.906 38.0221 205.906 38.8097C205.906 39.5974 205.593 40.3528 205.036 40.9098C204.479 41.4667 203.723 41.7796 202.934 41.7796Z" fill="#1134E3"/>
<path d="M110.561 89.4747C110.87 89.7792 111.279 89.9621 111.712 89.9898C112.145 90.0176 112.574 89.8882 112.919 89.6256C115.07 88.0327 116.958 86.0499 118.075 83.6314C119.355 80.8601 119.498 77.4594 117.954 74.8256C116.65 72.599 114.345 71.1622 112.049 69.9824C111.157 69.4795 110.197 69.1096 109.198 68.8844C108.188 68.6619 107.132 68.8322 106.243 69.3607C105.809 69.633 105.467 70.0297 105.261 70.4993C105.056 70.9689 104.996 71.4895 105.092 71.9931C103.988 70.7355 102.575 69.7877 100.993 69.2439C99.9963 68.8543 98.905 68.7752 97.8626 69.0171C96.4053 69.4302 95.3413 70.724 94.7594 72.1215C94.2888 73.1845 94.1263 74.3582 94.2904 75.509C94.3767 76.0816 94.5824 76.6298 94.8941 77.118C95.2058 77.6062 95.6166 78.0236 96.1 78.3432C97.3049 79.0881 98.842 79.0344 100.226 78.7301C101.61 78.4258 102.949 77.8965 104.36 77.7626C105.77 77.6287 107.341 77.9802 108.199 79.1065C108.804 79.8997 108.959 80.9361 109.095 81.9239L109.801 87.0614C109.858 87.8047 110.048 88.5316 110.362 89.2081C110.416 89.3056 110.483 89.3953 110.561 89.4747Z" fill="#2F2E41"/>
</g>
<defs>
<clipPath id="clip0_4991_27662">
<rect width="292" height="163" fill="white" transform="translate(0 0.5)"/>
</clipPath>
</defs>
</svg>
