<svg preserveAspectRatio="xMidYMid meet" viewBox="0 0 54 54" fill="none" xmlns="http://www.w3.org/2000/svg">
    <path
            class="pos_svg_theme_color_lighter"
            d="M0 27C0 34.1608 2.84463 41.0284 7.90812 46.0919C12.9716 51.1554 19.8392 54 27 54C34.1608 54 41.0284 51.1554 46.0919 46.0919C51.1554 41.0284 54 34.1608 54 27C54 19.8392 51.1554 12.9716 46.0919 7.90812C41.0284 2.84463 34.1608 0 27 0C19.8392 0 12.9716 2.84463 7.90812 7.90812C2.84463 12.9716 0 19.8392 0 27Z"
            fill="yellow"/>
    <path
            class="pos_svg_theme_color_darker"
            fill-rule="evenodd" clip-rule="evenodd"
            d="M23.9427 20.3971H30.0905C31.9929 20.3971 33.444 16.2716 33.444 16.2716C33.444 15.036 33.3203 14.1013 31.2079 14.0354C30.0528 13.9991 29.3781 14.4443 28.7555 14.8551C28.2399 15.1954 27.76 15.5121 27.0725 15.5121C26.2772 15.5121 25.6852 15.1951 25.0407 14.8499C24.4244 14.5199 23.7602 14.1642 22.8246 14.0354C20.911 13.7707 20.5891 15.036 20.5891 16.2716C20.5891 16.2716 22.0396 20.3971 23.9427 20.3971ZM30.4261 21.6724H23.9427C16.7632 21.6724 15 35.7771 15 35.7771C15 37.6298 16.5015 39.4906 18.3536 39.4906H36.0145C37.8666 39.4906 39.3681 37.6298 39.3681 35.7771C39.3681 35.7771 37.6043 21.6724 30.4261 21.6724ZM29.305 33.7111C29.7712 33.2412 30.0043 32.6981 30.0043 32.0818C30.0043 31.2883 29.6948 30.7067 29.0758 30.3369C28.7854 30.1674 28.2504 29.9825 27.4708 29.7822V27.5982C27.7001 27.6676 27.8835 27.787 28.0211 27.9564C28.1663 28.1259 28.2504 28.3262 28.2733 28.5573H29.9585C29.9203 27.8332 29.6795 27.2824 29.2363 26.9049C28.8006 26.5197 28.2122 26.304 27.4708 26.2578V25.3218H26.8059V26.2578C26.057 26.3194 25.4379 26.5698 24.9488 27.0089C24.4673 27.4403 24.2266 27.9911 24.2266 28.6613C24.2266 29.4702 24.559 30.0596 25.2239 30.4293C25.499 30.5834 26.0264 30.7644 26.8059 30.9724V33.1796C26.2786 33.0794 25.992 32.7366 25.9461 32.1511H24.2266C24.2266 32.8444 24.4597 33.3953 24.9259 33.8036C25.3997 34.2119 26.0264 34.443 26.8059 34.4969V35.4329H27.4708V34.4969C28.2351 34.4353 28.8465 34.1733 29.305 33.7111ZM26.8059 29.5858C26.2022 29.3778 25.9003 29.035 25.9003 28.5573C25.9003 27.995 26.2022 27.6676 26.8059 27.5751V29.5858ZM27.4708 31.1689C28.0517 31.3923 28.3421 31.7274 28.3421 32.1742C28.3421 32.4284 28.2657 32.648 28.1128 32.8329C27.96 33.0101 27.746 33.1256 27.4708 33.1796V31.1689Z"
            fill="red"/>
</svg>
