<svg preserveAspectRatio="xMidYMid meet" viewBox="0 0 54 54" fill="none" xmlns="http://www.w3.org/2000/svg">
    <path
            class="pos_svg_theme_color_lighter"
            d="M0 27C0 34.1608 2.84463 41.0284 7.90812 46.0919C12.9716 51.1554 19.8392 54 27 54C34.1608 54 41.0284 51.1554 46.0919 46.0919C51.1554 41.0284 54 34.1608 54 27C54 19.8392 51.1554 12.9716 46.0919 7.90812C41.0284 2.84463 34.1608 0 27 0C19.8392 0 12.9716 2.84463 7.90812 7.90812C2.84463 12.9716 0 19.8392 0 27Z"
            fill="yellow"/>
    <path
            class="pos_svg_theme_color_darker"
            d="M37.6188 17H16.3688C15.7406 17 15.1381 17.2493 14.6938 17.693C14.2496 18.1367 14 18.7385 14 19.3659V22.1907H39.9876V19.3659C39.9876 18.7385 39.738 18.1367 39.2938 17.693C38.8495 17.2493 38.247 17 37.6188 17ZM14 35.9995C14.0006 36.2372 14.0483 36.4724 14.1402 36.6917C14.2321 36.911 14.3665 37.11 14.5356 37.2773C14.7047 37.4446 14.9052 37.5769 15.1256 37.6666C15.3461 37.7563 15.5821 37.8016 15.8201 37.8H38.1923C38.6718 37.8 39.1315 37.6097 39.4705 37.2712C39.8095 36.9326 40 36.4733 40 35.9945V24.1077H14V35.9995ZM30.9493 30.0474H36.6603L35.086 33.9956H29.375L30.9493 30.0474Z"
            fill="red"/>
</svg>
