<svg preserveAspectRatio="xMidYMid meet" viewBox="0 0 54 54" fill="none" xmlns="http://www.w3.org/2000/svg">
    <path
            class="pos_svg_theme_color_lighter"
            d="M0 27C0 34.1608 2.84463 41.0284 7.90812 46.0919C12.9716 51.1554 19.8392 54 27 54C34.1608 54 41.0284 51.1554 46.0919 46.0919C51.1554 41.0284 54 34.1608 54 27C54 19.8392 51.1554 12.9716 46.0919 7.90812C41.0284 2.84463 34.1608 0 27 0C19.8392 0 12.9716 2.84463 7.90812 7.90812C2.84463 12.9716 0 19.8392 0 27Z"
            fill="yellow"/>
    <path
            class="pos_svg_theme_color_darker"
            d="M27.9389 40L14.8055 39.9999C13.8083 39.9999 13 39.1915 13 38.1943V34.4629C13 33.4657 13.8083 32.6573 14.8055 32.6573L22.2813 32.6574C22.9849 35.8612 25.0986 38.5366 27.9389 40ZM22.0277 30.3101C22.0277 30.431 22.0297 30.5513 22.0336 30.6712H14.8055C13.8083 30.6712 13 29.8629 13 28.8657V25.1342C13 24.137 13.8083 23.3287 14.8055 23.3287L24.5587 23.3285C22.9787 25.2191 22.0277 27.6535 22.0277 30.3101ZM32.9814 14C33.9786 14 34.7869 14.8083 34.7869 15.8055V19.537C34.7869 19.5501 34.7868 19.5631 34.7865 19.576C34.1704 19.4696 33.5464 19.4163 32.9212 19.4166C30.6236 19.4166 28.4921 20.128 26.7349 21.3424L14.8055 21.3426C13.8083 21.3426 13 20.5342 13 19.537V15.8055C13 14.8083 13.8083 14 14.8055 14H32.9814Z"
            fill="blue"/>
    <path
            class="pos_svg_theme_color_darker"
            fill-rule="evenodd" clip-rule="evenodd"
            d="M32.9 38.8C37.8153 38.8 41.8 34.8153 41.8 29.9C41.8 24.9847 37.8153 21 32.9 21C27.9847 21 24 24.9847 24 29.9C24 34.8153 27.9847 38.8 32.9 38.8ZM35.4451 31.796C35.8931 31.796 36.1171 32.104 36.1171 32.72C36.1171 33.328 35.8931 33.632 35.4451 33.632C34.9971 33.632 34.7731 33.328 34.7731 32.72C34.7731 32.104 34.9971 31.796 35.4451 31.796ZM34.0771 34.136C34.4371 34.472 34.8971 34.64 35.4571 34.64C36.0171 34.64 36.4731 34.472 36.8251 34.136C37.1771 33.792 37.3531 33.32 37.3531 32.72C37.3531 32.112 37.1731 31.64 36.8131 31.304C36.4611 30.96 36.0051 30.788 35.4451 30.788C34.8931 30.788 34.4371 30.96 34.0771 31.304C33.7251 31.64 33.5491 32.112 33.5491 32.72C33.5491 33.32 33.7251 33.792 34.0771 34.136ZM34.7251 26.12L30.0211 34.52H31.6531L36.3691 26.12H34.7251ZM30.9331 27.008C31.3891 27.008 31.6171 27.316 31.6171 27.932C31.6171 28.54 31.3891 28.844 30.9331 28.844C30.4851 28.844 30.2611 28.54 30.2611 27.932C30.2611 27.316 30.4851 27.008 30.9331 27.008ZM29.0371 27.92C29.0371 28.52 29.2131 28.992 29.5651 29.336C29.9251 29.68 30.3851 29.852 30.9451 29.852C31.5051 29.852 31.9611 29.68 32.3131 29.336C32.6651 28.992 32.8411 28.52 32.8411 27.92C32.8411 27.32 32.6611 26.852 32.3011 26.516C31.9491 26.172 31.4931 26 30.9331 26C30.3811 26 29.9251 26.172 29.5651 26.516C29.2131 26.852 29.0371 27.32 29.0371 27.92Z"
            fill="red"/>
</svg>
