<svg preserveAspectRatio="xMidYMid meet"  viewBox="0 0 20 20" fill="none" xmlns="http://www.w3.org/2000/svg">
<g id="Eraser">
<path id="Vector" d="M17.5782 6.28125L14.3438 3.04687C13.9922 2.69527 13.5153 2.49774 13.018 2.49774C12.5208 2.49774 12.0439 2.69527 11.6922 3.04687L2.42193 12.3172C2.07033 12.6688 1.8728 13.1457 1.8728 13.643C1.8728 14.1402 2.07033 14.6171 2.42193 14.9688L4.77037 17.3172C4.82864 17.3754 4.89785 17.4215 4.974 17.4529C5.05015 17.4843 5.13176 17.5003 5.21412 17.5H16.8751C17.0408 17.5 17.1998 17.4342 17.317 17.3169C17.4342 17.1997 17.5001 17.0408 17.5001 16.875C17.5001 16.7092 17.4342 16.5503 17.317 16.4331C17.1998 16.3158 17.0408 16.25 16.8751 16.25H10.2579L17.5782 8.93281C17.9298 8.58119 18.1273 8.10429 18.1273 7.60703C18.1273 7.10977 17.9298 6.63288 17.5782 6.28125ZM8.49068 16.25H5.47272L3.30709 14.0844C3.18997 13.9672 3.12418 13.8083 3.12418 13.6426C3.12418 13.4769 3.18997 13.318 3.30709 13.2008L7.50006 9.00859L11.6165 13.125L8.49068 16.25ZM16.6938 8.04688L12.5001 12.2414L8.38365 8.125L12.5782 3.93281C12.6362 3.8747 12.7052 3.8286 12.781 3.79715C12.8569 3.7657 12.9382 3.74951 13.0204 3.74951C13.1025 3.74951 13.1838 3.7657 13.2597 3.79715C13.3356 3.8286 13.4045 3.8747 13.4626 3.93281L16.6954 7.16563C16.8125 7.28282 16.8783 7.44173 16.8783 7.60742C16.8783 7.77311 16.8125 7.93202 16.6954 8.04922L16.6938 8.04688Z" fill="#9095A3"/>
</g>
</svg>
