<svg preserveAspectRatio="xMidYMid meet" viewBox="0 0 190 160" fill="none" xmlns="http://www.w3.org/2000/svg">
    <path d="M125.067 120.636L39.8399 142.632C36.9489 143.375 33.882 142.938 31.3121 141.417C28.7422 139.896 26.8791 137.416 26.1316 134.52L0.356811 34.203C-0.384172 31.3055 0.0518548 28.2317 1.56924 25.656C3.08662 23.0804 5.56143 21.2131 8.45074 20.4639L87.7403 0L108.035 9.10557L133.161 106.897C133.902 109.794 133.466 112.868 131.948 115.444C130.431 118.019 127.956 119.887 125.067 120.636Z"
          fill="#EEEEEE"/>
    <path d="M9.25932 23.6083C7.20178 24.1418 5.43941 25.4716 4.35885 27.3058C3.27828 29.14 2.96778 31.3289 3.49545 33.3922L29.2703 133.709C29.8026 135.771 31.1293 137.538 32.9594 138.621C34.7895 139.704 36.9735 140.015 39.0322 139.486L124.259 117.49C126.316 116.956 128.079 115.627 129.159 113.792C130.24 111.958 130.55 109.769 130.023 107.706L105.286 11.4299L87.4512 3.42773L9.25932 23.6083Z"
          fill="white"/>
    <path d="M107.819 9.6224L94.6285 13.0266C93.6656 13.2751 92.6436 13.1301 91.7874 12.6234C90.9312 12.1167 90.3109 11.2899 90.0629 10.3248L87.5543 0.560985C87.5433 0.518239 87.5445 0.473255 87.5579 0.431194C87.5713 0.389132 87.5962 0.351696 87.6298 0.323177C87.6634 0.294658 87.7044 0.276211 87.748 0.269951C87.7916 0.263692 87.836 0.269873 87.8763 0.287787L107.855 9.18034C107.9 9.20013 107.937 9.2333 107.962 9.27525C107.986 9.3172 107.998 9.36584 107.994 9.41443C107.99 9.46302 107.971 9.50915 107.939 9.54641C107.908 9.58368 107.866 9.61024 107.819 9.6224Z"
          fill="#EEEEEE"/>
    <path d="M100.879 95.2919L62.0764 105.307C61.838 105.368 61.5899 105.382 61.3461 105.347C61.1024 105.313 60.8678 105.23 60.6558 105.105C60.4439 104.979 60.2586 104.813 60.1107 104.616C59.9627 104.419 59.855 104.195 59.7936 103.956C59.7322 103.717 59.7184 103.468 59.7529 103.224C59.7874 102.979 59.8696 102.744 59.9947 102.532C60.1199 102.319 60.2856 102.134 60.4823 101.985C60.6791 101.837 60.9031 101.729 61.1415 101.668L99.944 91.6531C100.182 91.5916 100.431 91.5777 100.674 91.6123C100.918 91.6469 101.153 91.7293 101.365 91.8547C101.577 91.9801 101.762 92.1462 101.91 92.3434C102.058 92.5406 102.165 92.7651 102.227 93.004C102.288 93.2429 102.302 93.4916 102.267 93.7359C102.233 93.9802 102.151 94.2153 102.026 94.4277C101.9 94.6402 101.735 94.8258 101.538 94.9741C101.341 95.1224 101.117 95.2304 100.879 95.2919Z"
          fill="#CDCDCD"/>
    <path d="M109.945 99.5005L63.6545 111.448C63.1731 111.572 62.6621 111.499 62.234 111.246C61.8059 110.993 61.4957 110.579 61.3717 110.097C61.2477 109.614 61.3201 109.102 61.5729 108.673C61.8257 108.244 62.2381 107.933 62.7196 107.809L109.01 95.8617C109.492 95.7379 110.002 95.8107 110.43 96.0641C110.858 96.3175 111.168 96.7307 111.292 97.213C111.415 97.6952 111.343 98.2071 111.091 98.636C110.838 99.0649 110.426 99.3759 109.945 99.5005Z"
          fill="#CDCDCD"/>
    <path d="M46.2407 117.369C49.8999 117.369 52.8662 114.396 52.8662 110.728C52.8662 107.061 49.8999 104.088 46.2407 104.088C42.5816 104.088 39.6152 107.061 39.6152 110.728C39.6152 114.396 42.5816 117.369 46.2407 117.369Z"
          fill="#EEEEEE"/>
    <path d="M96.754 77.9129L45.2204 91.2083C43.7311 91.5907 42.1512 91.3655 40.8274 90.5819C39.5035 89.7983 38.5439 88.5205 38.1589 87.0286L27.3594 44.9806C26.9778 43.4879 27.2026 41.9045 27.9844 40.5777C28.7662 39.2509 30.0412 38.2891 31.5296 37.9033L83.0633 24.6079C84.5526 24.2254 86.1325 24.4507 87.4563 25.2342C88.7802 26.0178 89.7398 27.2957 90.1248 28.7875L100.924 70.8355C101.306 72.3282 101.081 73.9116 100.299 75.2384C99.5175 76.5652 98.2425 77.527 96.754 77.9129Z"
          fill="white"/>
    <path d="M96.754 77.9129L45.2204 91.2083C43.7311 91.5907 42.1512 91.3655 40.8274 90.5819C39.5035 89.7983 38.5439 88.5205 38.1589 87.0286L27.3594 44.9806C26.9778 43.4879 27.2026 41.9045 27.9844 40.5777C28.7662 39.2509 30.0412 38.2891 31.5296 37.9033L83.0633 24.6079C84.5526 24.2254 86.1325 24.4507 87.4563 25.2342C88.7802 26.0178 89.7398 27.2957 90.1248 28.7875L100.924 70.8355C101.306 72.3282 101.081 73.9116 100.299 75.2384C99.5175 76.5652 98.2425 77.527 96.754 77.9129ZM31.6997 38.5654C30.3864 38.9059 29.2614 39.7545 28.5716 40.9252C27.8817 42.0959 27.6834 43.4931 28.0201 44.8102L38.8196 86.8582C39.1593 88.1745 40.0061 89.302 41.1741 89.9934C42.3422 90.6848 43.7362 90.8835 45.0503 90.5461L96.584 77.2507C97.8974 76.9103 99.0224 76.0616 99.7122 74.8909C100.402 73.7202 100.6 72.323 100.264 71.006L89.4641 28.9579C89.1244 27.6416 88.2776 26.5141 87.1096 25.8227C85.9415 25.1314 84.5475 24.9326 83.2334 25.27L31.6997 38.5654Z"
          fill="#EEEEEE"/>
    <path d="M80.4481 38.746L54.4397 45.456C54.2123 45.5197 53.9693 45.4944 53.7598 45.3853C53.5503 45.2762 53.39 45.0915 53.3111 44.8685C53.2744 44.752 53.2618 44.6292 53.2741 44.5077C53.2863 44.3861 53.3231 44.2683 53.3822 44.1615C53.4414 44.0547 53.5216 43.961 53.6181 43.8863C53.7145 43.8116 53.8251 43.7573 53.9432 43.7269L80.4181 36.8965C81.4875 37.4396 81.2064 38.5504 80.4481 38.746Z"
          fill="#EEEEEE"/>
    <path d="M81.6219 43.3183L55.6135 50.0283C55.3861 50.0919 55.1431 50.0666 54.9336 49.9576C54.7241 49.8485 54.5638 49.6638 54.485 49.4408C54.4483 49.3243 54.4357 49.2015 54.4479 49.0799C54.4601 48.9584 54.4969 48.8406 54.5561 48.7337C54.6152 48.6269 54.6954 48.5333 54.7919 48.4586C54.8883 48.3838 54.9989 48.3296 55.117 48.2991L81.5919 41.4688C82.6614 42.0119 82.3802 43.1226 81.6219 43.3183Z"
          fill="#EEEEEE"/>
    <path d="M50.6602 54.0821L42.7227 56.13C42.4635 56.1966 42.1885 56.1574 41.9581 56.021C41.7276 55.8846 41.5606 55.6621 41.4936 55.4024L39.0824 46.0145C39.016 45.7547 39.0551 45.479 39.1912 45.2481C39.3273 45.0171 39.5492 44.8497 39.8083 44.7826L47.7458 42.7348C48.005 42.6683 48.28 42.7075 48.5104 42.8439C48.7408 42.9803 48.9079 43.2026 48.9749 43.4623L51.3861 52.8502C51.4526 53.1101 51.4134 53.3857 51.2774 53.6166C51.1413 53.8476 50.9193 54.015 50.6602 54.0821Z"
          fill="#EEEEEE"/>
    <path d="M83.9516 52.6992L44.258 62.94C44.0307 63.0036 43.7877 62.9783 43.5782 62.8692C43.3687 62.7602 43.2083 62.5754 43.1295 62.3524C43.0928 62.2359 43.0802 62.1131 43.0924 61.9916C43.1046 61.87 43.1414 61.7522 43.2006 61.6454C43.2597 61.5386 43.34 61.4449 43.4364 61.3702C43.5329 61.2955 43.6435 61.2413 43.7615 61.2108L83.9219 50.8496C84.9914 51.3927 84.7099 52.5036 83.9516 52.6992Z"
          fill="#EEEEEE"/>
    <path d="M85.1254 57.2734L45.4319 67.5142C45.2045 67.5778 44.9615 67.5525 44.752 67.4434C44.5425 67.3344 44.3821 67.1497 44.3033 66.9266C44.2666 66.8101 44.254 66.6873 44.2662 66.5658C44.2785 66.4442 44.3153 66.3264 44.3744 66.2196C44.4336 66.1128 44.5138 66.0191 44.6102 65.9444C44.7067 65.8697 44.8173 65.8155 44.9354 65.785L85.0957 55.4238C86.1652 55.9669 85.8838 57.0778 85.1254 57.2734Z"
          fill="#EEEEEE"/>
    <path d="M86.2992 61.8438L46.6057 72.0845C46.3783 72.1481 46.1353 72.1228 45.9258 72.0138C45.7163 71.9047 45.556 71.72 45.4771 71.4969C45.4405 71.3804 45.4278 71.2577 45.4401 71.1361C45.4523 71.0145 45.4891 70.8968 45.5482 70.7899C45.6074 70.6831 45.6876 70.5895 45.7841 70.5147C45.8805 70.44 45.9911 70.3858 46.1092 70.3553L86.2696 59.9941C87.339 60.5372 87.0576 61.6481 86.2992 61.8438Z"
          fill="#EEEEEE"/>
    <path d="M87.475 66.418L47.7815 76.6587C47.5541 76.7223 47.3111 76.697 47.1016 76.588C46.8921 76.4789 46.7317 76.2942 46.6529 76.0711C46.6162 75.9546 46.6036 75.8319 46.6159 75.7103C46.6281 75.5888 46.6649 75.471 46.724 75.3641C46.7832 75.2573 46.8634 75.1637 46.9598 75.089C47.0563 75.0142 47.1669 74.96 47.285 74.9295L87.4453 64.5684C88.5148 65.1115 88.2334 66.2223 87.475 66.418Z"
          fill="#EEEEEE"/>
    <path d="M88.6488 70.9883L48.9553 81.229C48.7279 81.2926 48.4849 81.2673 48.2754 81.1583C48.0659 81.0492 47.9056 80.8645 47.8268 80.6415C47.7901 80.525 47.7775 80.4022 47.7897 80.2806C47.8019 80.1591 47.8387 80.0413 47.8978 79.9345C47.957 79.8276 48.0372 79.734 48.1337 79.6593C48.2301 79.5845 48.3407 79.5303 48.4588 79.4998L88.6192 69.1387C89.6886 69.6818 89.4072 70.7926 88.6488 70.9883Z"
          fill="#EEEEEE"/>
    <path d="M46.7289 113.055C46.5846 113.093 46.4321 113.082 46.2943 113.025L46.2857 113.022L44.4808 112.255C44.3971 112.219 44.3211 112.167 44.2573 112.102C44.1935 112.037 44.1431 111.96 44.109 111.876C44.0749 111.791 44.0578 111.701 44.0586 111.61C44.0594 111.519 44.0782 111.429 44.1138 111.345C44.1494 111.261 44.2011 111.185 44.266 111.121C44.331 111.057 44.4079 111.007 44.4922 110.973C44.5766 110.939 44.6669 110.922 44.7578 110.923C44.8488 110.923 44.9387 110.942 45.0223 110.978L46.1919 111.477L47.7245 107.863C47.76 107.78 47.8117 107.704 47.8765 107.64C47.9413 107.576 48.018 107.526 48.1023 107.492C48.1865 107.458 48.2766 107.441 48.3675 107.441C48.4583 107.442 48.548 107.461 48.6316 107.497L48.6227 107.52L48.6323 107.497C48.801 107.569 48.9342 107.705 49.0028 107.876C49.0714 108.046 49.0697 108.237 48.998 108.406L47.195 112.655C47.1532 112.753 47.0894 112.84 47.0086 112.909C46.9279 112.978 46.8323 113.028 46.7293 113.054L46.7289 113.055Z"
          fill="white"/>
    <path d="M157.756 158.865H69.7489C66.7645 158.861 63.9032 157.672 61.7929 155.557C59.6826 153.442 58.4956 150.574 58.4922 147.583V43.993C58.4956 41.0018 59.6826 38.1342 61.7929 36.0191C63.9032 33.904 66.7645 32.7143 69.7489 32.7109H151.625L169.013 46.6012V147.583C169.009 150.574 167.822 153.442 165.712 155.557C163.602 157.672 160.741 158.861 157.756 158.865Z"
          fill="#EEEEEE"/>
    <path d="M69.7505 35.959C67.6253 35.9614 65.5877 36.8086 64.0849 38.3148C62.5821 39.821 61.7368 41.8631 61.7344 43.9932V147.583C61.7368 149.713 62.5821 151.755 64.0849 153.261C65.5877 154.767 67.6253 155.615 69.7505 155.617H157.758C159.883 155.615 161.921 154.767 163.423 153.261C164.926 151.755 165.771 149.713 165.774 147.583V48.166L150.493 35.959H69.7505Z"
          fill="white"/>
    <path d="M140.638 66.0798H100.57C100.073 66.0798 99.5959 65.8818 99.2444 65.5295C98.8928 65.1772 98.6953 64.6993 98.6953 64.201C98.6953 63.7027 98.8928 63.2249 99.2444 62.8725C99.5959 62.5202 100.073 62.3223 100.57 62.3223H140.638C141.135 62.3223 141.612 62.5202 141.964 62.8725C142.315 63.2249 142.513 63.7027 142.513 64.201C142.513 64.6993 142.315 65.1772 141.964 65.5295C141.612 65.8818 141.135 66.0798 140.638 66.0798Z"
          fill="#9095A3"/>
    <path d="M148.372 72.4196H100.571C100.075 72.419 99.5984 72.2207 99.2474 71.8685C98.8964 71.5162 98.6992 71.0387 98.6992 70.5409C98.6992 70.043 98.8964 69.5655 99.2474 69.2133C99.5984 68.861 100.075 68.6628 100.571 68.6621H148.372C148.619 68.6618 148.863 68.7101 149.09 68.8044C149.318 68.8987 149.525 69.037 149.699 69.2115C149.874 69.386 150.012 69.5932 150.106 69.8213C150.201 70.0494 150.249 70.2939 150.249 70.5409C150.249 70.7878 150.201 71.0323 150.106 71.2604C150.012 71.4885 149.874 71.6958 149.699 71.8703C149.525 72.0447 149.318 72.1831 149.09 72.2774C148.863 72.3716 148.619 72.42 148.372 72.4196Z"
          fill="#9095A3"/>
    <path d="M140.639 90.7363H100.572C100.075 90.7363 99.5978 90.9343 99.2463 91.2866C98.8947 91.6389 98.6973 92.1167 98.6973 92.615C98.6973 93.1132 98.8947 93.591 99.2463 93.9434C99.5978 94.2957 100.075 94.4936 100.572 94.4936H140.639C141.136 94.4936 141.613 94.2957 141.964 93.9434C142.316 93.591 142.513 93.1132 142.513 92.615C142.513 92.1167 142.316 91.6389 141.964 91.2866C141.613 90.9343 141.136 90.7363 140.639 90.7363Z"
          fill="#CDCDCD"/>
    <path d="M148.372 97.0781H100.572C100.075 97.0781 99.5978 97.2761 99.2463 97.6284C98.8947 97.9807 98.6973 98.4585 98.6973 98.9568C98.6973 99.455 98.8947 99.9328 99.2463 100.285C99.5978 100.637 100.075 100.835 100.572 100.835H148.372C148.869 100.835 149.346 100.637 149.697 100.285C150.049 99.9328 150.246 99.455 150.246 98.9568C150.246 98.4585 150.049 97.9807 149.697 97.6284C149.346 97.2761 148.869 97.0781 148.372 97.0781Z"
          fill="#CDCDCD"/>
    <path d="M140.638 122.912H100.57C100.073 122.912 99.5959 122.714 99.2444 122.362C98.8928 122.009 98.6953 121.531 98.6953 121.033C98.6953 120.535 98.8928 120.057 99.2444 119.705C99.5959 119.352 100.073 119.154 100.57 119.154H140.638C141.135 119.154 141.612 119.352 141.964 119.705C142.315 120.057 142.513 120.535 142.513 121.033C142.513 121.531 142.315 122.009 141.964 122.362C141.612 122.714 141.135 122.912 140.638 122.912Z"
          fill="#CDCDCD"/>
    <path d="M148.372 129.254H100.571C100.075 129.253 99.5984 129.055 99.2474 128.702C98.8964 128.35 98.6992 127.873 98.6992 127.375C98.6992 126.877 98.8964 126.4 99.2474 126.047C99.5984 125.695 100.075 125.497 100.571 125.496H148.372C148.619 125.496 148.863 125.544 149.09 125.638C149.318 125.733 149.525 125.871 149.699 126.045C149.874 126.22 150.012 126.427 150.106 126.655C150.201 126.883 150.249 127.128 150.249 127.375C150.249 127.622 150.201 127.866 150.106 128.094C150.012 128.323 149.874 128.53 149.699 128.704C149.525 128.879 149.318 129.017 149.09 129.111C148.863 129.206 148.619 129.254 148.372 129.254Z"
          fill="#CDCDCD"/>
    <path d="M83.8853 74.0113C87.5444 74.0113 90.5107 71.0382 90.5107 67.3709C90.5107 63.7035 87.5444 60.7305 83.8853 60.7305C80.2261 60.7305 77.2598 63.7035 77.2598 67.3709C77.2598 71.0382 80.2261 74.0113 83.8853 74.0113Z"
          fill="#9095A3"/>
    <path d="M83.2285 69.9038C83.0795 69.9041 82.9344 69.8558 82.8151 69.7661L82.8077 69.7606L81.2507 68.5668C81.1783 68.5115 81.1176 68.4424 81.0719 68.3635C81.0263 68.2846 80.9966 68.1975 80.9846 68.1071C80.9726 68.0167 80.9785 67.9248 81.0019 67.8367C81.0254 67.7486 81.066 67.6659 81.1213 67.5936C81.1767 67.5212 81.2458 67.4605 81.3246 67.4149C81.4034 67.3693 81.4904 67.3397 81.5806 67.3279C81.6708 67.316 81.7625 67.3221 81.8504 67.3458C81.9382 67.3695 82.0206 67.4104 82.0927 67.466L83.1012 68.2412L85.4845 65.125C85.5397 65.0527 85.6086 64.9921 85.6873 64.9465C85.7659 64.901 85.8528 64.8714 85.9428 64.8595C86.0329 64.8476 86.1244 64.8535 86.2121 64.8771C86.2999 64.9006 86.3821 64.9412 86.4542 64.9966L86.4396 65.0173L86.4548 64.9967C86.6002 65.1088 86.6954 65.274 86.7194 65.4563C86.7434 65.6385 86.6942 65.8229 86.5828 65.9689L83.7795 69.6326C83.7147 69.717 83.6313 69.7853 83.5358 69.8322C83.4404 69.8791 83.3354 69.9033 83.2291 69.903L83.2285 69.9038Z"
          fill="white"/>
    <path d="M91.1916 95.7864C91.1919 96.6586 91.0208 97.5223 90.6881 98.3281C90.3554 99.134 89.8675 99.8662 89.2523 100.483C88.6372 101.1 87.9068 101.589 87.1029 101.923C86.299 102.257 85.4374 102.429 84.5672 102.429C84.5103 102.43 84.4533 102.428 84.3967 102.422C83.0939 102.389 81.83 101.971 80.763 101.221C79.696 100.471 78.8733 99.4228 78.3979 98.2067C77.9226 96.9906 77.8156 95.661 78.0904 94.3842C78.3652 93.1075 79.0096 91.9404 79.943 91.0289C80.8763 90.1174 82.0572 89.502 83.3377 89.2597C84.6183 89.0175 85.9417 89.1591 87.1423 89.6669C88.343 90.1748 89.3675 91.0262 90.0878 92.1147C90.808 93.2031 91.192 94.4803 91.1916 95.7864Z"
          fill="#CDCDCD"/>
    <path d="M83.8853 130.843C87.5444 130.843 90.5107 127.87 90.5107 124.203C90.5107 120.536 87.5444 117.562 83.8853 117.562C80.2261 117.562 77.2598 120.536 77.2598 124.203C77.2598 127.87 80.2261 130.843 83.8853 130.843Z"
          fill="#CDCDCD"/>
    <path d="M168.674 47.0474H155.054C154.059 47.0474 153.106 46.6515 152.403 45.9469C151.7 45.2422 151.305 44.2865 151.305 43.2899V33.2075C151.305 33.1634 151.317 33.1201 151.34 33.0827C151.364 33.0453 151.397 33.0153 151.437 32.9961C151.477 32.9769 151.521 32.9692 151.565 32.9741C151.608 32.9789 151.65 32.996 151.685 33.0234L168.82 46.6285C168.858 46.6588 168.886 46.7002 168.899 46.747C168.913 46.7938 168.911 46.8437 168.895 46.8898C168.879 46.9358 168.85 46.9758 168.81 47.004C168.77 47.0323 168.723 47.0474 168.674 47.0474Z"
          fill="#CDCDCD"/>
    <path d="M189.652 90.4932C189.369 90.9577 188.914 91.2906 188.387 91.4187C187.859 91.5467 187.302 91.4596 186.839 91.1763L162.959 76.5779C162.73 76.4376 162.53 76.2534 162.372 76.0358C162.213 75.8182 162.099 75.5715 162.036 75.3097C161.973 75.0479 161.962 74.7761 162.003 74.51C162.045 74.2438 162.138 73.9885 162.278 73.7585C162.418 73.5285 162.602 73.3284 162.819 73.1696C163.036 73.0109 163.282 72.8965 163.543 72.8331C163.805 72.7696 164.076 72.7584 164.341 72.8C164.607 72.8416 164.862 72.9352 165.091 73.0755L188.971 87.6739C189.434 87.9572 189.766 88.4134 189.894 88.9421C190.022 89.4708 189.935 90.0288 189.652 90.4932Z"
          fill="#9095A3"/>
    <path d="M165.774 75.8951C164.087 78.666 161.619 80.8734 158.681 82.2383C155.743 83.6033 152.467 84.0643 149.267 83.5632C146.068 83.0621 143.088 81.6213 140.706 79.4231C138.323 77.2249 136.645 74.368 135.882 71.2136C135.12 68.0592 135.308 64.749 136.422 61.7017C137.537 58.6543 139.528 56.0067 142.144 54.0935C144.76 52.1803 147.883 51.0876 151.119 50.9535C154.354 50.8193 157.557 51.6499 160.322 53.34C164.025 55.6098 166.679 59.2592 167.701 63.4877C168.723 67.7161 168.03 72.1782 165.774 75.8951ZM141.312 60.9407C140.047 63.0188 139.425 65.4262 139.526 67.8583C139.626 70.2905 140.444 72.6382 141.875 74.6046C143.307 76.5709 145.288 78.0676 147.569 78.9055C149.849 79.7433 152.326 79.8845 154.687 79.3114C157.047 78.7382 159.185 77.4764 160.83 75.6855C162.475 73.8946 163.553 71.655 163.928 69.2499C164.303 66.8449 163.958 64.3824 162.937 62.1739C161.915 59.9654 160.263 58.11 158.19 56.8424C155.409 55.1464 152.069 54.6253 148.905 55.3936C145.741 56.1619 143.01 58.1568 141.312 60.9407Z"
          fill="#9095A3"/>
</svg>
