<svg preserveAspectRatio="xMidYMid meet" viewBox="0 0 260 220" fill="none" xmlns="http://www.w3.org/2000/svg">
<g clip-path="url(#clip0_2812_9380)">
<path d="M172.301 166.374L55.2259 196.619C51.2546 197.64 47.0417 197.039 43.5115 194.948C39.9813 192.857 37.422 189.447 36.3951 185.465L0.988685 47.5291C-0.0291902 43.5451 0.569772 39.3186 2.65418 35.7771C4.73858 32.2355 8.1382 29.668 12.1072 28.6379L121.026 0.5L148.904 13.0202L183.419 147.483C184.437 151.467 183.838 155.694 181.754 159.235C179.669 162.777 176.27 165.344 172.301 166.374Z" fill="#F2F2F2"/>
<path d="M13.22 32.9624C10.3936 33.696 7.97263 35.5244 6.48828 38.0464C5.00393 40.5684 4.5774 43.5782 5.30226 46.4153L40.7087 184.351C41.4399 187.187 43.2625 189.615 45.7764 191.104C48.2904 192.594 51.2905 193.022 54.1185 192.294L171.193 162.049C174.02 161.316 176.441 159.488 177.925 156.966C179.409 154.443 179.836 151.434 179.111 148.597L145.131 16.2171L120.631 5.21411L13.22 32.9624Z" fill="white"/>
<path d="M148.609 13.7318L130.49 18.4126C129.167 18.7543 127.763 18.5549 126.587 17.8582C125.411 17.1615 124.559 16.0246 124.218 14.6976L120.772 1.27233C120.757 1.21355 120.759 1.1517 120.777 1.09387C120.795 1.03603 120.829 0.984559 120.876 0.945345C120.922 0.906131 120.978 0.880766 121.038 0.87216C121.098 0.863553 121.159 0.872052 121.214 0.896684L148.659 13.1239C148.72 13.1512 148.771 13.1968 148.805 13.2544C148.839 13.3121 148.855 13.379 148.849 13.4458C148.843 13.5126 148.817 13.5761 148.774 13.6273C148.731 13.6785 148.673 13.7151 148.609 13.7318Z" fill="#F2F2F2"/>
<path d="M139.078 131.526L85.7758 145.296C85.4483 145.381 85.1074 145.4 84.7726 145.352C84.4378 145.305 84.1156 145.191 83.8244 145.019C83.5332 144.847 83.2787 144.618 83.0755 144.347C82.8723 144.076 82.7243 143.767 82.6399 143.439C82.5556 143.11 82.5366 142.768 82.584 142.432C82.6314 142.096 82.7443 141.773 82.9163 141.481C83.0882 141.189 83.3158 140.934 83.5861 140.73C83.8563 140.526 84.164 140.377 84.4915 140.293L137.794 126.523C138.121 126.438 138.462 126.419 138.797 126.467C139.132 126.514 139.454 126.627 139.745 126.8C140.037 126.972 140.291 127.201 140.494 127.472C140.697 127.743 140.845 128.052 140.93 128.38C141.014 128.709 141.033 129.051 140.986 129.387C140.938 129.723 140.825 130.046 140.653 130.338C140.482 130.63 140.254 130.885 139.984 131.089C139.713 131.293 139.406 131.442 139.078 131.526Z" fill="#CCCCCC"/>
<path d="M151.529 137.312L87.9398 153.739C87.2785 153.91 86.5766 153.811 85.9885 153.462C85.4004 153.114 84.9743 152.545 84.804 151.882C84.6337 151.218 84.7331 150.514 85.0803 149.924C85.4276 149.334 85.9942 148.907 86.6555 148.736L150.244 132.309C150.906 132.138 151.607 132.239 152.195 132.587C152.782 132.935 153.208 133.504 153.378 134.167C153.548 134.83 153.449 135.534 153.102 136.123C152.756 136.713 152.19 137.141 151.529 137.312Z" fill="#CCCCCC"/>
<path d="M64.0193 161.881C69.0458 161.881 73.1206 157.793 73.1206 152.75C73.1206 147.707 69.0458 143.62 64.0193 143.62C58.9928 143.62 54.918 147.707 54.918 152.75C54.918 157.793 58.9928 161.881 64.0193 161.881Z" fill="#E6E6E6"/>
<path d="M133.408 107.631L62.617 125.912C60.5711 126.438 58.4008 126.128 56.5823 125.051C54.7638 123.973 53.4455 122.216 52.9167 120.165L38.0816 62.3491C37.5574 60.2966 37.8662 58.1194 38.9401 56.2951C40.0141 54.4707 41.7655 53.1482 43.8102 52.6177L114.601 34.3365C116.647 33.8107 118.817 34.1204 120.636 35.1978C122.454 36.2752 123.773 38.0323 124.301 40.0835L139.137 97.8996C139.661 99.952 139.352 102.129 138.278 103.954C137.204 105.778 135.453 107.1 133.408 107.631Z" fill="white"/>
<path d="M133.408 107.631L62.617 125.912C60.5711 126.438 58.4008 126.128 56.5823 125.051C54.7638 123.973 53.4455 122.216 52.9167 120.165L38.0816 62.3491C37.5574 60.2966 37.8662 58.1194 38.9401 56.2951C40.0141 54.4707 41.7655 53.1482 43.8102 52.6177L114.601 34.3365C116.647 33.8107 118.817 34.1204 120.636 35.1978C122.454 36.2752 123.773 38.0323 124.301 40.0835L139.137 97.8996C139.661 99.952 139.352 102.129 138.278 103.954C137.204 105.778 135.453 107.1 133.408 107.631ZM44.0438 53.5282C42.2397 53.9963 40.6943 55.1632 39.7467 56.7729C38.7991 58.3827 38.5267 60.3037 38.9892 62.1147L53.8243 119.931C54.2909 121.741 55.4541 123.291 57.0587 124.242C58.6632 125.192 60.5782 125.466 62.3833 125.002L133.174 106.72C134.978 106.252 136.524 105.085 137.471 103.476C138.419 101.866 138.691 99.9449 138.229 98.1339L123.394 40.3179C122.927 38.508 121.764 36.9576 120.159 36.007C118.555 35.0563 116.64 34.783 114.835 35.247L44.0438 53.5282Z" fill="#E6E6E6"/>
<path d="M111.011 53.7765L75.2832 63.0028C74.9709 63.0903 74.6371 63.0555 74.3493 62.9055C74.0615 62.7556 73.8412 62.5016 73.7329 62.1949C73.6825 62.0347 73.6652 61.8659 73.682 61.6988C73.6988 61.5316 73.7494 61.3697 73.8306 61.2228C73.9118 61.0759 74.0221 60.9471 74.1545 60.8444C74.287 60.7417 74.439 60.6671 74.6011 60.6252L110.969 51.2334C112.438 51.9802 112.052 53.5075 111.011 53.7765Z" fill="#F2F2F2"/>
<path d="M112.624 60.0634L76.8965 69.2896C76.5841 69.3771 76.2503 69.3424 75.9625 69.1924C75.6748 69.0424 75.4545 68.7884 75.3462 68.4818C75.2958 68.3216 75.2785 68.1528 75.2953 67.9856C75.3121 67.8185 75.3626 67.6565 75.4439 67.5096C75.5251 67.3627 75.6353 67.234 75.7678 67.1313C75.9003 67.0285 76.0522 66.9539 76.2144 66.912L112.583 57.5203C114.052 58.267 113.665 59.7943 112.624 60.0634Z" fill="#F2F2F2"/>
<path d="M70.0923 74.8636L59.1886 77.6794C58.8325 77.771 58.4548 77.7171 58.1382 77.5296C57.8217 77.342 57.5922 77.0362 57.5002 76.6791L54.188 63.7706C54.0967 63.4134 54.1504 63.0344 54.3374 62.7169C54.5243 62.3993 54.8292 62.1691 55.1851 62.0768L66.0887 59.261C66.4448 59.1696 66.8226 59.2236 67.1391 59.4111C67.4556 59.5986 67.685 59.9044 67.7772 60.2614L71.0894 73.1698C71.1806 73.5271 71.1269 73.9061 70.94 74.2236C70.753 74.5412 70.4482 74.7713 70.0923 74.8636Z" fill="#E6E6E6"/>
<path d="M115.825 72.9627L61.2988 87.0437C60.9865 87.1311 60.6527 87.0964 60.3649 86.9464C60.0771 86.7964 59.8568 86.5425 59.7486 86.2358C59.6982 86.0756 59.6808 85.9068 59.6976 85.7396C59.7144 85.5725 59.765 85.4105 59.8462 85.2637C59.9275 85.1168 60.0377 84.988 60.1702 84.8853C60.3026 84.7825 60.4546 84.7079 60.6167 84.6661L115.784 70.4194C117.254 71.1662 116.867 72.6936 115.825 72.9627Z" fill="#F2F2F2"/>
<path d="M117.435 79.2514L62.9082 93.3325C62.5959 93.4199 62.2621 93.3852 61.9743 93.2352C61.6865 93.0852 61.4662 92.8313 61.3579 92.5246C61.3075 92.3644 61.2902 92.1956 61.307 92.0284C61.3238 91.8613 61.3743 91.6993 61.4556 91.5525C61.5368 91.4056 61.6471 91.2768 61.7795 91.1741C61.912 91.0713 62.064 90.9967 62.2261 90.9549L117.394 76.7083C118.863 77.455 118.476 78.9824 117.435 79.2514Z" fill="#F2F2F2"/>
<path d="M119.048 85.5361L64.5215 99.6171C64.2092 99.7046 63.8753 99.6699 63.5876 99.5199C63.2998 99.3699 63.0795 99.1159 62.9712 98.8093C62.9208 98.6491 62.9035 98.4803 62.9203 98.3131C62.9371 98.146 62.9876 97.984 63.0689 97.8371C63.1501 97.6902 63.2603 97.5615 63.3928 97.4587C63.5253 97.356 63.6773 97.2814 63.8394 97.2395L119.007 82.9929C120.476 83.7397 120.09 85.2671 119.048 85.5361Z" fill="#F2F2F2"/>
<path d="M120.661 91.8245L66.1348 105.905C65.8224 105.993 65.4886 105.958 65.2009 105.808C64.9131 105.658 64.6928 105.404 64.5845 105.098C64.5341 104.937 64.5168 104.769 64.5336 104.601C64.5503 104.434 64.6009 104.272 64.6821 104.125C64.7634 103.979 64.8736 103.85 65.0061 103.747C65.1386 103.644 65.2905 103.57 65.4527 103.528L120.62 89.2812C122.089 90.028 121.703 91.5554 120.661 91.8245Z" fill="#F2F2F2"/>
<path d="M122.274 98.1096L67.7481 112.191C67.4357 112.278 67.1019 112.243 66.8141 112.093C66.5263 111.943 66.306 111.689 66.1978 111.383C66.1474 111.223 66.13 111.054 66.1468 110.887C66.1636 110.719 66.2142 110.557 66.2954 110.411C66.3767 110.264 66.4869 110.135 66.6194 110.032C66.7518 109.929 66.9038 109.855 67.066 109.813L122.234 95.5664C123.703 96.3132 123.316 97.8406 122.274 98.1096Z" fill="#F2F2F2"/>
<path d="M64.6916 155.951C64.4934 156.002 64.2838 155.988 64.0946 155.91L64.0828 155.905L61.6034 154.85C61.4884 154.801 61.384 154.73 61.2964 154.641C61.2088 154.551 61.1395 154.446 61.0927 154.329C61.0459 154.213 61.0224 154.089 61.0235 153.963C61.0246 153.838 61.0503 153.714 61.0992 153.599C61.1481 153.484 61.2192 153.379 61.3084 153.291C61.3976 153.203 61.5032 153.134 61.6191 153.087C61.735 153.041 61.859 153.017 61.984 153.018C62.1089 153.02 62.2324 153.046 62.3473 153.095L63.9539 153.781L66.0592 148.812C66.108 148.697 66.179 148.593 66.268 148.505C66.3571 148.417 66.4625 148.348 66.5782 148.301C66.6939 148.254 66.8177 148.231 66.9425 148.232C67.0672 148.233 67.1905 148.259 67.3054 148.308L67.293 148.341L67.3062 148.308C67.5379 148.407 67.721 148.594 67.8152 148.829C67.9094 149.063 67.9071 149.326 67.8087 149.558L65.3318 155.4C65.2744 155.535 65.1868 155.655 65.0759 155.75C64.9649 155.845 64.8336 155.913 64.6921 155.949L64.6916 155.951Z" fill="white"/>
<path d="M217.209 218.938H96.3147C92.2151 218.934 88.2847 217.298 85.3857 214.39C82.4868 211.481 80.8562 207.538 80.8516 203.426V60.9896C80.8562 56.8768 82.4868 52.9337 85.3857 50.0255C88.2847 47.1173 92.2151 45.4815 96.3147 45.4768H208.787L232.672 64.5759V203.426C232.667 207.538 231.037 211.481 228.138 214.39C225.239 217.298 221.308 218.934 217.209 218.938Z" fill="#E6E6E6"/>
<path d="M96.3125 49.9426C93.393 49.9459 90.594 51.1109 88.5297 53.1819C86.4653 55.2529 85.3041 58.0608 85.3008 60.9896V203.426C85.3041 206.354 86.4653 209.162 88.5297 211.233C90.594 213.304 93.393 214.469 96.3125 214.473H217.207C220.126 214.469 222.925 213.304 224.989 211.233C227.054 209.162 228.215 206.354 228.218 203.426V66.7273L207.228 49.9426H96.3125Z" fill="white"/>
<path d="M193.695 91.359H138.653C137.97 91.359 137.315 91.0868 136.832 90.6023C136.349 90.1179 136.078 89.4608 136.078 88.7757C136.078 88.0905 136.349 87.4335 136.832 86.949C137.315 86.4646 137.97 86.1924 138.653 86.1924H193.695C194.377 86.1924 195.032 86.4646 195.515 86.949C195.998 87.4335 196.27 88.0905 196.27 88.7757C196.27 89.4608 195.998 90.1179 195.515 90.6023C195.032 91.0868 194.377 91.359 193.695 91.359Z" fill="#1134E3"/>
<path d="M204.317 100.077H138.654C137.971 100.077 137.317 99.804 136.835 99.3196C136.353 98.8353 136.082 98.1787 136.082 97.4942C136.082 96.8096 136.353 96.1531 136.835 95.6687C137.317 95.1844 137.971 94.9118 138.654 94.9109H204.317C204.655 94.9104 204.991 94.9769 205.303 95.1065C205.616 95.2361 205.901 95.4264 206.14 95.6663C206.38 95.9062 206.57 96.1911 206.699 96.5048C206.829 96.8184 206.895 97.1546 206.895 97.4942C206.895 97.8337 206.829 98.1699 206.699 98.4836C206.57 98.7972 206.38 99.0822 206.14 99.3221C205.901 99.562 205.616 99.7522 205.303 99.8818C204.991 100.011 204.655 100.078 204.317 100.077Z" fill="#1134E3"/>
<path d="M193.693 125.263H138.653C137.97 125.263 137.315 125.536 136.832 126.02C136.349 126.504 136.078 127.161 136.078 127.847C136.078 128.532 136.349 129.189 136.832 129.673C137.315 130.158 137.97 130.43 138.653 130.43H193.693C194.375 130.43 195.03 130.158 195.513 129.673C195.996 129.189 196.267 128.532 196.267 127.847C196.267 127.161 195.996 126.504 195.513 126.02C195.03 125.536 194.375 125.263 193.693 125.263Z" fill="#CCCCCC"/>
<path d="M204.315 133.983H138.653C137.97 133.983 137.315 134.256 136.832 134.74C136.349 135.224 136.078 135.881 136.078 136.567C136.078 137.252 136.349 137.909 136.832 138.393C137.315 138.877 137.97 139.15 138.653 139.15H204.315C204.998 139.15 205.653 138.877 206.136 138.393C206.619 137.909 206.89 137.252 206.89 136.567C206.89 135.881 206.619 135.224 206.136 134.74C205.653 134.256 204.998 133.983 204.315 133.983Z" fill="#CCCCCC"/>
<path d="M193.695 169.504H138.653C137.97 169.504 137.315 169.232 136.832 168.747C136.349 168.263 136.078 167.606 136.078 166.92C136.078 166.235 136.349 165.578 136.832 165.094C137.315 164.609 137.97 164.337 138.653 164.337H193.695C194.377 164.337 195.032 164.609 195.515 165.094C195.998 165.578 196.27 166.235 196.27 166.92C196.27 167.606 195.998 168.263 195.515 168.747C195.032 169.232 194.377 169.504 193.695 169.504Z" fill="#CCCCCC"/>
<path d="M204.317 178.223H138.654C137.971 178.222 137.317 177.949 136.835 177.465C136.353 176.98 136.082 176.324 136.082 175.639C136.082 174.955 136.353 174.298 136.835 173.814C137.317 173.329 137.971 173.057 138.654 173.056H204.317C204.655 173.055 204.991 173.122 205.303 173.252C205.616 173.381 205.901 173.571 206.14 173.811C206.38 174.051 206.57 174.336 206.699 174.65C206.829 174.963 206.895 175.3 206.895 175.639C206.895 175.979 206.829 176.315 206.699 176.629C206.57 176.942 206.38 177.227 206.14 177.467C205.901 177.707 205.616 177.897 205.303 178.027C204.991 178.156 204.655 178.223 204.317 178.223Z" fill="#CCCCCC"/>
<path d="M115.73 102.265C120.757 102.265 124.832 98.1776 124.832 93.1349C124.832 88.0923 120.757 84.0044 115.73 84.0044C110.704 84.0044 106.629 88.0923 106.629 93.1349C106.629 98.1776 110.704 102.265 115.73 102.265Z" fill="#1134E3"/>
<path d="M114.829 96.6178C114.624 96.6181 114.425 96.5517 114.261 96.4285L114.251 96.4208L112.112 94.7794C112.013 94.7033 111.929 94.6083 111.867 94.4998C111.804 94.3913 111.763 94.2715 111.747 94.1472C111.73 94.0229 111.738 93.8966 111.77 93.7754C111.803 93.6543 111.858 93.5407 111.934 93.4411C112.01 93.3416 112.105 93.2581 112.214 93.1955C112.322 93.1328 112.441 93.0921 112.565 93.0758C112.689 93.0595 112.815 93.0679 112.936 93.1005C113.057 93.1331 113.17 93.1893 113.269 93.2658L114.654 94.3316L117.928 90.0468C118.004 89.9475 118.099 89.8641 118.207 89.8015C118.315 89.7388 118.434 89.6982 118.558 89.6818C118.681 89.6654 118.807 89.6736 118.928 89.706C119.048 89.7383 119.161 89.7942 119.26 89.8703L119.24 89.8988L119.261 89.8705C119.461 90.0245 119.591 90.2518 119.624 90.5024C119.657 90.753 119.59 91.0064 119.437 91.2072L115.586 96.2448C115.497 96.3609 115.382 96.4548 115.251 96.5193C115.12 96.5838 114.976 96.6171 114.83 96.6167L114.829 96.6178Z" fill="white"/>
<path d="M125.768 132.207C125.768 133.406 125.533 134.593 125.076 135.701C124.619 136.809 123.949 137.816 123.104 138.665C122.259 139.513 121.256 140.186 120.151 140.645C119.047 141.104 117.864 141.34 116.668 141.34C116.59 141.342 116.512 141.339 116.434 141.331C114.644 141.285 112.908 140.71 111.442 139.679C109.977 138.648 108.847 137.207 108.194 135.534C107.541 133.862 107.394 132.034 107.771 130.279C108.149 128.523 109.034 126.918 110.316 125.665C111.598 124.412 113.22 123.565 114.979 123.232C116.738 122.899 118.556 123.094 120.206 123.792C121.855 124.491 123.262 125.661 124.252 127.158C125.241 128.655 125.769 130.411 125.768 132.207Z" fill="#CCCCCC"/>
<path d="M115.73 180.41C120.757 180.41 124.832 176.322 124.832 171.28C124.832 166.237 120.757 162.149 115.73 162.149C110.704 162.149 106.629 166.237 106.629 171.28C106.629 176.322 110.704 180.41 115.73 180.41Z" fill="#CCCCCC"/>
<path d="M232.204 65.1905H213.494C212.128 65.1905 210.818 64.6461 209.852 63.6772C208.886 62.7083 208.344 61.3941 208.344 60.0238V46.1606C208.344 46.0999 208.361 46.0404 208.393 45.989C208.425 45.9376 208.471 45.8963 208.526 45.8699C208.58 45.8434 208.641 45.8329 208.701 45.8396C208.761 45.8462 208.818 45.8698 208.865 45.9074L232.404 64.6144C232.456 64.6561 232.494 64.713 232.513 64.7774C232.532 64.8418 232.53 64.9104 232.508 64.9737C232.486 65.037 232.445 65.0919 232.39 65.1307C232.336 65.1696 232.271 65.1905 232.204 65.1905Z" fill="#CCCCCC"/>
<path d="M261.023 124.929C260.634 125.568 260.009 126.026 259.284 126.202C258.56 126.378 257.795 126.258 257.158 125.869L224.355 105.796C224.04 105.603 223.766 105.35 223.548 105.05C223.331 104.751 223.174 104.412 223.087 104.052C223 103.692 222.985 103.318 223.042 102.952C223.099 102.586 223.227 102.235 223.419 101.919C223.611 101.603 223.864 101.328 224.162 101.109C224.46 100.891 224.798 100.734 225.157 100.647C225.516 100.559 225.889 100.544 226.253 100.601C226.618 100.658 226.968 100.787 227.283 100.98L260.086 121.053C260.723 121.442 261.179 122.07 261.355 122.797C261.53 123.524 261.411 124.291 261.023 124.929Z" fill="#041256"/>
<path d="M228.221 104.857C225.905 108.667 222.514 111.702 218.478 113.579C214.442 115.455 209.942 116.089 205.547 115.4C201.152 114.711 197.059 112.73 193.786 109.708C190.513 106.685 188.207 102.757 187.16 98.4196C186.112 94.0824 186.37 89.5309 187.901 85.3408C189.433 81.1507 192.168 77.5101 195.761 74.8795C199.355 72.2489 203.645 70.7464 208.09 70.562C212.534 70.3776 216.934 71.5195 220.732 73.8435C225.819 76.9644 229.465 81.9824 230.869 87.7965C232.273 93.6106 231.32 99.746 228.221 104.857ZM194.618 84.2944C192.881 87.1518 192.027 90.462 192.165 93.8062C192.303 97.1504 193.426 100.378 195.393 103.082C197.359 105.786 200.081 107.844 203.213 108.996C206.346 110.148 209.749 110.342 212.991 109.554C216.234 108.766 219.17 107.031 221.43 104.569C223.69 102.106 225.171 99.0266 225.686 95.7196C226.201 92.4127 225.727 89.0268 224.324 85.9901C222.921 82.9534 220.652 80.4022 217.804 78.6593C213.983 76.3272 209.396 75.6108 205.049 76.6672C200.703 77.7237 196.951 80.4666 194.618 84.2944Z" fill="#041256"/>
</g>
<defs>
<clipPath id="clip0_2812_9380">
<rect width="261" height="220" fill="white" transform="translate(0.5 0.5)"/>
</clipPath>
</defs>
</svg>
