<svg width="185" height="146" viewBox="0 0 185 146" fill="none" xmlns="http://www.w3.org/2000/svg">
    <path d="M118.937 95.4508C121.28 103.964 116.283 112.767 107.772 115.119L45.9515 132.202C37.4281 134.557 28.6103 129.551 26.2636 121.026L4.24171 41.0167C1.89838 32.503 6.8952 23.7006 15.4065 21.3487L77.2268 4.26587C85.7502 1.91059 94.568 6.9161 96.9147 15.4419L118.937 95.4508Z"
          fill="white"/>
    <path d="M118.937 95.4508C121.28 103.964 116.283 112.767 107.772 115.119L45.9515 132.202C37.4281 134.557 28.6103 129.551 26.2636 121.026L4.24171 41.0167C1.89838 32.503 6.8952 23.7006 15.4065 21.3487L77.2268 4.26587C85.7502 1.91059 94.568 6.9161 96.9147 15.4419L118.937 95.4508ZM27.4475 118.936C29.7942 127.462 38.612 132.467 47.1354 130.112L105.686 113.933C114.198 111.581 119.194 102.778 116.851 94.2645L95.7308 17.5316C93.3841 9.0058 84.5663 4.00028 76.0429 6.35555L17.4921 22.5349C8.98079 24.8868 3.98398 33.6893 6.3273 42.2029L27.4475 118.936Z"
          fill="#F1F1F1"/>
    <path d="M72.4983 49.6648L49.2702 56.0834C48.9426 56.1736 48.5926 56.1298 48.2971 55.9617C48.0016 55.7936 47.7847 55.515 47.694 55.1869L41.288 31.913C41.198 31.5847 41.2417 31.234 41.4094 30.9379C41.5772 30.6419 41.8553 30.4245 42.1828 30.3336L65.4109 23.915C65.7385 23.8249 66.0885 23.8686 66.384 24.0367C66.6795 24.2048 66.8964 24.4835 66.9871 24.8116L73.3931 48.0854C73.4831 48.4138 73.4394 48.7644 73.2716 49.0605C73.1039 49.3566 72.8258 49.5739 72.4983 49.6648ZM42.3191 30.8288C42.1226 30.8834 41.9557 31.0138 41.855 31.1914C41.7544 31.3691 41.7282 31.5795 41.7822 31.7765L48.1882 55.0503C48.2426 55.2472 48.3727 55.4144 48.55 55.5152C48.7273 55.6161 48.9373 55.6424 49.1339 55.5883L72.362 49.1697C72.5585 49.1151 72.7253 48.9847 72.826 48.8071C72.9266 48.6294 72.9529 48.419 72.8989 48.222L66.4929 24.9482C66.4385 24.7513 66.3083 24.5841 66.131 24.4833C65.9537 24.3824 65.7437 24.3561 65.5471 24.4102L42.3191 30.8288Z"
          fill="#E5E5E5"/>
    <path
            class="pos_svg_theme_color"
            d="M66.6096 54.3541L43.3815 60.7727C43.0866 60.8538 42.7716 60.8144 42.5057 60.6631C42.2397 60.5119 42.0445 60.2611 41.9628 59.9658L35.5568 36.6919C35.4759 36.3964 35.5152 36.0808 35.6662 35.8143C35.8171 35.5478 36.0674 35.3523 36.3622 35.2705L59.5902 28.8518C59.8851 28.7707 60.2001 28.8101 60.4661 28.9614C60.732 29.1126 60.9272 29.3634 61.0089 29.6587L67.4149 52.9326C67.4958 53.2281 67.4565 53.5437 67.3056 53.8102C67.1546 54.0767 66.9043 54.2723 66.6096 54.3541Z"
            fill="yellow"
    />
    <path d="M93.5197 57.5335L28.6992 75.4453L29.39 77.9551L94.2105 60.0433L93.5197 57.5335Z" fill="#F1F1F1"/>
    <path d="M95.3205 64.0765L30.5 81.9883L31.1908 84.4981L96.0113 66.5863L95.3205 64.0765Z" fill="#F1F1F1"/>
    <path d="M97.1213 70.6194L32.3008 88.5312L32.9916 91.0411L97.8121 73.1293L97.1213 70.6194Z" fill="#F1F1F1"/>
    <path d="M100.291 82.137L35.4707 100.049L36.1615 102.559L100.982 84.6468L100.291 82.137Z" fill="#F1F1F1"/>
    <path d="M102.092 88.6819L37.2715 106.594L37.9623 109.104L102.783 91.1918L102.092 88.6819Z" fill="#F1F1F1"/>
    <path d="M103.893 95.2249L39.0723 113.137L39.7631 115.647L104.584 97.7347L103.893 95.2249Z" fill="#F1F1F1"/>
    <path d="M152.841 120.098C152.841 128.934 145.677 136.098 136.841 136.098H72.7168C63.8802 136.098 56.7168 128.934 56.7168 120.098V37.0977C56.7168 28.2611 63.8802 21.0977 72.7168 21.0977H136.841C145.677 21.0977 152.841 28.2611 152.841 37.0977V120.098Z"
          fill="white"/>
    <path d="M152.841 120.098C152.841 128.934 145.677 136.098 136.841 136.098H72.7168C63.8802 136.098 56.7168 128.934 56.7168 120.098V37.0977C56.7168 28.2611 63.8802 21.0977 72.7168 21.0977H136.841C145.677 21.0977 152.841 28.2611 152.841 37.0977V120.098ZM58.4126 118.399C58.4126 127.235 65.576 134.399 74.4126 134.399H135.145C143.981 134.399 151.145 127.235 151.145 118.399V38.7968C151.145 29.9602 143.981 22.7968 135.145 22.7968H74.4126C65.576 22.7968 58.4126 29.9602 58.4126 38.7968V118.399Z"
          fill="#E5E5E5"/>
    <path
            class="pos_svg_theme_color"
            d="M135.341 70.5332H80.3828V73.1367H135.341V70.5332Z"
            fill="yellow"
    />
    <path
            class="pos_svg_theme_color"
            d="M135.341 77.3027H80.3828V79.9063H135.341V77.3027Z"
            fill="yellow"
    />
    <path
            class="pos_svg_theme_color"
            d="M135.341 84.0723H80.3828V86.6758H135.341V84.0723Z"
            fill="yellow"
    />
    <path
            class="pos_svg_theme_color"
            d="M75.9145 73.9158C76.8511 73.9158 77.6103 73.1551 77.6103 72.2167C77.6103 71.2783 76.8511 70.5176 75.9145 70.5176C74.978 70.5176 74.2188 71.2783 74.2188 72.2167C74.2188 73.1551 74.978 73.9158 75.9145 73.9158Z"
            fill="yellow"
    />
    <path d="M135.341 41.3652H80.3828V43.9688H135.341V41.3652Z" fill="#E5E5E5"/>
    <path d="M135.341 48.1348H80.3828V50.7383H135.341V48.1348Z" fill="#E5E5E5"/>
    <path d="M135.341 54.9043H80.3828V57.5078H135.341V54.9043Z" fill="#E5E5E5"/>
    <path d="M75.9145 44.4646C76.8511 44.4646 77.6103 43.7039 77.6103 42.7655C77.6103 41.8271 76.8511 41.0664 75.9145 41.0664C74.978 41.0664 74.2188 41.8271 74.2188 42.7655C74.2188 43.7039 74.978 44.4646 75.9145 44.4646Z"
          fill="#E5E5E5"/>
    <path d="M135.341 99.9863H80.3828V102.59H135.341V99.9863Z" fill="#E5E5E5"/>
    <path d="M135.341 106.754H80.3828V109.357H135.341V106.754Z" fill="#E5E5E5"/>
    <path d="M135.341 113.523H80.3828V116.127H135.341V113.523Z" fill="#E5E5E5"/>
    <path d="M75.9145 103.084C76.8511 103.084 77.6103 102.323 77.6103 101.385C77.6103 100.446 76.8511 99.6855 75.9145 99.6855C74.978 99.6855 74.2188 100.446 74.2188 101.385C74.2188 102.323 74.978 103.084 75.9145 103.084Z"
          fill="#E5E5E5"/>
</svg>
