<svg preserveAspectRatio="xMidYMid meet" viewBox="0 0 20 20" fill="none" xmlns="http://www.w3.org/2000/svg">
    <path d="M17.3727 12.3795L13.6922 10.7303L13.682 10.7256C13.491 10.6439 13.2825 10.6111 13.0756 10.6302C12.8687 10.6493 12.6698 10.7197 12.4969 10.835C12.4765 10.8484 12.457 10.8631 12.4383 10.8787L10.5367 12.4998C9.33204 11.9147 8.08829 10.6803 7.50313 9.49125L9.12657 7.56078C9.14219 7.54125 9.15704 7.52172 9.1711 7.50062C9.28394 7.3282 9.35239 7.13056 9.37039 6.92529C9.38838 6.72002 9.35534 6.51348 9.27423 6.32406V6.31469L7.62032 2.62797C7.51309 2.38052 7.3287 2.17438 7.09468 2.04034C6.86067 1.9063 6.58958 1.85153 6.32188 1.88422C5.26326 2.02352 4.29155 2.54341 3.58824 3.34679C2.88492 4.15017 2.49809 5.1821 2.50001 6.24984C2.50001 12.453 7.54688 17.4998 13.75 17.4998C14.8177 17.5018 15.8497 17.1149 16.6531 16.4116C17.4564 15.7083 17.9763 14.7366 18.1156 13.678C18.1484 13.4104 18.0937 13.1393 17.9598 12.9053C17.8259 12.6713 17.62 12.4869 17.3727 12.3795ZM13.75 16.2498C11.0987 16.2469 8.55687 15.1924 6.68214 13.3177C4.8074 11.443 3.7529 8.90112 3.75001 6.24984C3.74707 5.48694 4.02192 4.74906 4.52324 4.17399C5.02456 3.59892 5.71806 3.22599 6.47423 3.12484C6.47392 3.12796 6.47392 3.1311 6.47423 3.13422L8.11485 6.80609L6.50001 8.7389C6.48362 8.75776 6.46873 8.77788 6.45548 8.79906C6.33791 8.97947 6.26894 9.18718 6.25525 9.40208C6.24157 9.61697 6.28362 9.83176 6.37735 10.0256C7.08516 11.4733 8.54376 12.9209 10.007 13.628C10.2023 13.7208 10.4184 13.7614 10.634 13.7458C10.8497 13.7302 11.0576 13.6589 11.2375 13.5389C11.2576 13.5254 11.2769 13.5108 11.2953 13.4952L13.1945 11.8748L16.8664 13.5194C16.8664 13.5194 16.8727 13.5194 16.875 13.5194C16.7751 14.2766 16.4027 14.9715 15.8275 15.4741C15.2524 15.9766 14.5138 16.2524 13.75 16.2498Z"
          fill="#343330"/>
</svg>
