<svg preserveAspectRatio="xMidYMid meet" viewBox="0 0 64 64" fill="none" xmlns="http://www.w3.org/2000/svg">
    <path d="M57.4994 34.1218C57.083 38.9671 55.2913 43.5925 52.3353 47.4541C49.3793 51.3156 45.3818 54.2525 40.8133 55.9192C36.2448 57.586 31.2952 57.9133 26.547 56.8625C21.7988 55.8118 17.4495 53.4267 14.0108 49.988C10.5721 46.5493 8.18702 42.2 7.13627 37.4518C6.08551 32.7036 6.41277 27.754 8.07952 23.1855C9.74628 18.617 12.6832 14.6195 16.5447 11.6635C20.4062 8.70744 25.0317 6.9158 29.8769 6.49934C30.2747 6.46619 30.6694 6.59243 30.9742 6.8503C31.2789 7.10816 31.4688 7.47652 31.5019 7.87434C31.5351 8.27217 31.4088 8.66687 31.151 8.97162C30.8931 9.27636 30.5247 9.46619 30.1269 9.49934C25.8501 9.8656 21.7668 11.4459 18.3577 14.0542C14.9486 16.6625 12.3554 20.1904 10.8834 24.2226C9.41132 28.2548 9.12167 32.6235 10.0485 36.8148C10.9753 41.006 13.08 44.8454 16.115 47.8809C19.1499 50.9165 22.9888 53.022 27.1799 53.9497C31.3709 54.8774 35.7398 54.5886 39.7723 53.1174C43.8048 51.6462 47.3331 49.0537 49.9422 45.6451C52.5512 42.2365 54.1323 38.1536 54.4994 33.8768C54.5158 33.6799 54.5709 33.488 54.6614 33.3123C54.752 33.1366 54.8763 32.9805 55.0272 32.8528C55.3319 32.5949 55.7266 32.4687 56.1244 32.5018C56.3214 32.5183 56.5132 32.5733 56.6889 32.6639C56.8646 32.7544 57.0208 32.8787 57.1485 33.0296C57.2762 33.1805 57.3729 33.355 57.4331 33.5433C57.4933 33.7316 57.5158 33.9299 57.4994 34.1268V34.1218ZM30.4994 17.9993V31.9993C30.4994 32.3972 30.6575 32.7787 30.9388 33.06C31.2201 33.3413 31.6016 33.4993 31.9994 33.4993H45.9994C46.3972 33.4993 46.7788 33.3413 47.0601 33.06C47.3414 32.7787 47.4994 32.3972 47.4994 31.9993C47.4994 31.6015 47.3414 31.22 47.0601 30.9387C46.7788 30.6574 46.3972 30.4993 45.9994 30.4993H33.4994V17.9993C33.4994 17.6015 33.3414 17.22 33.0601 16.9387C32.7788 16.6574 32.3972 16.4993 31.9994 16.4993C31.6016 16.4993 31.2201 16.6574 30.9388 16.9387C30.6575 17.22 30.4994 17.6015 30.4994 17.9993ZM39.9994 11.4993C40.4939 11.4993 40.9772 11.3527 41.3884 11.078C41.7995 10.8033 42.1199 10.4129 42.3091 9.95605C42.4983 9.49924 42.5478 8.99657 42.4514 8.51162C42.3549 8.02666 42.1168 7.58121 41.7672 7.23158C41.4176 6.88195 40.9721 6.64384 40.4871 6.54738C40.0022 6.45092 39.4995 6.50043 39.0427 6.68964C38.5859 6.87886 38.1955 7.1993 37.9207 7.61042C37.646 8.02154 37.4994 8.50489 37.4994 8.99934C37.4994 9.32765 37.5641 9.65274 37.6897 9.95605C37.8154 10.2594 37.9995 10.535 38.2317 10.7671C38.7005 11.236 39.3364 11.4993 39.9994 11.4993ZM48.9994 17.4993C49.4939 17.4993 49.9772 17.3527 50.3884 17.078C50.7995 16.8033 51.1199 16.4129 51.3091 15.9561C51.4983 15.4992 51.5478 14.9966 51.4514 14.5116C51.3549 14.0267 51.1168 13.5812 50.7672 13.2316C50.4176 12.8819 49.9721 12.6438 49.4871 12.5474C49.0022 12.4509 48.4995 12.5004 48.0427 12.6896C47.5859 12.8789 47.1955 13.1993 46.9207 13.6104C46.646 14.0215 46.4994 14.5049 46.4994 14.9993C46.4994 15.6624 46.7628 16.2983 47.2317 16.7671C47.7005 17.236 48.3364 17.4993 48.9994 17.4993ZM54.9994 26.4993C55.4939 26.4993 55.9772 26.3527 56.3884 26.078C56.7995 25.8033 57.1199 25.4129 57.3091 24.9561C57.4983 24.4992 57.5478 23.9966 57.4514 23.5116C57.3549 23.0267 57.1168 22.5812 56.7672 22.2316C56.4176 21.8819 55.9721 21.6438 55.4871 21.5474C55.0022 21.4509 54.4995 21.5004 54.0427 21.6896C53.5859 21.8789 53.1955 22.1993 52.9207 22.6104C52.646 23.0215 52.4994 23.5049 52.4994 23.9993C52.4994 24.6624 52.7628 25.2983 53.2317 25.7671C53.7005 26.236 54.3364 26.4993 54.9994 26.4993Z"
          fill="#343330"/>
</svg>
