<svg preserveAspectRatio="xMidYMid meet" viewBox="0 0 64 64" fill="none" xmlns="http://www.w3.org/2000/svg">
    <path d="M50.1175 14.0175C47.7714 11.6465 44.9804 9.76192 41.9044 8.47189C38.8284 7.18187 35.528 6.51176 32.1925 6.5H32C25.237 6.5 18.751 9.1866 13.9688 13.9688C9.1866 18.751 6.5 25.237 6.5 32V46C6.5 47.4587 7.07946 48.8576 8.11091 49.8891C9.14236 50.9205 10.5413 51.5 12 51.5H16C17.4587 51.5 18.8576 50.9205 19.8891 49.8891C20.9205 48.8576 21.5 47.4587 21.5 46V36C21.5 34.5413 20.9205 33.1424 19.8891 32.1109C18.8576 31.0795 17.4587 30.5 16 30.5H9.55C9.93051 24.805 12.4612 19.4674 16.6295 15.5683C20.7979 11.6692 26.2923 9.49999 32 9.5H32.17C37.8538 9.52523 43.3161 11.7076 47.4524 15.6059C51.5888 19.5042 54.0908 24.8276 54.4525 30.5H48C46.5413 30.5 45.1424 31.0795 44.1109 32.1109C43.0795 33.1424 42.5 34.5413 42.5 36V46C42.5 47.4587 43.0795 48.8576 44.1109 49.8891C45.1424 50.9205 46.5413 51.5 48 51.5H54.5V52C54.5 53.7239 53.8152 55.3772 52.5962 56.5962C51.3772 57.8152 49.7239 58.5 48 58.5H34C33.6022 58.5 33.2206 58.658 32.9393 58.9393C32.658 59.2206 32.5 59.6022 32.5 60C32.5 60.3978 32.658 60.7794 32.9393 61.0607C33.2206 61.342 33.6022 61.5 34 61.5H48C50.5196 61.5 52.9359 60.4991 54.7175 58.7175C56.4991 56.9359 57.5 54.5196 57.5 52V32C57.5126 28.6644 56.8669 25.359 55.6001 22.2733C54.3333 19.1876 52.4702 16.3821 50.1175 14.0175ZM16 33.5C16.663 33.5 17.2989 33.7634 17.7678 34.2322C18.2366 34.7011 18.5 35.337 18.5 36V46C18.5 46.663 18.2366 47.2989 17.7678 47.7678C17.2989 48.2366 16.663 48.5 16 48.5H12C11.337 48.5 10.7011 48.2366 10.2322 47.7678C9.76339 47.2989 9.5 46.663 9.5 46V33.5H16ZM45.5 46V36C45.5 35.337 45.7634 34.7011 46.2322 34.2322C46.7011 33.7634 47.337 33.5 48 33.5H54.5V48.5H48C47.337 48.5 46.7011 48.2366 46.2322 47.7678C45.7634 47.2989 45.5 46.663 45.5 46Z"
          fill="#343330"/>
</svg>
