<svg width="24" height="24" viewBox="0 0 24 24" fill="none" xmlns="http://www.w3.org/2000/svg">
<path fill-rule="evenodd" clip-rule="evenodd" d="M22.5601 16.2999L14.8901 3.57994C14.2598 2.59394 13.1703 1.99731 12.0001 1.99731C10.8299 1.99731 9.74038 2.59394 9.1101 3.57994L1.4401 16.2999C0.888647 17.2192 0.869586 18.3628 1.3901 19.2999C1.99207 20.3551 3.11533 21.0046 4.3301 20.9999H19.6701C20.8766 21.0128 21.9979 20.3797 22.6101 19.3399C23.1462 18.3926 23.1271 17.2292 22.5601 16.2999ZM12.0001 16.9999C11.4478 16.9999 11.0001 16.5522 11.0001 15.9999C11.0001 15.4477 11.4478 14.9999 12.0001 14.9999C12.5524 14.9999 13.0001 15.4477 13.0001 15.9999C13.0001 16.5522 12.5524 16.9999 12.0001 16.9999ZM12.0001 13.9999C12.5524 13.9999 13.0001 13.5522 13.0001 12.9999V8.99994C13.0001 8.44765 12.5524 7.99994 12.0001 7.99994C11.4478 7.99994 11.0001 8.44765 11.0001 8.99994V12.9999C11.0001 13.5522 11.4478 13.9999 12.0001 13.9999Z" fill="#E69A00"/>
</svg>
