<svg preserveAspectRatio="xMidYMid meet" viewBox="0 0 720 348" fill="none" xmlns="http://www.w3.org/2000/svg">
<path d="M438.765 152.458C438.171 155.588 437.457 158.686 436.626 161.752C436.536 162.108 436.435 162.458 436.334 162.814H424.766C423.781 162.815 422.837 163.208 422.14 163.905C421.443 164.602 421.051 165.547 421.05 166.534V199.54C420.7 200.194 420.344 200.842 419.989 201.49C418.152 204.838 416.241 208.148 414.287 211.416C382.432 264.526 338.002 308.969 284.921 340.823L288.064 333.724C286.912 333.644 285.755 333.565 284.603 333.485C259.52 331.769 234.352 329.866 209.857 324.224C184.233 318.321 159.166 308.082 139.083 291.105C118.995 274.124 104.269 249.874 102.225 223.636C101.544 214.619 102.455 205.552 104.917 196.852C109.625 180.104 119.914 165.035 134.757 156.119C158.072 142.119 188.485 144.972 213.064 156.619C237.638 168.26 257.641 187.532 277.171 206.469C257.452 172.624 229.997 143.941 197.059 122.773C186.144 115.78 174.561 109.553 165.281 100.494C156.007 91.4398 149.164 78.7461 150.805 65.8825C152.668 51.292 164.607 40.2189 176.567 31.6803C181.345 28.2691 186.277 25.0333 191.362 22.0578C205.711 13.6415 221.234 7.29198 237.627 4.93816C259.833 1.74483 283.817 6.59062 300.842 21.213C320.022 37.6898 327.889 64.2619 327.141 89.681C338.958 72.487 357.182 59.3258 377.764 58.7679C399.131 58.194 419.442 71.7059 430.144 90.2283C440.841 108.745 442.763 131.444 438.765 152.458Z" fill="#E6E6E6"/>
<path d="M303.577 223.868C316.092 222.765 327.652 221.476 339.78 218.041C351.535 214.712 362.846 209.138 371.214 200.038C380.215 190.25 385.074 177.538 388.502 164.884C390.413 157.829 391.983 150.676 393.465 143.519C395.073 135.755 396.501 127.956 397.751 120.123C400.238 104.531 402.013 88.8468 403.077 73.071C403.205 71.156 403.323 69.2404 403.43 67.3241C403.497 66.142 401.66 66.1458 401.594 67.3241C400.72 82.8745 399.147 98.3643 396.877 113.793C394.636 128.953 391.77 144.046 388.132 158.933C385.051 171.545 381.062 184.354 373.159 194.853C365.748 204.698 355.045 211.132 343.488 214.979C331.728 218.893 319.328 220.456 307.039 221.618C305.532 221.76 305.085 221.896 303.577 222.029C302.409 222.132 302.398 223.972 303.577 223.868Z" fill="white"/>
<path d="M105.977 198.208C121.767 199.085 137.396 201.841 152.534 206.419C167.679 210.988 182.232 217.329 195.893 225.309C209.093 233.027 221.347 242.261 232.406 252.825C243.138 263.083 252.704 274.499 260.927 286.864C269.188 299.259 276.034 312.543 281.337 326.466C281.984 328.17 282.606 329.882 283.206 331.604C283.593 332.714 285.368 332.236 284.977 331.115C280.016 316.898 273.475 303.284 265.479 290.528C257.484 277.771 248.101 265.94 237.502 255.252C226.734 244.398 214.749 234.825 201.786 226.723C174.568 209.753 143.717 199.488 111.765 196.769C109.838 196.607 107.908 196.474 105.977 196.37C104.796 196.305 104.799 198.144 105.977 198.208Z" fill="white"/>
<path d="M191.858 24.213C201.954 27.4267 211.524 32.1071 220.26 38.1044C229.188 44.2744 237.33 51.5116 244.506 59.6555C252.068 68.2226 258.791 77.4964 264.583 87.3493C270.726 97.7526 276.063 108.612 280.546 119.833C285.162 131.352 289.045 143.153 292.171 155.164C295.348 167.317 297.83 179.642 299.604 192.079C301.37 204.383 302.438 216.778 302.804 229.203C303.173 241.084 302.822 252.977 301.753 264.815C300.776 275.86 298.99 286.819 296.411 297.602C294.121 307.342 290.893 316.836 286.773 325.952C285.819 328.021 284.807 330.062 283.736 332.074C283.18 333.118 284.765 334.047 285.322 333.002C289.875 324.294 293.51 315.136 296.169 305.675C299.153 295.144 301.316 284.396 302.638 273.53C304.104 261.74 304.818 249.869 304.776 237.989C304.749 225.508 304.007 213.039 302.552 200.643C301.097 188.092 298.937 175.633 296.081 163.326C293.233 150.998 289.619 138.86 285.262 126.983C281.062 115.485 276.034 104.307 270.216 93.5376C264.675 83.2611 258.218 73.5067 250.924 64.3932C243.996 55.7159 236.088 47.8713 227.356 41.0164C218.936 34.4264 209.631 29.0546 199.716 25.0591C197.293 24.0938 194.837 23.2209 192.347 22.4402C191.216 22.0843 190.733 23.8586 191.858 24.213Z" fill="white"/>
<path d="M300.81 344C373.374 344 432.198 341.621 432.198 338.687C432.198 335.752 373.374 333.373 300.81 333.373C228.246 333.373 169.422 335.752 169.422 338.687C169.422 341.621 228.246 344 300.81 344Z" fill="#E6E6E6"/>
<path d="M416.893 172.266C416.828 172.553 416.785 172.844 416.766 173.138L393.962 186.305L388.419 183.112L382.51 190.854L394.367 199.314L420.384 178.771C421.445 179.164 422.6 179.224 423.697 178.944C424.793 178.663 425.778 178.056 426.521 177.201C427.263 176.347 427.729 175.287 427.855 174.161C427.981 173.036 427.761 171.899 427.226 170.901C426.691 169.904 425.864 169.093 424.857 168.577C423.85 168.061 422.71 167.863 421.588 168.012C420.467 168.16 419.417 168.646 418.578 169.406C417.739 170.166 417.152 171.164 416.893 172.266Z" fill="#FFB8B8"/>
<path d="M364.957 180.345L382.913 193.154L390.944 183.076L373.489 169.058C372.738 168.455 371.872 168.012 370.944 167.755C370.016 167.499 369.045 167.435 368.092 167.567C367.138 167.7 366.221 168.025 365.398 168.525C364.574 169.024 363.861 169.686 363.303 170.471C362.214 172 361.776 173.899 362.087 175.751C362.397 177.603 363.43 179.255 364.957 180.345Z" fill="#1134E3"/>
<path d="M327.892 326.499L334.188 328.149L343.547 304.63L334.255 302.193L327.892 326.499Z" fill="#FFB8B8"/>
<path d="M344.798 337.185L325.011 331.996L327.014 324.344L339.156 327.529C341.183 328.06 342.917 329.376 343.975 331.187C345.033 332.998 345.329 335.156 344.798 337.185Z" fill="#041256"/>
<path d="M383.857 330.985L390.264 329.839L388.899 304.56L379.443 306.251L383.857 330.985Z" fill="#FFB8B8"/>
<path d="M403.683 333.585L383.547 337.185L382.157 329.398L394.513 327.189C395.535 327.007 396.582 327.027 397.596 327.25C398.61 327.472 399.57 327.892 400.421 328.486C401.273 329.08 401.999 329.836 402.559 330.711C403.118 331.586 403.5 332.562 403.683 333.585Z" fill="#041256"/>
<path d="M371.241 145.074C372.82 145.459 374.104 147.069 374.876 148.934C375.587 150.894 376.069 152.929 376.311 154.999C376.917 158.855 377.499 163.029 376.246 166.6C374.776 170.786 370.862 172.978 367.466 171.948C364.07 170.918 361.369 167.051 360.446 162.6C359.606 158.102 360.148 153.455 361.999 149.271C362.964 147.073 364.293 145.045 366.06 144.053C366.927 143.529 367.96 143.352 368.952 143.559C369.943 143.766 370.82 144.341 371.405 145.168" fill="#041256"/>
<path d="M380.174 214.885L392.371 324.231L382.297 328.06L363.717 254.735L337.849 321.779L326.822 322.392C326.822 322.392 341.952 218.073 353.164 215.702L380.174 214.885Z" fill="#041256"/>
<path d="M369.929 159.029C377.13 159.029 382.967 153.186 382.967 145.979C382.967 138.771 377.13 132.929 369.929 132.929C362.728 132.929 356.89 138.771 356.89 145.979C356.89 153.186 362.728 159.029 369.929 159.029Z" fill="#FFB8B8"/>
<path d="M375.525 164.504L361.435 162.664C361.435 162.664 352.246 173.701 352.858 192.709C353.471 211.717 351.327 217.542 351.327 217.542L380.705 218.073C376.458 212.228 394.221 178.66 375.525 164.504Z" fill="#1134E3"/>
<path d="M383.094 220.73C382.8 220.732 382.507 220.757 382.217 220.805L364.192 201.6L366.029 195.468L357.146 191.483L351.633 204.972L377.567 225.62C377.427 226.743 377.633 227.883 378.156 228.887C378.68 229.891 379.496 230.711 380.497 231.24C381.498 231.768 382.636 231.979 383.759 231.844C384.882 231.709 385.938 231.235 386.786 230.485C387.634 229.735 388.233 228.745 388.505 227.645C388.776 226.546 388.707 225.39 388.306 224.331C387.906 223.272 387.192 222.36 386.261 221.717C385.33 221.074 384.225 220.729 383.094 220.73Z" fill="#FFB8B8"/>
<path d="M363.351 171.976L355.002 192.403L366.642 197.921L376.281 177.706C376.696 176.836 376.929 175.891 376.966 174.928C377.003 173.965 376.843 173.005 376.496 172.106C376.149 171.207 375.622 170.388 374.948 169.7C374.274 169.012 373.467 168.469 372.576 168.104C371.716 167.752 370.796 167.573 369.867 167.577C368.938 167.581 368.019 167.768 367.162 168.128C366.306 168.488 365.528 169.012 364.874 169.673C364.22 170.333 363.703 171.116 363.351 171.976Z" fill="#1134E3"/>
<path d="M366.518 157.843C368.561 156.663 368.779 153.818 368.501 151.474C368.224 149.129 367.76 146.516 369.137 144.599C370.78 142.311 374.081 142.266 376.895 142.191C379.709 142.117 383.136 141.292 383.865 138.57C384.347 136.772 383.316 134.843 381.837 133.714C380.358 132.585 378.507 132.086 376.708 131.612C372.685 130.551 368.53 129.481 364.41 130.064C360.33 130.642 356.64 132.804 354.14 136.084C351.64 139.363 350.531 143.496 351.052 147.588C351.719 152.822 352.686 155.108 352.052 157.415C350.869 161.714 345.771 164.476 345.669 168.933C345.59 172.42 348.667 175.109 351.669 176.88C354.05 178.284 356.62 179.476 359.364 179.804C362.109 180.133 365.063 179.504 367.107 177.642C369.744 175.241 370.396 171.229 369.64 167.743C368.884 164.256 366.945 161.16 365.026 158.153" fill="#041256"/>
<path d="M601.289 154.9H429.61C428.131 154.898 426.677 155.282 425.392 156.014C425.084 156.189 424.787 156.383 424.504 156.595C423.432 157.391 422.56 158.428 421.96 159.621C421.36 160.815 421.048 162.133 421.048 163.469V252.768C421.05 255.04 421.953 257.218 423.558 258.825C425.163 260.432 427.34 261.335 429.61 261.337H601.289C603.559 261.335 605.736 260.432 607.341 258.825C608.946 257.218 609.849 255.04 609.851 252.768V163.469C609.849 161.197 608.946 159.018 607.341 157.412C605.736 155.805 603.559 154.902 601.289 154.9ZM608.95 252.768C608.947 254.8 608.139 256.749 606.703 258.186C605.267 259.623 603.32 260.432 601.289 260.435H429.61C427.579 260.432 425.632 259.623 424.196 258.186C422.76 256.749 421.952 254.8 421.949 252.768V163.469C421.956 161.848 422.472 160.271 423.425 158.961C424.378 157.651 425.719 156.675 427.257 156.172C427.32 156.153 427.379 156.131 427.442 156.113C428.146 155.906 428.876 155.801 429.61 155.802H601.289C603.32 155.805 605.267 156.613 606.703 158.051C608.139 159.488 608.947 161.436 608.95 163.469V252.768Z" fill="#3F3D56"/>
<path d="M515.262 208.081C514.578 208.08 513.905 207.907 513.307 207.576L423.617 158.167C423.512 158.109 423.435 158.012 423.402 157.898C423.368 157.783 423.382 157.659 423.44 157.555C423.497 157.45 423.594 157.372 423.709 157.339C423.824 157.306 423.947 157.319 424.052 157.377L513.741 206.786C514.198 207.039 514.712 207.173 515.234 207.178C515.757 207.183 516.272 207.057 516.734 206.812L607.9 158.677C607.952 158.649 608.009 158.632 608.068 158.626C608.127 158.621 608.187 158.627 608.243 158.644C608.3 158.662 608.352 158.69 608.398 158.728C608.444 158.766 608.481 158.812 608.509 158.865C608.537 158.917 608.554 158.974 608.559 159.033C608.565 159.093 608.558 159.152 608.541 159.209C608.523 159.265 608.495 159.318 608.457 159.364C608.419 159.409 608.372 159.447 608.32 159.474L517.154 207.61C516.571 207.919 515.921 208.08 515.262 208.081Z" fill="#3F3D56"/>
<path d="M449.691 238.787H437.074C436.118 238.787 435.201 238.407 434.525 237.73C433.849 237.053 433.469 236.136 433.469 235.179C433.469 234.222 433.849 233.304 434.525 232.627C435.201 231.951 436.118 231.571 437.074 231.571H449.691C450.647 231.571 451.564 231.951 452.24 232.627C452.916 233.304 453.296 234.222 453.296 235.179C453.296 236.136 452.916 237.053 452.24 237.73C451.564 238.407 450.647 238.787 449.691 238.787Z" fill="#3F3D56"/>
<path d="M464.561 250.964H437.074C436.118 250.964 435.201 250.584 434.525 249.907C433.849 249.23 433.469 248.313 433.469 247.356C433.469 246.399 433.849 245.481 434.525 244.805C435.201 244.128 436.118 243.748 437.074 243.748H464.561C465.517 243.748 466.434 244.128 467.11 244.805C467.786 245.481 468.166 246.399 468.166 247.356C468.166 248.313 467.786 249.23 467.11 249.907C466.434 250.584 465.517 250.964 464.561 250.964Z" fill="#3F3D56"/>
<path d="M515.226 222.55C523.189 222.55 529.645 216.089 529.645 208.118C529.645 200.148 523.189 193.686 515.226 193.686C507.262 193.686 500.806 200.148 500.806 208.118C500.806 216.089 507.262 222.55 515.226 222.55Z" fill="#1134E3"/>
</svg>
