<svg preserveAspectRatio="xMidYMid meet" viewBox="0 0 720 348" fill="none" xmlns="http://www.w3.org/2000/svg">
<path d="M282.111 235.568C295.687 211.688 321.585 193.351 349 195.118C328.778 217.106 316.986 245.538 315.711 275.383C315.26 286.895 315.959 299.746 308.314 308.366C303.558 313.729 296.288 316.327 289.14 316.872C281.991 317.417 274.845 316.125 267.792 314.839L266.081 315.365C265.429 287.903 268.534 259.449 282.111 235.568Z" fill="#F0F0F0"/>
<path d="M349.631 195.215C329.217 205.035 311.81 221.437 301.125 241.44C298.815 245.765 296.848 250.353 295.99 255.204C295.132 260.057 295.731 264.676 297.39 269.286C298.906 273.5 300.946 277.635 301.411 282.144C301.901 286.896 300.151 291.34 297.001 294.867C293.147 299.182 287.972 301.856 282.819 304.295C277.099 307.003 271.114 309.726 267.062 314.78C266.571 315.392 265.649 314.595 266.139 313.984C273.189 305.19 285.256 303.537 293.623 296.453C297.528 293.147 300.459 288.646 300.274 283.372C300.112 278.759 298.013 274.494 296.441 270.24C294.79 265.774 293.967 261.284 294.559 256.522C295.164 251.651 296.956 246.977 299.145 242.612C304.083 232.769 310.84 223.732 318.581 215.92C327.477 206.94 337.845 199.547 349.236 194.062C349.941 193.722 350.332 194.878 349.631 195.215Z" fill="white"/>
<path d="M303.934 234.876C300.694 232.592 298.401 229.271 297.466 225.507C296.531 221.744 297.013 217.782 298.828 214.33C299.197 213.632 300.338 214.153 299.968 214.852C298.273 218.063 297.823 221.754 298.702 225.257C299.58 228.76 301.729 231.845 304.759 233.955C305.417 234.414 304.588 235.333 303.934 234.876Z" fill="white"/>
<path d="M295.551 267.759C303.557 266.596 310.828 262.477 315.914 256.222C316.418 255.602 317.359 256.411 316.857 257.031C311.551 263.53 303.976 267.801 295.642 268.993C294.847 269.106 294.76 267.871 295.551 267.759Z" fill="white"/>
<path d="M303.704 164.936C305.049 166.429 306.744 167.565 308.636 168.24C310.529 168.916 312.559 169.11 314.545 168.806C315.562 168.647 315.673 170.244 314.662 170.402C312.466 170.728 310.224 170.51 308.132 169.769C306.04 169.027 304.161 167.784 302.659 166.147C302.505 166.005 302.41 165.809 302.395 165.6C302.379 165.39 302.444 165.182 302.576 165.019C302.715 164.859 302.912 164.761 303.123 164.745C303.334 164.73 303.543 164.798 303.704 164.936Z" fill="white"/>
<path d="M404 270.204C403.519 270.294 403.039 270.384 402.554 270.483C396.098 271.724 389.753 273.491 383.581 275.767C383.102 275.936 382.618 276.114 382.144 276.296C367.333 281.939 353.69 290.304 341.91 300.966C337.227 305.213 332.87 309.813 328.879 314.726C323.368 321.511 317.928 329.309 310.725 333.733C309.979 334.203 309.205 334.626 308.407 335L266.917 317.66C266.842 317.573 266.763 317.495 266.688 317.407L265 316.791C265.188 316.524 265.389 316.25 265.578 315.982C265.686 315.826 265.804 315.674 265.913 315.518C265.988 315.416 266.064 315.313 266.126 315.216C266.151 315.182 266.176 315.148 266.197 315.123C266.259 315.026 266.327 314.943 266.385 314.855C267.505 313.322 268.637 311.794 269.781 310.271C269.785 310.262 269.785 310.262 269.798 310.256C278.549 298.676 288.335 287.73 299.459 278.629C299.794 278.356 300.132 278.072 300.486 277.806C305.523 273.732 310.882 270.079 316.51 266.885C319.597 265.146 322.769 263.565 326.015 262.149C334.408 258.507 343.317 256.217 352.417 255.364C370.557 253.667 389.033 257.834 402.946 269.317C403.301 269.611 403.648 269.901 404 270.204Z" fill="#F0F0F0"/>
<path d="M404.199 271.321C381.899 266.854 358.03 269.492 337.369 279.089C332.902 281.164 328.551 283.659 324.93 287.035C321.308 290.413 318.994 294.486 317.536 299.191C316.203 303.493 315.337 308.047 312.983 311.95C310.502 316.063 306.412 318.573 301.755 319.499C296.056 320.632 290.291 319.647 284.687 318.488C278.464 317.201 272.022 315.766 265.718 317.373C264.954 317.568 264.697 316.37 265.459 316.175C276.427 313.379 287.098 319.354 298.088 318.729C303.217 318.437 308.288 316.596 311.329 312.248C313.989 308.446 314.886 303.75 316.198 299.383C317.576 294.797 319.632 290.693 322.986 287.227C326.417 283.682 330.679 281.012 335.074 278.832C344.984 273.915 355.864 270.747 366.793 269.158C379.353 267.331 392.133 267.668 404.58 270.156C405.35 270.31 404.965 271.474 404.199 271.321Z" fill="white"/>
<path d="M324.775 252.642C323.305 247.771 323.612 242.534 325.643 237.869C327.673 233.204 331.293 229.413 335.857 227.173C336.782 226.723 337.524 228.141 336.598 228.592C332.344 230.669 328.972 234.201 327.09 238.549C325.209 242.898 324.942 247.776 326.337 252.305C326.639 253.289 325.075 253.621 324.775 252.642Z" fill="white"/>
<path d="M290.822 280.467C299.935 285.463 310.594 286.837 320.674 284.315C321.673 284.064 322.009 285.628 321.012 285.879C310.517 288.485 299.427 287.032 289.955 281.812C289.053 281.314 289.924 279.971 290.822 280.467Z" fill="white"/>
<path d="M370.5 243.871C370.676 245.874 371.347 247.803 372.451 249.483C373.556 251.163 375.06 252.542 376.829 253.496C377.737 253.982 376.865 255.324 375.962 254.841C374.013 253.777 372.354 252.253 371.129 250.399C369.905 248.546 369.152 246.42 368.937 244.209C368.9 244.002 368.942 243.788 369.056 243.612C369.169 243.435 369.346 243.308 369.55 243.258C369.757 243.214 369.973 243.254 370.151 243.369C370.329 243.483 370.454 243.664 370.5 243.871Z" fill="white"/>
<path d="M324.52 299.253C318.702 271.131 311.428 261.755 311.428 261.755L308.65 259.601L305.308 257.006L305.324 256.673L304.532 256.404L304.345 256.259L304.04 256.025L303.991 256.078L303.888 256.185L288.767 251.047L269.583 244.534L260.7 232.993C259.254 231.113 257.391 229.594 255.259 228.554C253.126 227.515 250.782 226.983 248.409 227L220.039 227.21C216.203 227.239 212.517 228.7 209.704 231.308L191.057 248.597L162.002 262.467L161.953 262.418L161.648 262.636L157.158 264.782L157.343 265.746L154.565 267.75C154.565 267.75 147.291 276.474 141.473 302.641C139.992 309.3 139.264 323.582 139.001 341.182C138.988 342.073 139.152 342.957 139.483 343.783C139.815 344.61 140.308 345.362 140.933 345.996C141.558 346.631 142.303 347.134 143.125 347.478C143.946 347.822 144.828 348 145.719 348H300.911L320.281 348C321.171 348 322.053 347.822 322.874 347.479C323.695 347.135 324.44 346.632 325.065 345.998C325.69 345.365 326.182 344.613 326.515 343.788C326.847 342.962 327.012 342.079 326.999 341.189C326.743 322.038 326.014 306.473 324.52 299.253Z" fill="#3F3D56"/>
<path d="M326.049 32.293C318.112 32.293 310.5 35.4498 304.887 41.0691C299.275 46.6884 296.122 54.3098 296.122 62.2566C296.122 70.2035 299.275 77.8249 304.887 83.4441C310.5 89.0634 318.112 92.2203 326.049 92.2203H549.073C557.01 92.2203 564.622 89.0634 570.235 83.4441C575.847 77.8249 579 70.2035 579 62.2566C579 54.3098 575.847 46.6884 570.235 41.0691C564.622 35.4498 557.01 32.293 549.073 32.293H326.049Z" fill="#E5E5E5"/>
<path d="M326.049 38.3569C319.718 38.3569 313.647 40.8749 309.17 45.357C304.694 49.839 302.179 55.918 302.179 62.2565C302.179 68.5951 304.694 74.674 309.17 79.1561C313.647 83.6381 319.718 86.1561 326.049 86.1561H549.073C555.404 86.1561 561.476 83.6381 565.952 79.1561C570.429 74.674 572.943 68.5951 572.943 62.2565C572.943 55.918 570.429 49.839 565.952 45.357C561.476 40.8749 555.404 38.3569 549.073 38.3569H326.049Z" fill="white"/>
<path d="M239 216C259.435 216 276 199.211 276 178.5C276 157.789 259.435 141 239 141C218.565 141 202 157.789 202 178.5C202 199.211 218.565 216 239 216Z" fill="#9E616A"/>
<path d="M200.604 142.788C202.489 141.273 204.692 139.88 207.102 139.958C209.512 140.036 211.956 142.229 211.456 144.605C215.883 136.71 222.929 130.639 231.357 127.456C239.785 124.273 249.057 124.181 257.545 127.198C263.535 129.326 269.408 133.584 270.784 139.83C271.138 141.433 271.213 143.191 272.207 144.493C273.46 146.134 275.858 146.505 277.832 145.928C277.852 145.922 277.871 145.916 277.891 145.91C278.225 145.796 278.585 145.784 278.925 145.878C279.264 145.972 279.569 146.166 279.798 146.436C280.027 146.705 280.171 147.038 280.21 147.391C280.249 147.743 280.183 148.1 280.019 148.414L278.324 151.598C280.46 152.077 282.68 152.03 284.794 151.459C285.146 151.366 285.517 151.385 285.857 151.513C286.197 151.641 286.489 151.872 286.694 152.174C286.899 152.476 287.005 152.835 287 153.201C286.994 153.566 286.876 153.921 286.663 154.217C281.074 161.945 271.738 166.935 262.211 166.876C255.44 166.834 248.598 164.484 242.008 166.052C239.459 166.659 237.077 167.833 235.036 169.488C232.996 171.143 231.35 173.237 230.218 175.617C229.086 177.996 228.497 180.601 228.495 183.24C228.493 185.878 229.077 188.484 230.205 190.865C228.181 188.635 224.267 189.163 222.196 191.35C220.125 193.537 219.589 196.801 219.798 199.815C220.117 204.426 221.91 208.771 223.801 213C207.948 212.497 192.953 201.296 187.906 186.146C182.838 170.933 188.15 152.795 200.604 142.788Z" fill="#2F2E41"/>
<path opacity="0.2" d="M176 291L186 347.458L192 348L176 291Z" fill="#202939"/>
<path opacity="0.2" d="M291 286L280.375 347.41L274 348L291 286Z" fill="#202939"/>
<path d="M375.312 76.5475H330.938C330.797 76.5485 330.658 76.5215 330.527 76.4682C330.397 76.4148 330.278 76.3361 330.178 76.2367C330.078 76.1372 329.999 76.0189 329.944 75.8886C329.89 75.7583 329.862 75.6185 329.862 75.4774C329.862 75.3362 329.89 75.1965 329.944 75.0662C329.999 74.9359 330.078 74.8176 330.178 74.7181C330.278 74.6186 330.397 74.54 330.527 74.4866C330.658 74.4333 330.797 74.4063 330.938 74.4073H375.312C375.594 74.4092 375.864 74.5228 376.063 74.7232C376.262 74.9237 376.374 75.1948 376.374 75.4774C376.374 75.7599 376.262 76.031 376.063 76.2315C375.864 76.432 375.594 76.5456 375.312 76.5475Z" fill="#1134E3"/>
<path d="M431.603 76.904H387.229C387.088 76.9049 386.948 76.878 386.818 76.8246C386.687 76.7713 386.568 76.6926 386.468 76.5931C386.368 76.4936 386.289 76.3754 386.235 76.245C386.181 76.1147 386.153 75.975 386.153 75.8338C386.153 75.6927 386.181 75.5529 386.235 75.4226C386.289 75.2923 386.368 75.174 386.468 75.0745C386.568 74.9751 386.687 74.8964 386.818 74.8431C386.948 74.7897 387.088 74.7627 387.229 74.7637H431.603C431.744 74.7627 431.883 74.7897 432.014 74.8431C432.144 74.8964 432.263 74.9751 432.363 75.0745C432.463 75.174 432.542 75.2923 432.597 75.4226C432.651 75.5529 432.679 75.6927 432.679 75.8338C432.679 75.975 432.651 76.1147 432.597 76.245C432.542 76.3754 432.463 76.4936 432.363 76.5931C432.263 76.6926 432.144 76.7713 432.014 76.8246C431.883 76.878 431.744 76.9049 431.603 76.904Z" fill="#1134E3"/>
<path d="M487.893 77.2609H443.52C443.237 77.259 442.967 77.1454 442.768 76.9449C442.57 76.7444 442.458 76.4733 442.458 76.1908C442.458 75.9082 442.57 75.6371 442.768 75.4366C442.967 75.2361 443.237 75.1226 443.52 75.1206H487.893C488.034 75.1197 488.174 75.1466 488.304 75.2C488.435 75.2533 488.554 75.332 488.654 75.4315C488.754 75.5309 488.833 75.6492 488.887 75.7795C488.941 75.9099 488.969 76.0496 488.969 76.1908C488.969 76.3319 488.941 76.4717 488.887 76.602C488.833 76.7323 488.754 76.8506 488.654 76.95C488.554 77.0495 488.435 77.1282 488.304 77.1815C488.174 77.2349 488.034 77.2619 487.893 77.2609Z" fill="#1134E3"/>
<path d="M544.184 77.6173H499.81C499.528 77.6154 499.258 77.5018 499.059 77.3013C498.86 77.1008 498.749 76.8297 498.749 76.5472C498.749 76.2646 498.86 75.9935 499.059 75.793C499.258 75.5926 499.528 75.479 499.81 75.4771H544.184C544.466 75.479 544.736 75.5926 544.935 75.793C545.134 75.9935 545.245 76.2646 545.245 76.5472C545.245 76.8297 545.134 77.1008 544.935 77.3013C544.736 77.5018 544.466 77.6154 544.184 77.6173Z" fill="#1134E3"/>
<path d="M353.027 66.6988C357.582 66.6988 361.275 63.0019 361.275 58.4415C361.275 53.881 357.582 50.1841 353.027 50.1841C348.473 50.1841 344.78 53.881 344.78 58.4415C344.78 63.0019 348.473 66.6988 353.027 66.6988Z" fill="#1134E3"/>
<path d="M409.658 66.6988C414.213 66.6988 417.905 63.0019 417.905 58.4415C417.905 53.881 414.213 50.1841 409.658 50.1841C405.103 50.1841 401.411 53.881 401.411 58.4415C401.411 63.0019 405.103 66.6988 409.658 66.6988Z" fill="#1134E3"/>
<path d="M466.289 66.6988C470.843 66.6988 474.536 63.0019 474.536 58.4415C474.536 53.881 470.843 50.1841 466.289 50.1841C461.734 50.1841 458.042 53.881 458.042 58.4415C458.042 63.0019 461.734 66.6988 466.289 66.6988Z" fill="#1134E3"/>
<path d="M522.919 66.6988C527.474 66.6988 531.166 63.0019 531.166 58.4415C531.166 53.881 527.474 50.1841 522.919 50.1841C518.365 50.1841 514.672 53.881 514.672 58.4415C514.672 63.0019 518.365 66.6988 522.919 66.6988Z" fill="#1134E3"/>
</svg>
