<svg preserveAspectRatio="xMidYMid meet" viewBox="0 0 523 348" fill="none" xmlns="http://www.w3.org/2000/svg">
    <path d="M184.111 235.568C197.687 211.688 223.585 193.351 251 195.118C230.778 217.106 218.986 245.538 217.711 275.383C217.26 286.895 217.959 299.746 210.314 308.366C205.558 313.729 198.288 316.327 191.14 316.872C183.991 317.417 176.845 316.125 169.792 314.839L168.081 315.365C167.429 287.903 170.534 259.449 184.111 235.568Z"
          fill="#F0F0F0"/>
    <path d="M251.631 195.215C231.217 205.035 213.81 221.437 203.125 241.44C200.815 245.765 198.848 250.353 197.99 255.204C197.132 260.057 197.731 264.676 199.39 269.286C200.906 273.5 202.946 277.635 203.411 282.144C203.901 286.896 202.151 291.34 199.001 294.867C195.147 299.182 189.972 301.856 184.819 304.295C179.099 307.003 173.114 309.726 169.062 314.78C168.571 315.392 167.649 314.595 168.139 313.984C175.189 305.19 187.256 303.537 195.623 296.453C199.528 293.147 202.459 288.646 202.274 283.372C202.112 278.759 200.013 274.494 198.441 270.24C196.79 265.774 195.967 261.284 196.559 256.522C197.164 251.651 198.956 246.977 201.145 242.612C206.083 232.769 212.84 223.732 220.581 215.92C229.477 206.94 239.845 199.547 251.236 194.062C251.941 193.722 252.332 194.878 251.631 195.215Z"
          fill="white"/>
    <path d="M205.934 234.876C202.694 232.592 200.401 229.271 199.466 225.507C198.531 221.744 199.013 217.782 200.828 214.33C201.197 213.632 202.338 214.153 201.968 214.852C200.273 218.063 199.823 221.754 200.702 225.257C201.58 228.76 203.729 231.845 206.759 233.955C207.417 234.414 206.588 235.333 205.934 234.876Z"
          fill="white"/>
    <path d="M197.551 267.759C205.557 266.596 212.828 262.477 217.914 256.222C218.418 255.602 219.359 256.411 218.857 257.031C213.551 263.53 205.976 267.801 197.642 268.993C196.847 269.106 196.76 267.871 197.551 267.759Z"
          fill="white"/>
    <path d="M205.704 164.935C207.049 166.428 208.744 167.564 210.636 168.239C212.529 168.915 214.559 169.109 216.545 168.805C217.562 168.646 217.673 170.243 216.662 170.401C214.466 170.727 212.224 170.51 210.132 169.768C208.04 169.026 206.161 167.783 204.659 166.146C204.505 166.004 204.41 165.808 204.395 165.599C204.379 165.389 204.444 165.181 204.576 165.018C204.715 164.858 204.912 164.76 205.123 164.744C205.334 164.729 205.543 164.797 205.704 164.935Z"
          fill="white"/>
    <path d="M306 270.204C305.519 270.294 305.039 270.384 304.554 270.483C298.098 271.724 291.753 273.491 285.581 275.767C285.102 275.936 284.618 276.114 284.144 276.296C269.333 281.939 255.69 290.304 243.91 300.966C239.227 305.213 234.87 309.813 230.879 314.726C225.368 321.511 219.928 329.309 212.725 333.733C211.979 334.203 211.205 334.626 210.407 335L168.917 317.66C168.842 317.573 168.763 317.495 168.688 317.407L167 316.791C167.188 316.524 167.389 316.25 167.578 315.982C167.686 315.826 167.804 315.674 167.913 315.518C167.988 315.416 168.064 315.313 168.126 315.216C168.151 315.182 168.176 315.148 168.197 315.123C168.259 315.026 168.327 314.943 168.385 314.855C169.505 313.322 170.637 311.794 171.781 310.271C171.785 310.262 171.785 310.262 171.798 310.256C180.549 298.676 190.335 287.73 201.459 278.629C201.794 278.356 202.132 278.072 202.486 277.806C207.523 273.732 212.882 270.079 218.51 266.885C221.597 265.146 224.769 263.565 228.015 262.149C236.408 258.507 245.317 256.217 254.417 255.364C272.557 253.667 291.033 257.834 304.946 269.317C305.301 269.611 305.648 269.901 306 270.204Z"
          fill="#F0F0F0"/>
    <path d="M306.199 271.321C283.899 266.854 260.03 269.492 239.369 279.089C234.902 281.164 230.551 283.659 226.93 287.035C223.308 290.413 220.994 294.486 219.536 299.191C218.203 303.493 217.337 308.047 214.983 311.95C212.502 316.063 208.412 318.573 203.755 319.499C198.056 320.632 192.291 319.647 186.687 318.488C180.464 317.201 174.022 315.766 167.718 317.373C166.954 317.568 166.697 316.37 167.459 316.175C178.427 313.379 189.098 319.354 200.088 318.729C205.217 318.437 210.288 316.596 213.329 312.248C215.989 308.446 216.886 303.75 218.198 299.383C219.576 294.797 221.632 290.693 224.986 287.227C228.417 283.682 232.679 281.012 237.074 278.832C246.984 273.915 257.864 270.747 268.793 269.158C281.353 267.331 294.133 267.668 306.58 270.156C307.35 270.31 306.965 271.474 306.199 271.321Z"
          fill="white"/>
    <path d="M226.775 252.642C225.305 247.771 225.613 242.534 227.643 237.869C229.673 233.204 233.293 229.413 237.858 227.173C238.783 226.723 239.524 228.141 238.598 228.592C234.344 230.669 230.972 234.201 229.091 238.549C227.209 242.898 226.942 247.776 228.337 252.305C228.639 253.289 227.075 253.621 226.775 252.642Z"
          fill="white"/>
    <path d="M192.821 280.467C201.934 285.464 212.594 286.838 222.674 284.315C223.672 284.064 224.008 285.629 223.011 285.879C212.517 288.485 201.427 287.033 191.955 281.812C191.052 281.314 191.923 279.972 192.821 280.467Z"
          fill="white"/>
    <path d="M272.5 243.871C272.676 245.874 273.347 247.803 274.451 249.483C275.556 251.163 277.06 252.542 278.829 253.496C279.737 253.982 278.865 255.324 277.962 254.841C276.013 253.777 274.354 252.253 273.129 250.399C271.905 248.546 271.152 246.42 270.937 244.209C270.9 244.002 270.942 243.788 271.056 243.612C271.169 243.435 271.346 243.308 271.55 243.258C271.757 243.214 271.973 243.254 272.151 243.369C272.329 243.483 272.454 243.664 272.5 243.871Z"
          fill="white"/>
    <path d="M226.52 299.253C220.702 271.131 213.428 261.755 213.428 261.755L210.65 259.601L207.308 257.006L207.324 256.673L206.532 256.404L206.345 256.259L206.04 256.025L205.991 256.078L205.888 256.185L190.767 251.047L171.583 244.534L162.7 232.993C161.254 231.113 159.391 229.594 157.259 228.554C155.126 227.515 152.782 226.983 150.409 227L122.039 227.21C118.203 227.239 114.517 228.7 111.704 231.308L93.0574 248.597L64.0017 262.467L63.9527 262.418L63.6476 262.636L59.1582 264.782L59.3435 265.746L56.5648 267.75C56.5648 267.75 49.2914 276.474 43.4726 302.641C41.9924 309.3 41.2637 323.582 41.0007 341.182C40.9875 342.073 41.1515 342.957 41.4832 343.783C41.8149 344.61 42.3076 345.362 42.9327 345.996C43.5578 346.631 44.3029 347.134 45.1246 347.478C45.9462 347.822 46.8281 348 47.7189 348H202.911L222.281 348C223.171 348 224.053 347.822 224.874 347.479C225.695 347.135 226.44 346.632 227.065 345.998C227.69 345.365 228.182 344.613 228.515 343.788C228.847 342.962 229.012 342.079 228.999 341.189C228.743 322.038 228.014 306.473 226.52 299.253Z"
          fill="#9095A3"/>
    <path d="M228.048 32.293C220.111 32.293 212.499 35.4498 206.886 41.0691C201.274 46.6884 198.121 54.3098 198.121 62.2566C198.121 70.2035 201.274 77.8249 206.886 83.4441C212.499 89.0634 220.111 92.2203 228.048 92.2203H451.072C459.009 92.2203 466.621 89.0634 472.234 83.4441C477.846 77.8249 480.999 70.2035 480.999 62.2566C480.999 54.3098 477.846 46.6884 472.234 41.0691C466.621 35.4498 459.009 32.293 451.072 32.293H228.048Z"
          fill="#E5E5E5"/>
    <path d="M228.05 38.3574C221.719 38.3574 215.648 40.8754 211.171 45.3574C206.695 49.8395 204.18 55.9185 204.18 62.257C204.18 68.5956 206.695 74.6745 211.171 79.1566C215.648 83.6386 221.719 86.1566 228.05 86.1566H451.074C457.405 86.1566 463.477 83.6386 467.953 79.1566C472.43 74.6745 474.944 68.5956 474.944 62.257C474.944 55.9185 472.43 49.8395 467.953 45.3574C463.477 40.8754 457.405 38.3574 451.074 38.3574H228.05Z"
          fill="white"/>
    <path d="M141 216C161.435 216 178 199.211 178 178.5C178 157.789 161.435 141 141 141C120.565 141 104 157.789 104 178.5C104 199.211 120.565 216 141 216Z"
          fill="#9E616A"/>
    <path d="M102.604 142.788C104.489 141.273 106.692 139.88 109.102 139.958C111.512 140.036 113.956 142.229 113.456 144.605C117.883 136.71 124.929 130.639 133.357 127.456C141.785 124.273 151.057 124.181 159.545 127.198C165.535 129.326 171.408 133.584 172.784 139.83C173.138 141.433 173.213 143.191 174.207 144.493C175.46 146.134 177.858 146.505 179.832 145.928C179.852 145.922 179.871 145.916 179.891 145.91C180.225 145.796 180.585 145.784 180.925 145.878C181.264 145.972 181.569 146.166 181.798 146.436C182.027 146.705 182.171 147.038 182.21 147.391C182.249 147.743 182.183 148.1 182.019 148.414L180.324 151.598C182.46 152.077 184.68 152.03 186.794 151.459C187.146 151.366 187.517 151.385 187.857 151.513C188.197 151.641 188.489 151.872 188.694 152.174C188.899 152.476 189.005 152.835 189 153.201C188.994 153.566 188.876 153.921 188.663 154.217C183.074 161.945 173.738 166.935 164.211 166.876C157.44 166.834 150.598 164.484 144.008 166.052C141.459 166.659 139.077 167.833 137.036 169.488C134.996 171.143 133.35 173.237 132.218 175.617C131.086 177.996 130.497 180.601 130.495 183.24C130.493 185.878 131.077 188.484 132.205 190.865C130.181 188.635 126.267 189.163 124.196 191.35C122.125 193.537 121.589 196.801 121.798 199.815C122.117 204.426 123.91 208.771 125.801 213C109.948 212.497 94.9533 201.296 89.9061 186.146C84.8377 170.933 90.1496 152.795 102.604 142.788Z"
          fill="#202939"/>
    <path opacity="0.2" d="M78 291L87.9998 347.458L94 348L78 291Z" fill="#636A7C"/>
    <path opacity="0.2" d="M193 286L182.375 347.41L176 348L193 286Z" fill="#636A7C"/>
    <path
            class="pos_svg_theme_color"
            d="M277.313 76.5465H232.939C232.798 76.5475 232.659 76.5205 232.528 76.4672C232.398 76.4138 232.279 76.3352 232.179 76.2357C232.079 76.1362 231.999 76.0179 231.945 75.8876C231.891 75.7573 231.863 75.6175 231.863 75.4764C231.863 75.3352 231.891 75.1955 231.945 75.0652C231.999 74.9349 232.079 74.8166 232.179 74.7171C232.279 74.6177 232.398 74.539 232.528 74.4856C232.659 74.4323 232.798 74.4053 232.939 74.4063H277.313C277.595 74.4082 277.865 74.5218 278.064 74.7223C278.263 74.9227 278.375 75.1938 278.375 75.4764C278.375 75.759 278.263 76.0301 278.064 76.2305C277.865 76.431 277.595 76.5446 277.313 76.5465Z"
            fill="yellow"/>
    <path
            class="pos_svg_theme_color"
            d="M333.602 76.904H289.228C289.087 76.9049 288.948 76.878 288.817 76.8246C288.687 76.7713 288.568 76.6926 288.468 76.5931C288.368 76.4936 288.289 76.3754 288.234 76.245C288.18 76.1147 288.152 75.975 288.152 75.8338C288.152 75.6927 288.18 75.5529 288.234 75.4226C288.289 75.2923 288.368 75.174 288.468 75.0745C288.568 74.9751 288.687 74.8964 288.817 74.8431C288.948 74.7897 289.087 74.7627 289.228 74.7637H333.602C333.743 74.7627 333.883 74.7897 334.013 74.8431C334.144 74.8964 334.263 74.9751 334.363 75.0745C334.463 75.174 334.542 75.2923 334.596 75.4226C334.65 75.5529 334.678 75.6927 334.678 75.8338C334.678 75.975 334.65 76.1147 334.596 76.245C334.542 76.3754 334.463 76.4936 334.363 76.5931C334.263 76.6926 334.144 76.7713 334.013 76.8246C333.883 76.878 333.743 76.9049 333.602 76.904Z"
            fill="yellow"/>
    <path
            class="pos_svg_theme_color"
            d="M389.892 77.2614H345.519C345.236 77.2595 344.966 77.1459 344.768 76.9454C344.569 76.7449 344.457 76.4738 344.457 76.1912C344.457 75.9087 344.569 75.6376 344.768 75.4371C344.966 75.2366 345.236 75.123 345.519 75.1211H389.892C390.033 75.1202 390.173 75.1471 390.303 75.2005C390.434 75.2538 390.553 75.3325 390.653 75.432C390.753 75.5314 390.832 75.6497 390.886 75.78C390.94 75.9103 390.968 76.0501 390.968 76.1912C390.968 76.3324 390.94 76.4722 390.886 76.6025C390.832 76.7328 390.753 76.8511 390.653 76.9505C390.553 77.05 390.434 77.1287 390.303 77.182C390.173 77.2354 390.033 77.2623 389.892 77.2614Z"
            fill="yellow"/>
    <path
            class="pos_svg_theme_color"
            d="M446.183 77.6168H401.81C401.527 77.6149 401.257 77.5013 401.059 77.3008C400.86 77.1003 400.748 76.8292 400.748 76.5467C400.748 76.2641 400.86 75.993 401.059 75.7925C401.257 75.5921 401.527 75.4785 401.81 75.4766H446.183C446.465 75.4785 446.735 75.5921 446.934 75.7925C447.133 75.993 447.245 76.2641 447.245 76.5467C447.245 76.8292 447.133 77.1003 446.934 77.3008C446.735 77.5013 446.465 77.6149 446.183 77.6168Z"
            fill="yellow"/>
    <path
            class="pos_svg_theme_color"
            d="M255.028 66.6983C259.583 66.6983 263.276 63.0014 263.276 58.441C263.276 53.8805 259.583 50.1836 255.028 50.1836C250.474 50.1836 246.781 53.8805 246.781 58.441C246.781 63.0014 250.474 66.6983 255.028 66.6983Z"
            fill="yellow"/>
    <path
            class="pos_svg_theme_color"
            d="M311.657 66.6983C316.212 66.6983 319.904 63.0014 319.904 58.441C319.904 53.8805 316.212 50.1836 311.657 50.1836C307.103 50.1836 303.41 53.8805 303.41 58.441C303.41 63.0014 307.103 66.6983 311.657 66.6983Z"
            fill="yellow"/>
    <path
            class="pos_svg_theme_color"
            d="M368.288 66.6983C372.843 66.6983 376.535 63.0014 376.535 58.441C376.535 53.8805 372.843 50.1836 368.288 50.1836C363.733 50.1836 360.041 53.8805 360.041 58.441C360.041 63.0014 363.733 66.6983 368.288 66.6983Z"
            fill="yellow"/>
    <path
            class="pos_svg_theme_color"
            d="M424.919 66.6983C429.474 66.6983 433.166 63.0014 433.166 58.441C433.166 53.8805 429.474 50.1836 424.919 50.1836C420.364 50.1836 416.672 53.8805 416.672 58.441C416.672 63.0014 420.364 66.6983 424.919 66.6983Z"
            fill="yellow"/>
</svg>
