<svg preserveAspectRatio="xMidYMid meet" viewBox="0 0 720 348" fill="none" xmlns="http://www.w3.org/2000/svg">
    <path d="M438.765 152.458C438.17 155.588 437.457 158.686 436.625 161.752C436.535 162.108 436.434 162.458 436.334 162.814H424.766C423.781 162.815 422.836 163.208 422.14 163.905C421.443 164.602 421.051 165.547 421.05 166.534V199.54C420.7 200.194 420.344 200.842 419.988 201.49C418.152 204.838 416.24 208.148 414.287 211.416C382.432 264.526 338.002 308.969 284.921 340.823L288.064 333.724C286.912 333.644 285.755 333.565 284.603 333.485C259.52 331.769 234.351 329.866 209.857 324.224C184.233 318.321 159.165 308.082 139.083 291.105C118.995 274.124 104.269 249.874 102.225 223.636C101.543 214.619 102.455 205.552 104.917 196.852C109.625 180.104 119.913 165.035 134.756 156.119C158.072 142.119 188.485 144.972 213.064 156.619C237.637 168.26 257.64 187.532 277.171 206.469C257.452 172.624 229.997 143.941 197.058 122.773C186.144 115.78 174.56 109.553 165.281 100.494C156.007 91.4398 149.164 78.7461 150.804 65.8825C152.668 51.292 164.607 40.2189 176.567 31.6803C181.345 28.2691 186.276 25.0333 191.362 22.0578C205.711 13.6415 221.234 7.29198 237.627 4.93816C259.833 1.74483 283.817 6.59062 300.842 21.213C320.022 37.6898 327.889 64.2619 327.141 89.681C338.958 72.487 357.182 59.3258 377.764 58.7679C399.131 58.194 419.442 71.7059 430.144 90.2283C440.841 108.745 442.762 131.444 438.765 152.458Z"
          fill="#E6E6E6"/>
    <path d="M303.578 223.868C316.092 222.765 327.653 221.476 339.78 218.041C351.536 214.712 362.847 209.139 371.215 200.039C380.216 190.251 385.074 177.539 388.502 164.885C390.414 157.83 391.984 150.676 393.466 143.52C395.074 135.755 396.502 127.956 397.751 120.123C400.238 104.531 402.014 88.8472 403.078 73.0715C403.206 71.1565 403.324 69.2409 403.431 67.3246C403.498 66.1425 401.661 66.1463 401.594 67.3246C400.72 82.875 399.148 98.3648 396.878 113.794C394.637 128.953 391.77 144.046 388.133 158.934C385.052 171.546 381.062 184.355 373.16 194.853C365.749 204.699 355.046 211.132 343.489 214.979C331.729 218.893 319.329 220.456 307.04 221.618C305.532 221.761 305.086 221.897 303.578 222.03C302.409 222.133 302.398 223.972 303.578 223.868Z"
          fill="white"/>
    <path d="M105.976 198.207C121.766 199.084 137.395 201.84 152.533 206.419C167.678 210.988 182.231 217.328 195.892 225.309C209.092 233.026 221.346 242.261 232.405 252.824C243.138 263.083 252.703 274.498 260.927 286.863C269.187 299.258 276.033 312.542 281.336 326.465C281.983 328.169 282.606 329.882 283.205 331.603C283.592 332.713 285.367 332.236 284.976 331.114C280.015 316.898 273.475 303.283 265.478 290.527C257.483 277.77 248.101 265.939 237.502 255.251C226.733 244.397 214.748 234.824 201.785 226.722C174.567 209.753 143.716 199.487 111.765 196.768C109.837 196.606 107.908 196.473 105.976 196.369C104.795 196.304 104.799 198.143 105.976 198.207Z"
          fill="white"/>
    <path d="M191.859 24.2123C201.954 27.426 211.524 32.1064 220.26 38.1037C229.188 44.2737 237.33 51.5108 244.506 59.6548C252.068 68.2219 258.791 77.4957 264.583 87.3486C270.726 97.7519 276.063 108.612 280.546 119.832C285.163 131.352 289.045 143.152 292.171 155.163C295.349 167.317 297.83 179.642 299.605 192.078C301.37 204.382 302.438 216.777 302.804 229.202C303.173 241.083 302.823 252.976 301.754 264.815C300.776 275.86 298.99 286.818 296.411 297.601C294.121 307.341 290.893 316.835 286.774 325.952C285.819 328.021 284.807 330.061 283.736 332.073C283.18 333.117 284.765 334.047 285.322 333.001C289.875 324.293 293.51 315.135 296.17 305.675C299.153 295.143 301.316 284.396 302.638 273.529C304.104 261.74 304.818 249.869 304.776 237.988C304.749 225.507 304.007 213.038 302.553 200.642C301.097 188.091 298.937 175.632 296.081 163.325C293.233 150.997 289.619 138.86 285.262 126.982C281.062 115.484 276.034 104.306 270.216 93.5368C264.676 83.2604 258.219 73.506 250.924 64.3925C243.997 55.7152 236.088 47.8706 227.356 41.0157C218.936 34.4256 209.632 29.0539 199.716 25.0583C197.293 24.0931 194.837 23.2201 192.347 22.4395C191.217 22.0836 190.733 23.8579 191.859 24.2123Z"
          fill="white"/>
    <path d="M300.81 344C373.374 344 432.199 341.621 432.199 338.686C432.199 335.752 373.374 333.373 300.81 333.373C228.246 333.373 169.422 335.752 169.422 338.686C169.422 341.621 228.246 344 300.81 344Z"
          fill="#E6E6E6"/>
    <path d="M416.893 172.266C416.828 172.552 416.786 172.844 416.766 173.137L393.962 186.305L388.419 183.111L382.51 190.854L394.368 199.313L420.384 178.77C421.445 179.163 422.601 179.223 423.697 178.943C424.793 178.663 425.778 178.055 426.521 177.201C427.264 176.346 427.729 175.286 427.855 174.161C427.981 173.035 427.762 171.898 427.226 170.901C426.691 169.903 425.865 169.092 424.858 168.576C423.851 168.06 422.71 167.863 421.589 168.011C420.467 168.159 419.417 168.645 418.578 169.406C417.739 170.166 417.152 171.163 416.893 172.266Z"
          fill="#FFB8B8"/>
    <path
            class="pos_svg_theme_color"
            d="M364.958 180.345L382.914 193.154L390.945 183.076L373.49 169.058C372.739 168.455 371.873 168.011 370.945 167.755C370.017 167.499 369.046 167.435 368.093 167.567C367.139 167.699 366.222 168.025 365.399 168.524C364.575 169.024 363.862 169.686 363.304 170.471C362.215 172 361.777 173.899 362.088 175.751C362.398 177.602 363.431 179.255 364.958 180.345Z"
            fill="yellow"
    />
    <path d="M327.893 326.499L334.189 328.15L343.548 304.631L334.256 302.193L327.893 326.499Z" fill="#FFB8B8"/>
    <path d="M344.797 337.186L325.01 331.996L327.013 324.345L339.155 327.529C341.183 328.061 342.916 329.377 343.974 331.188C345.032 332.999 345.328 335.156 344.797 337.186Z"
          fill="#202939"/>
    <path d="M383.857 330.985L390.264 329.84L388.899 304.561L379.443 306.251L383.857 330.985Z" fill="#FFB8B8"/>
    <path d="M403.684 333.586L383.548 337.186L382.158 329.399L394.514 327.19C395.536 327.008 396.583 327.028 397.597 327.251C398.611 327.473 399.571 327.893 400.422 328.487C401.274 329.081 402 329.837 402.56 330.712C403.119 331.587 403.501 332.563 403.684 333.586Z"
          fill="#202939"/>
    <path d="M371.24 145.074C372.819 145.459 374.104 147.069 374.875 148.934C375.586 150.894 376.068 152.929 376.31 154.999C376.916 158.855 377.499 163.029 376.245 166.6C374.776 170.786 370.861 172.978 367.465 171.948C364.069 170.918 361.368 167.051 360.446 162.6C359.606 158.102 360.147 153.455 361.998 149.271C362.963 147.073 364.292 145.045 366.059 144.053C366.926 143.529 367.959 143.352 368.951 143.559C369.943 143.766 370.819 144.341 371.404 145.168"
          fill="#202939"/>
    <path d="M380.174 214.885L392.371 324.231L382.297 328.059L363.717 254.735L337.849 321.778L326.822 322.391C326.822 322.391 341.952 218.073 353.164 215.702L380.174 214.885Z"
          fill="#202939"/>
    <path d="M369.929 159.028C377.13 159.028 382.968 153.185 382.968 145.978C382.968 138.77 377.13 132.928 369.929 132.928C362.728 132.928 356.891 138.77 356.891 145.978C356.891 153.185 362.728 159.028 369.929 159.028Z"
          fill="#FFB8B8"/>
    <path
            class="pos_svg_theme_color"
            d="M375.524 164.504L361.434 162.664C361.434 162.664 352.245 173.701 352.858 192.709C353.47 211.717 351.326 217.542 351.326 217.542L380.704 218.073C376.457 212.228 394.221 178.66 375.524 164.504Z"
            fill="yellow"
    />
    <path d="M383.094 220.73C382.8 220.732 382.507 220.757 382.217 220.805L364.192 201.6L366.029 195.468L357.146 191.482L351.633 204.972L377.567 225.619C377.427 226.743 377.633 227.883 378.156 228.887C378.68 229.891 379.496 230.711 380.497 231.239C381.498 231.768 382.636 231.978 383.759 231.844C384.882 231.709 385.938 231.235 386.786 230.485C387.634 229.735 388.233 228.744 388.505 227.645C388.776 226.546 388.707 225.39 388.306 224.331C387.906 223.272 387.192 222.36 386.261 221.717C385.33 221.073 384.225 220.729 383.094 220.73Z"
          fill="#FFB8B8"/>
    <path
            class="pos_svg_theme_color"
            d="M363.351 171.975L355.002 192.402L366.642 197.92L376.281 177.705C376.696 176.835 376.929 175.89 376.965 174.927C377.002 173.964 376.843 173.004 376.496 172.105C376.149 171.206 375.622 170.387 374.948 169.699C374.274 169.011 373.467 168.468 372.576 168.103C371.716 167.751 370.795 167.572 369.866 167.576C368.938 167.58 368.019 167.767 367.162 168.127C366.305 168.487 365.528 169.011 364.874 169.672C364.22 170.332 363.702 171.115 363.351 171.975Z"
            fill="yellow"
    />
    <path d="M366.518 157.844C368.561 156.664 368.779 153.819 368.501 151.474C368.224 149.13 367.76 146.517 369.137 144.6C370.78 142.312 374.081 142.267 376.895 142.192C379.709 142.117 383.136 141.293 383.865 138.571C384.347 136.773 383.316 134.844 381.837 133.715C380.358 132.586 378.507 132.087 376.708 131.613C372.685 130.552 368.53 129.482 364.41 130.065C360.33 130.643 356.64 132.805 354.14 136.085C351.64 139.364 350.531 143.497 351.052 147.589C351.719 152.823 352.686 155.109 352.052 157.416C350.869 161.715 345.771 164.477 345.669 168.934C345.59 172.421 348.667 175.11 351.669 176.881C354.05 178.285 356.62 179.477 359.364 179.805C362.109 180.134 365.063 179.505 367.107 177.643C369.744 175.242 370.396 171.23 369.64 167.744C368.884 164.257 366.945 161.161 365.026 158.154"
          fill="#202939"/>
    <path d="M601.29 154.9H429.61C428.132 154.899 426.678 155.283 425.392 156.014C425.085 156.189 424.788 156.384 424.505 156.596C423.432 157.392 422.561 158.428 421.961 159.622C421.361 160.815 421.048 162.133 421.049 163.47V252.769C421.051 255.041 421.954 257.219 423.559 258.826C425.164 260.432 427.34 261.336 429.61 261.338H601.29C603.56 261.336 605.736 260.432 607.342 258.826C608.947 257.219 609.849 255.041 609.851 252.769V163.47C609.849 161.197 608.947 159.019 607.342 157.413C605.736 155.806 603.56 154.902 601.29 154.9ZM608.95 252.769C608.947 254.801 608.139 256.75 606.703 258.187C605.267 259.624 603.321 260.433 601.29 260.436H429.61C427.58 260.433 425.633 259.624 424.197 258.187C422.761 256.75 421.953 254.801 421.95 252.769V163.47C421.956 161.849 422.473 160.272 423.426 158.962C424.378 157.652 425.719 156.676 427.258 156.172C427.321 156.154 427.38 156.132 427.443 156.114C428.147 155.907 428.877 155.802 429.61 155.802H601.29C603.321 155.805 605.267 156.614 606.703 158.051C608.139 159.488 608.947 161.437 608.95 163.47V252.769Z"
          fill="#202939"/>
    <path d="M515.263 208.082C514.579 208.081 513.906 207.908 513.308 207.577L423.618 158.168C423.513 158.111 423.436 158.014 423.403 157.899C423.369 157.784 423.383 157.661 423.441 157.556C423.498 157.451 423.595 157.373 423.71 157.34C423.825 157.307 423.948 157.32 424.053 157.378L513.742 206.787C514.199 207.04 514.713 207.175 515.235 207.179C515.758 207.184 516.273 207.058 516.735 206.814L607.9 158.678C607.953 158.65 608.01 158.633 608.069 158.627C608.128 158.622 608.188 158.628 608.244 158.645C608.301 158.663 608.353 158.691 608.399 158.729C608.445 158.767 608.482 158.813 608.51 158.866C608.538 158.918 608.555 158.976 608.56 159.035C608.566 159.094 608.559 159.153 608.542 159.21C608.524 159.267 608.496 159.319 608.458 159.365C608.42 159.41 608.373 159.448 608.321 159.476L517.155 207.611C516.572 207.92 515.922 208.081 515.263 208.082Z"
          fill="#202939"/>
    <path d="M449.692 238.786H437.076C436.119 238.786 435.203 238.406 434.527 237.73C433.851 237.053 433.471 236.135 433.471 235.178C433.471 234.221 433.851 233.304 434.527 232.627C435.203 231.95 436.119 231.57 437.076 231.57H449.692C450.648 231.57 451.565 231.95 452.241 232.627C452.917 233.304 453.297 234.221 453.297 235.178C453.297 236.135 452.917 237.053 452.241 237.73C451.565 238.406 450.648 238.786 449.692 238.786Z"
          fill="#202939"/>
    <path d="M464.562 250.964H437.076C436.119 250.964 435.203 250.584 434.527 249.907C433.851 249.231 433.471 248.313 433.471 247.356C433.471 246.399 433.851 245.481 434.527 244.805C435.203 244.128 436.119 243.748 437.076 243.748H464.562C465.518 243.748 466.435 244.128 467.111 244.805C467.787 245.481 468.167 246.399 468.167 247.356C468.167 248.313 467.787 249.231 467.111 249.907C466.435 250.584 465.518 250.964 464.562 250.964Z"
          fill="#202939"/>
    <path
            class="pos_svg_theme_color"
            d="M515.226 222.552C523.189 222.552 529.645 216.09 529.645 208.12C529.645 200.149 523.189 193.688 515.226 193.688C507.262 193.688 500.807 200.149 500.807 208.12C500.807 216.09 507.262 222.552 515.226 222.552Z"
            fill="yellow"
    />
</svg>
