<svg preserveAspectRatio="xMidYMid meet" viewBox="0 0 720 348" fill="none" xmlns="http://www.w3.org/2000/svg">
    <path d="M282.111 235.568C295.687 211.688 321.585 193.351 349 195.118C328.778 217.106 316.986 245.538 315.711 275.383C315.26 286.895 315.959 299.746 308.314 308.366C303.558 313.729 296.288 316.327 289.14 316.872C281.991 317.417 274.845 316.125 267.792 314.839L266.081 315.365C265.429 287.903 268.534 259.449 282.111 235.568Z"
          fill="#F0F0F0"/>
    <path d="M349.631 195.215C329.217 205.035 311.81 221.437 301.125 241.44C298.815 245.765 296.848 250.353 295.99 255.204C295.132 260.057 295.731 264.676 297.39 269.286C298.906 273.5 300.946 277.635 301.411 282.144C301.901 286.896 300.151 291.34 297.001 294.867C293.147 299.182 287.972 301.856 282.819 304.295C277.099 307.003 271.114 309.726 267.062 314.78C266.571 315.392 265.649 314.595 266.139 313.984C273.189 305.19 285.256 303.537 293.623 296.453C297.528 293.147 300.459 288.646 300.274 283.372C300.112 278.759 298.013 274.494 296.441 270.24C294.79 265.774 293.967 261.284 294.559 256.522C295.164 251.651 296.956 246.977 299.145 242.612C304.083 232.769 310.84 223.732 318.581 215.92C327.477 206.94 337.845 199.547 349.236 194.062C349.941 193.722 350.332 194.878 349.631 195.215Z"
          fill="white"/>
    <path d="M303.934 234.876C300.694 232.592 298.401 229.271 297.466 225.507C296.531 221.744 297.013 217.782 298.828 214.33C299.197 213.632 300.338 214.153 299.968 214.852C298.273 218.063 297.823 221.754 298.702 225.257C299.58 228.76 301.729 231.845 304.759 233.955C305.417 234.414 304.588 235.333 303.934 234.876Z"
          fill="white"/>
    <path d="M295.551 267.759C303.557 266.596 310.828 262.477 315.914 256.222C316.418 255.602 317.359 256.411 316.857 257.031C311.551 263.53 303.976 267.801 295.642 268.993C294.847 269.106 294.76 267.871 295.551 267.759Z"
          fill="white"/>
    <path d="M303.704 164.935C305.049 166.428 306.744 167.564 308.636 168.239C310.529 168.915 312.559 169.109 314.545 168.805C315.562 168.646 315.673 170.243 314.662 170.401C312.466 170.727 310.224 170.51 308.132 169.768C306.04 169.026 304.161 167.783 302.659 166.146C302.505 166.004 302.41 165.808 302.395 165.599C302.379 165.389 302.444 165.181 302.576 165.018C302.715 164.858 302.912 164.76 303.123 164.744C303.334 164.729 303.543 164.797 303.704 164.935Z"
          fill="white"/>
    <path d="M404 270.204C403.519 270.294 403.039 270.384 402.554 270.483C396.098 271.724 389.753 273.491 383.581 275.767C383.102 275.936 382.618 276.114 382.144 276.296C367.333 281.939 353.69 290.304 341.91 300.966C337.227 305.213 332.87 309.813 328.879 314.726C323.368 321.511 317.928 329.309 310.725 333.733C309.979 334.203 309.205 334.626 308.407 335L266.917 317.66C266.842 317.573 266.763 317.495 266.688 317.407L265 316.791C265.188 316.524 265.389 316.25 265.578 315.982C265.686 315.826 265.804 315.674 265.913 315.518C265.988 315.416 266.064 315.313 266.126 315.216C266.151 315.182 266.176 315.148 266.197 315.123C266.259 315.026 266.327 314.943 266.385 314.855C267.505 313.322 268.637 311.794 269.781 310.271C269.785 310.262 269.785 310.262 269.798 310.256C278.549 298.676 288.335 287.73 299.459 278.629C299.794 278.356 300.132 278.072 300.486 277.806C305.523 273.732 310.882 270.079 316.51 266.885C319.597 265.146 322.769 263.565 326.015 262.149C334.408 258.507 343.317 256.217 352.417 255.364C370.557 253.667 389.033 257.834 402.946 269.317C403.301 269.611 403.648 269.901 404 270.204Z"
          fill="#F0F0F0"/>
    <path d="M404.199 271.321C381.899 266.854 358.03 269.492 337.369 279.089C332.902 281.164 328.551 283.659 324.93 287.035C321.308 290.413 318.994 294.486 317.536 299.191C316.203 303.493 315.337 308.047 312.983 311.95C310.502 316.063 306.412 318.573 301.755 319.499C296.056 320.632 290.291 319.647 284.687 318.488C278.464 317.201 272.022 315.766 265.718 317.373C264.954 317.568 264.697 316.37 265.459 316.175C276.427 313.379 287.098 319.354 298.088 318.729C303.217 318.437 308.288 316.596 311.329 312.248C313.989 308.446 314.886 303.75 316.198 299.383C317.576 294.797 319.632 290.693 322.986 287.227C326.417 283.682 330.679 281.012 335.074 278.832C344.984 273.915 355.864 270.747 366.793 269.158C379.353 267.331 392.133 267.668 404.58 270.156C405.35 270.31 404.965 271.474 404.199 271.321Z"
          fill="white"/>
    <path d="M324.775 252.642C323.305 247.771 323.613 242.534 325.643 237.869C327.673 233.204 331.293 229.413 335.858 227.173C336.783 226.723 337.524 228.141 336.598 228.592C332.344 230.669 328.972 234.201 327.091 238.549C325.209 242.898 324.942 247.776 326.337 252.305C326.639 253.289 325.075 253.621 324.775 252.642Z"
          fill="white"/>
    <path d="M290.821 280.467C299.934 285.464 310.594 286.838 320.674 284.315C321.672 284.064 322.008 285.629 321.011 285.879C310.517 288.485 299.427 287.033 289.955 281.812C289.052 281.314 289.923 279.972 290.821 280.467Z"
          fill="white"/>
    <path d="M370.5 243.871C370.676 245.874 371.347 247.803 372.451 249.483C373.556 251.163 375.06 252.542 376.829 253.496C377.737 253.982 376.865 255.324 375.962 254.841C374.013 253.777 372.354 252.253 371.129 250.399C369.905 248.546 369.152 246.42 368.937 244.209C368.9 244.002 368.942 243.788 369.056 243.612C369.169 243.435 369.346 243.308 369.55 243.258C369.757 243.214 369.973 243.254 370.151 243.369C370.329 243.483 370.454 243.664 370.5 243.871Z"
          fill="white"/>
    <path d="M324.52 299.253C318.702 271.131 311.428 261.755 311.428 261.755L308.65 259.601L305.308 257.006L305.324 256.673L304.532 256.404L304.345 256.259L304.04 256.025L303.991 256.078L303.888 256.185L288.767 251.047L269.583 244.534L260.7 232.993C259.254 231.113 257.391 229.594 255.259 228.554C253.126 227.515 250.782 226.983 248.409 227L220.039 227.21C216.203 227.239 212.517 228.7 209.704 231.308L191.057 248.597L162.002 262.467L161.953 262.418L161.648 262.636L157.158 264.782L157.343 265.746L154.565 267.75C154.565 267.75 147.291 276.474 141.473 302.641C139.992 309.3 139.264 323.582 139.001 341.182C138.988 342.073 139.152 342.957 139.483 343.783C139.815 344.61 140.308 345.362 140.933 345.996C141.558 346.631 142.303 347.134 143.125 347.478C143.946 347.822 144.828 348 145.719 348H300.911L320.281 348C321.171 348 322.053 347.822 322.874 347.479C323.695 347.135 324.44 346.632 325.065 345.998C325.69 345.365 326.182 344.613 326.515 343.788C326.847 342.962 327.012 342.079 326.999 341.189C326.743 322.038 326.014 306.473 324.52 299.253Z"
          fill="#202939"/>
    <path d="M326.048 32.293C318.111 32.293 310.499 35.4498 304.886 41.0691C299.274 46.6884 296.121 54.3098 296.121 62.2566C296.121 70.2035 299.274 77.8249 304.886 83.4441C310.499 89.0634 318.111 92.2203 326.048 92.2203H549.072C557.009 92.2203 564.621 89.0634 570.234 83.4441C575.846 77.8249 578.999 70.2035 578.999 62.2566C578.999 54.3098 575.846 46.6884 570.234 41.0691C564.621 35.4498 557.009 32.293 549.072 32.293H326.048Z"
          fill="#E5E5E5"/>
    <path d="M326.05 38.3574C319.719 38.3574 313.648 40.8754 309.171 45.3574C304.695 49.8395 302.18 55.9185 302.18 62.257C302.18 68.5956 304.695 74.6745 309.171 79.1566C313.648 83.6386 319.719 86.1566 326.05 86.1566H549.074C555.405 86.1566 561.477 83.6386 565.953 79.1566C570.43 74.6745 572.944 68.5956 572.944 62.257C572.944 55.9185 570.43 49.8395 565.953 45.3574C561.477 40.8754 555.405 38.3574 549.074 38.3574H326.05Z"
          fill="white"/>
    <path d="M239 216C259.435 216 276 199.211 276 178.5C276 157.789 259.435 141 239 141C218.565 141 202 157.789 202 178.5C202 199.211 218.565 216 239 216Z"
          fill="#9E616A"/>
    <path d="M200.604 142.788C202.489 141.273 204.692 139.88 207.102 139.958C209.512 140.036 211.956 142.229 211.456 144.605C215.883 136.71 222.929 130.639 231.357 127.456C239.785 124.273 249.057 124.181 257.545 127.198C263.535 129.326 269.408 133.584 270.784 139.83C271.138 141.433 271.213 143.191 272.207 144.493C273.46 146.134 275.858 146.505 277.832 145.928C277.852 145.922 277.871 145.916 277.891 145.91C278.225 145.796 278.585 145.784 278.925 145.878C279.264 145.972 279.569 146.166 279.798 146.436C280.027 146.705 280.171 147.038 280.21 147.391C280.249 147.743 280.183 148.1 280.019 148.414L278.324 151.598C280.46 152.077 282.68 152.03 284.794 151.459C285.146 151.366 285.517 151.385 285.857 151.513C286.197 151.641 286.489 151.872 286.694 152.174C286.899 152.476 287.005 152.835 287 153.201C286.994 153.566 286.876 153.921 286.663 154.217C281.074 161.945 271.738 166.935 262.211 166.876C255.44 166.834 248.598 164.484 242.008 166.052C239.459 166.659 237.077 167.833 235.036 169.488C232.996 171.143 231.35 173.237 230.218 175.617C229.086 177.996 228.497 180.601 228.495 183.24C228.493 185.878 229.077 188.484 230.205 190.865C228.181 188.635 224.267 189.163 222.196 191.35C220.125 193.537 219.589 196.801 219.798 199.815C220.117 204.426 221.91 208.771 223.801 213C207.948 212.497 192.953 201.296 187.906 186.146C182.838 170.933 188.15 152.795 200.604 142.788Z"
          fill="#202939"/>
    <path opacity="0.2" d="M176 291L186 347.458L192 348L176 291Z" fill="#202939"/>
    <path opacity="0.2" d="M291 286L280.375 347.41L274 348L291 286Z" fill="#202939"/>
    <path
            class="pos_svg_theme_color"
            d="M209.579 123.695C207.521 124.524 205.372 123.616 204.471 121.534C203.557 119.422 204.411 117.277 206.503 116.434C208.595 115.592 210.705 116.502 211.634 118.65C212.55 120.764 211.705 122.839 209.579 123.695ZM205.636 112.275L203.999 112.934C203.59 113.097 203.132 113.106 202.717 112.959C202.302 112.812 201.959 112.52 201.756 112.141L201.675 111.988C199.914 108.924 199.712 105.2 201.079 100.926C202.345 97.0917 202.871 94.395 201.813 91.952C200.59 89.1273 197.979 88.2425 194.65 89.5243C193.358 90.0444 192.947 90.0361 191.931 91.0086C191.71 91.2227 191.446 91.3917 191.156 91.5054C190.866 91.6192 190.555 91.6754 190.242 91.6707C189.939 91.6673 189.64 91.6051 189.363 91.4878C189.085 91.3705 188.835 91.2005 188.628 90.988C188.227 90.5785 188.003 90.0377 188 89.4748C187.997 88.912 188.216 88.369 188.612 87.9556C190.32 86.2308 192.38 84.8663 194.663 83.9481C201.817 81.0666 205.418 85.3207 207.066 89.1277C208.678 92.8515 207.771 96.3065 206.314 100.781C205.093 104.499 205.164 107.254 206.551 109.994C206.652 110.201 206.707 110.425 206.715 110.653C206.723 110.882 206.683 111.109 206.598 111.323C206.512 111.536 206.383 111.73 206.217 111.894C206.052 112.057 205.854 112.187 205.636 112.275Z"
            fill="yellow"
    />
    <path
            class="pos_svg_theme_color"
            d="M375.313 76.5465H330.939C330.798 76.5475 330.659 76.5205 330.528 76.4672C330.398 76.4138 330.279 76.3352 330.179 76.2357C330.079 76.1362 329.999 76.0179 329.945 75.8876C329.891 75.7573 329.863 75.6175 329.863 75.4764C329.863 75.3352 329.891 75.1955 329.945 75.0652C329.999 74.9349 330.079 74.8166 330.179 74.7171C330.279 74.6177 330.398 74.539 330.528 74.4856C330.659 74.4323 330.798 74.4053 330.939 74.4063H375.313C375.595 74.4082 375.865 74.5218 376.064 74.7223C376.263 74.9227 376.375 75.1938 376.375 75.4764C376.375 75.759 376.263 76.0301 376.064 76.2305C375.865 76.431 375.595 76.5446 375.313 76.5465Z"
            fill="yellow"
    />
    <path
            class="pos_svg_theme_color"
            d="M431.602 76.904H387.228C387.087 76.9049 386.948 76.878 386.817 76.8246C386.687 76.7713 386.568 76.6926 386.468 76.5931C386.368 76.4936 386.289 76.3754 386.234 76.245C386.18 76.1147 386.152 75.975 386.152 75.8338C386.152 75.6927 386.18 75.5529 386.234 75.4226C386.289 75.2923 386.368 75.174 386.468 75.0745C386.568 74.9751 386.687 74.8964 386.817 74.8431C386.948 74.7897 387.087 74.7627 387.228 74.7637H431.602C431.743 74.7627 431.883 74.7897 432.013 74.8431C432.144 74.8964 432.263 74.9751 432.363 75.0745C432.463 75.174 432.542 75.2923 432.596 75.4226C432.65 75.5529 432.678 75.6927 432.678 75.8338C432.678 75.975 432.65 76.1147 432.596 76.245C432.542 76.3754 432.463 76.4936 432.363 76.5931C432.263 76.6926 432.144 76.7713 432.013 76.8246C431.883 76.878 431.743 76.9049 431.602 76.904Z"
            fill="yellow"
    />
    <path
            class="pos_svg_theme_color"
            d="M487.892 77.2614H443.519C443.236 77.2595 442.966 77.1459 442.768 76.9454C442.569 76.7449 442.457 76.4738 442.457 76.1912C442.457 75.9087 442.569 75.6376 442.768 75.4371C442.966 75.2366 443.236 75.123 443.519 75.1211H487.892C488.033 75.1202 488.173 75.1471 488.303 75.2005C488.434 75.2538 488.553 75.3325 488.653 75.432C488.753 75.5314 488.832 75.6497 488.886 75.78C488.94 75.9103 488.968 76.0501 488.968 76.1912C488.968 76.3324 488.94 76.4722 488.886 76.6025C488.832 76.7328 488.753 76.8511 488.653 76.9505C488.553 77.05 488.434 77.1287 488.303 77.182C488.173 77.2354 488.033 77.2623 487.892 77.2614Z"
            fill="yellow"
    />
    <path
            class="pos_svg_theme_color"
            d="M544.183 77.6168H499.81C499.527 77.6149 499.257 77.5013 499.059 77.3008C498.86 77.1003 498.748 76.8292 498.748 76.5467C498.748 76.2641 498.86 75.993 499.059 75.7925C499.257 75.5921 499.527 75.4785 499.81 75.4766H544.183C544.465 75.4785 544.735 75.5921 544.934 75.7925C545.133 75.993 545.245 76.2641 545.245 76.5467C545.245 76.8292 545.133 77.1003 544.934 77.3008C544.735 77.5013 544.465 77.6149 544.183 77.6168Z"
            fill="yellow"
    />
    <path
            class="pos_svg_theme_color"
            d="M353.028 66.6983C357.583 66.6983 361.276 63.0014 361.276 58.441C361.276 53.8805 357.583 50.1836 353.028 50.1836C348.474 50.1836 344.781 53.8805 344.781 58.441C344.781 63.0014 348.474 66.6983 353.028 66.6983Z"
            fill="yellow"
    />
    <path
            class="pos_svg_theme_color"
            d="M409.657 66.6983C414.212 66.6983 417.904 63.0014 417.904 58.441C417.904 53.8805 414.212 50.1836 409.657 50.1836C405.103 50.1836 401.41 53.8805 401.41 58.441C401.41 63.0014 405.103 66.6983 409.657 66.6983Z"
            fill="yellow"
    />
    <path
            class="pos_svg_theme_color"
            d="M466.288 66.6983C470.843 66.6983 474.535 63.0014 474.535 58.441C474.535 53.8805 470.843 50.1836 466.288 50.1836C461.733 50.1836 458.041 53.8805 458.041 58.441C458.041 63.0014 461.733 66.6983 466.288 66.6983Z"
            fill="yellow"
    />
    <path
            class="pos_svg_theme_color"
            d="M522.919 66.6983C527.474 66.6983 531.166 63.0014 531.166 58.441C531.166 53.8805 527.474 50.1836 522.919 50.1836C518.364 50.1836 514.672 53.8805 514.672 58.441C514.672 63.0014 518.364 66.6983 522.919 66.6983Z"
            fill="yellow"
    />
</svg>
