<svg preserveAspectRatio="xMidYMid meet" viewBox="0 0 720 431" fill="none" xmlns="http://www.w3.org/2000/svg">
    <g clip-path="url(#clip0_6810_46157)">
        <path d="M583.795 19.0743H218.913C218.773 19.0738 218.639 19.0178 218.54 18.9185C218.441 18.8192 218.386 18.6847 218.386 18.5445C218.386 18.4043 218.441 18.2698 218.54 18.1705C218.639 18.0712 218.773 18.0151 218.913 18.0146H583.795C583.935 18.0151 584.069 18.0712 584.168 18.1705C584.267 18.2698 584.323 18.4043 584.323 18.5445C584.323 18.6847 584.267 18.8192 584.168 18.9185C584.069 19.0178 583.935 19.0738 583.795 19.0743Z"
              fill="#CACACA"/>
        <path d="M230.833 11.6562C234.05 11.6562 236.659 9.04689 236.659 5.82811C236.659 2.60933 234.05 0 230.833 0C227.616 0 225.008 2.60933 225.008 5.82811C225.008 9.04689 227.616 11.6562 230.833 11.6562Z"
              fill="#041256"/>
        <path d="M250.957 11.6562C254.175 11.6562 256.783 9.04689 256.783 5.82811C256.783 2.60933 254.175 0 250.957 0C247.74 0 245.132 2.60933 245.132 5.82811C245.132 9.04689 247.74 11.6562 250.957 11.6562Z"
              fill="#041256"/>
        <path d="M271.081 11.6562C274.299 11.6562 276.907 9.04689 276.907 5.82811C276.907 2.60933 274.299 0 271.081 0C267.864 0 265.256 2.60933 265.256 5.82811C265.256 9.04689 267.864 11.6562 271.081 11.6562Z"
              fill="#041256"/>
        <path d="M571.738 3.56462H557.439C557.159 3.56366 556.89 3.45158 556.692 3.25297C556.494 3.05435 556.383 2.78537 556.383 2.50497C556.383 2.22456 556.494 1.95559 556.692 1.75697C556.89 1.55835 557.159 1.44628 557.439 1.44531H571.738C572.018 1.44628 572.286 1.55835 572.484 1.75697C572.682 1.95559 572.793 2.22456 572.793 2.50497C572.793 2.78537 572.682 3.05435 572.484 3.25297C572.286 3.45158 572.018 3.56366 571.738 3.56462Z"
              fill="#041256"/>
        <path d="M571.738 7.53826H557.439C557.159 7.53729 556.89 7.42522 556.692 7.2266C556.494 7.02798 556.383 6.75901 556.383 6.4786C556.383 6.1982 556.494 5.92922 556.692 5.7306C556.89 5.53198 557.159 5.41991 557.439 5.41895H571.738C572.018 5.41991 572.286 5.53198 572.484 5.7306C572.682 5.92922 572.793 6.1982 572.793 6.4786C572.793 6.75901 572.682 7.02798 572.484 7.2266C572.286 7.42522 572.018 7.53729 571.738 7.53826Z"
              fill="#041256"/>
        <path d="M571.738 11.5119H557.439C557.159 11.5109 556.89 11.3989 556.692 11.2002C556.494 11.0016 556.383 10.7326 556.383 10.4522C556.383 10.1718 556.494 9.90285 556.692 9.70423C556.89 9.50561 557.159 9.39355 557.439 9.39258H571.738C572.018 9.39355 572.286 9.50561 572.484 9.70423C572.682 9.90285 572.793 10.1718 572.793 10.4522C572.793 10.7326 572.682 11.0016 572.484 11.2002C572.286 11.3989 572.018 11.5109 571.738 11.5119Z"
              fill="#041256"/>
        <path d="M535.865 316.52L380 245.332L460.257 69.4473L616.122 140.636L535.865 316.52Z" fill="#F2F2F2"/>
        <path d="M559.608 214.342L441.614 160.45C441.392 160.349 441.219 160.163 441.134 159.934C441.048 159.705 441.057 159.452 441.159 159.229C441.26 159.007 441.446 158.834 441.675 158.749C441.904 158.663 442.157 158.672 442.379 158.774L560.374 212.665C560.596 212.767 560.769 212.953 560.854 213.182C560.939 213.411 560.93 213.664 560.829 213.887C560.728 214.109 560.542 214.282 560.313 214.367C560.084 214.453 559.831 214.444 559.608 214.342Z"
              fill="white"/>
        <path d="M566.169 199.962L448.175 146.071C448.065 146.02 447.966 145.949 447.884 145.86C447.801 145.772 447.737 145.668 447.695 145.554C447.653 145.441 447.633 145.32 447.637 145.199C447.642 145.078 447.67 144.96 447.72 144.849C447.77 144.739 447.842 144.64 447.93 144.558C448.019 144.475 448.123 144.411 448.236 144.369C448.349 144.326 448.47 144.307 448.591 144.311C448.712 144.315 448.83 144.344 448.94 144.394L566.935 198.286C567.045 198.336 567.144 198.407 567.226 198.496C567.309 198.584 567.373 198.688 567.415 198.802C567.457 198.915 567.477 199.036 567.473 199.157C567.468 199.278 567.44 199.397 567.39 199.507C567.34 199.617 567.268 199.716 567.18 199.798C567.091 199.881 566.987 199.945 566.874 199.987C566.761 200.03 566.64 200.049 566.519 200.045C566.398 200.041 566.28 200.013 566.169 199.962Z"
              fill="white"/>
        <path d="M572.731 185.584L454.737 131.693C454.627 131.642 454.528 131.571 454.445 131.482C454.363 131.394 454.299 131.29 454.256 131.176C454.214 131.063 454.195 130.942 454.199 130.821C454.203 130.701 454.231 130.582 454.281 130.471C454.332 130.361 454.403 130.262 454.492 130.18C454.58 130.097 454.684 130.033 454.797 129.991C454.911 129.948 455.031 129.929 455.152 129.933C455.273 129.938 455.392 129.966 455.502 130.016L573.496 183.908C573.718 184.009 573.89 184.195 573.975 184.424C574.06 184.653 574.051 184.906 573.95 185.128C573.849 185.35 573.663 185.523 573.435 185.608C573.206 185.694 572.953 185.685 572.731 185.584Z"
              fill="white"/>
        <path d="M579.292 171.203L461.298 117.312C461.188 117.261 461.089 117.19 461.006 117.101C460.924 117.013 460.86 116.909 460.817 116.796C460.775 116.682 460.756 116.562 460.76 116.441C460.764 116.32 460.792 116.201 460.842 116.091C460.893 115.981 460.964 115.881 461.053 115.799C461.141 115.716 461.245 115.652 461.358 115.61C461.472 115.568 461.592 115.548 461.713 115.552C461.834 115.557 461.953 115.585 462.063 115.635L580.057 169.527C580.167 169.577 580.266 169.648 580.349 169.737C580.431 169.826 580.495 169.93 580.538 170.043C580.58 170.156 580.6 170.277 580.595 170.398C580.591 170.519 580.563 170.638 580.513 170.748C580.462 170.858 580.391 170.957 580.302 171.04C580.214 171.122 580.11 171.186 579.997 171.229C579.883 171.271 579.763 171.29 579.642 171.286C579.521 171.282 579.402 171.254 579.292 171.203Z"
              fill="white"/>
        <path d="M553.679 227.336L435.685 173.445C435.575 173.394 435.476 173.323 435.393 173.234C435.311 173.146 435.246 173.042 435.204 172.928C435.162 172.815 435.142 172.694 435.147 172.573C435.151 172.452 435.179 172.334 435.229 172.223C435.279 172.113 435.351 172.014 435.439 171.932C435.528 171.849 435.632 171.785 435.745 171.743C435.858 171.7 435.979 171.681 436.1 171.685C436.221 171.689 436.34 171.718 436.45 171.768L554.444 225.66C554.666 225.761 554.839 225.947 554.924 226.176C555.01 226.405 555.001 226.658 554.899 226.881C554.798 227.103 554.612 227.276 554.383 227.361C554.154 227.447 553.901 227.438 553.679 227.336Z"
              fill="white"/>
        <path d="M573.383 150.112L481.214 108.016C480.696 107.792 480.277 107.386 480.038 106.874C479.799 106.362 479.757 105.78 479.919 105.239C480.018 104.944 480.178 104.674 480.388 104.446C480.598 104.217 480.854 104.036 481.138 103.912C481.423 103.789 481.731 103.727 482.041 103.73C482.351 103.733 482.657 103.801 482.94 103.93L575.08 146.013C575.608 146.238 576.034 146.65 576.277 147.17C576.519 147.691 576.561 148.282 576.393 148.832C576.291 149.122 576.129 149.388 575.919 149.612C575.708 149.837 575.453 150.015 575.17 150.135C574.887 150.256 574.581 150.316 574.274 150.312C573.966 150.308 573.663 150.24 573.383 150.112Z"
              fill="white"/>
        <path d="M579.655 318H346.59V55H579.655V318Z" fill="white"/>
        <path d="M579.655 318H346.59V55H579.655V318ZM347.843 316.746H578.402V56.2536H347.843L347.843 316.746Z"
              fill="#CACACA"/>
        <path d="M551.69 191.507H375.253C375.088 191.507 374.926 191.475 374.774 191.412C374.621 191.349 374.483 191.256 374.367 191.14C374.251 191.024 374.158 190.885 374.095 190.733C374.032 190.581 374 190.418 374 190.254C374 190.089 374.032 189.926 374.095 189.774C374.158 189.622 374.251 189.484 374.367 189.367C374.483 189.251 374.621 189.158 374.774 189.095C374.926 189.032 375.088 189 375.253 189H551.69C552.022 189 552.341 189.132 552.576 189.367C552.811 189.602 552.943 189.921 552.943 190.254C552.943 190.586 552.811 190.905 552.576 191.14C552.341 191.375 552.022 191.507 551.69 191.507Z"
              fill="#E4E4E4"/>
        <path d="M551.69 169.507H375.253C374.921 169.507 374.602 169.375 374.367 169.14C374.132 168.905 374 168.586 374 168.254C374 167.921 374.132 167.602 374.367 167.367C374.602 167.132 374.921 167 375.253 167H551.69C552.022 167 552.341 167.132 552.576 167.367C552.811 167.602 552.943 167.921 552.943 168.254C552.943 168.586 552.811 168.905 552.576 169.14C552.341 169.375 552.022 169.507 551.69 169.507Z"
              fill="#E4E4E4"/>
        <path d="M551.69 147.507H375.253C375.088 147.507 374.926 147.475 374.774 147.412C374.621 147.349 374.483 147.256 374.367 147.14C374.251 147.024 374.158 146.885 374.095 146.733C374.032 146.581 374 146.418 374 146.254C374 146.089 374.032 145.926 374.095 145.774C374.158 145.622 374.251 145.484 374.367 145.367C374.483 145.251 374.621 145.158 374.774 145.095C374.926 145.032 375.088 145 375.253 145H551.69C552.022 145 552.341 145.132 552.576 145.367C552.811 145.602 552.943 145.921 552.943 146.254C552.943 146.586 552.811 146.905 552.576 147.14C552.341 147.375 552.022 147.507 551.69 147.507Z"
              fill="#E4E4E4"/>
        <path d="M551.69 125.507H375.253C374.921 125.507 374.602 125.375 374.367 125.14C374.132 124.905 374 124.586 374 124.254C374 123.921 374.132 123.602 374.367 123.367C374.602 123.132 374.921 123 375.253 123H551.69C552.022 123 552.341 123.132 552.576 123.367C552.811 123.602 552.943 123.921 552.943 124.254C552.943 124.586 552.811 124.905 552.576 125.14C552.341 125.375 552.022 125.507 551.69 125.507Z"
              fill="#E4E4E4"/>
        <path d="M551.341 294.038H374.904C374.572 294.038 374.253 293.906 374.018 293.671C373.783 293.436 373.651 293.117 373.651 292.785C373.651 292.452 373.783 292.134 374.018 291.898C374.253 291.663 374.572 291.531 374.904 291.531H551.341C551.673 291.531 551.992 291.663 552.227 291.898C552.462 292.134 552.594 292.452 552.594 292.785C552.594 293.117 552.462 293.436 552.227 293.671C551.992 293.906 551.673 294.038 551.341 294.038Z"
              fill="#E4E4E4"/>
        <path d="M509.076 273.914H417.17C416.555 273.913 415.966 273.668 415.532 273.234C415.098 272.799 414.853 272.21 414.853 271.595V217.507C414.853 216.893 415.098 216.304 415.532 215.869C415.966 215.435 416.555 215.19 417.17 215.189H509.076C509.69 215.19 510.279 215.435 510.714 215.869C511.148 216.304 511.392 216.893 511.393 217.507V271.595C511.392 272.21 511.148 272.799 510.714 273.234C510.279 273.668 509.69 273.913 509.076 273.914Z"
              fill="white"/>
        <path d="M478.384 243.015C477.916 242.514 477.352 242.112 476.726 241.833C476.1 241.555 475.424 241.405 474.739 241.392C474.054 241.38 473.373 241.506 472.737 241.762C472.102 242.018 471.524 242.4 471.039 242.884L445.174 268.761C444.49 269.443 443.565 269.827 442.6 269.828C441.634 269.83 440.708 269.449 440.022 268.769L436.192 264.944C435.718 264.47 435.156 264.094 434.537 263.837C433.918 263.581 433.255 263.449 432.585 263.449C431.915 263.449 431.252 263.581 430.633 263.837C430.014 264.094 429.452 264.47 428.978 264.944L421.564 272.369H504.681V271.311L478.384 243.015Z"
              fill="#1134E3"/>
        <path d="M509.076 273.914H417.17C416.555 273.913 415.966 273.668 415.532 273.234C415.098 272.799 414.853 272.21 414.853 271.595V217.507C414.853 216.893 415.098 216.304 415.532 215.869C415.966 215.435 416.555 215.19 417.17 215.189H509.076C509.69 215.19 510.279 215.435 510.714 215.869C511.148 216.304 511.392 216.893 511.393 217.507V271.595C511.392 272.21 511.148 272.799 510.714 273.234C510.279 273.668 509.69 273.913 509.076 273.914ZM417.17 216.735C416.965 216.735 416.768 216.817 416.624 216.961C416.479 217.106 416.397 217.303 416.397 217.508V271.595C416.397 271.8 416.479 271.997 416.624 272.142C416.768 272.286 416.965 272.368 417.17 272.368H509.076C509.281 272.368 509.477 272.286 509.622 272.142C509.767 271.997 509.848 271.8 509.848 271.595V217.507C509.848 217.303 509.767 217.106 509.622 216.961C509.477 216.817 509.281 216.735 509.076 216.735L417.17 216.735Z"
              fill="#041256"/>
        <path d="M532.006 104.032H394.187C393.419 104.049 392.671 103.783 392.087 103.284C391.502 102.785 391.121 102.089 391.016 101.328C390.973 100.908 391.018 100.483 391.149 100.082C391.28 99.6805 391.493 99.311 391.776 98.9974C392.059 98.6838 392.404 98.4331 392.79 98.2615C393.175 98.0899 393.593 98.0011 394.015 98.0011H531.792C532.572 97.9806 533.333 98.2497 533.926 98.7566C534.52 99.2634 534.906 99.9723 535.008 100.746C535.046 101.164 534.996 101.584 534.862 101.981C534.728 102.378 534.513 102.742 534.231 103.051C533.948 103.36 533.605 103.607 533.222 103.776C532.839 103.945 532.425 104.032 532.006 104.032Z"
              fill="#1134E3"/>
        <path d="M269.169 431.07C244.48 431.07 220.346 423.725 199.817 409.964C179.289 396.204 163.289 376.645 153.841 353.762C144.393 330.879 141.921 305.7 146.738 281.407C151.554 257.115 163.443 234.801 180.901 217.287C198.359 199.773 220.602 187.846 244.816 183.014C269.031 178.182 294.13 180.662 316.94 190.14C339.75 199.619 359.246 215.67 372.962 236.264C386.679 256.858 394 281.07 394 305.838C393.963 339.04 380.799 370.871 357.397 394.349C333.995 417.826 302.265 431.032 269.169 431.07ZM269.169 182.993C244.951 182.993 221.276 190.198 201.138 203.696C181.001 217.195 165.306 236.38 156.038 258.828C146.77 281.275 144.345 305.975 149.07 329.804C153.794 353.634 165.457 375.523 182.582 392.703C199.708 409.884 221.527 421.584 245.28 426.324C269.034 431.064 293.655 428.631 316.03 419.333C338.405 410.035 357.53 394.29 370.985 374.088C384.441 353.886 391.622 330.135 391.622 305.838C391.586 273.269 378.673 242.044 355.716 219.014C332.76 195.984 301.635 183.03 269.169 182.993Z"
              fill="#041256"/>
        <path d="M315.277 269.454C325.997 260.409 332.509 246.121 330.801 232.212C329.093 218.303 318.517 205.516 304.798 202.562C291.079 199.608 275.44 207.785 271.273 221.166C268.979 195.367 266.337 168.487 252.6 146.517C240.161 126.623 218.618 112.389 195.269 109.842C171.921 107.296 147.338 116.914 132.776 135.315C118.214 153.716 114.649 180.467 124.848 201.593C132.361 217.156 146.202 228.738 160.704 238.16C206.972 268.222 264.367 278.378 318.98 270.353L315.277 269.454Z"
              fill="#E6E6E6"/>
        <path d="M155.727 117.496C175.001 133.165 192.682 150.69 208.515 169.818C233.295 199.649 253.347 233.096 267.972 268.992C269.043 271.611 264.783 272.751 263.724 270.161C239.794 211.822 201.592 160.402 152.612 120.605C150.412 118.818 153.546 115.723 155.727 117.496Z"
              fill="white"/>
        <path d="M335.176 286.678H318.76V238.009C318.761 236.579 319.328 235.208 320.336 234.197C321.343 233.186 322.71 232.618 324.135 232.616H329.801C331.226 232.618 332.592 233.186 333.6 234.197C334.607 235.208 335.174 236.579 335.176 238.009V286.678Z"
              fill="#041256"/>
        <path d="M345.436 368.796H188.678L188.115 280.424C188.109 279.059 188.378 277.707 188.904 276.447C189.431 275.188 190.205 274.047 191.18 273.092L230.559 234.727C232.428 232.9 234.931 231.869 237.543 231.85L303.451 231.247C304.945 231.238 306.424 231.557 307.781 232.182C309.139 232.807 310.343 233.722 311.308 234.864L311.313 234.871L342.617 273.271C344.438 275.509 345.433 278.305 345.436 281.19L345.436 368.796Z"
              fill="#041256"/>
        <path d="M345.436 368.796H261.303V289.711C261.304 287.302 262.163 284.971 263.726 283.138L300.28 240.278C301.23 239.162 302.411 238.266 303.742 237.652C305.073 237.038 306.521 236.72 307.986 236.722H308.025C309.496 236.726 310.95 237.052 312.283 237.676C313.616 238.3 314.796 239.208 315.742 240.336L343.063 272.863C344.594 274.689 345.434 276.995 345.436 279.379V368.796Z"
              fill="#1134E3"/>
        <path d="M309.569 338.686H297.17C296.366 338.685 295.594 338.366 295.026 337.799C294.457 337.231 294.137 336.462 294.136 335.659V325.29C294.137 324.487 294.457 323.718 295.026 323.15C295.594 322.583 296.366 322.264 297.17 322.263H309.569C310.374 322.264 311.145 322.583 311.714 323.15C312.283 323.718 312.603 324.487 312.604 325.29V335.659C312.603 336.462 312.283 337.231 311.714 337.799C311.145 338.366 310.374 338.685 309.569 338.686Z"
              fill="white"/>
        <path d="M309.569 311.997H297.17C296.366 311.996 295.594 311.686 295.026 311.134C294.457 310.582 294.137 309.834 294.136 309.053V299.202C294.137 298.421 294.457 297.673 295.026 297.121C295.594 296.569 296.366 296.259 297.17 296.258H309.569C310.374 296.259 311.145 296.569 311.714 297.121C312.283 297.673 312.603 298.421 312.604 299.202V309.053C312.603 309.834 312.283 310.582 311.714 311.134C311.145 311.686 310.374 311.996 309.569 311.997Z"
              fill="white"/>
        <path d="M234.441 334.581H222.501C221.727 334.58 220.984 334.261 220.436 333.693C219.888 333.126 219.58 332.356 219.579 331.554V321.184C219.58 320.382 219.888 319.612 220.436 319.045C220.984 318.477 221.727 318.158 222.501 318.157H234.441C235.216 318.158 235.958 318.477 236.506 319.045C237.054 319.612 237.362 320.382 237.363 321.184V331.554C237.362 332.356 237.054 333.126 236.506 333.693C235.958 334.261 235.216 334.58 234.441 334.581Z"
              fill="white"/>
        <path d="M234.441 308.576H222.501C221.727 308.575 220.984 308.251 220.436 307.675C219.888 307.099 219.58 306.318 219.579 305.504V295.225C219.58 294.41 219.888 293.629 220.436 293.053C220.984 292.477 221.727 292.153 222.501 292.152H234.441C235.216 292.153 235.958 292.477 236.506 293.053C237.054 293.629 237.362 294.41 237.363 295.225V305.504C237.362 306.318 237.054 307.099 236.506 307.675C235.958 308.251 235.216 308.575 234.441 308.576Z"
              fill="white"/>
        <path d="M375.708 370.166H162.631C162.315 370.166 162.012 370.022 161.788 369.765C161.565 369.508 161.439 369.16 161.439 368.797C161.439 368.434 161.565 368.086 161.788 367.83C162.012 367.573 162.315 367.429 162.631 367.429H375.708C376.024 367.429 376.327 367.573 376.551 367.83C376.774 368.086 376.9 368.434 376.9 368.797C376.9 369.16 376.774 369.508 376.551 369.765C376.327 370.022 376.024 370.166 375.708 370.166Z"
              fill="#041256"/>
        <path d="M534.564 363.424C536.63 363.553 537.771 360.987 536.208 359.491L536.053 358.872C536.073 358.823 536.094 358.773 536.115 358.724C538.204 353.742 545.285 353.777 547.356 358.766C549.195 363.194 551.535 367.63 552.112 372.312C552.37 374.379 552.254 376.484 551.795 378.512C556.103 369.102 558.37 358.826 558.37 348.492C558.37 345.895 558.228 343.298 557.938 340.709C557.699 338.59 557.369 336.484 556.943 334.398C554.637 323.121 549.644 312.38 542.443 303.409C538.981 301.516 536.094 298.558 534.35 295.012C533.723 293.733 533.233 292.357 533 290.956C533.394 291.008 534.486 285.007 534.188 284.639C534.737 283.806 535.72 283.392 536.32 282.579C539.302 278.535 543.411 279.241 545.556 284.736C550.138 287.049 550.183 290.884 547.371 294.573C545.582 296.92 545.336 300.095 543.767 302.608C543.928 302.814 544.096 303.015 544.258 303.221C547.219 307.019 549.78 311.101 551.939 315.39C551.329 310.624 552.23 304.882 553.765 301.18C555.514 296.963 558.79 293.411 561.676 289.765C565.142 285.386 572.249 287.297 572.86 292.849C572.866 292.902 572.871 292.956 572.877 293.01C572.448 293.252 572.029 293.508 571.618 293.78C569.279 295.327 570.087 298.954 572.859 299.381L572.922 299.391C572.767 300.935 572.502 302.466 572.115 303.971C575.817 318.286 567.825 323.5 556.413 323.735C556.162 323.864 555.916 323.993 555.664 324.116C556.82 327.371 557.744 330.71 558.429 334.095C559.042 337.085 559.469 340.108 559.707 343.144C560.005 346.974 559.979 350.823 559.656 354.647L559.675 354.511C560.495 350.3 562.782 346.366 566.102 343.641C571.047 339.578 578.035 338.082 583.37 334.817C585.938 333.245 589.229 335.276 588.781 338.254L588.759 338.396C587.965 338.719 587.19 339.094 586.441 339.514C586.012 339.755 585.592 340.012 585.182 340.284C582.843 341.831 583.651 345.457 586.423 345.885L586.486 345.895C586.531 345.901 586.57 345.908 586.615 345.914C585.252 349.15 583.353 352.154 580.977 354.744C578.662 367.241 568.72 368.426 558.086 364.787H558.08C556.917 369.851 555.219 374.798 553.035 379.513H535.015C534.951 379.313 534.892 379.106 534.834 378.906C536.501 379.01 538.18 378.913 539.821 378.609C538.484 376.969 537.147 375.315 535.81 373.675C535.777 373.642 535.751 373.61 535.726 373.578C535.047 372.738 534.363 371.905 533.685 371.065L533.684 371.064C533.642 368.487 533.951 365.917 534.564 363.424Z"
              fill="#F2F2F2"/>
    </g>
    <defs>
        <clipPath id="clip0_6810_46157">
            <rect width="511" height="431" fill="white" transform="translate(104.5)"/>
        </clipPath>
    </defs>
</svg>
