<svg preserveAspectRatio="xMidYMid meet" viewBox="0 0 720 431" fill="none" xmlns="http://www.w3.org/2000/svg">
    <path d="M583.794 19.0733H218.913C218.772 19.0729 218.638 19.0168 218.539 18.9175C218.44 18.8182 218.385 18.6837 218.385 18.5435C218.385 18.4033 218.44 18.2688 218.539 18.1695C218.638 18.0702 218.772 18.0142 218.913 18.0137H583.794C583.934 18.0142 584.068 18.0702 584.167 18.1695C584.266 18.2688 584.322 18.4033 584.322 18.5435C584.322 18.6837 584.266 18.8182 584.167 18.9175C584.068 19.0168 583.934 19.0729 583.794 19.0733Z"
          fill="#CACACA"/>
    <path d="M230.833 11.6562C234.05 11.6562 236.659 9.04689 236.659 5.82811C236.659 2.60933 234.05 0 230.833 0C227.616 0 225.008 2.60933 225.008 5.82811C225.008 9.04689 227.616 11.6562 230.833 11.6562Z"
          fill="#202939"/>
    <path d="M250.956 11.6562C254.174 11.6562 256.782 9.04689 256.782 5.82811C256.782 2.60933 254.174 0 250.956 0C247.739 0 245.131 2.60933 245.131 5.82811C245.131 9.04689 247.739 11.6562 250.956 11.6562Z"
          fill="#202939"/>
    <path d="M271.081 11.6562C274.299 11.6562 276.907 9.04689 276.907 5.82811C276.907 2.60933 274.299 0 271.081 0C267.864 0 265.256 2.60933 265.256 5.82811C265.256 9.04689 267.864 11.6562 271.081 11.6562Z"
          fill="#202939"/>
    <path d="M571.737 3.56462H557.438C557.158 3.56366 556.89 3.45158 556.692 3.25297C556.494 3.05435 556.383 2.78537 556.383 2.50497C556.383 2.22456 556.494 1.95559 556.692 1.75697C556.89 1.55835 557.158 1.44628 557.438 1.44531H571.737C572.017 1.44628 572.286 1.55835 572.484 1.75697C572.681 1.95559 572.793 2.22456 572.793 2.50497C572.793 2.78537 572.681 3.05435 572.484 3.25297C572.286 3.45158 572.017 3.56366 571.737 3.56462Z"
          fill="#202939"/>
    <path d="M571.737 7.53923H557.438C557.158 7.53826 556.89 7.42619 556.692 7.22758C556.494 7.02896 556.383 6.75999 556.383 6.47958C556.383 6.19917 556.494 5.9302 556.692 5.73158C556.89 5.53296 557.158 5.42089 557.438 5.41992H571.737C572.017 5.42089 572.286 5.53296 572.484 5.73158C572.681 5.9302 572.793 6.19917 572.793 6.47958C572.793 6.75999 572.681 7.02896 572.484 7.22758C572.286 7.42619 572.017 7.53826 571.737 7.53923Z"
          fill="#202939"/>
    <path d="M571.737 11.5119H557.438C557.158 11.5109 556.89 11.3989 556.692 11.2002C556.494 11.0016 556.383 10.7326 556.383 10.4522C556.383 10.1718 556.494 9.90285 556.692 9.70423C556.89 9.50561 557.158 9.39355 557.438 9.39258H571.737C572.017 9.39355 572.286 9.50561 572.484 9.70423C572.681 9.90285 572.793 10.1718 572.793 10.4522C572.793 10.7326 572.681 11.0016 572.484 11.2002C572.286 11.3989 572.017 11.5109 571.737 11.5119Z"
          fill="#202939"/>
    <path d="M535.865 316.52L380 245.332L460.257 69.4473L616.122 140.636L535.865 316.52Z" fill="#F2F2F2"/>
    <path d="M559.607 214.343L441.613 160.451C441.391 160.35 441.218 160.164 441.132 159.935C441.047 159.706 441.056 159.453 441.157 159.23C441.259 159.008 441.444 158.835 441.673 158.75C441.902 158.664 442.156 158.673 442.378 158.775L560.372 212.666C560.594 212.768 560.767 212.954 560.853 213.183C560.938 213.412 560.929 213.665 560.828 213.887C560.726 214.11 560.54 214.283 560.312 214.368C560.083 214.454 559.829 214.445 559.607 214.343Z"
          fill="white"/>
    <path d="M566.169 199.962L448.175 146.071C448.065 146.02 447.966 145.949 447.884 145.86C447.801 145.772 447.737 145.668 447.695 145.554C447.653 145.441 447.633 145.32 447.637 145.199C447.642 145.078 447.67 144.96 447.72 144.849C447.77 144.739 447.842 144.64 447.93 144.558C448.019 144.475 448.123 144.411 448.236 144.369C448.349 144.326 448.47 144.307 448.591 144.311C448.712 144.315 448.83 144.344 448.94 144.394L566.935 198.286C567.045 198.336 567.144 198.407 567.226 198.496C567.309 198.584 567.373 198.688 567.415 198.802C567.457 198.915 567.477 199.036 567.473 199.157C567.468 199.278 567.44 199.397 567.39 199.507C567.34 199.617 567.268 199.716 567.18 199.798C567.091 199.881 566.987 199.945 566.874 199.987C566.761 200.03 566.64 200.049 566.519 200.045C566.398 200.041 566.28 200.013 566.169 199.962Z"
          fill="white"/>
    <path d="M572.73 185.585L454.736 131.694C454.626 131.643 454.527 131.572 454.444 131.483C454.362 131.395 454.298 131.291 454.255 131.177C454.213 131.064 454.194 130.943 454.198 130.822C454.202 130.701 454.23 130.583 454.28 130.472C454.331 130.362 454.402 130.263 454.491 130.181C454.579 130.098 454.683 130.034 454.796 129.992C454.91 129.949 455.03 129.93 455.151 129.934C455.272 129.938 455.391 129.967 455.501 130.017L573.495 183.909C573.717 184.01 573.889 184.196 573.974 184.425C574.059 184.654 574.05 184.907 573.949 185.129C573.848 185.351 573.662 185.524 573.434 185.609C573.205 185.695 572.952 185.686 572.73 185.585Z"
          fill="white"/>
    <path d="M579.293 171.202L461.298 117.311C461.188 117.26 461.089 117.189 461.007 117.1C460.924 117.012 460.86 116.908 460.818 116.795C460.776 116.681 460.756 116.561 460.76 116.44C460.765 116.319 460.793 116.2 460.843 116.09C460.893 115.98 460.965 115.88 461.053 115.798C461.142 115.715 461.246 115.651 461.359 115.609C461.472 115.567 461.593 115.547 461.714 115.551C461.835 115.556 461.953 115.584 462.064 115.634L580.058 169.526C580.168 169.576 580.267 169.647 580.349 169.736C580.432 169.825 580.496 169.929 580.538 170.042C580.58 170.155 580.6 170.276 580.596 170.397C580.591 170.518 580.563 170.637 580.513 170.747C580.463 170.857 580.391 170.956 580.303 171.039C580.214 171.121 580.11 171.185 579.997 171.228C579.884 171.27 579.763 171.289 579.642 171.285C579.521 171.281 579.403 171.253 579.293 171.202Z"
          fill="white"/>
    <path d="M553.677 227.335L435.683 173.444C435.573 173.393 435.474 173.322 435.392 173.233C435.309 173.145 435.245 173.041 435.203 172.927C435.16 172.814 435.141 172.693 435.145 172.572C435.149 172.451 435.177 172.333 435.228 172.222C435.278 172.112 435.349 172.013 435.438 171.931C435.526 171.848 435.63 171.784 435.744 171.742C435.857 171.699 435.978 171.68 436.098 171.684C436.219 171.688 436.338 171.717 436.448 171.767L554.442 225.659C554.665 225.76 554.837 225.946 554.923 226.175C555.008 226.404 554.999 226.657 554.898 226.88C554.796 227.102 554.611 227.275 554.382 227.36C554.153 227.446 553.9 227.437 553.677 227.335Z"
          fill="white"/>
    <path d="M573.383 150.113L481.214 108.017C480.696 107.793 480.277 107.387 480.038 106.875C479.799 106.363 479.757 105.781 479.919 105.24C480.018 104.945 480.178 104.675 480.388 104.447C480.598 104.218 480.854 104.037 481.138 103.913C481.423 103.79 481.731 103.728 482.041 103.731C482.351 103.734 482.657 103.802 482.94 103.931L575.08 146.014C575.608 146.239 576.034 146.651 576.277 147.171C576.519 147.692 576.561 148.283 576.393 148.833C576.291 149.123 576.129 149.389 575.919 149.613C575.708 149.838 575.453 150.016 575.17 150.136C574.887 150.257 574.581 150.317 574.274 150.313C573.966 150.309 573.663 150.241 573.383 150.113Z"
          fill="white"/>
    <path d="M579.655 318H346.59V55H579.655V318Z" fill="white"/>
    <path d="M579.655 318H346.59V55H579.655V318ZM347.843 316.746H578.402V56.2536H347.843L347.843 316.746Z"
          fill="#CACACA"/>
    <path d="M551.69 191.507H375.253C375.088 191.507 374.926 191.475 374.774 191.412C374.621 191.349 374.483 191.256 374.367 191.14C374.251 191.024 374.158 190.885 374.095 190.733C374.032 190.581 374 190.418 374 190.254C374 190.089 374.032 189.926 374.095 189.774C374.158 189.622 374.251 189.484 374.367 189.367C374.483 189.251 374.621 189.158 374.774 189.095C374.926 189.032 375.088 189 375.253 189H551.69C552.022 189 552.341 189.132 552.576 189.367C552.811 189.602 552.943 189.921 552.943 190.254C552.943 190.586 552.811 190.905 552.576 191.14C552.341 191.375 552.022 191.507 551.69 191.507Z"
          fill="#E4E4E4"/>
    <path d="M551.69 169.507H375.253C374.921 169.507 374.602 169.375 374.367 169.14C374.132 168.905 374 168.586 374 168.254C374 167.921 374.132 167.602 374.367 167.367C374.602 167.132 374.921 167 375.253 167H551.69C552.022 167 552.341 167.132 552.576 167.367C552.811 167.602 552.943 167.921 552.943 168.254C552.943 168.586 552.811 168.905 552.576 169.14C552.341 169.375 552.022 169.507 551.69 169.507Z"
          fill="#E4E4E4"/>
    <path d="M551.69 147.507H375.253C375.088 147.507 374.926 147.475 374.774 147.412C374.621 147.349 374.483 147.256 374.367 147.14C374.251 147.024 374.158 146.885 374.095 146.733C374.032 146.581 374 146.418 374 146.254C374 146.089 374.032 145.926 374.095 145.774C374.158 145.622 374.251 145.484 374.367 145.367C374.483 145.251 374.621 145.158 374.774 145.095C374.926 145.032 375.088 145 375.253 145H551.69C552.022 145 552.341 145.132 552.576 145.367C552.811 145.602 552.943 145.921 552.943 146.254C552.943 146.586 552.811 146.905 552.576 147.14C552.341 147.375 552.022 147.507 551.69 147.507Z"
          fill="#E4E4E4"/>
    <path d="M551.69 125.507H375.253C374.921 125.507 374.602 125.375 374.367 125.14C374.132 124.905 374 124.586 374 124.254C374 123.921 374.132 123.602 374.367 123.367C374.602 123.132 374.921 123 375.253 123H551.69C552.022 123 552.341 123.132 552.576 123.367C552.811 123.602 552.943 123.921 552.943 124.254C552.943 124.586 552.811 124.905 552.576 125.14C552.341 125.375 552.022 125.507 551.69 125.507Z"
          fill="#E4E4E4"/>
    <path d="M551.34 294.038H374.903C374.571 294.038 374.252 293.906 374.017 293.671C373.782 293.436 373.65 293.117 373.65 292.785C373.65 292.452 373.782 292.134 374.017 291.898C374.252 291.663 374.571 291.531 374.903 291.531H551.34C551.672 291.531 551.991 291.663 552.226 291.898C552.461 292.134 552.593 292.452 552.593 292.785C552.593 293.117 552.461 293.436 552.226 293.671C551.991 293.906 551.672 294.038 551.34 294.038Z"
          fill="#E4E4E4"/>
    <path d="M509.075 273.914H417.169C416.554 273.913 415.965 273.668 415.531 273.234C415.097 272.799 414.852 272.21 414.852 271.595V217.507C414.852 216.893 415.097 216.304 415.531 215.869C415.965 215.435 416.554 215.19 417.169 215.189H509.075C509.689 215.19 510.278 215.435 510.713 215.869C511.147 216.304 511.391 216.893 511.392 217.507V271.595C511.391 272.21 511.147 272.799 510.713 273.234C510.278 273.668 509.689 273.913 509.075 273.914Z"
          fill="white"/>
    <path class="pos_svg_theme_color"
          d="M478.384 243.016C477.916 242.515 477.353 242.113 476.727 241.834C476.1 241.556 475.425 241.406 474.74 241.393C474.054 241.381 473.374 241.507 472.738 241.763C472.102 242.019 471.525 242.401 471.039 242.885L445.174 268.762C444.491 269.444 443.565 269.828 442.6 269.829C441.635 269.831 440.708 269.45 440.023 268.77L436.192 264.945C435.719 264.471 435.156 264.095 434.537 263.838C433.919 263.582 433.255 263.45 432.585 263.45C431.915 263.45 431.252 263.582 430.633 263.838C430.014 264.095 429.452 264.471 428.978 264.945L421.564 272.37H504.682V271.312L478.384 243.016Z"
          fill="yellow"/>
    <path d="M509.075 273.914H417.169C416.554 273.913 415.965 273.668 415.531 273.234C415.097 272.799 414.852 272.21 414.852 271.595V217.507C414.852 216.893 415.097 216.304 415.531 215.869C415.965 215.435 416.554 215.19 417.169 215.189H509.075C509.689 215.19 510.278 215.435 510.713 215.869C511.147 216.304 511.391 216.893 511.392 217.507V271.595C511.391 272.21 511.147 272.799 510.713 273.234C510.278 273.668 509.689 273.913 509.075 273.914ZM417.169 216.735C416.964 216.735 416.767 216.817 416.623 216.961C416.478 217.106 416.396 217.303 416.396 217.508V271.595C416.396 271.8 416.478 271.997 416.623 272.142C416.767 272.286 416.964 272.368 417.169 272.368H509.075C509.28 272.368 509.476 272.286 509.621 272.142C509.766 271.997 509.847 271.8 509.847 271.595V217.507C509.847 217.303 509.766 217.106 509.621 216.961C509.476 216.817 509.28 216.735 509.075 216.735L417.169 216.735Z"
          fill="#202939"/>
    <path class="pos_svg_theme_color"
          d="M532.006 104.032H394.187C393.419 104.049 392.671 103.783 392.087 103.284C391.502 102.785 391.121 102.089 391.016 101.328C390.973 100.908 391.018 100.483 391.149 100.082C391.28 99.6805 391.493 99.311 391.776 98.9974C392.059 98.6838 392.404 98.4331 392.79 98.2615C393.175 98.0899 393.593 98.0011 394.015 98.0011H531.792C532.572 97.9806 533.333 98.2497 533.926 98.7566C534.52 99.2634 534.906 99.9723 535.008 100.746C535.046 101.164 534.996 101.584 534.862 101.981C534.728 102.378 534.513 102.742 534.231 103.051C533.948 103.36 533.605 103.607 533.222 103.776C532.839 103.945 532.425 104.032 532.006 104.032Z"
          fill="yellow"/>
    <path d="M269.17 431.07C244.481 431.07 220.347 423.725 199.818 409.964C179.29 396.204 163.29 376.645 153.842 353.762C144.394 330.879 141.922 305.7 146.738 281.407C151.555 257.115 163.444 234.801 180.902 217.287C198.36 199.773 220.602 187.846 244.817 183.014C269.032 178.182 294.131 180.662 316.941 190.14C339.751 199.619 359.247 215.67 372.963 236.264C386.68 256.858 394.001 281.07 394.001 305.838C393.964 339.04 380.8 370.871 357.398 394.349C333.995 417.826 302.266 431.032 269.17 431.07ZM269.17 182.993C244.952 182.993 221.277 190.198 201.139 203.696C181.002 217.195 165.307 236.38 156.039 258.828C146.771 281.275 144.346 305.975 149.071 329.804C153.795 353.634 165.458 375.523 182.583 392.703C199.709 409.884 221.528 421.584 245.281 426.324C269.035 431.064 293.656 428.631 316.031 419.333C338.406 410.035 357.531 394.29 370.986 374.088C384.442 353.886 391.623 330.135 391.623 305.838C391.587 273.269 378.674 242.044 355.717 219.014C332.761 195.984 301.636 183.03 269.17 182.993Z"
          fill="#202939"/>
    <path d="M315.278 269.453C325.998 260.408 332.509 246.12 330.801 232.211C329.094 218.302 318.517 205.515 304.798 202.561C291.079 199.607 275.44 207.784 271.273 221.165C268.98 195.366 266.337 168.486 252.6 146.516C240.162 126.622 218.618 112.388 195.27 109.841C171.921 107.295 147.338 116.913 132.776 135.314C118.215 153.715 114.649 180.466 124.848 201.592C132.361 217.155 146.202 228.737 160.705 238.159C206.973 268.221 264.368 278.377 318.98 270.352L315.278 269.453Z"
          fill="#E6E6E6"/>
    <path d="M155.728 117.495C175.001 133.164 192.682 150.689 208.516 169.817C233.295 199.648 253.347 233.095 267.973 268.991C269.043 271.61 264.783 272.75 263.724 270.16C239.794 211.821 201.592 160.401 152.612 120.605C150.413 118.817 153.546 115.722 155.728 117.495Z"
          fill="white"/>
    <path d="M335.176 286.677H318.76V238.008C318.761 236.578 319.328 235.207 320.336 234.196C321.343 233.185 322.71 232.617 324.135 232.615H329.801C331.226 232.617 332.592 233.185 333.6 234.196C334.607 235.207 335.174 236.578 335.176 238.008V286.677Z"
          fill="#202939"/>
    <path d="M345.436 368.795H188.678L188.115 280.423C188.109 279.058 188.378 277.706 188.904 276.446C189.431 275.187 190.205 274.046 191.18 273.091L230.559 234.726C232.428 232.899 234.931 231.868 237.543 231.849L303.451 231.246C304.945 231.237 306.424 231.556 307.781 232.181C309.139 232.806 310.343 233.721 311.308 234.863L311.313 234.87L342.617 273.27C344.438 275.508 345.433 278.304 345.436 281.189L345.436 368.795Z"
          fill="#202939"/>
    <path class="pos_svg_theme_color"
          d="M345.437 368.795H261.305V289.71C261.305 287.301 262.164 284.97 263.727 283.137L300.282 240.277C301.231 239.161 302.413 238.265 303.743 237.651C305.074 237.037 306.522 236.72 307.988 236.721H308.026C309.498 236.725 310.951 237.051 312.284 237.675C313.617 238.299 314.798 239.207 315.744 240.335L343.064 272.862C344.596 274.688 345.436 276.994 345.437 279.378V368.795Z"
          fill="yellow"/>
    <path d="M309.57 338.685H297.171C296.367 338.685 295.595 338.365 295.027 337.798C294.458 337.23 294.138 336.461 294.137 335.658V325.289C294.138 324.486 294.458 323.717 295.027 323.149C295.595 322.582 296.367 322.263 297.171 322.262H309.57C310.375 322.263 311.146 322.582 311.715 323.149C312.284 323.717 312.604 324.486 312.605 325.289V335.658C312.604 336.461 312.284 337.23 311.715 337.798C311.146 338.365 310.375 338.685 309.57 338.685Z"
          fill="white"/>
    <path d="M309.57 311.997H297.171C296.367 311.996 295.595 311.686 295.027 311.134C294.458 310.582 294.138 309.834 294.137 309.053V299.202C294.138 298.421 294.458 297.673 295.027 297.121C295.595 296.569 296.367 296.259 297.171 296.258H309.57C310.375 296.259 311.146 296.569 311.715 297.121C312.284 297.673 312.604 298.421 312.605 299.202V309.053C312.604 309.834 312.284 310.582 311.715 311.134C311.146 311.686 310.375 311.996 309.57 311.997Z"
          fill="white"/>
    <path d="M234.442 334.58H222.502C221.728 334.579 220.985 334.26 220.437 333.692C219.889 333.125 219.581 332.355 219.58 331.553V321.183C219.581 320.381 219.889 319.611 220.437 319.044C220.985 318.476 221.728 318.157 222.502 318.156H234.442C235.217 318.157 235.959 318.476 236.507 319.044C237.055 319.611 237.363 320.381 237.364 321.183V331.553C237.363 332.355 237.055 333.125 236.507 333.692C235.959 334.26 235.217 334.579 234.442 334.58Z"
          fill="white"/>
    <path d="M234.442 308.576H222.502C221.728 308.575 220.985 308.251 220.437 307.675C219.889 307.099 219.581 306.318 219.58 305.504V295.225C219.581 294.41 219.889 293.629 220.437 293.053C220.985 292.477 221.728 292.153 222.502 292.152H234.442C235.217 292.153 235.959 292.477 236.507 293.053C237.055 293.629 237.363 294.41 237.364 295.225V305.504C237.363 306.318 237.055 307.099 236.507 307.675C235.959 308.251 235.217 308.575 234.442 308.576Z"
          fill="white"/>
    <path d="M375.708 370.165H162.632C162.316 370.165 162.012 370.021 161.789 369.764C161.565 369.507 161.439 369.159 161.439 368.796C161.439 368.433 161.565 368.085 161.789 367.829C162.012 367.572 162.316 367.428 162.632 367.428H375.708C376.024 367.428 376.328 367.572 376.551 367.829C376.775 368.085 376.9 368.433 376.9 368.796C376.9 369.159 376.775 369.507 376.551 369.764C376.328 370.021 376.024 370.165 375.708 370.165Z"
          fill="#202939"/>
    <path d="M534.564 363.424C536.63 363.553 537.771 360.987 536.208 359.491L536.053 358.872C536.073 358.823 536.094 358.773 536.115 358.724C538.204 353.742 545.285 353.777 547.356 358.766C549.195 363.194 551.535 367.63 552.112 372.312C552.37 374.379 552.254 376.484 551.795 378.512C556.103 369.102 558.37 358.826 558.37 348.492C558.37 345.895 558.228 343.298 557.938 340.709C557.699 338.59 557.369 336.484 556.943 334.398C554.637 323.121 549.644 312.38 542.443 303.409C538.981 301.516 536.094 298.558 534.35 295.012C533.723 293.733 533.233 292.357 533 290.956C533.394 291.008 534.486 285.007 534.188 284.639C534.737 283.806 535.72 283.392 536.32 282.579C539.302 278.535 543.411 279.241 545.556 284.736C550.138 287.049 550.183 290.884 547.371 294.573C545.582 296.92 545.336 300.095 543.767 302.608C543.928 302.814 544.096 303.015 544.258 303.221C547.219 307.019 549.78 311.101 551.939 315.39C551.329 310.624 552.23 304.882 553.765 301.18C555.514 296.963 558.79 293.411 561.676 289.765C565.142 285.386 572.249 287.297 572.86 292.849C572.866 292.902 572.871 292.956 572.877 293.01C572.448 293.252 572.029 293.508 571.618 293.78C569.279 295.327 570.087 298.954 572.859 299.381L572.922 299.391C572.767 300.935 572.502 302.466 572.115 303.971C575.817 318.286 567.825 323.5 556.413 323.735C556.162 323.864 555.916 323.993 555.664 324.116C556.82 327.371 557.744 330.71 558.429 334.095C559.042 337.085 559.469 340.108 559.707 343.144C560.005 346.974 559.979 350.823 559.656 354.647L559.675 354.511C560.495 350.3 562.782 346.366 566.102 343.641C571.047 339.578 578.035 338.082 583.37 334.817C585.938 333.245 589.229 335.276 588.781 338.254L588.759 338.396C587.965 338.719 587.19 339.094 586.441 339.514C586.012 339.755 585.592 340.012 585.182 340.284C582.843 341.831 583.651 345.457 586.423 345.885L586.486 345.895C586.531 345.901 586.57 345.908 586.615 345.914C585.252 349.15 583.353 352.154 580.977 354.744C578.662 367.241 568.72 368.426 558.086 364.787H558.08C556.917 369.851 555.219 374.798 553.035 379.513H535.015C534.951 379.313 534.892 379.106 534.834 378.906C536.501 379.01 538.18 378.913 539.821 378.609C538.484 376.969 537.147 375.315 535.81 373.675C535.777 373.642 535.751 373.61 535.726 373.578C535.047 372.738 534.363 371.905 533.685 371.065L533.684 371.064C533.642 368.487 533.951 365.917 534.564 363.424Z"
          fill="#F2F2F2"/>
</svg>
