<svg preserveAspectRatio="xMidYMid meet" viewBox="0 0 720 348" fill="none" xmlns="http://www.w3.org/2000/svg">
<g clip-path="url(#clip0_3763_12491)">
<path d="M497 129.085C496.983 138.579 494.181 147.854 488.948 155.738C483.714 163.622 476.285 169.761 467.599 173.379C458.914 176.996 449.361 177.93 440.15 176.061C430.94 174.192 422.484 169.606 415.853 162.881C409.222 156.156 404.713 147.595 402.896 138.281C401.08 128.966 402.038 119.317 405.648 110.553C409.259 101.788 415.36 94.3025 423.18 89.0422C431.001 83.7819 440.189 80.9832 449.584 81.0001C455.826 80.9949 462.008 82.2363 467.774 84.6531C473.54 87.0699 478.777 90.6143 483.183 95.0827C487.589 99.551 491.078 104.855 493.449 110.691C495.82 116.526 497.027 122.777 497 129.085Z" fill="#F2F2F2"/>
<path d="M504.5 195C530.734 195 552 173.734 552 147.5C552 121.266 530.734 100 504.5 100C478.266 100 457 121.266 457 147.5C457 173.734 478.266 195 504.5 195Z" fill="white"/>
<path d="M484.965 128.766C484.31 132.302 483.236 135.747 481.765 139.027C473.344 156.925 497.325 151.091 505.895 151.091C515.265 151.091 524.23 156.042 522.861 134.046C522.276 124.65 515.265 117 505.895 117C497.892 117 486.639 120.574 484.965 128.766Z" fill="#2F2E41"/>
<path d="M505 151C512.732 151 519 144.732 519 137C519 129.268 512.732 123 505 123C497.268 123 491 129.268 491 137C491 144.732 497.268 151 505 151Z" fill="#FFB6B6"/>
<path d="M495.426 123.304C497.798 121.834 500.515 121.039 503.292 121.001C506.069 120.964 508.806 121.686 511.215 123.092C513.624 124.498 515.617 126.536 516.986 128.993C518.355 131.45 519.05 134.236 518.997 137.059C512.101 138.82 504.855 140.167 497.501 137.48L495.764 133.159L494.74 137.483C492.5 138.414 490.254 139.202 488.009 137.474C487.917 134.659 488.554 131.869 489.856 129.382C491.157 126.895 493.078 124.799 495.426 123.304Z" fill="#2F2E41"/>
<path d="M542 178.953C533.703 188.264 522.027 193.984 509.492 194.877C496.957 195.771 484.568 191.766 475 183.729L479.108 172.424C480.036 170.416 481.501 168.695 483.345 167.446C485.189 166.197 487.344 165.467 489.577 165.333L492.19 165.175L498.421 159.874C498.421 159.874 515.21 159.283 514.961 159L525.131 165.033L525.122 164.992L529.12 165.233C531.354 165.366 533.508 166.096 535.353 167.346C537.197 168.595 538.662 170.316 539.59 172.324L542 178.953Z" fill="#1134E3"/>
<path d="M192.043 83.3876L190.866 66.6976C183.155 62.7682 174.619 60.8171 166 61.0135C178.126 70.5676 177.154 89.663 185.552 102.731C188.202 106.787 191.713 110.182 195.825 112.667C199.938 115.151 204.546 116.66 209.308 117.082L219.399 123C220.554 115.223 220.04 107.283 217.894 99.7268C215.749 92.1712 212.021 85.1795 206.969 79.2336C204.103 75.9266 200.839 73.0007 197.255 70.525C195.05 76.9805 192.043 83.3876 192.043 83.3876Z" fill="#F2F2F2"/>
<path d="M505 196C495.507 196 486.226 193.156 478.333 187.826C470.439 182.497 464.287 174.922 460.654 166.06C457.021 157.198 456.07 147.446 457.922 138.038C459.774 128.63 464.346 119.988 471.059 113.205C477.772 106.422 486.325 101.803 495.636 99.9319C504.947 98.0606 514.598 99.021 523.369 102.692C532.14 106.363 539.636 112.579 544.911 120.555C550.185 128.531 553 137.908 553 147.5C552.986 160.359 547.924 172.686 538.925 181.779C529.927 190.871 517.726 195.985 505 196ZM505 100.2C495.741 100.2 486.691 102.974 478.993 108.172C471.294 113.369 465.294 120.756 461.751 129.399C458.208 138.042 457.281 147.552 459.087 156.728C460.893 165.903 465.352 174.331 471.899 180.946C478.446 187.561 486.787 192.066 495.867 193.891C504.948 195.716 514.36 194.779 522.914 191.199C531.468 187.619 538.779 181.557 543.923 173.778C549.067 166 551.812 156.855 551.812 147.5C551.798 134.96 546.862 122.937 538.086 114.07C529.31 105.202 517.411 100.214 505 100.2Z" fill="#3F3D56"/>
<path d="M338.5 96C364.734 96 386 74.7335 386 48.5C386 22.2665 364.734 1 338.5 1C312.266 1 291 22.2665 291 48.5C291 74.7335 312.266 96 338.5 96Z" fill="white"/>
<path d="M344.755 70.1134L347.094 55.4595L331.302 49.0117L328.962 71.2857L344.755 70.1134Z" fill="#A0616A"/>
<path d="M360.413 90.4799C359.057 91.1424 357.402 91.938 356 92.4685C353.195 93.5321 350.536 94.7777 347.566 95.3135C344.663 95.8387 341.617 95.9485 338.637 95.9485C334.61 95.9485 330.602 95.4147 326.731 94.4571C325.215 94.0845 324.265 94.4907 322.762 93.9599C322.028 93.468 321.431 93.0228 321.274 92.9656C319.409 92.2878 318.331 92.3113 316.567 91.4133C316.329 91.2943 316.092 91.1724 315.854 91.043C315.591 90.9086 315.33 90.7663 315.066 90.6186C314.731 90.4349 314.397 90.2433 314.064 90.0492C312.949 89.4021 311.851 88.7033 310.802 87.9761L310.733 87.9296C310.671 87.8856 310.609 87.8442 310.549 87.8002C310.588 87.5957 310.624 87.4092 310.658 87.2437C310.787 86.5941 310.872 86.2369 310.872 86.2369L317.943 71.5981L319.914 67.5191L320.875 67.1231L328.132 64.1338H345.87L351.466 66.4528C351.466 66.4528 351.495 66.5589 351.552 66.7634C352.109 68.7693 355.364 79.3379 360.413 90.4799C360.482 90.6351 360.053 89.6866 360.413 90.4799Z" fill="#1134E3"/>
<path d="M340.764 60.1715C349.658 60.1715 356.869 52.9459 356.869 44.0325C356.869 35.1192 349.658 27.8936 340.764 27.8936C331.87 27.8936 324.66 35.1192 324.66 44.0325C324.66 52.9459 331.87 60.1715 340.764 60.1715Z" fill="#A0616A"/>
<path d="M320.903 66.9844L320.875 67.1233L315.965 90.5179L315.923 90.7216L315.854 91.0438C315.59 90.9086 315.33 90.766 315.067 90.6198C314.731 90.4346 314.398 90.2438 314.064 90.0494C312.949 89.4031 311.852 88.7031 310.802 87.9771L310.732 87.929C310.671 87.8864 310.608 87.8438 310.549 87.8012C309.747 87.2401 308.965 86.6549 308.202 86.0512C308.197 86.0475 308.193 86.0438 308.187 86.0382C306.825 84.9382 305.513 83.7549 304.259 82.4975C303.449 81.6863 302.671 80.8512 301.927 79.9937L302.039 79.5197L302.05 79.4715L302.191 78.8678C303.44 73.5807 307.666 69.5233 312.99 68.5011L320.064 67.1436L320.903 66.9844Z" fill="#1134E3"/>
<path d="M370.523 84.0946C368.439 85.8727 366.295 87.5755 363.937 88.9887C363.707 89.1284 363.472 89.2654 363.237 89.4027C362.235 89.9825 361.001 90.4725 359.968 90.9772C358.612 91.6397 357.898 91.9381 356.496 92.4687L356.387 91.9561L350.834 66.626L351.552 66.7632L358.747 68.1453C364.07 69.1676 368.297 73.2258 369.545 78.5134L370.386 83.5201L370.523 84.0946Z" fill="#1134E3"/>
<path d="M359.31 48.3459C358.891 49.9092 356.786 56.8948 351.396 58.3648C350.338 58.6547 347.812 58.9886 348.481 58.3648C348.633 58.2225 348.78 58.0827 348.927 57.9455C354.777 52.4327 357.164 49.063 356.074 41.5831C355.381 36.8207 347.499 32.4959 343.065 32.0662C341.195 31.8852 338.809 32.5191 337.233 34.1524C334.632 36.844 335.061 45.1057 333.62 49.9585C333.233 51.2576 332.714 52.3136 331.967 52.9529C331.502 53.3514 331.205 52.8442 330.986 52.0134C330.518 50.2482 330.397 47.0157 329.733 47.9292C327.814 50.577 329.643 54.0864 330.195 55.4402C330.309 55.7172 330.425 55.9836 330.541 56.2374V56.2399C330.609 56.3847 330.678 56.5298 330.746 56.667V56.6696C332.589 60.4378 334.805 61.7863 336.758 64.1338C337.525 65.0526 338.251 66.1215 338.899 67.5503C339.343 68.5287 339.663 69.5121 339.883 70.4774C341.001 75.3173 339.674 79.7147 339.315 80.9105C338.563 83.4003 337.272 87.6784 333.483 90.0932C328.726 93.1267 324.384 90.4531 322.308 93.3337C322.282 93.3674 322.259 93.401 322.236 93.4346C322.158 93.5511 322.088 93.6676 322.029 93.7839C320.164 93.106 318.331 92.3114 316.567 91.4133C316.329 91.2943 316.092 91.1725 315.854 91.043C315.59 90.9086 315.33 90.7663 315.066 90.6187C315.056 90.4167 315.046 90.215 315.038 90.0106C314.885 86.5087 315.115 82.66 315.986 78.8217C316.543 76.3708 317.096 73.9403 317.943 71.5981C318.496 70.0712 319.173 68.5802 320.064 67.1438C320.776 65.9895 321.624 64.8688 322.651 63.7921C324.909 61.4291 326.915 60.4431 327.233 57.948C327.688 54.3867 323.987 53.3153 322.651 47.9291C321.74 44.2463 320.787 38.938 321.711 35.3611C322.584 31.981 323.344 29.0486 325.877 26.1755C326.487 25.4871 331.489 20.6989 337.285 19.9121C339.955 19.5524 342.337 22.9793 345.565 23.7168C349.276 24.5632 351.402 25.0473 353.478 26.6388C356.988 29.3253 357.977 33.3423 358.894 37.0745C359.612 39.994 360.542 43.7701 359.31 48.3459Z" fill="#2F2E41"/>
<path d="M338.5 97C328.908 97 319.531 94.1555 311.555 88.8263C303.579 83.497 297.363 75.9224 293.692 67.0602C290.021 58.1979 289.061 48.4462 290.932 39.0381C292.803 29.6301 297.422 20.9882 304.205 14.2053C310.988 7.4225 319.63 2.80332 329.038 0.931937C338.446 -0.939446 348.198 0.0210111 357.06 3.69186C365.922 7.36271 373.497 13.5791 378.826 21.5549C384.156 29.5306 387 38.9076 387 48.5C386.985 61.3585 381.871 73.6862 372.779 82.7786C363.686 91.8709 351.359 96.9854 338.5 97ZM338.5 1.2001C329.145 1.2001 320 3.97419 312.222 9.17157C304.443 14.3689 298.381 21.7562 294.801 30.3991C291.221 39.042 290.284 48.5525 292.109 57.7278C293.934 66.903 298.439 75.3311 305.054 81.9461C311.669 88.5611 320.097 93.066 329.272 94.8911C338.448 96.7161 347.958 95.7794 356.601 92.1994C365.244 88.6194 372.631 82.5569 377.828 74.7784C383.026 67 385.8 57.855 385.8 48.5C385.786 35.9597 380.798 23.937 371.93 15.0696C363.063 6.20227 351.04 1.21433 338.5 1.2001Z" fill="#3F3D56"/>
<path d="M387.253 347.006C425.61 347.006 456.704 315.845 456.704 277.406C456.704 238.967 425.61 207.806 387.253 207.806C348.896 207.806 317.801 238.967 317.801 277.406C317.801 315.845 348.896 347.006 387.253 347.006Z" fill="white"/>
<path d="M390.229 284.366C402.832 284.366 413.049 274.127 413.049 261.497C413.049 248.868 402.832 238.629 390.229 238.629C377.626 238.629 367.409 248.868 367.409 261.497C367.409 274.127 377.626 284.366 390.229 284.366Z" fill="#FFB8B8"/>
<path d="M410.375 246.945C410.375 246.945 416.215 235.73 403.368 234.71C403.368 234.71 392.415 224.729 381.251 232.885C381.251 232.885 375.162 232.885 371.832 239.808C371.832 239.808 367.043 237.983 365.991 242.867C365.991 242.867 362.486 253.062 365.991 262.238C369.495 271.414 370.659 272.434 370.659 272.434C370.659 272.434 368.2 261.047 382.217 260.027C396.233 259.008 409.092 250.187 410.26 261.402C411.429 272.617 412.713 267.551 412.713 267.551C412.713 267.551 423.807 251.533 410.375 246.945Z" fill="#2F2E41"/>
<path d="M439.838 323.516C427.797 337.145 410.852 345.518 392.661 346.826C374.469 348.134 356.491 342.272 342.605 330.507L348.566 313.959C349.914 311.02 352.039 308.501 354.716 306.672C357.393 304.844 360.519 303.774 363.76 303.579L367.552 303.347L376.595 295.589C376.595 295.589 400.959 294.723 400.598 294.309L415.357 303.14L415.344 303.079L421.146 303.433C424.387 303.627 427.514 304.696 430.191 306.525C432.867 308.353 434.993 310.873 436.339 313.812L439.838 323.516Z" fill="#1134E3"/>
<path d="M387.253 348C373.32 348 359.701 343.86 348.116 336.103C336.532 328.346 327.503 317.321 322.171 304.421C316.84 291.522 315.445 277.328 318.163 263.634C320.881 249.94 327.59 237.361 337.442 227.488C347.293 217.615 359.845 210.892 373.51 208.168C387.175 205.444 401.339 206.842 414.21 212.185C427.082 217.528 438.084 226.577 445.825 238.186C453.565 249.795 457.697 263.444 457.697 277.406C457.675 296.122 450.247 314.066 437.041 327.3C423.834 340.534 405.929 347.979 387.253 348ZM387.253 208.558C373.665 208.558 360.383 212.596 349.085 220.161C337.787 227.726 328.981 238.479 323.782 251.059C318.582 263.639 317.221 277.482 319.872 290.837C322.523 304.192 329.066 316.46 338.674 326.088C348.282 335.717 360.523 342.274 373.85 344.93C387.177 347.587 400.99 346.224 413.543 341.013C426.097 335.802 436.826 326.977 444.375 315.655C451.924 304.334 455.953 291.023 455.953 277.406C455.933 259.153 448.688 241.653 435.809 228.746C422.929 215.839 405.467 208.579 387.253 208.558Z" fill="#3F3D56"/>
<path d="M227.5 171C253.734 171 275 149.734 275 123.5C275 97.2665 253.734 76 227.5 76C201.266 76 180 97.2665 180 123.5C180 149.734 201.266 171 227.5 171Z" fill="white"/>
<path d="M204.84 108.019C206.836 101.658 211.373 95.8246 217.649 93.6742C223.924 91.5239 233.114 94.7995 237.832 99.5027C246.462 108.106 248.568 137.66 242.638 147C241.459 146.938 237.39 146.891 236.196 146.847L234.508 141.217V146.791C232.606 146.732 230.689 146.692 228.758 146.669C222.282 146.589 216.09 144.001 211.483 139.448C206.876 134.896 204.213 128.734 204.054 122.258C203.899 116.063 204.054 110.526 204.84 108.019Z" fill="#2F2E41"/>
<path d="M226.5 129C233.956 129 240 122.956 240 115.5C240 108.044 233.956 102 226.5 102C219.044 102 213 108.044 213 115.5C213 122.956 219.044 129 226.5 129Z" fill="#9E616A"/>
<path d="M215 103.848L230.331 96C233.466 97.4439 236.165 99.7186 238.15 102.588C240.134 105.458 241.332 108.819 241.618 112.321L242 117L235.58 115.329L234.877 109.346L233.786 114.863L230.824 114.092L230.852 104.803L227.887 114.085L217.305 111.6L215 103.848Z" fill="#2F2E41"/>
<path d="M263 154.953C254.703 164.264 243.027 169.984 230.492 170.877C217.957 171.771 205.568 167.766 196 159.729L200.108 148.424C201.036 146.416 202.501 144.695 204.345 143.446C206.189 142.197 208.344 141.467 210.577 141.333L213.19 141.175L219.421 135.874C219.421 135.874 236.21 135.283 235.961 135L246.131 141.033L246.122 140.992L250.12 141.233C252.354 141.366 254.508 142.096 256.353 143.345C258.197 144.595 259.662 146.316 260.59 148.324L263 154.953Z" fill="#1134E3"/>
<path d="M227 172C217.507 172 208.226 169.156 200.333 163.826C192.439 158.497 186.287 150.922 182.654 142.06C179.021 133.198 178.07 123.446 179.922 114.038C181.774 104.63 186.346 95.9882 193.059 89.2053C199.772 82.4225 208.325 77.8033 217.636 75.9319C226.947 74.0606 236.598 75.021 245.369 78.6919C254.14 82.3627 261.636 88.5791 266.911 96.5549C272.185 104.531 275 113.908 275 123.5C274.986 136.359 269.924 148.686 260.925 157.779C251.927 166.871 239.726 171.985 227 172ZM227 76.2001C217.741 76.2001 208.691 78.9742 200.993 84.1716C193.294 89.369 187.294 96.7562 183.751 105.399C180.208 114.042 179.281 123.552 181.087 132.728C182.893 141.903 187.352 150.331 193.899 156.946C200.446 163.561 208.787 168.066 217.867 169.891C226.948 171.716 236.36 170.779 244.914 167.199C253.468 163.619 260.779 157.557 265.923 149.778C271.067 142 273.812 132.855 273.812 123.5C273.798 110.96 268.862 98.937 260.086 90.0696C251.31 81.2023 239.411 76.2143 227 76.2001Z" fill="#3F3D56"/>
<path d="M298.862 222H238.138C236.511 221.998 234.951 221.347 233.8 220.188C232.649 219.03 232.002 217.46 232 215.822V178.178C232.002 176.54 232.649 174.97 233.8 173.812C234.951 172.653 236.511 172.002 238.138 172H298.862C300.489 172.002 302.049 172.653 303.2 173.812C304.351 174.97 304.998 176.54 305 178.178V215.822C304.998 217.46 304.351 219.03 303.2 220.188C302.049 221.347 300.489 221.998 298.862 222Z" fill="#E6E6E6"/>
<path d="M274.668 217H242.687C241.179 216.998 239.734 216.393 238.668 215.316C237.601 214.24 237.002 212.78 237 211.257V182.743C237.002 181.22 237.601 179.76 238.668 178.684C239.734 177.607 241.179 177.002 242.687 177H294.313C295.821 177.002 297.266 177.607 298.333 178.684C299.399 179.76 299.998 181.22 300 182.743V191.42C299.992 198.202 297.321 204.704 292.572 209.499C287.823 214.295 281.384 216.992 274.668 217Z" fill="white"/>
<path d="M289.622 192H247.378C247.012 192 246.662 191.895 246.404 191.707C246.145 191.52 246 191.265 246 191C246 190.735 246.145 190.48 246.404 190.293C246.662 190.105 247.012 190 247.378 190H289.622C289.988 190 290.338 190.105 290.596 190.293C290.855 190.48 291 190.735 291 191C291 191.265 290.855 191.52 290.596 191.707C290.338 191.895 289.988 192 289.622 192Z" fill="#1134E3"/>
<path d="M254.529 198H247.471C247.081 198 246.707 197.842 246.431 197.561C246.155 197.279 246 196.898 246 196.5C246 196.102 246.155 195.721 246.431 195.439C246.707 195.158 247.081 195 247.471 195H254.529C254.919 195 255.293 195.158 255.569 195.439C255.845 195.721 256 196.102 256 196.5C256 196.898 255.845 197.279 255.569 197.561C255.293 197.842 254.919 198 254.529 198Z" fill="#1134E3"/>
<path d="M265.629 203H247.371C247.007 202.999 246.658 202.841 246.401 202.56C246.144 202.278 246 201.897 246 201.5C246 201.103 246.144 200.722 246.401 200.44C246.658 200.159 247.007 200.001 247.371 200H265.629C265.993 200.001 266.342 200.159 266.599 200.44C266.856 200.722 267 201.103 267 201.5C267 201.897 266.856 202.278 266.599 202.56C266.342 202.841 265.993 202.999 265.629 203Z" fill="#1134E3"/>
<path d="M230 184C237.18 184 243 178.18 243 171C243 163.82 237.18 158 230 158C222.82 158 217 163.82 217 171C217 178.18 222.82 184 230 184Z" fill="#3F3D56"/>
<path d="M456.862 52H396.138C394.511 51.9981 392.951 51.3466 391.8 50.1884C390.649 49.0302 390.002 47.4598 390 45.8218V8.1782C390.002 6.54021 390.649 4.96984 391.8 3.81161C392.951 2.65337 394.511 2.00186 396.138 2H456.862C458.489 2.00185 460.049 2.65336 461.2 3.8116C462.351 4.96984 462.998 6.54021 463 8.1782V45.8218C462.998 47.4598 462.351 49.0302 461.2 50.1884C460.049 51.3466 458.489 51.9981 456.862 52Z" fill="#E6E6E6"/>
<path d="M432.266 47H399.777C398.246 46.9983 396.777 46.3928 395.694 45.3162C394.611 44.2396 394.002 42.7799 394 41.2574V12.7426C394.002 11.2201 394.611 9.7604 395.694 8.68382C396.777 7.60724 398.246 7.00168 399.777 7H452.223C453.755 7.00169 455.223 7.60726 456.306 8.68384C457.389 9.76043 457.998 11.2201 458 12.7426V21.4202C457.992 28.2021 455.279 34.704 450.454 39.4995C445.63 44.2949 439.089 46.9924 432.266 47Z" fill="white"/>
<path d="M446.653 23H405.347C404.99 23 404.647 22.842 404.395 22.5607C404.142 22.2794 404 21.8978 404 21.5C404 21.1022 404.142 20.7206 404.395 20.4393C404.647 20.158 404.99 20 405.347 20H446.653C447.01 20 447.353 20.158 447.605 20.4393C447.858 20.7206 448 21.1022 448 21.5C448 21.8978 447.858 22.2794 447.605 22.5607C447.353 22.842 447.01 23 446.653 23Z" fill="#1134E3"/>
<path d="M411.676 28H405.324C404.973 28 404.636 27.842 404.388 27.5607C404.14 27.2794 404 26.8978 404 26.5C404 26.1022 404.14 25.7206 404.388 25.4393C404.636 25.158 404.973 25 405.324 25H411.676C412.027 25 412.364 25.158 412.612 25.4393C412.86 25.7206 413 26.1022 413 26.5C413 26.8978 412.86 27.2794 412.612 27.5607C412.364 27.842 412.027 28 411.676 28Z" fill="#1134E3"/>
<path d="M423.626 33H405.371C405.007 32.9994 404.658 32.8938 404.401 32.7064C404.144 32.5189 404 32.2649 404 32C404 31.7351 404.144 31.4811 404.401 31.2936C404.658 31.1062 405.007 31.0006 405.371 31H423.626C423.991 31 424.34 31.1054 424.598 31.2929C424.855 31.4804 425 31.7348 425 32C425 32.2652 424.855 32.5196 424.598 32.7071C424.34 32.8946 423.991 33 423.626 33Z" fill="#1134E3"/>
<path d="M387.5 59C394.404 59 400 53.1797 400 46C400 38.8203 394.404 33 387.5 33C380.596 33 375 38.8203 375 46C375 53.1797 380.596 59 387.5 59Z" fill="#3F3D56"/>
</g>
<defs>
<clipPath id="clip0_3763_12491">
<rect width="401" height="348" fill="white" transform="translate(159)"/>
</clipPath>
</defs>
</svg>
