<svg width="269" height="240" viewBox="0 0 269 240" fill="none" xmlns="http://www.w3.org/2000/svg">
<g clip-path="url(#clip0_8849_21882)">
<path d="M137.748 0.523186L129.036 2.76702L21.7028 30.4116L12.9909 32.6554C8.76217 33.7496 5.14073 36.4744 2.92105 40.2321C0.701377 43.9897 0.0647342 48.4733 1.1508 52.6991L38.9278 199.007C40.0234 203.23 42.7516 206.847 46.5139 209.064C50.2763 211.281 54.7654 211.917 58.9966 210.832L59.0191 210.827L183.731 178.706L183.754 178.7C187.982 177.606 191.604 174.881 193.824 171.123C196.043 167.366 196.68 162.882 195.594 158.656L157.817 12.3485C156.721 8.12512 153.993 4.50819 150.231 2.29127C146.468 0.0743513 141.979 -0.561511 137.748 0.523186Z" fill="#F2F2F2"/>
<path d="M138.933 5.11056L128.614 7.76823L24.4941 34.5852L14.1755 37.2428C11.1641 38.022 8.58522 39.9624 7.00452 42.6383C5.42383 45.3142 4.97046 48.5071 5.74387 51.5164L43.5209 197.824C44.3011 200.832 46.2439 203.408 48.9232 204.986C51.6024 206.565 54.7992 207.018 57.8123 206.245L57.8348 206.24L182.547 174.119L182.57 174.113C185.581 173.334 188.16 171.393 189.741 168.718C191.321 166.042 191.775 162.849 191.001 159.84L153.224 13.5317C152.444 10.5241 150.501 7.94843 147.822 6.36971C145.143 4.79099 141.946 4.33816 138.933 5.11056Z" fill="white"/>
<path d="M131.141 52.4885L68.052 68.7375C67.3473 68.919 66.5994 68.8135 65.9726 68.4442C65.3459 68.0749 64.8917 67.472 64.71 66.7683C64.5283 66.0645 64.6339 65.3175 65.0037 64.6915C65.3734 64.0656 65.977 63.612 66.6817 63.4305L129.771 47.1814C130.475 47.0007 131.222 47.1066 131.849 47.476C132.475 47.8454 132.929 48.4479 133.11 49.1513C133.292 49.8546 133.186 50.6012 132.817 51.227C132.448 51.8527 131.845 52.3065 131.141 52.4885Z" fill="#F2F2F2"/>
<path d="M144.413 58.6219L70.3645 77.6936C69.6598 77.8751 68.9119 77.7696 68.2851 77.4003C67.6584 77.031 67.2042 76.4282 67.0225 75.7244C66.8408 75.0206 66.9464 74.2736 67.3162 73.6477C67.6859 73.0217 68.2895 72.5681 68.9942 72.3866L143.043 53.3148C143.747 53.1334 144.495 53.2389 145.122 53.6082C145.749 53.9775 146.203 54.5803 146.385 55.2841C146.566 55.9878 146.461 56.7349 146.091 57.3608C145.721 57.9868 145.117 58.4404 144.413 58.6219Z" fill="#F2F2F2"/>
<path d="M141.504 92.6234L78.4152 108.872C78.0663 108.962 77.7031 108.983 77.3464 108.932C76.9896 108.882 76.6462 108.762 76.3359 108.579C76.0256 108.396 75.7543 108.154 75.5377 107.867C75.321 107.579 75.1632 107.252 75.0732 106.903C74.9833 106.555 74.9629 106.192 75.0133 105.836C75.0637 105.479 75.1839 105.136 75.3669 104.826C75.55 104.516 75.7925 104.246 76.0804 104.029C76.3683 103.813 76.696 103.655 77.0449 103.565L140.134 87.3163C140.483 87.2264 140.846 87.2061 141.203 87.2564C141.559 87.3068 141.903 87.4268 142.213 87.6096C142.523 87.7925 142.795 88.0346 143.011 88.3222C143.228 88.6097 143.386 88.9371 143.476 89.2855C143.566 89.634 143.586 89.9968 143.536 90.3531C143.485 90.7094 143.365 91.0523 143.182 91.3623C142.999 91.6722 142.757 91.9431 142.469 92.1595C142.181 92.3759 141.853 92.5335 141.504 92.6234Z" fill="#F2F2F2"/>
<path d="M154.776 98.7562L80.7277 117.828C80.3788 117.918 80.0156 117.938 79.6588 117.888C79.3021 117.837 78.9587 117.717 78.6484 117.535C78.3381 117.352 78.0668 117.11 77.8502 116.822C77.6335 116.535 77.4757 116.207 77.3857 115.859C77.2958 115.51 77.2754 115.147 77.3258 114.791C77.3762 114.435 77.4964 114.092 77.6794 113.782C77.8625 113.472 78.1049 113.201 78.3929 112.985C78.6808 112.768 79.0085 112.611 79.3574 112.521L153.406 93.4491C154.11 93.2676 154.858 93.3732 155.485 93.7425C156.112 94.1118 156.566 94.7146 156.748 95.4184C156.929 96.1221 156.824 96.8692 156.454 97.4951C156.084 98.1211 155.481 98.5747 154.776 98.7562Z" fill="#F2F2F2"/>
<path d="M151.867 132.758L88.7786 149.007C88.0742 149.188 87.3267 149.082 86.7003 148.712C86.074 148.343 85.6201 147.74 85.4385 147.037C85.2569 146.334 85.3623 145.587 85.7317 144.961C86.1011 144.335 86.7042 143.882 87.4084 143.7L150.497 127.451C151.202 127.269 151.95 127.375 152.577 127.744C153.203 128.113 153.657 128.716 153.839 129.42C154.021 130.124 153.915 130.871 153.545 131.497C153.176 132.123 152.572 132.576 151.867 132.758Z" fill="#F2F2F2"/>
<path d="M165.138 138.891L91.0895 157.963C90.7405 158.053 90.377 158.074 90.02 158.023C89.663 157.973 89.3194 157.853 89.0088 157.671C88.6982 157.488 88.4268 157.246 88.2099 156.958C87.9931 156.67 87.8352 156.343 87.7451 155.994C87.6551 155.645 87.6348 155.282 87.6853 154.926C87.7358 154.569 87.8561 154.226 88.0394 153.916C88.2228 153.606 88.4655 153.335 88.7537 153.119C89.0419 152.903 89.37 152.745 89.7192 152.656L163.768 133.584C164.472 133.402 165.22 133.508 165.847 133.877C166.474 134.247 166.928 134.849 167.11 135.553C167.291 136.257 167.186 137.004 166.816 137.63C166.446 138.256 165.842 138.709 165.138 138.891Z" fill="#F2F2F2"/>
<path d="M57.2829 85.3988L34.9564 91.1492C34.6185 91.2358 34.2601 91.1851 33.9596 91.0081C33.6592 90.831 33.4414 90.5422 33.3539 90.205L28.2289 70.3561C28.1421 70.0186 28.193 69.6606 28.3702 69.3606C28.5475 69.0605 28.8366 68.8429 29.1743 68.7556L51.5008 63.0052C51.8387 62.9186 52.1972 62.9693 52.4976 63.1463C52.798 63.3234 53.0159 63.6122 53.1033 63.9494L58.2284 83.7984C58.3151 84.1358 58.2643 84.4938 58.087 84.7939C57.9098 85.0939 57.6206 85.3115 57.2829 85.3988Z" fill="#E6E6E6"/>
<path d="M67.6443 125.533L45.3177 131.283C44.9799 131.37 44.6214 131.319 44.321 131.142C44.0205 130.965 43.8027 130.676 43.7152 130.339L38.5902 110.49C38.5035 110.153 38.5543 109.795 38.7315 109.495C38.9088 109.195 39.198 108.977 39.5356 108.89L61.8622 103.139C62.2 103.053 62.5585 103.104 62.8589 103.281C63.1593 103.458 63.3772 103.746 63.4646 104.084L68.5897 123.933C68.6764 124.27 68.6256 124.628 68.4483 124.928C68.2711 125.228 67.9819 125.446 67.6443 125.533Z" fill="#E6E6E6"/>
<path d="M78.0076 165.668L55.681 171.418C55.3431 171.505 54.9847 171.454 54.6843 171.277C54.3838 171.1 54.166 170.811 54.0785 170.474L48.9535 150.625C48.8667 150.288 48.9176 149.93 49.0948 149.63C49.2721 149.33 49.5612 149.112 49.8989 149.025L72.2255 143.274C72.5633 143.188 72.9218 143.238 73.2222 143.415C73.5226 143.592 73.7405 143.881 73.8279 144.218L78.953 164.067C79.0397 164.405 78.9889 164.763 78.8116 165.063C78.6344 165.363 78.3452 165.581 78.0076 165.668Z" fill="#E6E6E6"/>
<path d="M224.76 37.6104H95.9217C91.5534 37.6153 87.3654 39.3506 84.2765 42.4356C81.1877 45.5206 79.4502 49.7033 79.4453 54.0662V205.161C79.4502 209.524 81.1877 213.706 84.2765 216.791C87.3654 219.876 91.5534 221.612 95.9217 221.616H224.76C229.129 221.612 233.317 219.876 236.406 216.791C239.494 213.706 241.232 209.524 241.237 205.161V54.0662C241.232 49.7033 239.494 45.5206 236.406 42.4356C233.317 39.3506 229.129 37.6153 224.76 37.6104Z" fill="#E6E6E6"/>
<path d="M224.76 42.3477H95.9207C92.81 42.3511 89.8276 43.5869 87.6279 45.7838C85.4283 47.9807 84.191 50.9593 84.1875 54.0662V205.161C84.191 208.268 85.4283 211.246 87.6279 213.443C89.8276 215.64 92.81 216.876 95.9207 216.879H224.76C227.87 216.876 230.853 215.64 233.052 213.443C235.252 211.246 236.489 208.268 236.493 205.161V54.0662C236.489 50.9594 235.252 47.9807 233.052 45.7838C230.853 43.5869 227.87 42.3512 224.76 42.3477Z" fill="white"/>
<path d="M259.803 231.202C271.549 219.471 271.549 200.451 259.803 188.72C248.057 176.989 229.013 176.989 217.268 188.72C205.522 200.451 205.522 219.471 217.268 231.202C229.013 242.933 248.057 242.933 259.803 231.202Z" fill="#EEB94D"/>
<path d="M235.225 197.271C235.225 194.912 237.105 193 239.425 193C241.745 193 243.625 194.912 243.625 197.271V213.746C243.625 216.105 241.745 218.017 239.425 218.017C237.105 218.017 235.225 216.105 235.225 213.746V197.271Z" fill="white"/>
<path d="M244 224.424C244 226.951 241.985 229 239.5 229C237.015 229 235 226.951 235 224.424C235 221.896 237.015 219.847 239.5 219.847C241.985 219.847 244 221.896 244 224.424Z" fill="white"/>
<path d="M205.37 125.374H140.218C139.857 125.374 139.5 125.304 139.167 125.166C138.833 125.028 138.531 124.827 138.275 124.572C138.02 124.318 137.818 124.015 137.68 123.683C137.542 123.35 137.471 122.994 137.471 122.633C137.471 122.273 137.542 121.917 137.68 121.584C137.818 121.251 138.02 120.949 138.275 120.695C138.531 120.44 138.833 120.238 139.167 120.101C139.5 119.963 139.857 119.893 140.218 119.893H205.37C206.098 119.894 206.795 120.183 207.309 120.697C207.822 121.211 208.111 121.907 208.111 122.633C208.111 123.36 207.822 124.056 207.309 124.57C206.795 125.084 206.098 125.373 205.37 125.374Z" fill="#E6E6E6"/>
<path d="M216.688 134.622H140.218C139.857 134.623 139.5 134.552 139.167 134.415C138.833 134.277 138.531 134.075 138.275 133.821C138.02 133.566 137.818 133.264 137.68 132.931C137.542 132.599 137.471 132.242 137.471 131.882C137.471 131.522 137.542 131.165 137.68 130.833C137.818 130.5 138.02 130.198 138.275 129.943C138.531 129.689 138.833 129.487 139.167 129.349C139.5 129.212 139.857 129.141 140.218 129.142H216.688C217.416 129.142 218.114 129.43 218.629 129.944C219.143 130.458 219.432 131.155 219.432 131.882C219.432 132.609 219.143 133.306 218.629 133.82C218.114 134.334 217.416 134.622 216.688 134.622Z" fill="#E6E6E6"/>
<path d="M205.37 166.822H140.218C139.857 166.822 139.5 166.751 139.167 166.614C138.833 166.476 138.531 166.274 138.275 166.02C138.02 165.765 137.818 165.463 137.68 165.131C137.542 164.798 137.471 164.441 137.471 164.081C137.471 163.721 137.542 163.364 137.68 163.032C137.818 162.699 138.02 162.397 138.275 162.142C138.531 161.888 138.833 161.686 139.167 161.549C139.5 161.411 139.857 161.34 140.218 161.341H205.37C206.098 161.341 206.796 161.63 207.311 162.143C207.825 162.657 208.114 163.354 208.114 164.081C208.114 164.808 207.825 165.505 207.311 166.019C206.796 166.533 206.098 166.822 205.37 166.822Z" fill="#E6E6E6"/>
<path d="M216.688 176.07H140.218C139.857 176.07 139.5 176 139.167 175.862C138.833 175.725 138.531 175.523 138.275 175.268C138.02 175.014 137.818 174.712 137.68 174.379C137.542 174.046 137.471 173.69 137.471 173.33C137.471 172.97 137.542 172.613 137.68 172.28C137.818 171.948 138.02 171.645 138.275 171.391C138.531 171.136 138.833 170.935 139.167 170.797C139.5 170.66 139.857 170.589 140.218 170.589H216.688C217.049 170.589 217.406 170.66 217.739 170.797C218.073 170.935 218.375 171.136 218.631 171.391C218.886 171.645 219.088 171.948 219.226 172.28C219.364 172.613 219.435 172.97 219.435 173.33C219.435 173.69 219.364 174.046 219.226 174.379C219.088 174.712 218.886 175.014 218.631 175.268C218.375 175.523 218.073 175.725 217.739 175.862C217.406 176 217.049 176.07 216.688 176.07Z" fill="#E6E6E6"/>
<path d="M125.623 138.821H102.566C102.217 138.821 101.882 138.682 101.636 138.436C101.389 138.189 101.25 137.855 101.25 137.507V117.009C101.25 116.66 101.389 116.326 101.636 116.08C101.882 115.834 102.217 115.695 102.566 115.695H125.623C125.971 115.695 126.306 115.834 126.552 116.08C126.799 116.326 126.938 116.66 126.938 117.009V137.507C126.938 137.855 126.799 138.189 126.552 138.436C126.306 138.682 125.971 138.821 125.623 138.821Z" fill="#E6E6E6"/>
<path d="M125.623 180.268H102.566C102.217 180.268 101.882 180.129 101.636 179.883C101.389 179.637 101.25 179.303 101.25 178.954V158.456C101.25 158.108 101.389 157.774 101.636 157.527C101.882 157.281 102.217 157.142 102.566 157.142H125.623C125.971 157.142 126.306 157.281 126.552 157.527C126.799 157.774 126.938 158.108 126.938 158.456V178.954C126.938 179.303 126.799 179.637 126.552 179.883C126.306 180.129 125.971 180.268 125.623 180.268Z" fill="#E6E6E6"/>
<path d="M205.442 79.2346H157.408C156.68 79.2346 155.982 78.9459 155.468 78.432C154.953 77.918 154.664 77.221 154.664 76.4942C154.664 75.7675 154.953 75.0704 155.468 74.5565C155.982 74.0426 156.68 73.7539 157.408 73.7539H205.442C206.17 73.7539 206.868 74.0426 207.383 74.5565C207.897 75.0704 208.186 75.7675 208.186 76.4942C208.186 77.221 207.897 77.918 207.383 78.432C206.868 78.9459 206.17 79.2346 205.442 79.2346Z" fill="#E1E1E1"/>
<path d="M216.76 88.4831H157.408C157.048 88.4831 156.691 88.4122 156.358 88.2745C156.025 88.1368 155.722 87.9349 155.468 87.6805C155.213 87.426 155.011 87.1239 154.873 86.7915C154.735 86.459 154.664 86.1026 154.664 85.7428C154.664 85.3829 154.735 85.0266 154.873 84.6941C155.011 84.3616 155.213 84.0595 155.468 83.8051C155.722 83.5506 156.025 83.3487 156.358 83.211C156.691 83.0733 157.048 83.0024 157.408 83.0024H216.76C217.488 83.0024 218.186 83.2911 218.701 83.8051C219.215 84.319 219.504 85.016 219.504 85.7428C219.504 86.4696 219.215 87.1666 218.701 87.6805C218.186 88.1944 217.488 88.4831 216.76 88.4831Z" fill="#E1E1E1"/>
<path d="M146.777 99.6912H102.493C102.145 99.6908 101.81 99.5522 101.564 99.3059C101.317 99.0596 101.178 98.7256 101.178 98.3772V63.8594C101.178 63.511 101.317 63.177 101.564 62.9307C101.81 62.6843 102.145 62.5458 102.493 62.5454H146.777C147.126 62.5458 147.46 62.6843 147.707 62.9307C147.954 63.177 148.092 63.511 148.093 63.8594V98.3772C148.092 98.7256 147.954 99.0596 147.707 99.3059C147.46 99.5522 147.126 99.6908 146.777 99.6912Z" fill="#E0E0E0"/>
</g>
<defs>
<clipPath id="clip0_8849_21882">
<rect width="267.746" height="240" fill="white" transform="translate(0.626953)"/>
</clipPath>
</defs>
</svg>
