<svg preserveAspectRatio="xMidYMid meet"  viewBox="0 0 364 180" fill="none" xmlns="http://www.w3.org/2000/svg">
    <g clip-path="url(#clip0_350_9271)">
        <path d="M99.3847 147.219C109.267 147.219 117.277 139.27 117.277 129.464C117.277 119.659 109.267 111.71 99.3847 111.71C89.503 111.71 81.4922 119.659 81.4922 129.464C81.4922 139.27 89.503 147.219 99.3847 147.219Z" fill="#E4E4E4"/>
        <path opacity="0.2" d="M86.1725 117.606C84.5035 121.48 84.2771 125.816 85.5337 129.841C86.7903 133.865 89.4481 137.315 93.032 139.574C96.616 141.833 100.893 142.753 105.098 142.171C109.303 141.589 113.162 139.543 115.987 136.397C114.967 138.764 113.441 140.882 111.515 142.606C109.588 144.329 107.307 145.617 104.829 146.378C102.352 147.14 99.7365 147.358 97.1653 147.018C94.5942 146.677 92.1284 145.786 89.9388 144.406C87.7492 143.026 85.8881 141.19 84.4845 139.026C83.0809 136.861 82.1684 134.42 81.8102 131.87C81.4519 129.321 81.6565 126.725 82.4097 124.262C83.163 121.799 84.4469 119.528 86.1725 117.606Z" fill="#202939"/>
        <path d="M99.4342 129.464H99.4831L100.368 179.801H98.5L99.4342 129.464Z" fill="#33415B"/>
        <path d="M63.182 114.109C83.1055 114.109 99.2567 98.0827 99.2567 78.3129C99.2567 58.5432 83.1055 42.5166 63.182 42.5166C43.2586 42.5166 27.1074 58.5432 27.1074 78.3129C27.1074 98.0827 43.2586 114.109 63.182 114.109Z" fill="#E4E4E4"/>
        <path opacity="0.2" d="M36.5453 54.4038C33.1804 62.2143 32.7239 70.9576 35.2575 79.0713C37.791 87.185 43.1495 94.1405 50.3755 98.6947C57.6014 103.249 66.2239 105.105 74.7021 103.932C83.1804 102.759 90.9619 98.632 96.6563 92.2896C94.6007 97.0615 91.5242 101.333 87.6398 104.808C83.7555 108.283 79.1563 110.878 74.1607 112.414C69.1652 113.95 63.8928 114.39 58.7089 113.704C53.5249 113.017 48.5534 111.22 44.1388 108.438C39.7241 105.656 35.9719 101.954 33.142 97.5898C30.3122 93.2256 28.4723 88.3031 27.75 83.1633C27.0277 78.0234 27.4402 72.7893 28.9589 67.8233C30.4776 62.8574 33.0662 58.2785 36.5453 54.4038Z" fill="#202939"/>
        <path d="M63.2813 78.3125H63.3806L65.1646 179.801H61.3984L63.2813 78.3125Z" fill="#33415B"/>
        <path d="M301.022 127.271H135.672V175.91H301.022V127.271Z" fill="#F0F0F0"/>
        <path d="M227.987 137.323H208.707V175.91H227.987V137.323Z" fill="#CACACA"/>
        <path d="M291.383 69.8779H145.312V114.626H291.383V69.8779Z" fill="#F0F0F0"/>
        <path d="M306.192 72.6339H130.504C130.21 72.6339 129.924 72.5469 129.681 72.384C129.438 72.2211 129.249 71.9898 129.14 71.7198C129.03 71.4498 129.004 71.1535 129.066 70.8689C129.127 70.5843 129.273 70.3245 129.485 70.1228L177.5 24.3257V4.37749C177.501 3.99063 177.656 3.61974 177.932 3.34619C178.207 3.07264 178.581 2.91877 178.971 2.91833H188.447C188.837 2.91875 189.211 3.07262 189.487 3.34618C189.763 3.61973 189.918 3.99063 189.918 4.37749V12.4821L193.545 9.02288C199.479 3.36226 207.353 0.140287 215.584 0.00447427C223.815 -0.131338 231.792 2.82907 237.914 8.29076L307.175 70.0895C307.396 70.2869 307.552 70.5463 307.622 70.8333C307.691 71.1203 307.671 71.4215 307.565 71.6971C307.458 71.9727 307.27 72.2098 307.025 72.3771C306.78 72.5443 306.489 72.6339 306.192 72.6339Z" fill="#CACACA"/>
        <path d="M183.872 81.2266C185.095 81.2266 186.306 81.4656 187.436 81.93C188.566 82.3944 189.592 83.0752 190.457 83.9333C191.322 84.7914 192.008 85.8102 192.476 86.9314C192.944 88.0526 193.185 89.2543 193.185 90.4679V102.952H174.559V90.4679C174.559 89.2543 174.799 88.0526 175.268 86.9314C175.736 85.8102 176.422 84.7914 177.286 83.9333C178.151 83.0752 179.178 82.3944 180.308 81.93C181.438 81.4656 182.649 81.2266 183.872 81.2266Z" fill="white"/>
        <path d="M218.348 81.3887C220.818 81.3887 223.187 82.3623 224.934 84.0954C226.68 85.8285 227.662 88.1791 227.662 90.63V103.114H209.035V90.63C209.035 88.1791 210.016 85.8285 211.763 84.0954C213.509 82.3623 215.878 81.3887 218.348 81.3887Z" fill="white"/>
        <path d="M252.823 81.5508C255.293 81.5508 257.662 82.5244 259.408 84.2575C261.155 85.9906 262.136 88.3412 262.136 90.7921V103.276H243.51V90.7921C243.51 88.3412 244.491 85.9906 246.238 84.2575C247.984 82.5244 250.353 81.5508 252.823 81.5508Z" fill="white"/>
        <path d="M266.548 136.837C269.018 136.837 271.386 137.811 273.133 139.544C274.88 141.277 275.861 143.627 275.861 146.078V158.562H257.234V146.078C257.234 143.627 258.216 141.277 259.962 139.544C261.709 137.811 264.078 136.837 266.548 136.837Z" fill="white"/>
        <path d="M174.395 136.837C176.865 136.837 179.234 137.811 180.981 139.544C182.727 141.277 183.708 143.627 183.708 146.078V158.562H165.082V146.078C165.082 144.865 165.323 143.663 165.791 142.542C166.259 141.421 166.945 140.402 167.81 139.544C168.675 138.685 169.701 138.005 170.831 137.54C171.961 137.076 173.172 136.837 174.395 136.837Z" fill="white"/>
        <path d="M325.179 128.031L294.161 114.412C293.995 114.339 293.814 114.301 293.632 114.301H145.806C145.638 114.301 145.47 114.334 145.314 114.397L111.551 128.016C111.27 128.129 111.038 128.335 110.894 128.6C110.75 128.865 110.702 129.171 110.761 129.466C110.819 129.761 110.979 130.027 111.213 130.218C111.447 130.41 111.74 130.514 112.043 130.514H120.803V175.262H119.823V179.801H316.871V175.262H315.237V130.514H324.65C324.95 130.514 325.241 130.412 325.473 130.225C325.706 130.037 325.867 129.776 325.929 129.485C325.991 129.194 325.95 128.891 325.814 128.626C325.677 128.362 325.453 128.151 325.179 128.031ZM312.623 175.262H123.418V130.514H312.623V175.262Z" fill="#CACACA"/>
        <path d="M195.474 101.168H171.619V105.06H195.474V101.168Z" fill="#CACACA"/>
        <path d="M230.439 101.168H206.584V105.06H230.439V101.168Z" fill="#CACACA"/>
        <path d="M265.404 101.168H241.549V105.06H265.404V101.168Z" fill="#CACACA"/>
        <path d="M278.476 157.265H254.621V161.156H278.476V157.265Z" fill="#CACACA"/>
        <path d="M185.997 157.265H162.143V161.156H185.997V157.265Z" fill="#CACACA"/>
        <path d="M363.6 180.001H0.40044C0.294237 180.001 0.192383 179.959 0.117286 179.884C0.0421888 179.809 0 179.708 0 179.603C0 179.497 0.0421888 179.396 0.117286 179.322C0.192383 179.247 0.294237 179.205 0.40044 179.205H363.6C363.706 179.205 363.808 179.247 363.883 179.322C363.958 179.396 364 179.497 364 179.603C364 179.708 363.958 179.809 363.883 179.884C363.808 179.959 363.706 180.001 363.6 180.001Z" fill="#33415B"/>
        <path d="M272.246 69.2104C272.246 69.4648 272.242 69.723 272.238 69.9773C272.234 70.2833 272.226 70.5853 272.214 70.8912C272.202 71.1575 272.19 71.4197 272.174 71.6819C272.126 72.5601 272.05 73.4343 271.946 74.3125C271.922 74.5349 271.894 74.7535 271.862 74.976C271.837 75.1469 271.813 75.3217 271.785 75.4966C271.757 75.6913 271.729 75.886 271.697 76.0807C271.633 76.4939 271.561 76.9072 271.481 77.3204C271.441 77.527 271.401 77.7336 271.357 77.9402C271.273 78.3495 271.181 78.7628 271.085 79.1721C271.077 79.2038 271.069 79.2396 271.061 79.2714C271.013 79.474 270.965 79.6727 270.912 79.8754C270.896 79.9349 270.885 79.9906 270.864 80.0502C270.828 80.2012 270.788 80.3522 270.748 80.5032C270.692 80.7138 270.636 80.9204 270.576 81.131C270.48 81.4568 270.384 81.7787 270.284 82.1045C270.271 82.1384 270.261 82.1728 270.252 82.2078C270.06 82.8237 269.855 83.4316 269.631 84.0356C269.515 84.3535 269.391 84.6754 269.267 84.9932C269.143 85.3111 269.014 85.629 268.882 85.9429C268.754 86.2489 268.622 86.5548 268.49 86.8568C268.458 86.9283 268.426 86.9999 268.39 87.0714C268.25 87.3853 268.105 87.6912 267.957 87.9972C267.953 88.0012 267.953 88.0091 267.949 88.0131C267.833 88.2595 267.709 88.5058 267.585 88.7482C267.585 88.7556 267.582 88.7626 267.577 88.768C267.457 89.0065 267.333 89.2449 267.204 89.4793L267 89.8647L266.976 89.9085C266.72 90.3813 266.456 90.8502 266.175 91.3151C266.115 91.4184 266.055 91.5217 265.995 91.621C265.935 91.7243 265.871 91.8276 265.807 91.927C265.767 91.9985 265.723 92.07 265.675 92.1416C265.591 92.2767 265.507 92.4157 265.418 92.5508C265.402 92.5786 265.382 92.6065 265.366 92.6343C265.214 92.8687 265.062 93.0992 264.91 93.3336C264.722 93.6157 264.529 93.8939 264.333 94.172L259.984 101.078L259.796 100.923L259.744 100.875H259.74L259.568 100.732L259.095 100.335C258.951 100.474 258.811 100.613 258.667 100.748C258.611 100.804 258.551 100.855 258.495 100.911C258.451 100.951 258.411 100.991 258.367 101.03C250.848 108.316 240.848 112.534 230.344 112.851H230.332C222.381 113.068 214.51 111.225 207.495 107.503C207.339 107.424 207.186 107.344 207.034 107.253C206.121 106.76 205.228 106.239 204.351 105.683C204.347 105.679 204.343 105.679 204.339 105.675C203.322 104.96 202.329 104.197 201.36 103.386C196.161 99.0382 192.048 93.5539 189.344 87.3638C186.639 81.1737 185.416 74.446 185.771 67.7083C185.783 67.4421 185.799 67.1799 185.819 66.9136C185.883 65.9521 185.982 64.9944 186.115 64.0408C186.151 63.7746 186.191 63.5083 186.231 63.2461H271.837C272.006 64.462 272.122 65.6845 272.186 66.9136C272.226 67.6807 272.246 68.4436 272.246 69.2104Z" fill="#F0F0F0"/>
        <path d="M271.837 63.2465C270.296 53.0764 265.128 43.7928 257.273 37.0831C249.418 30.3734 239.398 26.6831 229.034 26.6831C218.67 26.6831 208.649 30.3734 200.794 37.0831C192.94 43.7928 187.772 53.0764 186.231 63.2465C186.191 63.5087 186.151 63.775 186.115 64.0412C185.983 64.9948 185.884 65.9524 185.818 66.914H272.185C272.121 65.6862 272.005 64.4637 271.837 63.2465Z" fill="#5B76BC"/>
        <path d="M231.837 107.502H207.035V87.8146C207.493 78.8174 215.242 78.0909 222.524 78.5737C223.747 78.5737 224.958 78.8126 226.088 79.277C227.218 79.7413 228.245 80.422 229.11 81.2801C229.975 82.1382 230.661 83.157 231.129 84.2782C231.597 85.3994 231.837 86.601 231.837 87.8146V107.502Z" fill="#5B76BC"/>
        <path d="M207.034 93.5046V93.5085C207.034 93.5125 207.038 93.5125 207.042 93.5125L207.034 93.5046ZM197.059 63.2463C197.043 63.3456 197.023 63.445 197.007 63.5443C197.023 63.445 197.043 63.3456 197.063 63.2463H197.059ZM196.563 66.9138C196.551 67.0648 196.539 67.2158 196.531 67.3668C196.539 67.2158 196.551 67.0648 196.567 66.9138C196.566 66.886 196.567 66.8581 196.571 66.8304C196.567 66.8582 196.567 66.886 196.563 66.9138ZM207.034 93.5085C207.034 93.5125 207.038 93.5125 207.042 93.5125L207.034 93.5046V93.5085ZM197.059 63.2463C197.043 63.3456 197.023 63.445 197.007 63.5443C197.023 63.445 197.043 63.3456 197.063 63.2463H197.059ZM196.531 67.3668C196.539 67.2158 196.551 67.0648 196.567 66.9138C196.566 66.886 196.567 66.8581 196.571 66.8304C196.567 66.8582 196.567 66.886 196.563 66.9138C196.551 67.0648 196.539 67.2158 196.531 67.3668ZM320.243 140.463C320.165 140.382 320.082 140.305 319.994 140.233L319.99 140.229L300.161 123.624L299.648 123.195L297.698 121.561L297.209 121.152L294.43 118.824L293.67 118.188L292.096 116.869L291.291 116.193L283.699 109.84L279.346 106.196L278.761 105.707L265.935 94.9668C266.131 94.6887 266.323 94.4105 266.512 94.1284C266.664 93.894 266.816 93.6635 266.968 93.4291C266.984 93.4013 267.004 93.3734 267.02 93.3456C267.108 93.2105 267.192 93.0714 267.276 92.9364C267.325 92.8648 267.369 92.7933 267.409 92.7218C267.473 92.6224 267.537 92.5191 267.597 92.4158C267.657 92.3165 267.717 92.2132 267.777 92.1099C268.057 91.645 268.322 91.1761 268.578 90.7033L268.602 90.6595L268.806 90.2741C268.934 90.0397 269.058 89.8013 269.179 89.5628C269.184 89.5574 269.186 89.5504 269.187 89.543C269.311 89.3006 269.435 89.0543 269.551 88.8079C269.555 88.8039 269.555 88.796 269.559 88.792C269.707 88.486 269.851 88.1801 269.992 87.8662C270.027 87.7946 270.06 87.7231 270.092 87.6516C270.224 87.3496 270.356 87.0437 270.484 86.7377C270.616 86.4238 270.744 86.1059 270.868 85.788C270.993 85.4702 271.117 85.1483 271.233 84.8304C271.453 84.2225 271.66 83.6132 271.854 83.0026C271.862 82.9676 271.873 82.9332 271.886 82.8993C271.986 82.5735 272.082 82.2516 272.178 81.9258C272.238 81.7152 272.294 81.5086 272.35 81.298C272.39 81.147 272.43 80.996 272.466 80.845C272.486 80.7854 272.498 80.7298 272.514 80.6702C272.566 80.4675 272.614 80.2689 272.662 80.0662C272.67 80.0344 272.678 79.9987 272.686 79.9669C272.782 79.5576 272.875 79.1443 272.959 78.735C273.003 78.5285 273.043 78.3218 273.083 78.1152C273.159 77.702 273.235 77.2887 273.299 76.8755C273.331 76.6808 273.359 76.4861 273.387 76.2914C273.415 76.1166 273.439 75.9417 273.463 75.7708C273.495 75.5483 273.523 75.3297 273.547 75.1073C273.651 74.2291 273.728 73.3549 273.776 72.4768C273.792 72.2145 273.804 71.9523 273.816 71.686C273.828 71.3801 273.836 71.0781 273.84 70.7721C273.844 70.5178 273.848 70.2596 273.848 70.0052C273.848 69.2384 273.828 68.4754 273.788 67.7085C273.724 66.4807 273.607 65.2582 273.439 64.041C272.005 53.6362 266.844 44.0913 258.902 37.1508C250.959 30.2104 240.764 26.338 230.181 26.2416C219.599 26.1452 209.334 29.8311 201.264 36.6256C193.195 43.4201 187.858 52.8694 186.231 63.2463C186.191 63.5086 186.151 63.7748 186.115 64.041C185.983 64.9946 185.884 65.9523 185.819 66.9138C185.799 67.1801 185.783 67.4423 185.771 67.7085C185.416 74.4462 186.639 81.1739 189.344 87.364C192.048 93.5541 196.161 99.0384 201.36 103.387C202.329 104.197 203.322 104.96 204.339 105.675C204.343 105.679 204.347 105.679 204.351 105.683C204.692 105.922 205.032 106.156 205.376 106.387C205.925 106.744 206.478 107.094 207.034 107.428C207.078 107.452 207.122 107.479 207.166 107.503C207.647 107.789 208.132 108.063 208.616 108.33H208.62C210.424 109.314 212.296 110.169 214.222 110.889C219.874 112.999 225.902 113.937 231.934 113.646H231.946C238.985 113.308 245.84 111.296 251.932 107.777C252.817 107.269 253.69 106.724 254.543 106.144C254.755 106.001 254.971 105.854 255.179 105.707C255.435 105.528 255.692 105.342 255.948 105.155C255.952 105.155 255.952 105.151 255.956 105.151C255.975 105.135 255.995 105.12 256.016 105.107C256.188 104.976 256.364 104.845 256.533 104.718C256.577 104.686 256.621 104.654 256.665 104.618C256.676 104.61 256.687 104.601 256.697 104.591C256.797 104.519 256.893 104.44 256.993 104.364C257.093 104.289 257.189 104.209 257.289 104.13C257.306 104.119 257.323 104.107 257.338 104.094C257.45 104.003 257.562 103.915 257.674 103.824C257.79 103.732 257.902 103.637 258.01 103.546C258.122 103.454 258.231 103.363 258.343 103.267C258.439 103.188 258.539 103.105 258.635 103.017C258.667 102.993 258.695 102.965 258.727 102.938C258.739 102.926 258.753 102.915 258.767 102.906C258.899 102.795 259.027 102.679 259.156 102.564C259.188 102.536 259.216 102.508 259.248 102.481C259.444 102.306 259.64 102.131 259.832 101.948C259.876 101.908 259.924 101.865 259.968 101.825C260.013 101.785 260.053 101.746 260.097 101.706C260.153 101.65 260.213 101.599 260.269 101.543C260.413 101.408 260.553 101.269 260.697 101.13L261.17 101.527L261.342 101.67H261.346L261.398 101.718L261.586 101.873L264.381 104.217L264.441 104.269L264.489 104.305L264.806 104.571L265.438 105.103L266.071 105.632L266.163 105.707L269.107 108.171L269.515 108.513L272.354 110.889L287.05 123.195L287.563 123.624L307.677 140.464L312.835 144.783L314.753 146.388C315.16 146.73 315.631 146.989 316.139 147.15C316.647 147.311 317.182 147.371 317.713 147.327C318.245 147.282 318.762 147.135 319.236 146.892C319.71 146.649 320.131 146.316 320.475 145.911C320.763 145.576 320.992 145.194 321.152 144.783C321.442 144.053 321.511 143.256 321.35 142.488C321.188 141.72 320.803 141.016 320.243 140.463ZM204.247 48.3536C208.265 43.6296 213.547 40.1298 219.484 38.2585C225.42 36.3871 231.77 36.2205 237.798 37.778C243.826 39.3354 249.287 42.5533 253.55 47.06C257.814 51.5666 260.705 57.1782 261.891 63.2463C261.943 63.5125 261.991 63.7748 262.035 64.041C262.199 64.9907 262.319 65.9522 262.391 66.9138C262.411 67.1801 262.431 67.4423 262.443 67.7085C262.479 68.3046 262.495 68.9046 262.495 69.5006C262.498 73.1161 261.894 76.7067 260.709 80.1257V80.1297C259.385 83.9633 257.352 87.5181 254.715 90.6119C254.659 90.6754 254.603 90.743 254.543 90.8066C254.014 91.4264 253.457 92.0225 252.885 92.5907C252.881 92.5947 252.877 92.6026 252.873 92.6066C252.676 92.8013 252.476 93 252.276 93.1828C251.868 93.5761 251.451 93.9496 251.027 94.3073C250.39 94.8596 249.737 95.3775 249.069 95.8609C248.844 96.0238 248.62 96.1828 248.392 96.3417C248.168 96.5006 247.939 96.6516 247.711 96.8026C247.254 97.1046 246.79 97.3947 246.321 97.6689C246.089 97.8079 245.849 97.943 245.613 98.0741C245.376 98.2092 245.136 98.3364 244.896 98.4596C244.656 98.5867 244.415 98.7099 244.171 98.8291C243.687 99.0715 243.198 99.2979 242.701 99.5086C242.453 99.6198 242.205 99.7231 241.957 99.8185C241.8 99.8821 241.648 99.9457 241.492 100.001C241.431 100.029 241.368 100.053 241.304 100.073C241.22 100.109 241.136 100.14 241.052 100.168C241.024 100.18 240.996 100.191 240.968 100.2C240.795 100.268 240.627 100.327 240.451 100.387C240.199 100.478 239.946 100.562 239.69 100.641C239.434 100.724 239.182 100.804 238.925 100.875C238.669 100.955 238.409 101.026 238.152 101.094C237.892 101.166 237.636 101.233 237.376 101.293C237.099 101.364 236.823 101.428 236.543 101.487C236.298 101.543 236.058 101.591 235.814 101.634C235.586 101.682 235.353 101.722 235.125 101.762C234.805 101.817 234.484 101.869 234.16 101.913C233.984 101.94 233.812 101.964 233.636 101.98C233.559 101.992 233.487 102 233.415 102.008C233.191 102.04 232.967 102.064 232.746 102.083C232.686 102.087 232.63 102.095 232.574 102.099C232.33 102.123 232.082 102.143 231.837 102.163C231.313 102.199 230.792 102.222 230.268 102.234C230.004 102.238 229.735 102.242 229.471 102.242C229.207 102.242 228.942 102.238 228.678 102.23C228.678 102.23 228.678 102.234 228.674 102.23C228.67 102.234 228.67 102.234 228.666 102.23C228.666 102.231 228.665 102.231 228.664 102.232C228.664 102.232 228.663 102.232 228.662 102.232C228.661 102.232 228.661 102.232 228.66 102.232C228.659 102.231 228.659 102.231 228.658 102.23C228.645 102.234 228.631 102.234 228.618 102.23C228.43 102.23 228.242 102.222 228.057 102.211C227.921 102.207 227.781 102.203 227.641 102.191C227.453 102.183 227.265 102.171 227.076 102.155C227.016 102.155 226.956 102.147 226.896 102.143C226.868 102.142 226.84 102.14 226.812 102.135C226.62 102.119 226.424 102.103 226.231 102.083C226.135 102.075 226.035 102.068 225.939 102.056C225.647 102.024 225.354 101.988 225.066 101.948C224.738 101.909 224.409 101.861 224.085 101.801C223.933 101.781 223.785 101.754 223.636 101.726C223.44 101.694 223.244 101.658 223.048 101.619C222.844 101.579 222.639 101.539 222.435 101.491C222.271 101.456 222.103 101.42 221.939 101.38C221.859 101.364 221.778 101.344 221.702 101.325C221.282 101.225 220.865 101.118 220.453 100.999C220.193 100.927 219.932 100.852 219.676 100.772C219.324 100.665 218.975 100.55 218.627 100.426C218.491 100.383 218.359 100.335 218.222 100.283C218.086 100.24 217.954 100.188 217.818 100.136C217.694 100.093 217.57 100.045 217.45 99.9973C217.249 99.9218 217.053 99.8424 216.857 99.7629C216.453 99.6 216.056 99.4291 215.66 99.2464C215.435 99.1391 215.211 99.0358 214.991 98.9285C214.122 98.5113 213.266 98.0477 212.424 97.5378C212.216 97.4146 212.008 97.2835 211.799 97.1523C211.539 96.9934 211.287 96.8265 211.035 96.6596C210.894 96.5643 210.758 96.4729 210.622 96.3775C210.37 96.2027 210.122 96.0238 209.877 95.845C209.749 95.7536 209.621 95.6583 209.497 95.5629C209.052 95.2291 208.616 94.8795 208.188 94.5218C207.983 94.351 207.779 94.1762 207.579 93.9974C207.495 93.9258 207.411 93.8503 207.327 93.7748C207.231 93.6874 207.134 93.6039 207.042 93.5125L207.034 93.5046C206.894 93.3814 206.754 93.2503 206.618 93.1192C206.406 92.9205 206.197 92.7179 205.997 92.5113C205.789 92.3086 205.589 92.098 205.392 91.8914C205.192 91.6848 205 91.4742 204.812 91.2596C204.62 91.049 204.431 90.8345 204.247 90.6159C204.067 90.4093 203.891 90.1947 203.723 89.9841C203.314 89.4834 202.924 88.9735 202.553 88.4543C202.381 88.2159 202.217 87.9774 202.057 87.7351C201.885 87.4887 201.72 87.2384 201.564 86.988C201.4 86.7378 201.244 86.4834 201.092 86.2252C201.088 86.2163 201.082 86.2083 201.076 86.2013C200.775 85.6967 200.487 85.1881 200.219 84.6715C199.942 84.147 199.682 83.6172 199.438 83.0821C199.314 82.8158 199.194 82.5457 199.082 82.2755C198.849 81.7311 198.633 81.1868 198.433 80.6344C198.333 80.3682 198.241 80.1019 198.148 79.8317C198.146 79.8139 198.14 79.7965 198.132 79.7801C197.948 79.2317 197.78 78.6795 197.632 78.1232C197.628 78.1152 197.628 78.1073 197.624 78.0994C197.548 77.8252 197.476 77.551 197.412 77.2728C197.348 77.0305 197.292 76.7881 197.239 76.5417C197.179 76.2675 197.119 75.9934 197.067 75.7152C197.039 75.5722 197.011 75.4291 196.987 75.2861C196.963 75.1669 196.943 75.0437 196.923 74.9245C196.903 74.8053 196.883 74.6821 196.863 74.5589C196.823 74.3165 196.787 74.0742 196.755 73.8318C196.715 73.5457 196.683 73.2596 196.651 72.9695C196.615 72.6238 196.583 72.2781 196.555 71.9285C196.535 71.694 196.523 71.4556 196.511 71.2172C196.499 70.9987 196.487 70.7801 196.483 70.5616C196.479 70.55 196.479 70.5374 196.483 70.5258C196.482 70.5253 196.482 70.5247 196.481 70.524C196.481 70.5233 196.481 70.5226 196.481 70.5219C196.481 70.5211 196.481 70.5204 196.481 70.5197C196.482 70.519 196.482 70.5184 196.483 70.5179C196.479 70.5139 196.479 70.5139 196.483 70.5099C196.482 70.5094 196.482 70.5088 196.481 70.5081C196.481 70.5074 196.481 70.5067 196.481 70.506C196.481 70.5052 196.481 70.5045 196.481 70.5038C196.482 70.5031 196.482 70.5025 196.483 70.502C196.479 70.4146 196.475 70.3272 196.475 70.2398C196.467 69.9815 196.463 69.7232 196.463 69.4649C196.463 69.2305 196.467 69 196.471 68.7656C196.479 68.4397 196.491 68.1139 196.507 67.7881C196.507 67.7166 196.515 67.649 196.519 67.5775C196.523 67.506 196.527 67.4383 196.531 67.3668C196.539 67.2158 196.551 67.0648 196.567 66.9138C196.566 66.886 196.567 66.8581 196.571 66.8304C196.583 66.6595 196.599 66.4887 196.615 66.3179C196.647 65.9762 196.687 65.6305 196.731 65.2887C196.755 65.1179 196.775 64.947 196.803 64.7762C196.819 64.657 196.839 64.5338 196.859 64.4106C196.875 64.2874 196.895 64.1642 196.919 64.0411C196.947 63.8781 196.975 63.7112 197.007 63.5443C197.023 63.445 197.043 63.3456 197.063 63.2463C197.139 62.8489 197.223 62.4517 197.315 62.0543C197.408 61.653 197.512 61.2556 197.624 60.8583C197.732 60.457 197.852 60.0556 197.98 59.6543C198.04 59.4517 198.104 59.253 198.176 59.0543C198.309 58.653 198.449 58.2556 198.605 57.8623C198.677 57.6676 198.753 57.4689 198.837 57.2742C198.997 56.8808 199.166 56.4874 199.338 56.102C199.426 55.9073 199.514 55.7126 199.61 55.5179C199.79 55.1325 199.978 54.747 200.183 54.3695C200.379 53.9841 200.591 53.6066 200.807 53.2331C201.024 52.8596 201.248 52.4861 201.484 52.1166C201.592 51.9338 201.712 51.747 201.836 51.5682C202.077 51.2027 202.329 50.8371 202.585 50.4795C203.102 49.7562 203.659 49.045 204.247 48.3536ZM196.563 66.9138C196.551 67.0648 196.539 67.2158 196.531 67.3668C196.539 67.2158 196.551 67.0648 196.567 66.9138C196.566 66.886 196.567 66.8581 196.571 66.8304C196.567 66.8582 196.567 66.886 196.563 66.9138ZM197.059 63.2463C197.043 63.3456 197.023 63.445 197.007 63.5443C197.023 63.445 197.043 63.3456 197.063 63.2463H197.059ZM207.034 93.5046V93.5085C207.034 93.5125 207.038 93.5125 207.042 93.5125L207.034 93.5046Z" fill="#33415B"/>
        <path opacity="0.3" d="M208.187 94.5215C201.853 89.2177 197.761 81.7443 196.723 73.5853C195.685 65.4262 197.777 57.1782 202.584 50.479C201.953 51.1099 201.343 51.7705 200.754 52.461C197.957 55.7492 195.841 59.5517 194.526 63.6513C193.211 67.7509 192.723 72.0675 193.089 76.3544C193.455 80.6414 194.668 84.8149 196.659 88.6365C198.651 92.4582 201.381 95.8532 204.695 98.6278C211.388 104.231 220.049 106.967 228.774 106.234C237.5 105.5 245.574 101.357 251.221 94.7166C251.809 94.0252 252.362 93.3171 252.882 92.5923C247.035 98.4213 239.194 101.855 230.914 102.213C222.634 102.57 214.521 99.8247 208.187 94.5215Z" fill="#202939"/>
    </g>
    <defs>
        <clipPath id="clip0_350_9271">
            <rect width="364" height="180" fill="white"/>
        </clipPath>
    </defs>
</svg>
