<svg xmlns="http://www.w3.org/2000/svg" preserveAspectRatio="xMidYMid meet" viewBox="0 0 16 16" fill="none">
    <path d="M13 5H11V3.5C11 2.70435 10.6839 1.94129 10.1213 1.37868C9.55871 0.81607 8.79565 0.5 8 0.5C7.20435 0.5 6.44129 0.81607 5.87868 1.37868C5.31607 1.94129 5 2.70435 5 3.5V5H3C2.73478 5 2.48043 5.10536 2.29289 5.29289C2.10536 5.48043 2 5.73478 2 6V13C2 13.2652 2.10536 13.5196 2.29289 13.7071C2.48043 13.8946 2.73478 14 3 14H13C13.2652 14 13.5196 13.8946 13.7071 13.7071C13.8946 13.5196 14 13.2652 14 13V6C14 5.73478 13.8946 5.48043 13.7071 5.29289C13.5196 5.10536 13.2652 5 13 5ZM8 10.25C7.85166 10.25 7.70666 10.206 7.58332 10.1236C7.45999 10.0412 7.36386 9.92406 7.30709 9.78701C7.25032 9.64997 7.23547 9.49917 7.26441 9.35368C7.29335 9.2082 7.36478 9.07456 7.46967 8.96967C7.57456 8.86478 7.7082 8.79335 7.85368 8.76441C7.99917 8.73547 8.14997 8.75033 8.28701 8.80709C8.42406 8.86386 8.54119 8.95999 8.6236 9.08332C8.70601 9.20666 8.75 9.35166 8.75 9.5C8.75 9.69891 8.67098 9.88968 8.53033 10.0303C8.38968 10.171 8.19891 10.25 8 10.25ZM10 5H6V3.5C6 2.96957 6.21071 2.46086 6.58579 2.08579C6.96086 1.71071 7.46957 1.5 8 1.5C8.53043 1.5 9.03914 1.71071 9.41421 2.08579C9.78929 2.46086 10 2.96957 10 3.5V5Z"
          fill="#BABCBE"/>
</svg>
