<svg preserveAspectRatio="xMidYMid meet" viewBox="0 0 188 32" fill="none" xmlns="http://www.w3.org/2000/svg">
    <path d="M180.827 25.2764C179.36 25.2764 178.116 25.0319 177.095 24.5429C176.095 24.0539 175.33 23.4161 174.798 22.6294C174.266 21.8215 173.969 20.9498 173.905 20.0144H176.393C176.457 20.5459 176.638 21.0668 176.935 21.577C177.254 22.066 177.733 22.47 178.371 22.7889C179.009 23.0865 179.838 23.2353 180.859 23.2353C181.178 23.2353 181.572 23.2035 182.04 23.1397C182.508 23.0759 182.954 22.959 183.38 22.7889C183.826 22.6188 184.198 22.3637 184.496 22.0235C184.794 21.6833 184.943 21.2475 184.943 20.716C184.943 20.0569 184.688 19.5466 184.177 19.1852C183.667 18.8238 183.007 18.5474 182.199 18.3561C181.391 18.1434 180.53 17.9415 179.615 17.7501C178.722 17.5588 177.871 17.3143 177.063 17.0166C176.255 16.6977 175.596 16.2619 175.085 15.7091C174.575 15.1351 174.319 14.3591 174.319 13.3811C174.319 11.9354 174.841 10.8192 175.883 10.0326C176.946 9.22466 178.509 8.82071 180.572 8.82071C181.976 8.82071 183.114 9.04394 183.986 9.49041C184.879 9.91562 185.549 10.4684 185.996 11.1487C186.463 11.8291 186.74 12.5626 186.825 13.3492H184.4C184.315 12.6689 183.975 12.0842 183.38 11.5952C182.805 11.1062 181.848 10.8617 180.508 10.8617C177.978 10.8617 176.712 11.6271 176.712 13.1579C176.712 13.7957 176.967 14.2847 177.478 14.6248C177.988 14.965 178.647 15.2414 179.456 15.454C180.264 15.6453 181.115 15.8367 182.008 16.028C182.922 16.1981 183.784 16.4426 184.592 16.7615C185.4 17.0804 186.059 17.5375 186.57 18.1328C187.08 18.7069 187.335 19.4935 187.335 20.4927C187.335 22.0448 186.74 23.2353 185.549 24.0645C184.379 24.8724 182.805 25.2764 180.827 25.2764Z" fill="#2563EB"/>
    <path d="M164.48 25.2764C163.013 25.2764 161.769 25.0319 160.748 24.5429C159.748 24.0539 158.983 23.4161 158.451 22.6294C157.919 21.8215 157.621 20.9498 157.558 20.0144H160.046C160.11 20.5459 160.29 21.0668 160.588 21.577C160.907 22.066 161.386 22.47 162.024 22.7889C162.662 23.0865 163.491 23.2353 164.512 23.2353C164.831 23.2353 165.225 23.2035 165.693 23.1397C166.16 23.0759 166.607 22.959 167.032 22.7889C167.479 22.6188 167.851 22.3637 168.149 22.0235C168.447 21.6833 168.596 21.2475 168.596 20.716C168.596 20.0569 168.34 19.5466 167.83 19.1852C167.319 18.8238 166.66 18.5474 165.852 18.3561C165.044 18.1434 164.182 17.9415 163.268 17.7501C162.375 17.5588 161.524 17.3143 160.716 17.0166C159.908 16.6977 159.248 16.2619 158.738 15.7091C158.228 15.1351 157.972 14.3591 157.972 13.3811C157.972 11.9354 158.493 10.8192 159.535 10.0326C160.599 9.22466 162.162 8.82071 164.225 8.82071C165.629 8.82071 166.767 9.04394 167.639 9.49041C168.532 9.91562 169.202 10.4684 169.648 11.1487C170.116 11.8291 170.393 12.5626 170.478 13.3492H168.053C167.968 12.6689 167.628 12.0842 167.032 11.5952C166.458 11.1062 165.501 10.8617 164.161 10.8617C161.63 10.8617 160.365 11.6271 160.365 13.1579C160.365 13.7957 160.62 14.2847 161.131 14.6248C161.641 14.965 162.3 15.2414 163.108 15.454C163.917 15.6453 164.767 15.8367 165.661 16.028C166.575 16.1981 167.436 16.4426 168.245 16.7615C169.053 17.0804 169.712 17.5375 170.223 18.1328C170.733 18.7069 170.988 19.4935 170.988 20.4927C170.988 22.0448 170.393 23.2353 169.202 24.0645C168.032 24.8724 166.458 25.2764 164.48 25.2764Z" fill="#2563EB"/>
    <path d="M145.476 25.2764C143.923 25.2764 142.562 24.9149 141.392 24.1921C140.244 23.448 139.35 22.4487 138.712 21.1943C138.074 19.94 137.755 18.558 137.755 17.0485C137.755 15.5178 138.074 14.1358 138.712 12.9027C139.35 11.6484 140.244 10.6597 141.392 9.93688C142.562 9.19277 143.923 8.82071 145.476 8.82071C146.794 8.82071 147.921 9.07583 148.857 9.58608C149.814 10.0963 150.59 10.7873 151.186 11.659V9.07583H153.579V25.0212H151.186V22.47C150.59 23.3204 149.814 24.0007 148.857 24.511C147.921 25.0212 146.794 25.2764 145.476 25.2764ZM145.795 23.1078C146.986 23.1078 147.985 22.8314 148.793 22.2786C149.623 21.7259 150.25 20.9924 150.676 20.0782C151.101 19.1427 151.314 18.1328 151.314 17.0485C151.314 15.943 151.101 14.9331 150.676 14.0189C150.25 13.1047 149.623 12.3712 148.793 11.8184C147.985 11.2657 146.986 10.9893 145.795 10.9893C144.625 10.9893 143.615 11.2657 142.764 11.8184C141.913 12.3712 141.265 13.1047 140.818 14.0189C140.371 14.9331 140.148 15.943 140.148 17.0485C140.148 18.1328 140.371 19.1427 140.818 20.0782C141.265 20.9924 141.913 21.7259 142.764 22.2786C143.615 22.8314 144.625 23.1078 145.795 23.1078Z" fill="#2563EB"/>
    <path d="M118.814 31.3356V9.07583H121.207V11.6271C121.803 10.7554 122.568 10.0751 123.504 9.58608C124.461 9.07583 125.599 8.82071 126.917 8.82071C128.47 8.82071 129.821 9.19277 130.969 9.93688C132.139 10.6597 133.043 11.6484 133.681 12.9027C134.319 14.1358 134.638 15.5178 134.638 17.0485C134.638 18.558 134.319 19.94 133.681 21.1943C133.043 22.4487 132.139 23.448 130.969 24.1921C129.821 24.9149 128.47 25.2764 126.917 25.2764C125.599 25.2764 124.461 25.0212 123.504 24.511C122.568 23.9795 121.803 23.2885 121.207 22.4381V31.3356H118.814ZM126.598 23.1078C127.789 23.1078 128.8 22.8314 129.629 22.2786C130.48 21.7259 131.129 20.9924 131.575 20.0782C132.022 19.1427 132.245 18.1328 132.245 17.0485C132.245 15.943 132.022 14.9331 131.575 14.0189C131.129 13.1047 130.48 12.3712 129.629 11.8184C128.8 11.2657 127.789 10.9893 126.598 10.9893C125.429 10.9893 124.429 11.2657 123.6 11.8184C122.77 12.3712 122.143 13.1047 121.717 14.0189C121.292 14.9331 121.079 15.943 121.079 17.0485C121.079 18.1328 121.292 19.1427 121.717 20.0782C122.143 20.9924 122.77 21.7259 123.6 22.2786C124.429 22.8314 125.429 23.1078 126.598 23.1078Z" fill="#2563EB"/>
    <path d="M107.182 25.2764C105.565 25.2764 104.151 24.9149 102.939 24.1921C101.727 23.448 100.78 22.4487 100.1 21.1943C99.4403 19.94 99.1106 18.558 99.1106 17.0485C99.1106 15.5178 99.4297 14.1358 100.068 12.9027C100.706 11.6484 101.62 10.6597 102.811 9.93688C104.002 9.19277 105.406 8.82071 107.022 8.82071C108.66 8.82071 110.064 9.19277 111.233 9.93688C112.424 10.6597 113.339 11.6484 113.977 12.9027C114.615 14.1358 114.934 15.5178 114.934 17.0485V18.0053H101.567C101.695 18.9407 101.992 19.8018 102.46 20.5884C102.949 21.3538 103.598 21.9703 104.406 22.4381C105.215 22.8845 106.15 23.1078 107.214 23.1078C108.341 23.1078 109.287 22.8633 110.053 22.3743C110.819 21.864 111.414 21.2156 111.839 20.429H114.455C113.902 21.8534 113.02 23.0227 111.808 23.9369C110.617 24.8299 109.075 25.2764 107.182 25.2764ZM101.599 15.7729H112.446C112.233 14.4122 111.659 13.2748 110.723 12.3606C109.787 11.4464 108.554 10.9893 107.022 10.9893C105.491 10.9893 104.257 11.4464 103.322 12.3606C102.407 13.2748 101.833 14.4122 101.599 15.7729Z" fill="#2563EB"/>
    <path d="M88.5502 25.0212V9.07583H90.9428V12.9984C91.0279 12.722 91.1874 12.3606 91.4213 11.9141C91.6765 11.4464 92.0381 10.9787 92.506 10.5109C92.9739 10.0432 93.5587 9.64987 94.2606 9.33096C94.9837 8.99079 95.8344 8.82071 96.8127 8.82071H96.9722V11.2125H96.6851C95.4941 11.2125 94.4626 11.5421 93.5906 12.2011C92.7399 12.8389 92.0806 13.6787 91.6127 14.7205C91.1661 15.741 90.9428 16.8359 90.9428 18.0053V25.0212H88.5502Z" fill="#2563EB"/>
    <path d="M76.5088 25.2764C74.8924 25.2764 73.4887 24.9149 72.2977 24.1921C71.1067 23.448 70.1922 22.4487 69.5542 21.1943C68.9162 19.94 68.5971 18.558 68.5971 17.0485C68.5971 15.5178 68.9162 14.1358 69.5542 12.9027C70.1922 11.6484 71.1067 10.6597 72.2977 9.93688C73.4887 9.19277 74.8924 8.82071 76.5088 8.82071C78.1464 8.82071 79.5501 9.19277 80.7198 9.93688C81.9108 10.6597 82.8253 11.6484 83.4633 12.9027C84.1014 14.1358 84.4204 15.5178 84.4204 17.0485C84.4204 18.558 84.1014 19.94 83.4633 21.1943C82.8253 22.4487 81.9108 23.448 80.7198 24.1921C79.5501 24.9149 78.1464 25.2764 76.5088 25.2764ZM76.5088 23.1078C77.6998 23.1078 78.6993 22.8314 79.5075 22.2786C80.337 21.7259 80.9644 20.9924 81.3897 20.0782C81.8151 19.1427 82.0278 18.1328 82.0278 17.0485C82.0278 15.943 81.8151 14.9331 81.3897 14.0189C80.9644 13.1047 80.337 12.3712 79.5075 11.8184C78.6993 11.2657 77.6998 10.9893 76.5088 10.9893C75.339 10.9893 74.3394 11.2657 73.51 11.8184C72.6806 12.3712 72.0532 13.1047 71.6278 14.0189C71.2024 14.9331 70.9898 15.943 70.9898 17.0485C70.9898 18.1328 71.2024 19.1427 71.6278 20.0782C72.0532 20.9924 72.6806 21.7259 73.51 22.2786C74.3394 22.8314 75.339 23.1078 76.5088 23.1078Z" fill="#2563EB"/>
    <path d="M55.9822 25.2761C53.8767 25.2761 52.0583 24.7978 50.527 23.841C48.9957 22.863 47.8153 21.5555 46.9859 19.9185C46.1777 18.2814 45.7736 16.4636 45.7736 14.4651C45.7736 12.4666 46.1777 10.6489 46.9859 9.01181C47.8153 7.37475 48.9957 6.07785 50.527 5.12113C52.0583 4.14315 53.8767 3.65415 55.9822 3.65415C57.5773 3.65415 59.0129 3.94117 60.2889 4.51521C61.565 5.06798 62.6497 5.83336 63.5429 6.81134C64.4362 7.78933 65.1061 8.92676 65.5527 10.2237H63.0325C62.5008 8.92676 61.6607 7.89563 60.5122 7.13025C59.3638 6.36487 57.9176 5.98218 56.1736 5.98218C54.4722 5.98218 53.0153 6.36487 51.8031 7.13025C50.6121 7.87437 49.7082 8.88424 49.0914 10.1599C48.4747 11.4355 48.1663 12.8706 48.1663 14.4651C48.1663 16.0384 48.4747 17.4735 49.0914 18.7704C49.7082 20.046 50.6121 21.0665 51.8031 21.8319C53.0153 22.576 54.4722 22.9481 56.1736 22.9481C57.9176 22.9481 59.3638 22.5654 60.5122 21.8C61.6607 21.0346 62.5008 20.0035 63.0325 18.7066H65.5527C65.1061 19.9822 64.4362 21.1197 63.5429 22.1189C62.6497 23.0969 61.565 23.8729 60.2889 24.447C59.0129 24.9997 57.5773 25.2761 55.9822 25.2761Z" fill="#2563EB"/>
    <path fill-rule="evenodd" clip-rule="evenodd" d="M176.805 25.1408L176.803 25.1396C175.717 24.6084 174.854 23.8997 174.247 23.0014L174.245 22.998L174.243 22.9946C173.65 22.0942 173.314 21.1129 173.242 20.0596L173.193 19.35H176.983L177.053 19.9352C177.104 20.3628 177.249 20.7926 177.501 21.2275C177.742 21.5908 178.115 21.9169 178.66 22.1905C179.179 22.4307 179.9 22.571 180.859 22.571C181.138 22.571 181.499 22.5428 181.95 22.4814C182.366 22.4247 182.759 22.3213 183.133 22.172L183.138 22.17L183.143 22.168C183.494 22.0343 183.774 21.8397 183.996 21.586C184.17 21.3877 184.278 21.1165 184.278 20.716C184.278 20.2587 184.117 19.9565 183.793 19.7274C183.371 19.4285 182.797 19.1803 182.046 19.0026L182.038 19.0007L182.03 18.9986C181.234 18.7892 180.384 18.5897 179.479 18.4004L179.476 18.3998C178.554 18.2022 177.673 17.9492 176.833 17.6401L176.826 17.6374L176.819 17.6346C175.932 17.2847 175.185 16.7965 174.597 16.1598L174.593 16.1552L174.588 16.1505C173.943 15.4245 173.655 14.4759 173.655 13.3811C173.655 11.7535 174.254 10.4305 175.481 9.50359C176.707 8.57151 178.438 8.15631 180.572 8.15631C182.034 8.15631 183.284 8.38702 184.28 8.89465C185.253 9.35927 186.022 9.98155 186.547 10.7783C187.072 11.5436 187.389 12.3792 187.486 13.2778L187.565 14.0136H183.814L183.741 13.4316C183.68 12.9414 183.439 12.5041 182.958 12.1086L182.953 12.1048L182.949 12.101C182.558 11.7683 181.801 11.5261 180.508 11.5261C179.288 11.5261 178.484 11.7145 178.005 12.0042C177.58 12.2614 177.377 12.6149 177.377 13.1579C177.377 13.5842 177.53 13.8609 177.846 14.072C178.277 14.3587 178.86 14.6095 179.617 14.8094C180.415 14.9983 181.255 15.1873 182.138 15.3765C183.089 15.5538 183.988 15.809 184.836 16.1435C185.732 16.4971 186.483 17.0123 187.071 17.6962C187.716 18.4242 188 19.3834 188 20.4927C188 22.2442 187.312 23.6465 185.929 24.6097L185.927 24.6111C184.61 25.5204 182.889 25.9407 180.827 25.9407C179.289 25.9407 177.941 25.6847 176.808 25.142L176.805 25.1408ZM186.57 18.1328C186.059 17.5375 185.4 17.0804 184.592 16.7615C183.784 16.4426 182.922 16.1981 182.008 16.028C181.115 15.8367 180.264 15.6453 179.456 15.454C178.647 15.2414 177.988 14.965 177.478 14.6248C176.967 14.2847 176.712 13.7957 176.712 13.1579C176.712 11.6271 177.978 10.8617 180.508 10.8617C181.848 10.8617 182.805 11.1062 183.38 11.5952C183.975 12.0842 184.315 12.6689 184.4 13.3492H186.825C186.801 13.1234 186.76 12.9019 186.704 12.6848C186.565 12.1458 186.329 11.6337 185.996 11.1487C185.549 10.4684 184.879 9.91562 183.986 9.49041C183.114 9.04394 181.976 8.82071 180.572 8.82071C178.509 8.82071 176.946 9.22466 175.883 10.0326C174.841 10.8192 174.319 11.9354 174.319 13.3811C174.319 14.3591 174.575 15.1351 175.085 15.7091C175.596 16.2619 176.255 16.6977 177.063 17.0166C177.871 17.3143 178.722 17.5588 179.615 17.7501C180.53 17.9415 181.391 18.1434 182.199 18.3561C183.007 18.5474 183.667 18.8238 184.177 19.1852C184.688 19.5466 184.943 20.0569 184.943 20.716C184.943 21.2475 184.794 21.6833 184.496 22.0235C184.198 22.3637 183.826 22.6188 183.38 22.7889C182.954 22.959 182.508 23.0759 182.04 23.1397C181.572 23.2035 181.178 23.2353 180.859 23.2353C179.838 23.2353 179.009 23.0865 178.371 22.7889C177.733 22.47 177.254 22.066 176.935 21.577C176.638 21.0668 176.457 20.5459 176.393 20.0144H173.905C173.92 20.2395 173.949 20.461 173.991 20.6788C174.125 21.3658 174.394 22.016 174.798 22.6294C175.33 23.4161 176.095 24.0539 177.095 24.5429C178.116 25.0319 179.36 25.2764 180.827 25.2764C182.805 25.2764 184.379 24.8724 185.549 24.0645C186.74 23.2353 187.335 22.0448 187.335 20.4927C187.335 19.4935 187.08 18.7069 186.57 18.1328ZM160.458 25.1408L160.456 25.1396C159.37 24.6084 158.507 23.8997 157.9 23.0014L157.898 22.998L157.896 22.9946C157.303 22.0942 156.966 21.1129 156.894 20.0596L156.846 19.35H160.636L160.706 19.9352C160.757 20.3628 160.902 20.7926 161.154 21.2275C161.395 21.5908 161.768 21.9169 162.313 22.1905C162.832 22.4307 163.553 22.571 164.512 22.571C164.791 22.571 165.152 22.5428 165.603 22.4814C166.018 22.4247 166.412 22.3213 166.786 22.172L166.791 22.17L166.796 22.168C167.147 22.0343 167.427 21.8397 167.649 21.586C167.822 21.3877 167.931 21.1165 167.931 20.716C167.931 20.2587 167.769 19.9565 167.446 19.7274C167.024 19.4285 166.45 19.1803 165.699 19.0026L165.691 19.0007L165.683 18.9986C164.887 18.7892 164.037 18.5897 163.132 18.4004L163.129 18.3998C162.207 18.2022 161.325 17.9492 160.486 17.6401L160.479 17.6374L160.472 17.6346C159.585 17.2847 158.838 16.7965 158.25 16.1598L158.245 16.1552L158.241 16.1505C157.596 15.4245 157.308 14.4759 157.308 13.3811C157.308 11.7535 157.906 10.4305 159.133 9.50359C160.36 8.57151 162.091 8.15631 164.225 8.15631C165.687 8.15631 166.937 8.38702 167.933 8.89465C168.906 9.35927 169.675 9.98155 170.2 10.7783C170.725 11.5436 171.041 12.3792 171.139 13.2778L171.218 14.0136H167.467L167.394 13.4316C167.332 12.9414 167.092 12.5041 166.611 12.1086L166.606 12.1048L166.601 12.101C166.211 11.7683 165.453 11.5261 164.161 11.5261C162.941 11.5261 162.137 11.7145 161.658 12.0042C161.233 12.2614 161.03 12.6149 161.03 13.1579C161.03 13.5842 161.182 13.8609 161.499 14.072C161.929 14.3587 162.512 14.6095 163.27 14.8094C164.068 14.9983 164.908 15.1873 165.791 15.3765C166.741 15.5538 167.641 15.809 168.489 16.1435C169.385 16.4971 170.136 17.0123 170.724 17.6962C171.368 18.4242 171.653 19.3834 171.653 20.4927C171.653 22.2442 170.965 23.6465 169.582 24.6097L169.579 24.6111C168.263 25.5204 166.542 25.9407 164.48 25.9407C162.942 25.9407 161.594 25.6847 160.461 25.142L160.458 25.1408ZM170.223 18.1328C169.712 17.5375 169.053 17.0804 168.245 16.7615C167.436 16.4426 166.575 16.1981 165.661 16.028C164.767 15.8367 163.917 15.6453 163.108 15.454C162.3 15.2414 161.641 14.965 161.131 14.6248C160.62 14.2847 160.365 13.7957 160.365 13.1579C160.365 11.6271 161.63 10.8617 164.161 10.8617C165.501 10.8617 166.458 11.1062 167.032 11.5952C167.628 12.0842 167.968 12.6689 168.053 13.3492H170.478C170.453 13.1234 170.413 12.9019 170.357 12.6848C170.218 12.1458 169.982 11.6337 169.648 11.1487C169.202 10.4684 168.532 9.91562 167.639 9.49041C166.767 9.04394 165.629 8.82071 164.225 8.82071C162.162 8.82071 160.599 9.22466 159.535 10.0326C158.493 10.8192 157.972 11.9354 157.972 13.3811C157.972 14.3591 158.228 15.1351 158.738 15.7091C159.248 16.2619 159.908 16.6977 160.716 17.0166C161.524 17.3143 162.375 17.5588 163.268 17.7501C164.182 17.9415 165.044 18.1434 165.852 18.3561C166.66 18.5474 167.319 18.8238 167.83 19.1852C168.34 19.5466 168.596 20.0569 168.596 20.716C168.596 21.2475 168.447 21.6833 168.149 22.0235C167.851 22.3637 167.479 22.6188 167.032 22.7889C166.607 22.959 166.16 23.0759 165.693 23.1397C165.225 23.2035 164.831 23.2353 164.512 23.2353C163.491 23.2353 162.662 23.0865 162.024 22.7889C161.386 22.47 160.907 22.066 160.588 21.577C160.29 21.0668 160.11 20.5459 160.046 20.0144H157.558C157.573 20.2395 157.602 20.461 157.644 20.6788C157.778 21.3658 158.047 22.016 158.451 22.6294C158.983 23.4161 159.748 24.0539 160.748 24.5429C161.769 25.0319 163.013 25.2764 164.48 25.2764C166.458 25.2764 168.032 24.8724 169.202 24.0645C170.393 23.2353 170.988 22.0448 170.988 20.4927C170.988 19.4935 170.733 18.7069 170.223 18.1328ZM141.037 24.7535L141.031 24.7496C139.781 23.94 138.809 22.851 138.12 21.4955C137.431 20.1411 137.091 18.6549 137.091 17.0485C137.091 15.4237 137.43 13.9362 138.121 12.6001C138.811 11.2444 139.783 10.1648 141.036 9.37603C142.325 8.55638 143.812 8.15631 145.476 8.15631C146.878 8.15631 148.119 8.4277 149.173 9.00142C149.665 9.26389 150.114 9.57106 150.521 9.92261V8.41144H154.243V25.6856H150.521V24.1815C150.114 24.5286 149.664 24.8333 149.173 25.0956C148.12 25.6693 146.878 25.9407 145.476 25.9407C143.816 25.9407 142.331 25.553 141.043 24.7572L141.037 24.7535ZM148.857 24.511C149.491 24.1729 150.046 23.7602 150.521 23.2728C150.763 23.0246 150.985 22.7569 151.186 22.47V25.0212H153.579V9.07583H151.186V11.659C150.985 11.3648 150.763 11.0913 150.521 10.8383C150.046 10.3415 149.491 9.92415 148.857 9.58608C147.921 9.07583 146.794 8.82071 145.476 8.82071C143.923 8.82071 142.562 9.19277 141.392 9.93688C140.244 10.6597 139.35 11.6484 138.712 12.9027C138.074 14.1358 137.755 15.5178 137.755 17.0485C137.755 18.558 138.074 19.94 138.712 21.1943C139.35 22.4487 140.244 23.448 141.392 24.1921C142.562 24.9149 143.923 25.2764 145.476 25.2764C146.794 25.2764 147.921 25.0212 148.857 24.511ZM148.421 21.728L148.425 21.7258C149.151 21.2421 149.697 20.6044 150.072 19.8007C150.455 18.957 150.649 18.0423 150.649 17.0485C150.649 16.0303 150.454 15.1174 150.073 14.2991C149.698 13.4941 149.151 12.8555 148.425 12.3712L148.421 12.369L148.418 12.3668C147.742 11.9046 146.881 11.6537 145.795 11.6537C144.733 11.6537 143.853 11.903 143.126 12.3755C142.377 12.8625 141.809 13.5041 141.415 14.3105C141.017 15.1262 140.813 16.0351 140.813 17.0485C140.813 18.0373 141.015 18.9478 141.416 19.7889C141.81 20.5942 142.377 21.2351 143.126 21.7216C143.853 22.1941 144.733 22.4434 145.795 22.4434C146.881 22.4434 147.742 22.1924 148.418 21.7303L148.421 21.728ZM150.676 20.0782C150.25 20.9924 149.623 21.7259 148.793 22.2786C147.985 22.8314 146.986 23.1078 145.795 23.1078C144.625 23.1078 143.615 22.8314 142.764 22.2786C141.913 21.7259 141.265 20.9924 140.818 20.0782C140.371 19.1427 140.148 18.1328 140.148 17.0485C140.148 15.943 140.371 14.9331 140.818 14.0189C141.265 13.1047 141.913 12.3712 142.764 11.8184C143.615 11.2657 144.625 10.9893 145.795 10.9893C146.986 10.9893 147.985 11.2657 148.793 11.8184C149.623 12.3712 150.25 13.1047 150.676 14.0189C151.101 14.9331 151.314 15.943 151.314 17.0485C151.314 18.1328 151.101 19.1427 150.676 20.0782ZM118.15 32V8.41144H121.872V9.89196C122.272 9.54805 122.713 9.25001 123.194 8.9985C124.265 8.42791 125.514 8.15631 126.917 8.15631C128.578 8.15631 130.056 8.5552 131.325 9.37558C132.597 10.1634 133.582 11.2427 134.272 12.6C134.963 13.9362 135.302 15.4237 135.302 17.0485C135.302 18.6549 134.962 20.1411 134.273 21.4955C133.582 22.8541 132.597 23.9436 131.326 24.7526L131.323 24.7543C130.054 25.5531 128.577 25.9407 126.917 25.9407C125.513 25.9407 124.263 25.6687 123.191 25.0972L123.183 25.093L123.176 25.0886C122.702 24.8198 122.267 24.5123 121.872 24.1664V32H118.15ZM121.207 22.4381C121.409 22.7265 121.631 22.9966 121.872 23.2483C122.341 23.7389 122.886 24.1597 123.504 24.511C124.461 25.0212 125.599 25.2764 126.917 25.2764C128.47 25.2764 129.821 24.9149 130.969 24.1921C132.139 23.448 133.043 22.4487 133.681 21.1943C134.319 19.94 134.638 18.558 134.638 17.0485C134.638 15.5178 134.319 14.1358 133.681 12.9027C133.043 11.6484 132.139 10.6597 130.969 9.93688C129.821 9.19277 128.47 8.82071 126.917 8.82071C125.599 8.82071 124.461 9.07583 123.504 9.58608C122.886 9.90923 122.341 10.3159 121.872 10.8062C121.631 11.0578 121.409 11.3315 121.207 11.6271V9.07583H118.814V31.3356H121.207V22.4381ZM129.264 21.7237L129.267 21.7216C130.016 21.2351 130.583 20.5942 130.977 19.7889C131.378 18.9478 131.58 18.0373 131.58 17.0485C131.58 16.0351 131.376 15.1262 130.978 14.3105C130.584 13.5041 130.016 12.8625 129.267 12.3755L129.264 12.3734L129.26 12.3712C128.56 11.9044 127.684 11.6537 126.598 11.6537C125.537 11.6537 124.671 11.9031 123.968 12.3712C123.242 12.8555 122.695 13.4941 122.32 14.2991C121.939 15.1174 121.744 16.0303 121.744 17.0485C121.744 18.0423 121.938 18.957 122.321 19.8007C122.696 20.6044 123.243 21.2421 123.968 21.7258C124.671 22.1939 125.537 22.4434 126.598 22.4434C127.684 22.4434 128.56 22.1927 129.26 21.7258L129.264 21.7237ZM121.717 20.0782C121.292 19.1427 121.079 18.1328 121.079 17.0485C121.079 15.943 121.292 14.9331 121.717 14.0189C122.143 13.1047 122.77 12.3712 123.6 11.8184C124.429 11.2657 125.429 10.9893 126.598 10.9893C127.789 10.9893 128.8 11.2657 129.629 11.8184C130.48 12.3712 131.129 13.1047 131.575 14.0189C132.022 14.9331 132.245 15.943 132.245 17.0485C132.245 18.1328 132.022 19.1427 131.575 20.0782C131.129 20.9924 130.48 21.7259 129.629 22.2786C128.8 22.8314 127.789 23.1078 126.598 23.1078C125.429 23.1078 124.429 22.8314 123.6 22.2786C122.77 21.7259 122.143 20.9924 121.717 20.0782ZM102.595 24.7605L102.591 24.7582C101.279 23.9529 100.251 22.8675 99.5154 21.5111L99.5133 21.5072L99.5112 21.5034C98.7986 20.1475 98.446 18.6585 98.446 17.0485C98.446 15.4237 98.7852 13.9362 99.476 12.6001C100.169 11.2386 101.167 10.1584 102.463 9.37114C103.774 8.55313 105.302 8.15631 107.022 8.15631C108.76 8.15631 110.291 8.5517 111.584 9.37253C112.879 10.1597 113.876 11.2394 114.568 12.6C115.259 13.9362 115.599 15.4237 115.599 17.0485V18.6696H102.374C102.518 19.227 102.736 19.7496 103.026 20.2396C103.455 20.907 104.021 21.446 104.734 21.8597C105.428 22.242 106.248 22.4434 107.214 22.4434C108.242 22.4434 109.055 22.2217 109.69 21.8179C110.365 21.3666 110.884 20.7996 111.255 20.113L111.443 19.7646H115.426L115.075 20.6693C114.478 22.2082 113.519 23.4782 112.208 24.4673L112.206 24.4685C110.872 25.4686 109.179 25.9407 107.182 25.9407C105.463 25.9407 103.928 25.5554 102.598 24.7627L102.595 24.7605ZM110.053 22.3743C109.287 22.8633 108.341 23.1078 107.214 23.1078C106.15 23.1078 105.215 22.8845 104.406 22.4381C103.598 21.9703 102.949 21.3538 102.46 20.5884C102.105 19.9916 101.848 19.3521 101.689 18.6696C101.639 18.4525 101.598 18.2311 101.567 18.0053H114.934V17.0485C114.934 15.5178 114.615 14.1358 113.977 12.9027C113.339 11.6484 112.424 10.6597 111.233 9.93688C110.064 9.19277 108.66 8.82071 107.022 8.82071C105.406 8.82071 104.002 9.19277 102.811 9.93688C101.62 10.6597 100.706 11.6484 100.068 12.9027C99.4297 14.1358 99.1106 15.5178 99.1106 17.0485C99.1106 18.558 99.4403 19.94 100.1 21.1943C100.78 22.4487 101.727 23.448 102.939 24.1921C104.151 24.9149 105.565 25.2764 107.182 25.2764C109.075 25.2764 110.617 24.8299 111.808 23.9369C112.826 23.1691 113.611 22.2212 114.165 21.0933C114.27 20.8784 114.367 20.657 114.455 20.429H111.839C111.414 21.2156 110.819 21.864 110.053 22.3743ZM87.8855 25.6856V8.41144H91.6074V10.5013C91.741 10.3465 91.884 10.1931 92.036 10.0411C92.5678 9.5095 93.2207 9.07414 93.9816 8.7279C94.8099 8.33913 95.7598 8.15631 96.8127 8.15631H97.6368V11.8769H96.6851C95.6251 11.8769 94.7375 12.1672 93.9915 12.7311L93.9894 12.7326C93.2362 13.2974 92.6456 14.044 92.2204 14.9895C91.8132 15.9211 91.6074 16.924 91.6074 18.0053V25.6856H87.8855ZM91.6127 14.7205C92.0806 13.6787 92.7399 12.8389 93.5906 12.2011C94.4626 11.5421 95.4941 11.2125 96.6851 11.2125H96.9722V8.82071H96.8127C96.6404 8.82071 96.472 8.82598 96.3076 8.83654C95.5386 8.8859 94.8563 9.05071 94.2606 9.33096C93.5587 9.64987 92.9739 10.0432 92.506 10.5109C92.1421 10.8746 91.8426 11.2383 91.6074 11.602C91.5401 11.706 91.4781 11.8101 91.4213 11.9141C91.1874 12.3606 91.0279 12.722 90.9428 12.9984V9.07583H88.5502V25.0212H90.9428V18.0053C90.9428 16.8359 91.1661 15.741 91.6127 14.7205ZM71.9491 24.7578L71.9455 24.7555C70.6518 23.9472 69.6544 22.8572 68.9618 21.4955C68.2729 20.1411 67.9325 18.6549 67.9325 17.0485C67.9325 15.4234 68.2718 13.9358 68.9628 12.5994C69.6556 11.2384 70.6537 10.1583 71.9492 9.37119C73.2601 8.55315 74.7886 8.15631 76.5088 8.15631C78.2469 8.15631 79.7775 8.55172 81.0707 9.3726C82.365 10.1596 83.3623 11.2391 84.0547 12.5994C84.7457 13.9357 85.085 15.4234 85.085 17.0485C85.085 18.6549 84.7447 20.1411 84.0558 21.4955C83.3631 22.8572 82.3657 23.9472 81.072 24.7555L81.0693 24.7572C79.776 25.5564 78.2461 25.9407 76.5088 25.9407C74.7906 25.9407 73.2635 25.5555 71.9528 24.76L71.9491 24.7578ZM83.4633 12.9027C82.8253 11.6484 81.9108 10.6597 80.7198 9.93688C79.5501 9.19277 78.1464 8.82071 76.5088 8.82071C74.8924 8.82071 73.4887 9.19277 72.2977 9.93688C71.1067 10.6597 70.1922 11.6484 69.5542 12.9027C68.9162 14.1358 68.5971 15.5178 68.5971 17.0485C68.5971 18.558 68.9162 19.94 69.5542 21.1943C70.1922 22.4487 71.1067 23.448 72.2977 24.1921C73.4887 24.9149 74.8924 25.2764 76.5088 25.2764C78.1464 25.2764 79.5501 24.9149 80.7198 24.1921C81.9108 23.448 82.8253 22.4487 83.4633 21.1943C84.1014 19.94 84.4204 18.558 84.4204 17.0485C84.4204 15.5178 84.1014 14.1358 83.4633 12.9027ZM79.1355 21.728L79.1389 21.7258C79.8647 21.2421 80.4113 20.6044 80.7858 19.8007C81.169 18.957 81.3631 18.0423 81.3631 17.0485C81.3631 16.0303 81.1678 15.1174 80.7871 14.2991C80.4126 13.4941 79.8655 12.8555 79.1389 12.3712L79.1355 12.369L79.1322 12.3668C78.4566 11.9046 77.5952 11.6537 76.5088 11.6537C75.447 11.6537 74.5811 11.9031 73.8787 12.3712C73.152 12.8555 72.6049 13.4941 72.2304 14.2991C71.8497 15.1174 71.6544 16.0303 71.6544 17.0485C71.6544 18.0422 71.8485 18.9568 72.2316 19.8005C72.6061 20.6042 73.1528 21.2421 73.8787 21.7258C74.5811 22.1939 75.447 22.4434 76.5088 22.4434C77.5952 22.4434 78.4566 22.1924 79.1322 21.7303L79.1355 21.728ZM81.3897 20.0782C80.9644 20.9924 80.337 21.7259 79.5075 22.2786C78.6993 22.8314 77.6998 23.1078 76.5088 23.1078C75.339 23.1078 74.3394 22.8314 73.51 22.2786C72.6806 21.7259 72.0532 20.9924 71.6278 20.0782C71.2024 19.1427 70.9898 18.1328 70.9898 17.0485C70.9898 15.943 71.2024 14.9331 71.6278 14.0189C72.0532 13.1047 72.6806 12.3712 73.51 11.8184C74.3394 11.2657 75.339 10.9893 76.5088 10.9893C77.6998 10.9893 78.6993 11.2657 79.5075 11.8184C80.337 12.3712 80.9644 13.1047 81.3897 14.0189C81.8151 14.9331 82.0278 15.943 82.0278 17.0485C82.0278 18.1328 81.8151 19.1427 81.3897 20.0782ZM50.1719 24.4027L50.1692 24.4009C48.5366 23.3583 47.2756 21.9606 46.393 20.2187L46.3914 20.2156L46.3899 20.2125C45.5324 18.4756 45.109 16.5558 45.109 14.4651C45.109 12.3745 45.5324 10.4547 46.3899 8.71778L46.3914 8.71469L46.393 8.71161C47.2757 6.9694 48.5375 5.58131 50.172 4.55947C51.8256 3.50416 53.7717 2.98976 55.9822 2.98976C57.6564 2.98976 59.1855 3.29105 60.5574 3.90741C61.9134 4.49545 63.0751 5.31377 64.0337 6.36336C64.9904 7.41078 65.706 8.62781 66.1811 10.0074L66.4844 10.888H62.5866L62.4175 10.4756C61.9352 9.29925 61.1799 8.37372 60.1436 7.68306C59.1298 7.00747 57.8209 6.64657 56.1736 6.64657C54.5741 6.64657 53.2456 7.00531 52.158 7.69199L52.1553 7.69366C51.0716 8.37074 50.2526 9.28507 49.6898 10.449C49.1218 11.6237 48.8309 12.9581 48.8309 14.4651C48.8309 15.9485 49.1209 17.2842 49.6907 18.4832C50.2532 19.6458 51.0723 20.571 52.1567 21.2693C53.2443 21.9353 54.5736 22.2837 56.1736 22.2837C57.8209 22.2837 59.1298 21.9228 60.1436 21.2472C61.1799 20.5565 61.9352 19.631 62.4175 18.4547L62.5866 18.0422H66.4895L66.18 18.9261C65.7048 20.2833 64.9904 21.4968 64.0385 22.5616L64.0361 22.5643L64.0337 22.5669C63.0759 23.6156 61.9157 24.4437 60.5617 25.0528L60.5574 25.0547L60.5532 25.0566C59.1823 25.6504 57.6549 25.9405 55.9822 25.9405C53.7731 25.9405 51.8282 25.4375 50.1747 24.4044L50.1719 24.4027ZM51.8031 21.8319C50.6121 21.0665 49.7082 20.046 49.0914 18.7704C48.4747 17.4735 48.1663 16.0384 48.1663 14.4651C48.1663 12.8706 48.4747 11.4355 49.0914 10.1599C49.7082 8.88424 50.6121 7.87437 51.8031 7.13025C53.0153 6.36487 54.4722 5.98218 56.1736 5.98218C57.9176 5.98218 59.3638 6.36487 60.5122 7.13025C61.6607 7.89563 62.5008 8.92676 63.0325 10.2237H65.5527C65.4748 9.99734 65.39 9.77587 65.2985 9.55927C64.8655 8.53463 64.2803 7.61866 63.5429 6.81134C62.6497 5.83336 61.565 5.06798 60.2889 4.51521C59.0129 3.94117 57.5773 3.65415 55.9822 3.65415C53.8767 3.65415 52.0583 4.14315 50.527 5.12113C48.9957 6.07785 47.8153 7.37475 46.9859 9.01181C46.1777 10.6489 45.7736 12.4666 45.7736 14.4651C45.7736 16.4636 46.1777 18.2814 46.9859 19.9185C47.8153 21.5555 48.9957 22.863 50.527 23.841C52.0583 24.7978 53.8767 25.2761 55.9822 25.2761C57.5773 25.2761 59.0129 24.9997 60.2889 24.447C61.565 23.8729 62.6497 23.0969 63.5429 22.1189C64.278 21.2966 64.8619 20.3806 65.2946 19.371C65.3876 19.1539 65.4737 18.9324 65.5527 18.7066H63.0325C62.5008 20.0035 61.6607 21.0346 60.5122 21.8C59.3638 22.5654 57.9176 22.9481 56.1736 22.9481C54.4722 22.9481 53.0153 22.576 51.8031 21.8319ZM112.446 15.7729C112.41 15.5452 112.364 15.3237 112.308 15.1085C112.031 14.0378 111.502 13.1218 110.723 12.3606C109.787 11.4464 108.554 10.9893 107.022 10.9893C105.491 10.9893 104.257 11.4464 103.322 12.3606C102.56 13.1218 102.035 14.0378 101.745 15.1085C101.687 15.3237 101.638 15.5452 101.599 15.7729H112.446ZM102.436 15.1085C102.705 14.2204 103.157 13.466 103.789 12.8332C104.579 12.0625 105.634 11.6537 107.022 11.6537C108.412 11.6537 109.468 12.0634 110.258 12.8357C110.906 13.4689 111.361 14.2222 111.619 15.1085H102.436Z" fill="#2563EB"/>
    <path fill-rule="evenodd" clip-rule="evenodd" d="M15.2493 25.8375C21.1019 25.8375 25.8463 21.0946 25.8463 15.2441C25.8463 9.39355 21.1019 4.65074 15.2493 4.65074C9.39677 4.65074 4.65234 9.39355 4.65234 15.2441C4.65234 21.0946 9.39677 25.8375 15.2493 25.8375ZM15.2493 30.4882C23.6713 30.4882 30.4986 23.6632 30.4986 15.2441C30.4986 6.82501 23.6713 0 15.2493 0C6.82736 0 0 6.82501 0 15.2441C0 23.6632 6.82736 30.4882 15.2493 30.4882ZM26.8679 23.5367C31.8503 23.5367 35.8895 19.499 35.8895 14.5182C35.8895 9.53741 31.8503 5.49969 26.8679 5.49969C21.8854 5.49969 17.8463 9.53741 17.8463 14.5182C17.8463 19.499 21.8854 23.5367 26.8679 23.5367ZM26.8679 26.8586C33.6856 26.8586 39.2125 21.3336 39.2125 14.5182C39.2125 7.70274 33.6856 2.17773 26.8679 2.17773C20.0501 2.17773 14.5232 7.70274 14.5232 14.5182C14.5232 21.3336 20.0501 26.8586 26.8679 26.8586Z" fill="#2563EB"/>
</svg>
