<svg preserveAspectRatio="xMidYMid meet" viewBox="0 0 160 32" fill="none" xmlns="http://www.w3.org/2000/svg">
    <path fill-rule="evenodd" clip-rule="evenodd"
          d="M25.8839 32V23.0037H22.0162V32H25.8839ZM20.8261 32V23.0037H16.9584V32H20.8261Z" fill="#1134E3"/>
    <path fill-rule="evenodd" clip-rule="evenodd"
          d="M21.0376 0L0 21.2045L6.31126 27.5658L21.0376 12.7226L35.7639 27.5658L42.0751 21.2045L21.0376 0ZM21.0376 5.51315L2.73488 23.961L3.57638 24.8092L21.0376 7.20947L38.4988 24.8092L39.3403 23.961L21.0376 5.51315Z"
          fill="#1134E3"/>
    <path fill-rule="evenodd" clip-rule="evenodd"
          d="M68.5455 25.9583L68.5487 25.9604L68.552 25.9625C69.7166 26.6982 71.0734 27.0545 72.6002 27.0545C74.1438 27.0545 75.5033 26.699 76.6524 25.9599L76.6549 25.9583C77.8044 25.2109 78.6906 24.2029 79.3061 22.9436C79.9182 21.6911 80.2206 20.3167 80.2206 18.8312C80.2206 17.3283 79.9191 15.9525 79.3051 14.7167C78.6899 13.4588 77.8037 12.4605 76.6537 11.7327C75.5046 10.9735 74.1446 10.6079 72.6002 10.6079C71.0718 10.6079 69.7136 10.9749 68.5487 11.7314C67.3976 12.4593 66.5107 13.4581 65.8952 14.7169C65.2812 15.9527 64.9797 17.3284 64.9797 18.8312C64.9797 20.3167 65.2821 21.6911 65.8943 22.9436C66.5097 24.2029 67.396 25.2109 68.5455 25.9583ZM74.9371 23.1566L74.9342 23.1586L74.9313 23.1607C74.3309 23.5881 73.5655 23.8202 72.6002 23.8202C71.6567 23.8202 70.8873 23.5895 70.2632 23.1566C69.6183 22.7093 69.1325 22.1195 68.7998 21.3763C68.4593 20.5961 68.2868 19.7502 68.2868 18.8312C68.2868 17.8895 68.4604 17.0453 68.7986 16.2886C69.1314 15.5441 69.6175 14.9536 70.2632 14.5057C70.8873 14.0728 71.6567 13.8421 72.6002 13.8421C73.5655 13.8421 74.3309 14.0742 74.9313 14.5016L74.9342 14.5037L74.9371 14.5057C75.5828 14.9536 76.0689 15.5441 76.4017 16.2886C76.74 17.0453 76.9135 17.8895 76.9135 18.8312C76.9135 19.7502 76.7411 20.596 76.4006 21.3762C76.0678 22.1195 75.5821 22.7092 74.9371 23.1566Z"
          fill="#1134E3"/>
    <path d="M84.9451 26.2721L84.9495 26.2746L84.954 26.277C85.9061 26.7938 86.9161 27.0545 87.9767 27.0545C89.2073 27.0545 90.2722 26.7922 91.1301 26.22C91.4727 25.9915 91.7934 25.7407 92.0917 25.4678V26.8185H95.3987V10.8438H92.0917V19.9518C92.0917 20.7373 91.9167 21.3992 91.5845 21.9588L91.5812 21.9645L91.5779 21.9702C91.252 22.5466 90.8158 23.0013 90.2625 23.3412C89.7163 23.6574 89.1005 23.8202 88.4019 23.8202C87.3995 23.8202 86.6028 23.4775 85.9667 22.8018C85.3528 22.1109 85.024 21.1906 85.024 19.9813V10.8438H81.7169V20.0403C81.7169 21.516 81.9967 22.8069 82.5884 23.8842L82.592 23.8907L82.5957 23.8971C83.1939 24.9273 83.9772 25.7248 84.9451 26.2721Z"
          fill="#1134E3"/>
    <path d="M98.3677 6.06614V26.8185H111.908V23.4663H101.675V6.06614H98.3677Z" fill="#1134E3"/>
    <path fill-rule="evenodd" clip-rule="evenodd"
          d="M115.346 25.9529L115.351 25.9565L115.357 25.9599C116.501 26.6959 117.821 27.0545 119.296 27.0545C120.542 27.0545 121.645 26.8036 122.581 26.2731C123.017 26.0305 123.417 25.7486 123.779 25.4276V26.8185H127.086V10.8438H123.779V12.2413C123.417 11.9161 123.018 11.632 122.581 11.3893C121.645 10.8588 120.542 10.6079 119.296 10.6079C117.818 10.6079 116.496 10.9777 115.351 11.7355C114.238 12.4649 113.374 13.4632 112.761 14.7168C112.147 15.9526 111.845 17.3283 111.845 18.8312C111.845 20.3167 112.148 21.6911 112.76 22.9436C113.372 24.1971 114.236 25.2042 115.346 25.9529ZM121.916 23.1566L121.913 23.1586L121.91 23.1607C121.31 23.5881 120.544 23.8202 119.579 23.8202C118.636 23.8202 117.854 23.5896 117.208 23.1527C116.543 22.7028 116.039 22.1103 115.689 21.3657C115.332 20.5878 115.152 19.7456 115.152 18.8312C115.152 17.894 115.334 17.0534 115.688 16.2991C116.038 15.5533 116.542 14.96 117.208 14.5097C117.854 14.0727 118.636 13.8421 119.579 13.8421C120.544 13.8421 121.31 14.0742 121.91 14.5016L121.913 14.5037L121.916 14.5057C122.562 14.9536 123.048 15.5441 123.381 16.2886C123.719 17.0453 123.892 17.8895 123.892 18.8312C123.892 19.75 123.72 20.5958 123.38 21.3759C123.047 22.1193 122.561 22.7092 121.916 23.1566Z"
          fill="#1134E3"/>
    <path d="M132.889 10.8438H129.582V26.8185H132.889V17.7105C132.889 16.9206 133.057 16.2553 133.373 15.6944C133.72 15.0948 134.165 14.6427 134.713 14.3244C135.261 14.006 135.878 13.8421 136.579 13.8421C137.602 13.8421 138.394 14.1949 139.009 14.8845L139.012 14.8872L139.014 14.8898C139.626 15.5594 139.957 16.4679 139.957 17.681V26.8185H143.264V17.622C143.264 16.1465 142.975 14.862 142.361 13.8012C141.782 12.7506 141.007 11.9487 140.034 11.4187C139.097 10.8784 138.084 10.6079 137.004 10.6079C135.774 10.6079 134.709 10.8702 133.851 11.4423C133.508 11.6709 133.188 11.9216 132.889 12.1945V10.8438Z"
          fill="#1134E3"/>
    <path fill-rule="evenodd" clip-rule="evenodd"
          d="M148.26 25.9529L148.265 25.9565L148.271 25.9599C149.415 26.6959 150.735 27.0545 152.209 27.0545C153.456 27.0545 154.558 26.8036 155.494 26.2732C155.931 26.0306 156.331 25.7487 156.693 25.4276V26.8185H160V4.94545H156.693V12.2413C156.331 11.9161 155.931 11.6319 155.494 11.3892C154.558 10.8588 153.456 10.6079 152.209 10.6079C150.732 10.6079 149.41 10.9776 148.265 11.7352C147.153 12.4645 146.288 13.4627 145.675 14.7162C145.061 15.9521 144.759 17.3281 144.759 18.8312C144.759 20.3167 145.062 21.6911 145.674 22.9436C146.286 24.1971 147.15 25.2042 148.26 25.9529ZM154.83 23.1566L154.827 23.1586L154.824 23.1607C154.224 23.5881 153.458 23.8202 152.493 23.8202C151.55 23.8202 150.768 23.5896 150.122 23.1527C149.457 22.7029 148.953 22.1105 148.603 21.3661C148.246 20.5881 148.066 19.7458 148.066 18.8312C148.066 17.894 148.247 17.0534 148.602 16.2991C148.952 15.5533 149.456 14.96 150.122 14.5097C150.768 14.0727 151.55 13.8421 152.493 13.8421C153.458 13.8421 154.224 14.0742 154.824 14.5016L154.827 14.5037L154.83 14.5057C155.476 14.9536 155.962 15.5441 156.294 16.2886C156.633 17.0453 156.806 17.8895 156.806 18.8312C156.806 19.7502 156.634 20.5961 156.293 21.3763C155.961 22.1195 155.475 22.7093 154.83 23.1566Z"
          fill="#1134E3"/>
    <path d="M48.3721 8.80019L50.7568 6.33823L57.9108 13.7241L65.0649 6.33824L67.4495 8.8002L59.6698 16.8321V27.0545H56.2973V16.9822L48.3721 8.80019Z"
          fill="#1134E3"/>
</svg>
