<svg preserveAspectRatio="xMidYMid meet" viewBox="0 0 280 220" fill="none" xmlns="http://www.w3.org/2000/svg">
    <path d="M285.179 170.771L205.921 219.408H41.4407L0 152.375L198.501 30.5654L285.179 170.771Z" fill="#E6E6E6"/>
    <path d="M230.97 36.9912C230.97 36.9912 219.466 42.1681 217.26 46.9468C215.053 51.7255 230.97 36.9912 230.97 36.9912Z"
          fill="#E6E6E6"/>
    <path d="M230.718 31.8208C230.718 31.8208 220.117 30.3969 216.901 32.8301C213.685 35.2633 230.718 31.8208 230.718 31.8208Z"
          fill="#E6E6E6"/>
    <path d="M233.753 29.3817C233.753 29.3817 228.421 12.6526 229.713 10.9967C231.005 9.34075 233.753 29.3817 233.753 29.3817Z"
          fill="#E6E6E6"/>
    <path d="M235.77 33.0609C235.77 33.0609 238.632 16.1514 241.63 16.1514C244.628 16.1514 235.77 33.0609 235.77 33.0609Z"
          fill="#E6E6E6"/>
    <path d="M237.45 33.229C237.45 33.229 247.29 25.1046 267.45 27.5846C287.611 30.0646 237.45 33.229 237.45 33.229Z"
          fill="#E6E6E6"/>
    <path d="M243.69 34.1815C243.69 34.1815 260.927 33.8809 261.895 36.2856C262.864 38.6902 243.69 34.1815 243.69 34.1815Z"
          fill="#E6E6E6"/>
    <path d="M240.33 36.6777C240.33 36.6777 250.741 42.9649 248.706 44.8994C246.672 46.8338 240.33 36.6777 240.33 36.6777Z"
          fill="#E6E6E6"/>
    <path d="M257.61 44.2046C257.61 44.2046 266.25 48.9083 264.33 52.0441C262.41 55.1799 257.61 44.2046 257.61 44.2046Z"
          fill="#E6E6E6"/>
    <path d="M241.528 40.4409C241.528 40.4409 259.528 66.1544 257.848 67.7223C256.168 69.2902 241.528 40.4409 241.528 40.4409Z"
          fill="#E6E6E6"/>
    <path d="M238.17 38.5596C238.17 38.5596 245.748 55.051 244.202 56.6543C242.655 58.2576 238.17 38.5596 238.17 38.5596Z"
          fill="#E6E6E6"/>
    <path d="M234.963 37.9326C234.963 37.9326 228.142 64.2287 232.328 63.9576C236.513 63.6865 234.963 37.9326 234.963 37.9326Z"
          fill="#E6E6E6"/>
    <path d="M232.607 39.2397C232.607 39.2397 221.158 56.3493 222.205 58.1514C223.253 59.9534 232.607 39.2397 232.607 39.2397Z"
          fill="#E6E6E6"/>
    <path d="M229.172 27.7194C229.172 27.7194 219.19 12.314 209.959 13.807C200.729 15.3 229.172 27.7194 229.172 27.7194Z"
          fill="#E6E6E6"/>
    <path d="M221.37 26.6433C221.37 26.6433 208.17 25.389 209.13 28.5247C210.09 31.6605 221.37 26.6433 221.37 26.6433Z"
          fill="#E6E6E6"/>
    <path d="M224.729 15.042C224.729 15.042 224.009 10.6519 222.809 11.5926C221.609 12.5333 224.729 15.042 224.729 15.042Z"
          fill="#E6E6E6"/>
    <path d="M236.889 18.1479C236.889 18.1479 240.183 0.0665093 238.69 0.000180718C237.197 -0.0661478 236.889 18.1479 236.889 18.1479Z"
          fill="#E6E6E6"/>
    <path d="M252.09 20.6865C252.09 20.6865 253.53 15.9828 254.97 17.2371C256.41 18.4914 252.09 20.6865 252.09 20.6865Z"
          fill="#E6E6E6"/>
    <path d="M238.411 62.3921C238.411 62.3921 236.491 80.8932 240.091 80.5797C243.691 80.2661 238.411 62.3921 238.411 62.3921Z"
          fill="#E6E6E6"/>
    <path d="M35.522 85.9771C35.522 85.9771 24.6311 89.5033 22.5424 92.7582C20.4538 96.0132 35.522 85.9771 35.522 85.9771Z"
          fill="#E6E6E6"/>
    <path d="M35.2845 82.4549C35.2845 82.4549 25.2481 81.485 22.2034 83.1424C19.1588 84.7997 35.2845 82.4549 35.2845 82.4549Z"
          fill="#E6E6E6"/>
    <path d="M38.1556 80.7946C38.1556 80.7946 33.1074 69.3997 34.3305 68.2718C35.5537 67.1439 38.1556 80.7946 38.1556 80.7946Z"
          fill="#E6E6E6"/>
    <path d="M40.0649 83.3005C40.0649 83.3005 42.7745 71.7827 45.6131 71.7827C48.4517 71.7827 40.0649 83.3005 40.0649 83.3005Z"
          fill="#E6E6E6"/>
    <path d="M41.6548 83.4139C41.6548 83.4139 50.9705 77.88 70.0562 79.5692C89.142 81.2585 41.6548 83.4139 41.6548 83.4139Z"
          fill="#E6E6E6"/>
    <path d="M47.5637 84.0639C47.5637 84.0639 63.8815 83.8591 64.7982 85.497C65.7149 87.135 47.5637 84.0639 47.5637 84.0639Z"
          fill="#E6E6E6"/>
    <path d="M44.3806 85.7637C44.3806 85.7637 54.2366 90.0461 52.3107 91.3637C50.3849 92.6814 44.3806 85.7637 44.3806 85.7637Z"
          fill="#E6E6E6"/>
    <path d="M60.7417 90.8896C60.7417 90.8896 68.9213 94.0935 67.1036 96.2294C65.2859 98.3653 60.7417 90.8896 60.7417 90.8896Z"
          fill="#E6E6E6"/>
    <path d="M45.5166 88.3271C45.5166 88.3271 62.5575 105.842 60.967 106.91C59.3765 107.978 45.5166 88.3271 45.5166 88.3271Z"
          fill="#E6E6E6"/>
    <path d="M42.3362 87.0459C42.3362 87.0459 49.5108 98.2789 48.0466 99.371C46.5824 100.463 42.3362 87.0459 42.3362 87.0459Z"
          fill="#E6E6E6"/>
    <path d="M39.3028 86.6191C39.3028 86.6191 32.8456 104.53 36.808 104.346C40.7704 104.161 39.3028 86.6191 39.3028 86.6191Z"
          fill="#E6E6E6"/>
    <path d="M37.0721 87.5088C37.0721 87.5088 26.2331 99.1628 27.225 100.39C28.217 101.618 37.0721 87.5088 37.0721 87.5088Z"
          fill="#E6E6E6"/>
    <path d="M33.8174 79.6614C33.8174 79.6614 24.3676 69.1682 15.6291 70.1851C6.89061 71.2021 33.8174 79.6614 33.8174 79.6614Z"
          fill="#E6E6E6"/>
    <path d="M26.4332 78.929C26.4332 78.929 13.9365 78.0746 14.8454 80.2106C15.7542 82.3465 26.4332 78.929 26.4332 78.929Z"
          fill="#E6E6E6"/>
    <path d="M29.6134 71.0264C29.6134 71.0264 28.9318 68.0362 27.7957 68.6769C26.6597 69.3177 29.6134 71.0264 29.6134 71.0264Z"
          fill="#E6E6E6"/>
    <path d="M41.1238 73.1411C41.1238 73.1411 44.2416 60.8251 42.8285 60.7799C41.4154 60.7347 41.1238 73.1411 41.1238 73.1411Z"
          fill="#E6E6E6"/>
    <path d="M55.5142 74.8703C55.5142 74.8703 56.8774 71.6665 58.2407 72.5208C59.604 73.3752 55.5142 74.8703 55.5142 74.8703Z"
          fill="#E6E6E6"/>
    <path d="M42.5633 103.278C42.5633 103.278 40.7456 115.88 44.1538 115.667C47.562 115.453 42.5633 103.278 42.5633 103.278Z"
          fill="#E6E6E6"/>
    <path d="M132.825 61.6299C132.825 61.6299 121.935 65.1561 119.846 68.4111C117.757 71.666 132.825 61.6299 132.825 61.6299Z"
          fill="#5B76BC"/>
    <path d="M132.588 58.1077C132.588 58.1077 122.552 57.1379 119.507 58.7952C116.463 60.4525 132.588 58.1077 132.588 58.1077Z"
          fill="#5B76BC"/>
    <path d="M135.462 56.446C135.462 56.446 130.414 45.0511 131.637 43.9232C132.86 42.7953 135.462 56.446 135.462 56.446Z"
          fill="#5B76BC"/>
    <path d="M137.368 58.9518C137.368 58.9518 140.078 47.4341 142.917 47.4341C145.755 47.4341 137.368 58.9518 137.368 58.9518Z"
          fill="#5B76BC"/>
    <path d="M138.962 59.0665C138.962 59.0665 156.247 50.4821 157.257 55.0391C158.268 59.5961 138.962 59.0665 138.962 59.0665Z"
          fill="#5B76BC"/>
    <path d="M144.868 59.7152C144.868 59.7152 161.185 59.5105 162.102 61.1484C163.019 62.7863 144.868 59.7152 144.868 59.7152Z"
          fill="#5B76BC"/>
    <path d="M141.688 61.4165C141.688 61.4165 151.544 65.6989 149.618 67.0166C147.692 68.3342 141.688 61.4165 141.688 61.4165Z"
          fill="#5B76BC"/>
    <path d="M158.046 66.5425C158.046 66.5425 166.226 69.7463 164.408 71.8823C162.59 74.0182 158.046 66.5425 158.046 66.5425Z"
          fill="#5B76BC"/>
    <path d="M142.823 63.98C142.823 63.98 159.864 81.4945 158.274 82.5624C156.683 83.6304 142.823 63.98 142.823 63.98Z"
          fill="#5B76BC"/>
    <path d="M139.643 62.6973C139.643 62.6973 146.818 73.9302 145.353 75.0223C143.889 76.1144 139.643 62.6973 139.643 62.6973Z"
          fill="#5B76BC"/>
    <path d="M136.607 62.2705C136.607 62.2705 131.506 73.21 135.469 73.0254C139.431 72.8407 136.607 62.2705 136.607 62.2705Z"
          fill="#5B76BC"/>
    <path d="M134.376 63.1611C134.376 63.1611 123.537 74.8152 124.529 76.0426C125.52 77.2701 134.376 63.1611 134.376 63.1611Z"
          fill="#5B76BC"/>
    <path d="M131.123 55.3135C131.123 55.3135 128.021 48.1305 119.283 49.1474C110.544 50.1644 131.123 55.3135 131.123 55.3135Z"
          fill="#5B76BC"/>
    <path d="M123.737 54.5819C123.737 54.5819 111.24 53.7275 112.149 55.8634C113.058 57.9993 123.737 54.5819 123.737 54.5819Z"
          fill="#5B76BC"/>
    <path d="M126.917 46.6778C126.917 46.6778 126.235 43.6875 125.099 44.3283C123.963 44.9691 126.917 46.6778 126.917 46.6778Z"
          fill="#5B76BC"/>
    <path d="M138.431 48.7939C138.431 48.7939 141.548 36.4779 140.135 36.4327C138.722 36.3876 138.431 48.7939 138.431 48.7939Z"
          fill="#5B76BC"/>
    <path d="M152.821 50.5232C152.821 50.5232 154.184 47.3193 155.548 48.1737C156.911 49.028 152.821 50.5232 152.821 50.5232Z"
          fill="#5B76BC"/>
    <path d="M139.87 78.9307C139.87 78.9307 138.053 91.5326 141.461 91.319C144.869 91.1054 139.87 78.9307 139.87 78.9307Z"
          fill="#5B76BC"/>
    <path d="M205.805 148.535H205.759L179.795 159.552L144.271 174.624C144.132 174.682 143.983 174.713 143.832 174.713C143.682 174.714 143.532 174.685 143.393 174.629L106.742 159.52L80.1398 148.553L80.0992 148.535H80.0539C79.6342 148.536 79.2317 148.702 78.9349 148.996C78.6381 149.291 78.4712 149.691 78.4707 150.108V218.427C78.4712 218.844 78.6381 219.244 78.9349 219.539C79.2317 219.834 79.6342 220 80.0539 220H205.805C206.224 220 206.627 219.834 206.924 219.539C207.22 219.244 207.387 218.844 207.388 218.427V150.108C207.387 149.691 207.22 149.291 206.924 148.996C206.627 148.702 206.224 148.536 205.805 148.535Z"
          fill="white"/>
    <path d="M205.761 148.535C205.715 148.535 205.67 148.521 205.633 148.495L143.35 105.738C143.161 105.608 142.935 105.539 142.705 105.539C142.474 105.54 142.249 105.61 142.06 105.74L80.2264 148.495C80.2022 148.512 80.1749 148.524 80.146 148.53C80.1171 148.536 80.0873 148.537 80.0581 148.532C80.029 148.527 80.0012 148.516 79.9762 148.501C79.9512 148.485 79.9297 148.465 79.9127 148.441C79.8957 148.417 79.8836 148.39 79.8772 148.361C79.8708 148.333 79.8701 148.303 79.8752 148.275C79.8803 148.246 79.8911 148.219 79.907 148.194C79.9229 148.169 79.9435 148.148 79.9677 148.131L141.802 105.376C142.066 105.194 142.381 105.096 142.704 105.096C143.027 105.095 143.342 105.192 143.608 105.373L205.89 148.131C205.929 148.158 205.959 148.197 205.974 148.241C205.99 148.286 205.99 148.335 205.976 148.38C205.962 148.425 205.933 148.464 205.894 148.492C205.856 148.52 205.809 148.535 205.761 148.535Z"
          fill="#202939"/>
    <path d="M84.0762 150.766L143.405 106.497L203.184 153.916L146.462 187.77L115.667 180.703L84.0762 150.766Z"
          fill="#E6E6E6"/>
    <path d="M117.729 207.389H88.2571C88.0761 207.389 87.8969 207.371 87.7296 207.336C87.5624 207.3 87.4104 207.249 87.2823 207.184C87.1543 207.119 87.0527 207.041 86.9834 206.956C86.9141 206.871 86.8784 206.78 86.8784 206.688C86.8784 206.596 86.9141 206.505 86.9834 206.42C87.0527 206.335 87.1543 206.257 87.2823 206.192C87.4104 206.127 87.5624 206.076 87.7296 206.04C87.8969 206.005 88.0761 205.987 88.2571 205.987H117.729C117.91 205.987 118.089 206.005 118.256 206.04C118.424 206.076 118.576 206.127 118.704 206.192C118.832 206.257 118.933 206.335 119.003 206.42C119.072 206.505 119.108 206.596 119.108 206.688C119.108 206.78 119.072 206.871 119.003 206.956C118.933 207.041 118.832 207.119 118.704 207.184C118.576 207.249 118.424 207.3 118.256 207.336C118.089 207.371 117.91 207.389 117.729 207.389Z"
          fill="#5B76BC"/>
    <path d="M99.442 201.784H88.3276C88.1374 201.784 87.949 201.748 87.7731 201.677C87.5973 201.607 87.4376 201.504 87.303 201.374C87.1684 201.244 87.0616 201.089 86.9888 200.919C86.9159 200.749 86.8784 200.566 86.8784 200.382C86.8784 200.198 86.9159 200.016 86.9888 199.846C87.0616 199.675 87.1684 199.521 87.303 199.391C87.4376 199.261 87.5973 199.157 87.7731 199.087C87.949 199.017 88.1374 198.981 88.3276 198.981H99.442C99.6322 198.981 99.8206 199.017 99.9964 199.087C100.172 199.157 100.332 199.261 100.467 199.391C100.601 199.521 100.708 199.675 100.781 199.846C100.854 200.016 100.891 200.198 100.891 200.382C100.891 200.566 100.854 200.749 100.781 200.919C100.708 201.089 100.601 201.244 100.467 201.374C100.332 201.504 100.172 201.607 99.9964 201.677C99.8206 201.748 99.6322 201.784 99.442 201.784Z"
          fill="#5B76BC"/>
    <path d="M143.483 175.16C143.261 175.16 143.042 175.117 142.837 175.032L106.496 159.841V112.287C106.497 111.867 106.663 111.464 106.958 111.166C107.253 110.869 107.653 110.702 108.071 110.701H177.788C178.206 110.702 178.606 110.869 178.901 111.166C179.196 111.464 179.362 111.867 179.363 112.287V159.874L179.294 159.903L144.147 175.025C143.937 175.114 143.711 175.16 143.483 175.16Z"
          fill="white"/>
    <path d="M143.481 175.16C143.246 175.16 143.013 175.114 142.795 175.025L106.496 159.857V112.395C106.497 111.946 106.674 111.515 106.989 111.198C107.305 110.88 107.732 110.702 108.178 110.701H177.681C178.127 110.702 178.554 110.88 178.87 111.198C179.185 111.515 179.362 111.946 179.363 112.395V159.889L144.188 175.016C143.964 175.111 143.724 175.16 143.481 175.16ZM106.945 159.555L142.966 174.607C143.302 174.744 143.678 174.742 144.013 174.601L178.914 159.591V112.395C178.914 112.065 178.784 111.75 178.553 111.517C178.321 111.284 178.008 111.153 177.681 111.153H108.178C107.851 111.153 107.538 111.284 107.306 111.517C107.075 111.75 106.945 112.065 106.945 112.395V159.555Z"
          fill="#202939"/>
    <path d="M205.805 148.535H205.759L179.795 159.552L144.271 174.624C144.132 174.682 143.983 174.713 143.832 174.713C143.682 174.714 143.532 174.685 143.393 174.629L106.742 159.52L80.1398 148.553L80.0992 148.535H80.0539C79.6342 148.536 79.2317 148.702 78.9349 148.996C78.6381 149.291 78.4712 149.691 78.4707 150.108V218.427C78.4712 218.844 78.6381 219.244 78.9349 219.539C79.2317 219.834 79.6342 220 80.0539 220H205.805C206.224 220 206.627 219.834 206.924 219.539C207.22 219.244 207.387 218.844 207.388 218.427V150.108C207.387 149.691 207.22 149.291 206.924 148.996C206.627 148.702 206.224 148.536 205.805 148.535ZM206.936 218.427C206.935 218.725 206.816 219.011 206.604 219.221C206.392 219.432 206.105 219.551 205.805 219.551H80.0539C79.754 219.551 79.4664 219.432 79.2544 219.221C79.0423 219.011 78.9232 218.725 78.923 218.427V150.108C78.9235 149.818 79.0369 149.539 79.2396 149.329C79.4424 149.12 79.7187 148.996 80.0109 148.985L106.742 160.006L143.219 175.045C143.614 175.204 144.056 175.202 144.449 175.038L179.795 160.039L205.85 148.985C206.142 148.997 206.417 149.121 206.619 149.33C206.822 149.539 206.935 149.818 206.936 150.108V218.427Z"
          fill="#202939"/>
    <path d="M138.347 128.917H113.88C113.409 128.917 112.956 128.696 112.622 128.302C112.289 127.907 112.101 127.373 112.101 126.815C112.101 126.258 112.289 125.723 112.622 125.329C112.956 124.935 113.409 124.713 113.88 124.713H138.347C138.819 124.713 139.272 124.935 139.605 125.329C139.939 125.723 140.127 126.258 140.127 126.815C140.127 127.373 139.939 127.907 139.605 128.302C139.272 128.696 138.819 128.917 138.347 128.917Z"
          fill="#5B76BC"/>
    <path d="M125.728 120.51H113.888C113.414 120.51 112.96 120.362 112.625 120.099C112.289 119.836 112.101 119.48 112.101 119.108C112.101 118.737 112.289 118.38 112.625 118.117C112.96 117.855 113.414 117.707 113.888 117.707H125.728C126.202 117.707 126.656 117.855 126.992 118.117C127.327 118.38 127.515 118.737 127.515 119.108C127.515 119.48 127.327 119.836 126.992 120.099C126.656 120.362 126.202 120.51 125.728 120.51Z"
          fill="#5B76BC"/>
    <path d="M162.121 147.134H123.738C123.253 147.134 122.788 146.913 122.445 146.518C122.103 146.124 121.91 145.59 121.91 145.032C121.91 144.475 122.103 143.94 122.445 143.546C122.788 143.152 123.253 142.93 123.738 142.93H162.121C162.605 142.93 163.07 143.152 163.413 143.546C163.756 143.94 163.948 144.475 163.948 145.032C163.948 145.59 163.756 146.124 163.413 146.518C163.07 146.913 162.605 147.134 162.121 147.134Z"
          fill="#CCCCCC"/>
    <path d="M162.121 155.541H123.738C123.253 155.541 122.788 155.32 122.445 154.926C122.103 154.531 121.91 153.997 121.91 153.439C121.91 152.882 122.103 152.347 122.445 151.953C122.788 151.559 123.253 151.337 123.738 151.337H162.121C162.605 151.337 163.07 151.559 163.413 151.953C163.756 152.347 163.948 152.882 163.948 153.439C163.948 153.997 163.756 154.531 163.413 154.926C163.07 155.32 162.605 155.541 162.121 155.541Z"
          fill="#CCCCCC"/>

</svg>
