<svg preserveAspectRatio="xMidYMid meet" viewBox="0 0 244 245" fill="none" xmlns="http://www.w3.org/2000/svg">
    <g id="undraw_browsing_re_eycn 1" clip-path="url(#clip0_8580_18063)">
        <path id="Path 1"
              d="M242.853 14.8137L0.211183 43.9742C0.182999 43.9776 0.154416 43.9728 0.128925 43.9603C0.102404 43.947 0.0794066 43.9275 0.0617958 43.9036C0.0414457 43.8764 0.0260767 43.8458 0.0163996 43.8133C0.0052583 43.7759 -0.000266702 43.737 9.89265e-06 43.698C1.83494e-05 43.6577 0.00563536 43.6175 0.0167088 43.5787C0.0270802 43.5428 0.0426888 43.5086 0.0630328 43.4773C0.0807434 43.4491 0.1035 43.4245 0.130162 43.4045C0.154249 43.3865 0.18257 43.3749 0.21242 43.3709L242.853 13.808C242.929 13.7982 243.007 13.8021 243.082 13.8196C243.149 13.8353 243.212 13.8642 243.268 13.9046C243.321 13.9426 243.364 13.992 243.395 14.0492C243.425 14.1075 243.441 14.1723 243.441 14.2381C243.44 14.3078 243.425 14.3766 243.395 14.4396C243.363 14.5051 243.321 14.5644 243.268 14.6147C243.214 14.6679 243.15 14.7119 243.082 14.745C243.01 14.7804 242.933 14.8036 242.853 14.8137Z"
              fill="#CACACA"/>
        <path id="Path 1_2"
              d="M243.29 244.997L0.155606 220.269C0.12735 220.266 0.100522 220.255 0.0783957 220.237C0.0554531 220.218 0.0372873 220.194 0.025355 220.167C0.0114769 220.136 0.00319833 220.103 0.00091276 220.069C-0.00174234 220.03 0.00140354 219.991 0.0102394 219.953C0.0191094 219.914 0.0334157 219.876 0.0527412 219.84C0.070738 219.807 0.0934614 219.778 0.120192 219.751C0.143656 219.728 0.171271 219.709 0.201658 219.695C0.229125 219.683 0.259314 219.678 0.289321 219.68L243.511 244.015C243.587 244.023 243.662 244.043 243.731 244.077C243.794 244.107 243.849 244.149 243.895 244.201C243.938 244.249 243.969 244.307 243.986 244.369C244.003 244.433 244.005 244.5 243.99 244.564C243.974 244.632 243.944 244.695 243.9 244.75C243.856 244.807 243.801 244.856 243.739 244.893C243.674 244.933 243.603 244.963 243.528 244.98C243.45 244.998 243.37 245.004 243.29 244.997Z"
              fill="#CACACA"/>
        <path id="Ellipse 1"
              d="M5.02938 32.3895C5.34537 32.3407 5.66872 32.3845 5.96035 32.5154C6.26032 32.6542 6.52237 32.8632 6.7243 33.1247C6.95616 33.4234 7.13134 33.7621 7.24116 34.1238C7.3696 34.542 7.43336 34.9774 7.43025 35.4148C7.43064 35.8693 7.36698 36.3216 7.24116 36.7584C7.12585 37.1632 6.9517 37.549 6.7243 37.9033C6.52195 38.2225 6.26307 38.5021 5.96035 38.7286C5.68722 38.9329 5.36711 39.0654 5.02938 39.114C4.71345 39.157 4.39182 39.1079 4.10314 38.9726C3.80674 38.8293 3.54867 38.6177 3.35023 38.3551C3.12317 38.0569 2.95172 37.7203 2.84408 37.3614C2.71861 36.948 2.65615 36.5181 2.65877 36.0861C2.6587 35.6373 2.72107 35.1906 2.84408 34.7589C2.95693 34.3575 3.1273 33.9746 3.34992 33.6219C3.54926 33.3025 3.80439 33.0215 4.10315 32.7922C4.37371 32.5833 4.692 32.4449 5.02938 32.3895Z"
              fill="#202939"/>
        <path id="Ellipse 2"
              d="M13.4605 31.1262C13.7906 31.0752 14.1284 31.1189 14.4347 31.2521C14.7474 31.3914 15.0219 31.6038 15.2352 31.8715C15.4772 32.1751 15.6606 32.5211 15.776 32.8917C15.9103 33.3188 15.9769 33.7643 15.9736 34.2119C15.9737 34.6774 15.9068 35.1405 15.775 35.587C15.6541 36.002 15.4721 36.3967 15.2352 36.7584C15.0223 37.0866 14.7515 37.3734 14.4359 37.6047C14.149 37.8159 13.8144 37.953 13.4618 38.004C13.1318 38.049 12.7958 37.9997 12.4927 37.862C12.1839 37.7173 11.9138 37.5015 11.7048 37.2322C11.4675 36.9292 11.2878 36.5854 11.1744 36.2177C11.0432 35.7957 10.9778 35.356 10.9806 34.9141C10.9806 34.4547 11.0458 33.9975 11.1744 33.5564C11.2928 33.1443 11.4711 32.7518 11.7035 32.3913C11.9132 32.0632 12.1801 31.7752 12.4914 31.5411C12.7758 31.3261 13.1085 31.1836 13.4605 31.1262Z"
              fill="#202939"/>
        <path id="Ellipse 3"
              d="M22.2859 29.8008C22.6311 29.7471 22.9843 29.7901 23.3064 29.9252C23.6322 30.0662 23.9194 30.2832 24.1438 30.5581C24.3969 30.8668 24.5894 31.2205 24.7111 31.6006C24.852 32.0365 24.9223 32.4921 24.9194 32.9502C24.9193 33.4272 24.8491 33.9017 24.7111 34.3583C24.5834 34.7852 24.3922 35.1905 24.1438 35.5605C23.9196 35.8985 23.6359 36.1929 23.3064 36.4296C23.0045 36.647 22.6543 36.7881 22.2859 36.8408C21.9409 36.8881 21.5896 36.8389 21.2708 36.6988C20.9488 36.5531 20.666 36.3333 20.4454 36.0574C20.1982 35.7488 20.0106 35.397 19.892 35.0199C19.7549 34.5894 19.6864 34.14 19.689 33.6883C19.689 33.217 19.7573 32.7482 19.892 32.2965C20.0164 31.8736 20.2029 31.4714 20.4454 31.1031C20.6662 30.7648 20.9459 30.4688 21.2711 30.229C21.5703 30.0074 21.9183 29.8605 22.2859 29.8008Z"
              fill="#202939"/>
        <path id="Path 2"
              d="M229.776 1.98256L214.981 4.11962C214.843 4.14058 214.702 4.13534 214.566 4.10419C214.443 4.07586 214.327 4.02224 214.227 3.94676C214.131 3.87499 214.053 3.78211 213.998 3.67533C213.943 3.5638 213.914 3.44073 213.915 3.31606C213.915 3.18327 213.944 3.05213 213.998 2.93096C214.054 2.80586 214.131 2.69143 214.227 2.59278C214.325 2.49001 214.44 2.40379 214.566 2.33742C214.696 2.26869 214.836 2.22247 214.981 2.20076L229.776 0.0142565C229.922 -0.00832055 230.07 -0.00405284 230.214 0.0268498C230.343 0.0542582 230.465 0.107844 230.572 0.184286C230.675 0.258028 230.759 0.355606 230.816 0.468706C230.874 0.581806 230.903 0.707084 230.902 0.833883C230.901 0.970919 230.87 1.10617 230.813 1.23062C230.754 1.36023 230.672 1.47843 230.572 1.57982C230.357 1.79704 230.078 1.93872 229.776 1.98349L229.776 1.98256Z"
              fill="#202939"/>
        <path id="Path 3"
              d="M229.776 5.67279L214.981 7.71948C214.842 7.73959 214.701 7.7335 214.565 7.70153C214.443 7.67302 214.327 7.61942 214.226 7.5441C214.13 7.47177 214.052 7.37849 213.998 7.2714C213.942 7.1584 213.913 7.03366 213.914 6.90741C213.915 6.77483 213.944 6.64388 213.998 6.52294C214.054 6.3983 214.131 6.28438 214.226 6.18634C214.325 6.08465 214.439 5.99959 214.565 5.93445C214.695 5.86649 214.836 5.82113 214.981 5.80031L229.776 3.70449C229.921 3.68286 230.07 3.68809 230.213 3.71992C230.342 3.74846 230.464 3.80311 230.571 3.88051C230.673 3.95373 230.755 4.04932 230.813 4.1598C230.872 4.27466 230.902 4.40202 230.901 4.53105C230.9 4.66788 230.87 4.80294 230.813 4.92716C230.753 5.05592 230.671 5.17317 230.571 5.27352C230.356 5.4896 230.077 5.62959 229.775 5.67216L229.776 5.67279Z"
              fill="#202939"/>
        <path id="Path 4"
              d="M229.776 9.36271L214.981 11.3149C214.843 11.3342 214.702 11.3273 214.566 11.2945C214.443 11.2648 214.327 11.2102 214.227 11.1339C214.129 11.0597 214.049 10.9636 213.995 10.8534C213.941 10.7432 213.914 10.6219 213.915 10.4991C213.915 10.3666 213.944 10.2358 213.998 10.1149C214.054 9.99063 214.131 9.87711 214.227 9.77961C214.325 9.67776 214.44 9.59268 214.566 9.52772C214.696 9.46049 214.836 9.41597 214.981 9.3961L229.776 7.39477C229.922 7.37409 230.07 7.38027 230.214 7.41303C230.343 7.44242 230.465 7.49782 230.572 7.57583C230.673 7.64968 230.756 7.74579 230.814 7.85669C230.872 7.97169 230.903 8.09914 230.902 8.22825C230.901 8.36489 230.87 8.49975 230.813 8.62373C230.754 8.75259 230.672 8.86988 230.571 8.9701C230.356 9.1849 230.077 9.32319 229.776 9.3637L229.776 9.36271Z"
              fill="#202939"/>
        <path id="Rectangle 1" d="M159.436 43.4372L230.902 37.3896V79.9516L159.436 80.8833V43.4372Z" fill="#F0F0F0"/>
        <path id="Path 5"
              d="M215.126 99.1919L172.684 98.3493C172.193 98.3405 171.726 98.1435 171.377 97.7992C171.21 97.6342 171.076 97.4387 170.982 97.2233C170.887 97.0026 170.837 96.7647 170.837 96.5243C170.837 96.2858 170.886 96.05 170.982 95.8315C171.075 95.6192 171.209 95.4274 171.377 95.2673C171.546 95.1053 171.746 94.9777 171.963 94.8913C172.193 94.8008 172.437 94.7562 172.684 94.76L215.126 95.3186C215.414 95.3219 215.699 95.3773 215.967 95.482C216.22 95.5808 216.454 95.7249 216.655 95.9074C216.85 96.0825 217.008 96.2943 217.12 96.5305C217.233 96.7679 217.291 97.0272 217.291 97.2897C217.291 97.5505 217.233 97.808 217.12 98.0432C217.008 98.2757 216.85 98.4829 216.655 98.6522C216.453 98.8283 216.219 98.9649 215.967 99.0549C215.697 99.1511 215.412 99.1971 215.126 99.1906L215.126 99.1919Z"
              fill="#E4E4E4"/>
        <path id="Path 6"
              d="M207.835 92.5006L179.101 92.2594C178.848 92.2577 178.598 92.2072 178.364 92.1108C178.141 92.0187 177.937 91.8852 177.763 91.7175C177.592 91.5527 177.455 91.3563 177.359 91.1391C177.261 90.917 177.21 90.677 177.21 90.4344C177.21 90.1918 177.261 89.9518 177.359 89.7297C177.454 89.5136 177.592 89.3185 177.763 89.1553C177.937 88.9894 178.141 88.858 178.364 88.7683C178.598 88.6741 178.849 88.6261 179.101 88.627L207.835 88.6761C208.115 88.676 208.393 88.7275 208.654 88.8279C208.901 88.9227 209.129 89.0624 209.325 89.24C209.516 89.4119 209.67 89.6198 209.779 89.8518C209.889 90.0856 209.946 90.3406 209.946 90.5987C209.946 90.8569 209.889 91.1119 209.779 91.3456C209.67 91.5761 209.516 91.7823 209.326 91.9521C209.129 92.1279 208.901 92.2654 208.654 92.3576C208.392 92.4555 208.115 92.5041 207.835 92.5012L207.835 92.5006Z"
              fill="#E4E4E4"/>
        <path id="Rectangle 2" d="M159.436 111.531L230.902 114.787V157.349L159.436 148.977V111.531Z" fill="#F0F0F0"/>
        <path id="Path 7"
              d="M215.126 174.535L172.684 168.167C172.43 168.128 172.187 168.044 171.963 167.918C171.743 167.794 171.545 167.635 171.377 167.446C171.211 167.261 171.077 167.049 170.982 166.819C170.888 166.592 170.839 166.348 170.837 166.102C170.836 165.869 170.885 165.638 170.982 165.427C171.074 165.229 171.209 165.054 171.377 164.915C171.549 164.774 171.749 164.672 171.963 164.615C172.199 164.554 172.443 164.541 172.684 164.578L215.126 170.661C215.42 170.704 215.704 170.796 215.967 170.934C216.222 171.068 216.455 171.241 216.655 171.449C216.849 171.648 217.007 171.88 217.121 172.134C217.231 172.38 217.29 172.646 217.291 172.915C217.293 173.169 217.235 173.42 217.121 173.647C217.01 173.863 216.851 174.051 216.655 174.195C216.45 174.346 216.216 174.453 215.967 174.508C215.691 174.57 215.405 174.578 215.126 174.534L215.126 174.535Z"
              fill="#E4E4E4"/>
        <path id="Path 8"
              d="M207.835 166.895L179.101 162.914C178.843 162.877 178.593 162.794 178.364 162.669C178.139 162.546 177.936 162.386 177.763 162.197C177.593 162.011 177.457 161.798 177.359 161.567C177.262 161.337 177.212 161.091 177.21 160.842C177.209 160.606 177.259 160.372 177.359 160.157C177.453 159.956 177.591 159.777 177.763 159.636C177.939 159.491 178.144 159.386 178.364 159.327C178.604 159.263 178.855 159.247 179.101 159.281L207.835 163.071C208.121 163.109 208.398 163.196 208.654 163.329C208.904 163.458 209.13 163.627 209.325 163.829C209.515 164.024 209.668 164.251 209.779 164.499C209.887 164.741 209.944 165.003 209.945 165.268C209.947 165.519 209.89 165.767 209.779 165.992C209.671 166.207 209.516 166.394 209.325 166.54C209.126 166.691 208.898 166.8 208.654 166.858C208.386 166.922 208.108 166.935 207.835 166.895V166.895Z"
              fill="#E4E4E4"/>
        <path id="Path 9"
              d="M117.92 149.299L5.55661 134.925C5.25078 134.882 4.96085 134.762 4.71356 134.577C4.44171 134.375 4.20928 134.124 4.02778 133.838C3.8247 133.521 3.66935 133.176 3.5667 132.814C3.45438 132.423 3.39742 132.018 3.39746 131.611V60.7142C3.39699 60.3093 3.45397 59.9065 3.5667 59.5176C3.66871 59.1626 3.82418 58.825 4.02778 58.5167C4.20882 58.239 4.44151 57.9986 4.71324 57.8085C4.96268 57.6341 5.25318 57.5274 5.55629 57.499L117.92 48.3071C118.401 48.2657 118.885 48.3303 119.339 48.4962C119.793 48.6621 120.204 48.9254 120.545 49.2674C120.891 49.6136 121.164 50.0257 121.347 50.4794C121.544 50.9689 121.645 51.492 121.643 52.0198V145.756C121.646 146.28 121.545 146.798 121.347 147.283C121.165 147.726 120.892 148.127 120.545 148.458C120.208 148.779 119.804 149.021 119.362 149.166C118.897 149.317 118.404 149.363 117.92 149.299Z"
              fill="white"/>
        <path id="Path 10"
              d="M73.4914 97.0195C73.19 96.628 72.8502 96.2675 72.4772 95.9432C72.1224 95.6348 71.7359 95.3648 71.3241 95.1378C70.927 94.919 70.5065 94.7459 70.0704 94.6217C69.6416 94.4999 69.1998 94.4298 68.7543 94.4129C68.3138 94.3966 67.8729 94.4337 67.4414 94.5235C67.0114 94.6133 66.5934 94.7533 66.1962 94.9407C65.7903 95.1323 65.4071 95.3685 65.0537 95.6451C64.6856 95.9332 64.3487 96.2592 64.0487 96.6177L33.8147 132.717C33.4655 133.145 33.0181 133.482 32.5106 133.701C32.0456 133.895 31.5384 133.966 31.0378 133.907C30.5149 133.842 30.0143 133.657 29.5752 133.365C29.0715 133.031 28.6373 132.602 28.2963 132.103L24.2913 126.351C23.8306 125.669 23.2398 125.084 22.5529 124.631C21.9657 124.244 21.2943 124.004 20.5951 123.931C19.9312 123.867 19.2623 123.98 18.6562 124.258C17.9926 124.571 17.4137 125.039 16.9679 125.621L9.72217 134.8L111.012 147.577V145.782L73.4914 97.0195Z"
              fill="#5B76BC"/>
        <path id="Path 11"
              d="M117.919 150.653L5.55657 135.965C5.14681 135.906 4.75862 135.744 4.42767 135.496C4.06399 135.223 3.75318 134.887 3.51057 134.503C3.2393 134.079 3.03182 133.617 2.89475 133.133C2.74474 132.609 2.66857 132.068 2.66846 131.523V60.7673C2.66808 60.2264 2.74426 59.688 2.89475 59.1684C3.03079 58.6924 3.23843 58.2398 3.51057 57.8261C3.75268 57.4538 4.06387 57.1314 4.42735 56.8761C4.76115 56.6416 5.15011 56.4976 5.55624 56.4582L117.919 46.9489C118.565 46.8917 119.215 46.9768 119.824 47.1981C120.434 47.4194 120.987 47.7716 121.445 48.2298C121.911 48.6938 122.278 49.2468 122.524 49.8559C122.79 50.5134 122.925 51.2162 122.923 51.9253V145.909C122.927 146.612 122.791 147.309 122.524 147.96C122.279 148.555 121.912 149.092 121.445 149.536C120.991 149.966 120.448 150.29 119.853 150.483C119.229 150.684 118.568 150.742 117.919 150.654L117.919 150.653ZM5.55657 58.5389C5.35658 58.5572 5.16478 58.627 5 58.7417C4.82039 58.8668 4.66653 59.0252 4.5468 59.2084C4.41207 59.412 4.3092 59.635 4.24173 59.8696C4.1671 60.1263 4.12931 60.3923 4.12953 60.6596V131.696C4.12957 131.965 4.16735 132.233 4.24173 132.491C4.30963 132.73 4.41242 132.958 4.5468 133.167C4.66669 133.357 4.82054 133.523 5.00063 133.657C5.164 133.778 5.35542 133.857 5.5572 133.885L117.92 147.94C118.239 147.982 118.564 147.951 118.87 147.851C119.161 147.754 119.427 147.594 119.649 147.383C119.877 147.164 120.056 146.9 120.176 146.608C120.306 146.289 120.372 145.948 120.37 145.603V52.1132C120.371 51.766 120.305 51.4219 120.176 51.0997C120.056 50.8008 119.876 50.5291 119.649 50.3008C119.425 50.0749 119.154 49.9008 118.855 49.7907C118.556 49.6806 118.237 49.6372 117.92 49.6635L5.55657 58.5389Z"
              fill="#CBCBCB"/>
        <path id="Vector" d="M21.3163 224.431L24.6947 224.43L26.3018 211.411L21.3159 211.412L21.3163 224.431Z"
              fill="#FFB6B6"/>
        <path id="Vector_2"
              d="M20.4546 223.328L27.1078 223.328C28.2323 223.328 29.311 223.775 30.1061 224.569C30.9012 225.363 31.348 226.441 31.3481 227.564V227.702L20.4548 227.702L20.4546 223.328Z"
              fill="#202939"/>
        <path id="Vector_3" d="M52.455 228.885L55.8334 228.884L57.4405 215.865L52.4546 215.866L52.455 228.885Z"
              fill="#FFB6B6"/>
        <path id="Vector_4"
              d="M51.5933 227.783L58.2465 227.783C59.371 227.783 60.4496 228.23 61.2448 229.024C62.0399 229.818 62.4866 230.896 62.4867 232.019V232.157L51.5935 232.157L51.5933 227.783Z"
              fill="#202939"/>
        <path id="Vector_5" d="M48.3758 124.292L50.5804 138.333L29.6372 138.609L32.393 125.118L48.3758 124.292Z"
              fill="#FFB6B6"/>
        <path id="Vector_6"
              d="M49.9727 134.904L56.6429 152.649L57.4696 226.188H51.8205L38.3179 167.104L25.9175 220.191H20.4062L24.2641 159.945C24.2641 159.945 23.1265 146.959 28.9487 139.296L30.3659 135.206L49.9727 134.904Z"
              fill="#202939"/>
        <path id="Vector_7"
              d="M21.3614 148.738C21.9445 148.579 22.4857 148.295 22.9468 147.904C23.408 147.514 23.7778 147.027 24.0304 146.479C24.2829 145.93 24.412 145.333 24.4085 144.729C24.405 144.125 24.269 143.53 24.0102 142.984L32.9196 113.963L26.3664 112.665L18.2178 141.112C17.3291 141.607 16.6531 142.411 16.3179 143.371C15.9827 144.33 16.0116 145.38 16.3991 146.32C16.7866 147.26 17.5058 148.025 18.4203 148.471C19.3349 148.917 20.3814 149.012 21.3614 148.738Z"
              fill="#FFB6B6"/>
        <path id="Vector_8"
              d="M33.1115 132.046C32.9893 132.046 32.8673 132.034 32.7474 132.011C32.3441 131.93 31.9784 131.72 31.706 131.412C31.4336 131.104 31.2695 130.716 31.2389 130.306C31.0317 127.472 30.0053 122.539 28.188 115.645C27.5746 113.301 27.7105 110.825 28.5766 108.563C29.4428 106.3 30.9958 104.365 33.0179 103.029C35.0401 101.693 37.43 101.023 39.8527 101.112C42.2753 101.202 44.6093 102.046 46.5273 103.528C47.7554 104.468 48.7804 105.646 49.5406 106.992C50.3008 108.338 50.7803 109.824 50.9505 111.361C51.8537 119.307 50.151 127.286 49.377 130.347C49.2753 130.747 49.0453 131.102 48.7222 131.359C48.3991 131.615 48.0007 131.759 47.5881 131.768L33.1517 132.046C33.1382 132.046 33.1249 132.046 33.1115 132.046Z"
              fill="#202939"/>
        <path id="Vector_9"
              d="M73.4444 106.554C73.3577 106.749 73.2864 106.95 73.2313 107.155L55.161 113.29L51.6693 110.242L46.377 114.906L52.0336 120.902C52.4905 121.386 53.0925 121.709 53.7489 121.823C54.4054 121.936 55.081 121.834 55.6743 121.531L75.0106 111.663C75.7099 112.091 76.5232 112.297 77.3423 112.253C78.1614 112.208 78.9476 111.916 79.5961 111.414C80.2448 110.912 80.7251 110.225 80.9732 109.443C81.2214 108.662 81.2256 107.824 80.9853 107.04C80.7451 106.257 80.2717 105.565 79.6282 105.056C78.9847 104.548 78.2015 104.248 77.3829 104.195C76.5642 104.142 75.7489 104.34 75.0454 104.761C74.3419 105.183 73.7834 105.808 73.4444 106.554Z"
              fill="#FFB6B6"/>
        <path id="Vector_10"
              d="M54.5312 113.626L47.9438 119.374C47.7563 119.538 47.5358 119.659 47.2973 119.73C47.0587 119.801 46.8077 119.819 46.5613 119.784C46.3149 119.749 46.0789 119.662 45.8695 119.527C45.66 119.393 45.482 119.215 45.3475 119.006L40.6357 111.676C39.8037 110.713 39.3878 109.46 39.4792 108.191C39.5706 106.922 40.1617 105.741 41.1231 104.907C42.0844 104.073 43.3375 103.654 44.6076 103.742C45.8778 103.83 47.0613 104.417 47.8987 105.375L54.5153 111.006C54.7047 111.167 54.8571 111.367 54.9621 111.593C55.0671 111.818 55.1222 112.064 55.1237 112.312C55.1252 112.561 55.073 112.807 54.9708 113.034C54.8685 113.26 54.7186 113.462 54.5312 113.626Z"
              fill="#202939"/>
        <path id="Vector_11"
              d="M31.8788 121.393L23.7382 118.198C23.5065 118.107 23.2972 117.967 23.1245 117.788C22.9518 117.609 22.8198 117.395 22.7374 117.161C22.6549 116.926 22.6241 116.677 22.647 116.429C22.6698 116.181 22.7458 115.942 22.8697 115.726L27.2131 108.172C27.6855 106.99 28.6074 106.045 29.7767 105.541C30.946 105.038 32.2672 105.019 33.4509 105.487C34.6345 105.956 35.5838 106.874 36.0908 108.041C36.5978 109.208 36.621 110.528 36.1554 111.712L34.1992 120.173C34.1431 120.415 34.0354 120.642 33.8835 120.839C33.7315 121.036 33.5389 121.198 33.3187 121.314C33.0985 121.43 32.8559 121.497 32.6074 121.511C32.3589 121.524 32.1104 121.484 31.8788 121.393Z"
              fill="#202939"/>
        <path id="Vector_12"
              d="M37.9131 99.3241C42.8036 99.3241 46.7681 95.3631 46.7681 90.477C46.7681 85.5909 42.8036 81.6299 37.9131 81.6299C33.0226 81.6299 29.0581 85.5909 29.0581 90.477C29.0581 95.3631 33.0226 99.3241 37.9131 99.3241Z"
              fill="#FFB6B6"/>
        <path id="Vector_13"
              d="M49.7677 87.4941H35.707V81.3706C38.7932 80.1456 41.8132 79.1038 43.6387 81.3706C45.2642 81.3706 46.8232 82.0157 47.9726 83.1641C49.122 84.3125 49.7677 85.8701 49.7677 87.4941Z"
              fill="#202939"/>
        <path id="Vector_14"
              d="M34.8963 99.6428C40.4927 99.6428 45.0295 95.1101 45.0295 89.5187C45.0295 83.9273 40.4927 79.3945 34.8963 79.3945C29.2999 79.3945 24.7632 83.9273 24.7632 89.5187C24.7632 95.1101 29.2999 99.6428 34.8963 99.6428Z"
              fill="#202939"/>
        <path id="Vector_15"
              d="M27.6004 88.3046C31.1821 88.3046 34.0857 85.4037 34.0857 81.8252C34.0857 78.2467 31.1821 75.3457 27.6004 75.3457C24.0188 75.3457 21.1152 78.2467 21.1152 81.8252C21.1152 85.4037 24.0188 88.3046 27.6004 88.3046Z"
              fill="#202939"/>
    </g>
    <defs>
        <clipPath id="clip0_8580_18063">
            <rect width="244" height="245" fill="white"/>
        </clipPath>
    </defs>
</svg>
