<svg viewBox="0 0 20 20" fill="none" xmlns="http://www.w3.org/2000/svg">
    <path d="M8.64531 11.5281C8.58826 11.4424 8.51091 11.3721 8.42013 11.3235C8.32936 11.2748 8.22798 11.2494 8.125 11.2494C8.02202 11.2494 7.92064 11.2748 7.82986 11.3235C7.73909 11.3721 7.66174 11.4424 7.60469 11.5281L5.97578 13.9727L5.21328 12.7867C5.15669 12.6987 5.07889 12.6262 4.98703 12.5761C4.89516 12.5259 4.79217 12.4996 4.6875 12.4996C4.58283 12.4996 4.47984 12.5259 4.38797 12.5761C4.2961 12.6262 4.21831 12.6987 4.16172 12.7867L1.34922 17.1617C1.28844 17.2561 1.25422 17.3652 1.25016 17.4774C1.24611 17.5896 1.27236 17.7009 1.32616 17.7994C1.37996 17.898 1.45932 17.9803 1.5559 18.0375C1.65248 18.0948 1.76271 18.125 1.875 18.125H11.875C11.9882 18.1251 12.0993 18.0944 12.1964 18.0363C12.2935 17.9782 12.373 17.8948 12.4264 17.795C12.4798 17.6952 12.5051 17.5828 12.4997 17.4698C12.4942 17.3567 12.4581 17.2473 12.3953 17.1531L8.64531 11.5281ZM3.01953 16.875L4.6875 14.2805L5.43984 15.4523C5.49595 15.5397 5.57295 15.6117 5.66386 15.6618C5.75477 15.712 5.85674 15.7387 5.96057 15.7395C6.06439 15.7404 6.16678 15.7154 6.25851 15.6667C6.35023 15.6181 6.4284 15.5474 6.48594 15.4609L8.12656 13.0023L10.707 16.875H3.01953ZM16.6914 6.43281L12.3164 2.05781C12.1993 1.94082 12.0405 1.87508 11.875 1.875H4.375C4.04348 1.875 3.72554 2.0067 3.49112 2.24112C3.25669 2.47554 3.125 2.79348 3.125 3.125V10.625C3.125 10.7908 3.19085 10.9497 3.30806 11.0669C3.42527 11.1842 3.58424 11.25 3.75 11.25C3.91576 11.25 4.07473 11.1842 4.19194 11.0669C4.30915 10.9497 4.375 10.7908 4.375 10.625V3.125H11.25V6.875C11.25 7.04076 11.3158 7.19973 11.4331 7.31694C11.5503 7.43415 11.7092 7.5 11.875 7.5H15.625V16.875H15C14.8342 16.875 14.6753 16.9408 14.5581 17.0581C14.4408 17.1753 14.375 17.3342 14.375 17.5C14.375 17.6658 14.4408 17.8247 14.5581 17.9419C14.6753 18.0592 14.8342 18.125 15 18.125H15.625C15.9565 18.125 16.2745 17.9933 16.5089 17.7589C16.7433 17.5245 16.875 17.2065 16.875 16.875V6.875C16.8751 6.7929 16.859 6.71159 16.8276 6.63572C16.7962 6.55985 16.7502 6.4909 16.6922 6.43281H16.6914ZM12.5 4.00859L14.7414 6.25H12.5V4.00859Z"
          fill="#9095A3"/>
</svg>
