<svg preserveAspectRatio="xMidYMid meet" viewBox="0 0 206 120" fill="none" xmlns="http://www.w3.org/2000/svg">
    <path d="M103 120C159.382 120 205.09 117.795 205.09 115.075C205.09 112.354 159.382 110.149 103 110.149C46.6175 110.149 0.9104 112.354 0.9104 115.075C0.9104 117.795 46.6175 120 103 120Z"
          fill="#F2F2F2"/>
    <path d="M33.4396 105.312C33.1937 105.218 32.9824 105.051 32.8338 104.833C32.6851 104.615 32.606 104.358 32.6072 104.094V90.4399C32.6067 89.9777 32.423 89.5346 32.0965 89.2078C31.7701 88.881 31.3274 88.6971 30.8657 88.6966H28.0723C26.9182 88.6953 25.8117 88.2358 24.9956 87.4189C24.1796 86.602 23.7205 85.4945 23.7192 84.3392V56.8867C23.7205 55.7315 24.1796 54.6239 24.9956 53.807C25.8117 52.9901 26.9182 52.5307 28.0723 52.5294H126.602C127.756 52.5307 128.862 52.9901 129.679 53.807C130.495 54.6239 130.954 55.7315 130.955 56.8867V84.3392C130.954 85.4945 130.495 86.602 129.679 87.4189C128.862 88.2358 127.756 88.6953 126.602 88.6966H50.551C50.3097 88.6969 50.0709 88.7472 49.85 88.8445C49.629 88.9418 49.4306 89.084 49.2673 89.2619L34.8756 104.977C34.7541 105.111 34.606 105.218 34.4409 105.291C34.2757 105.364 34.0972 105.402 33.9165 105.402C33.7533 105.402 33.5916 105.372 33.4396 105.312Z"
          fill="white"/>
    <path d="M33.4396 105.312C33.1937 105.218 32.9824 105.051 32.8338 104.833C32.6851 104.615 32.606 104.358 32.6072 104.094V90.4399C32.6067 89.9777 32.423 89.5346 32.0965 89.2078C31.7701 88.881 31.3274 88.6971 30.8657 88.6966H28.0723C26.9182 88.6953 25.8117 88.2358 24.9956 87.4189C24.1796 86.602 23.7205 85.4945 23.7192 84.3392V56.8867C23.7205 55.7315 24.1796 54.6239 24.9956 53.807C25.8117 52.9901 26.9182 52.5307 28.0723 52.5294H126.602C127.756 52.5307 128.862 52.9901 129.679 53.807C130.495 54.6239 130.954 55.7315 130.955 56.8867V84.3392C130.954 85.4945 130.495 86.602 129.679 87.4189C128.862 88.2358 127.756 88.6953 126.602 88.6966H50.551C50.3097 88.6969 50.0709 88.7472 49.85 88.8445C49.629 88.9418 49.4306 89.084 49.2673 89.2619L34.8756 104.977C34.7541 105.111 34.606 105.218 34.4409 105.291C34.2757 105.364 34.0972 105.402 33.9165 105.402C33.7533 105.402 33.5916 105.372 33.4396 105.312ZM28.0723 53.11C27.072 53.1111 26.113 53.5094 25.4056 54.2174C24.6983 54.9254 24.3004 55.8854 24.2993 56.8867V84.3392C24.3004 85.3405 24.6983 86.3005 25.4056 87.0085C26.113 87.7166 27.072 88.1148 28.0723 88.116H30.8657C31.4812 88.1166 32.0713 88.3617 32.5065 88.7974C32.9418 89.2331 33.1866 89.8237 33.1872 90.4399V104.094C33.1873 104.24 33.2314 104.383 33.314 104.504C33.3966 104.625 33.5137 104.718 33.6499 104.771C33.7862 104.824 33.9353 104.835 34.0777 104.802C34.2202 104.768 34.3492 104.693 34.448 104.585L48.8398 88.8695C49.0575 88.6323 49.322 88.4429 49.6165 88.3132C49.9111 88.1835 50.2293 88.1163 50.5511 88.116H126.602C127.602 88.1148 128.561 87.7166 129.269 87.0085C129.976 86.3005 130.374 85.3405 130.375 84.3392V56.8867C130.374 55.8854 129.976 54.9254 129.269 54.2174C128.561 53.5094 127.602 53.1111 126.602 53.11H28.0723Z"
          fill="#636A7C"/>
    <path d="M35.9772 64.3491C38.081 64.3491 39.7863 62.6421 39.7863 60.5363C39.7863 58.4305 38.081 56.7234 35.9772 56.7234C33.8735 56.7234 32.1681 58.4305 32.1681 60.5363C32.1681 62.6421 33.8735 64.3491 35.9772 64.3491Z"
          fill="#9095A3"/>
    <path d="M123.738 81.6341H34.0966C33.8296 81.6344 33.5652 81.582 33.3184 81.48C33.0717 81.3779 32.8474 81.2282 32.6585 81.0393C32.4696 80.8505 32.3197 80.6262 32.2175 80.3793C32.1152 80.1324 32.0626 79.8678 32.0626 79.6005C32.0626 79.3333 32.1152 79.0687 32.2175 78.8218C32.3197 78.5749 32.4696 78.3506 32.6585 78.1618C32.8474 77.9729 33.0717 77.8232 33.3184 77.7211C33.5652 77.6191 33.8296 77.5667 34.0966 77.567H123.738C124.277 77.567 124.794 77.7813 125.175 78.1626C125.556 78.544 125.77 79.0612 125.77 79.6005C125.77 80.1399 125.556 80.6571 125.175 81.0385C124.794 81.4198 124.277 81.6341 123.738 81.6341Z"
          fill="#E6E6E6"/>
    <path d="M94.5348 72.9916H34.0966C33.8296 72.9919 33.5652 72.9396 33.3184 72.8375C33.0717 72.7355 32.8474 72.5857 32.6585 72.3969C32.4696 72.208 32.3197 71.9837 32.2175 71.7368C32.1152 71.49 32.0626 71.2253 32.0626 70.9581C32.0626 70.6908 32.1152 70.4262 32.2175 70.1793C32.3197 69.9324 32.4696 69.7082 32.6585 69.5193C32.8474 69.3304 33.0717 69.1807 33.3184 69.0787C33.5652 68.9766 33.8296 68.9242 34.0966 68.9246H94.5348C95.0732 68.9252 95.5893 69.1397 95.9697 69.521C96.3502 69.9023 96.5639 70.4192 96.5639 70.9581C96.5639 71.497 96.3502 72.0139 95.9697 72.3952C95.5893 72.7765 95.0732 72.991 94.5348 72.9916Z"
          fill="#E6E6E6"/>
    <path d="M171.905 52.8731C171.724 52.873 171.545 52.8351 171.38 52.7619C171.215 52.6887 171.067 52.5818 170.946 52.448L156.554 36.7325C156.391 36.5546 156.192 36.4125 155.971 36.3152C155.75 36.2179 155.511 36.1675 155.27 36.1672H79.2193C78.0652 36.1659 76.9587 35.7064 76.1426 34.8895C75.3266 34.0727 74.8675 32.9651 74.8662 31.8099V4.35735C74.8675 3.20211 75.3266 2.09455 76.1426 1.27767C76.9587 0.460789 78.0652 0.00129628 79.2193 0H177.749C178.903 0.00129474 180.009 0.460789 180.825 1.27767C181.642 2.09455 182.101 3.20211 182.102 4.35735V31.8099C182.101 32.9651 181.642 34.0727 180.825 34.8896C180.009 35.7064 178.903 36.1659 177.749 36.1672H174.955C174.494 36.1678 174.051 36.3516 173.725 36.6784C173.398 37.0052 173.214 37.4483 173.214 37.9105V51.5648C173.215 51.8284 173.136 52.0861 172.987 52.3036C172.839 52.5212 172.627 52.6883 172.382 52.7828C172.23 52.8424 172.068 52.873 171.905 52.8731Z"
          fill="white"/>
    <path d="M171.905 52.8731C171.724 52.873 171.545 52.8351 171.38 52.7619C171.215 52.6887 171.067 52.5818 170.946 52.448L156.554 36.7325C156.391 36.5546 156.192 36.4125 155.971 36.3152C155.75 36.2179 155.511 36.1675 155.27 36.1672H79.2193C78.0652 36.1659 76.9587 35.7064 76.1426 34.8895C75.3266 34.0727 74.8675 32.9651 74.8662 31.8099V4.35735C74.8675 3.20211 75.3266 2.09455 76.1426 1.27767C76.9587 0.460789 78.0652 0.00129628 79.2193 0H177.749C178.903 0.00129474 180.009 0.460789 180.825 1.27767C181.642 2.09455 182.101 3.20211 182.102 4.35735V31.8099C182.101 32.9651 181.642 34.0727 180.825 34.8896C180.009 35.7064 178.903 36.1659 177.749 36.1672H174.955C174.494 36.1678 174.051 36.3516 173.725 36.6784C173.398 37.0052 173.214 37.4483 173.214 37.9105V51.5648C173.215 51.8284 173.136 52.0861 172.987 52.3036C172.839 52.5212 172.627 52.6883 172.382 52.7828C172.23 52.8424 172.068 52.873 171.905 52.8731ZM79.2193 0.580622C78.219 0.581753 77.2599 0.980021 76.5526 1.68805C75.8453 2.39608 75.4474 3.35605 75.4463 4.35735V31.8099C75.4474 32.8112 75.8453 33.7711 76.5526 34.4792C77.26 35.1872 78.219 35.5855 79.2193 35.5866H155.27C155.592 35.587 155.91 35.6541 156.205 35.7838C156.499 35.9135 156.764 36.103 156.981 36.3402L171.373 52.0556C171.472 52.1635 171.601 52.239 171.743 52.2722C171.886 52.3055 172.035 52.2948 172.171 52.2418C172.307 52.1887 172.425 52.0957 172.507 51.9749C172.59 51.8541 172.634 51.7111 172.634 51.5648V37.9105C172.635 37.2944 172.879 36.7037 173.315 36.268C173.75 35.8324 174.34 35.5873 174.955 35.5866H177.749C178.749 35.5855 179.708 35.1872 180.415 34.4792C181.123 33.7711 181.521 32.8112 181.522 31.8099V4.35735C181.521 3.35605 181.123 2.39608 180.416 1.68805C179.708 0.980021 178.749 0.581753 177.749 0.580622H79.2193Z"
          fill="#636A7C"/>
    <path d="M85.544 12.1101C87.6477 12.1101 89.3531 10.403 89.3531 8.29723C89.3531 6.19145 87.6477 4.48438 85.544 4.48438C83.4403 4.48438 81.7349 6.19145 81.7349 8.29723C81.7349 10.403 83.4403 12.1101 85.544 12.1101Z"
          fill="#9095A3"/>
    <path d="M173.305 29.3951H83.6632C83.3962 29.3954 83.1318 29.343 82.8851 29.241C82.6383 29.1389 82.4141 28.9892 82.2252 28.8003C82.0363 28.6115 81.8864 28.3872 81.7841 28.1403C81.6819 27.8934 81.6293 27.6288 81.6293 27.3616C81.6293 27.0943 81.6819 26.8297 81.7841 26.5828C81.8864 26.3359 82.0363 26.1116 82.2252 25.9228C82.4141 25.7339 82.6383 25.5842 82.8851 25.4821C83.1318 25.3801 83.3962 25.3277 83.6632 25.328H173.305C173.843 25.3287 174.359 25.5432 174.74 25.9245C175.12 26.3058 175.334 26.8227 175.334 27.3616C175.334 27.9005 175.12 28.4173 174.74 28.7986C174.359 29.1799 173.843 29.3944 173.305 29.3951Z"
          fill="#E6E6E6"/>
    <path d="M144.101 20.7526H83.6632C83.3962 20.7529 83.1318 20.7005 82.8851 20.5985C82.6383 20.4964 82.4141 20.3467 82.2252 20.1578C82.0363 19.969 81.8864 19.7447 81.7841 19.4978C81.6819 19.2509 81.6293 18.9863 81.6293 18.719C81.6293 18.4518 81.6819 18.1872 81.7841 17.9403C81.8864 17.6934 82.0363 17.4691 82.2252 17.2803C82.4141 17.0914 82.6383 16.9417 82.8851 16.8396C83.1318 16.7376 83.3962 16.6852 83.6632 16.6855H144.101C144.64 16.6855 145.157 16.8998 145.538 17.2811C145.919 17.6625 146.133 18.1797 146.133 18.719C146.133 19.2584 145.919 19.7756 145.538 20.157C145.157 20.5383 144.64 20.7526 144.101 20.7526Z"
          fill="#E6E6E6"/>
</svg>
