<svg preserveAspectRatio="xMidYMid meet" viewBox="0 0 468 320" fill="none" xmlns="http://www.w3.org/2000/svg">
    <path opacity="0.1"
          d="M144.504 16.167C160.382 1.98058 185.308 -0.908135 207.994 0.220833C279.253 3.76844 343.578 38.2241 399.218 77.1996C419.361 91.3097 439.192 106.529 452.279 125.946C478.898 165.5 471 220.297 433.991 252.881C421.398 263.969 406.132 272.467 390.461 280.004C362.599 293.399 332.54 304.15 300.911 307.212C278.358 309.393 255.546 307.614 233.107 304.576C170.467 296.067 108.982 277.256 57.4442 245.058C34.8308 230.94 13.5256 213.387 4.20962 190.534C-5.10634 167.682 0.855874 138.75 23.9351 125.231C33.482 119.638 44.892 117.115 56.0671 114.741C72.5158 111.253 89.2238 107.81 104.069 100.715C119.399 93.3868 137.549 79.2124 134.516 62.989C131.259 45.5965 128.646 30.3092 144.504 16.167Z"
          fill="#9095A3"/>
    <path d="M138.221 179.916C138.221 179.916 142.421 176.931 146.767 178.775C146.767 178.775 145.552 181.339 140.137 181.306L138.221 179.916Z"
          fill="#9095A3"/>
    <path d="M137.7 180.088C137.7 180.088 136.578 185.09 139.996 188.336C139.996 188.336 141.892 186.219 139.737 181.293L137.7 180.088Z"
          fill="#9095A3"/>
    <path d="M132.146 175.536C132.146 175.536 132.3 171.314 141.94 172.346C141.94 172.346 142.09 175.062 138.777 176.476C135.464 177.891 133.876 176.874 132.146 175.536Z"
          fill="#9095A3"/>
    <path d="M131.551 175.527C131.551 175.527 127.546 176.974 131.507 185.756C131.507 185.756 134.156 185.061 134.492 181.498C134.828 177.934 133.362 176.757 131.551 175.527Z"
          fill="#9095A3"/>
    <path d="M125.891 169.763C125.891 169.763 125.081 162.852 134.899 163.19C134.899 163.19 135.835 169.437 127.686 171.362L125.891 169.763Z"
          fill="#9095A3"/>
    <path d="M119.115 162.186C119.115 162.186 120.156 154.283 130.051 156.247C130.051 156.247 130.351 163.037 120.8 163.998L119.115 162.186Z"
          fill="#9095A3"/>
    <path d="M114.072 154.275C114.072 154.275 116.025 146.525 125.818 148.461C125.818 148.461 123.793 155.432 114.773 155.665L114.072 154.275Z"
          fill="#9095A3"/>
    <path d="M109.273 146.549C109.273 146.549 111.165 138.514 120.615 140.555C120.615 140.555 117.779 148.216 109.934 147.879L109.273 146.549Z"
          fill="#9095A3"/>
    <path d="M106.086 139.157C106.086 139.157 107.402 129.382 116.212 131.198C116.212 131.198 114.017 140.129 106.775 140.543L106.086 139.157Z"
          fill="#9095A3"/>
    <path d="M103.02 130.193C103.02 130.193 104.668 120.33 113.611 122.841C113.611 122.841 110.501 132.222 103.688 131.523L103.02 130.193Z"
          fill="#9095A3"/>
    <path d="M101.01 121.831C101.01 121.831 103.845 111.924 110.698 111.928C110.698 111.928 107.802 122.374 101.658 123.772L101.01 121.831Z"
          fill="#9095A3"/>
    <path d="M99.625 113.628C99.625 113.628 102.675 101.711 108.273 102.41C108.273 102.41 106.195 111.506 99.8923 115.456L99.625 113.628Z"
          fill="#9095A3"/>
    <path d="M98.6406 103.816C98.6406 103.816 101.545 93.8761 107.021 93.2734C107.021 93.2734 105.158 103.016 98.8593 106.363L98.6406 103.816Z"
          fill="#9095A3"/>
    <path d="M97.6211 94.6893C97.6211 94.6893 101.339 84.7053 104.96 84.3438C104.96 84.3438 103.555 94.0866 98.0464 96.2883L97.6211 94.6893Z"
          fill="#9095A3"/>
    <path d="M96.8379 86.1786C96.8379 86.1786 98.9441 75.4072 102.533 74.3867C102.533 74.3867 102.375 83.1332 97.2308 86.9621L96.8379 86.1786Z"
          fill="#9095A3"/>
    <path d="M95.0449 75.0747C95.0449 75.0747 97.3658 66.4688 100.25 65.0586C100.25 65.0586 100.055 75.1028 95.7942 77.1116L95.0449 75.0747Z"
          fill="#9095A3"/>
    <path d="M93.6256 67.7865L92.5117 52.8086C92.5117 52.8086 98.4253 63.9215 94.1319 70.4181L93.6256 67.7865Z"
          fill="#9095A3"/>
    <path d="M88.8073 53.0421C88.8073 53.0421 84.4369 42.2386 83.4648 41.6641C83.4648 41.6641 91.4847 48.4941 91.0796 57.6464L88.8073 53.0421Z"
          fill="#9095A3"/>
    <path d="M125.624 169.723C125.624 169.723 118.637 169.085 119.225 178.815C119.225 178.815 125.543 179.591 127.281 171.459L125.624 169.723Z"
          fill="#9095A3"/>
    <path d="M118.779 161.936C118.779 161.936 110.751 162.213 111.788 172.157C111.788 172.157 118.572 173.097 120.439 163.756L118.779 161.936Z"
          fill="#9095A3"/>
    <path d="M114.02 154.926C114.02 154.926 106.599 151.812 102.273 160.74C102.273 160.74 109.115 163.307 114.716 156.32L114.02 154.926Z"
          fill="#9095A3"/>
    <path d="M109.112 146.629C109.112 146.629 101.513 143.302 97.459 152.021C97.459 152.021 105.337 154.379 109.78 147.955L109.112 146.629Z"
          fill="#9095A3"/>
    <path d="M106.186 139.361C106.186 139.361 98.7414 132.828 93.2773 139.931C93.2773 139.931 100.831 145.251 106.575 140.863L106.186 139.361Z"
          fill="#9095A3"/>
    <path d="M103.416 129.944C103.416 129.944 95.9229 123.259 90.5156 130.748C90.5156 130.748 98.8473 136.151 103.732 131.386L103.416 129.944Z"
          fill="#9095A3"/>
    <path d="M101.74 121.515C101.74 121.515 95.8381 113.038 89.3574 115.223C89.3574 115.223 95.4898 124.207 101.756 123.56L101.74 121.515Z"
          fill="#9095A3"/>
    <path d="M99.7916 113.567C99.7916 113.567 93.7524 102.832 88.5273 104.933C88.5273 104.933 92.8937 113.193 100.002 115.399L99.7916 113.567Z"
          fill="#9095A3"/>
    <path d="M99.0016 103.242C99.0016 103.242 92.9017 94.8454 87.543 96.103C87.543 96.103 92.5938 104.661 99.6578 105.717L99.0016 103.242Z"
          fill="#9095A3"/>
    <path d="M98.2236 94.4712C98.2236 94.4712 93.3834 84.9734 89.7461 85.0256C89.7461 85.0256 92.2614 94.5475 97.9846 96.1064L98.2236 94.4712Z"
          fill="#9095A3"/>
    <path d="M97.0088 85.9614C97.0088 85.9614 91.6622 76.3591 87.9277 76.4796C87.9277 76.4796 90.7954 84.7561 96.8751 86.8292L97.0088 85.9614Z"
          fill="#9095A3"/>
    <path d="M95.8616 75.6278C95.8616 75.6278 91.8314 67.6648 88.7207 66.8652C88.7207 66.8652 90.9606 76.6684 95.5335 77.7933L95.8616 75.6278Z"
          fill="#9095A3"/>
    <path d="M93.1721 67.5208L84.3867 55.291C84.3867 55.291 86.9911 67.5931 94.4763 69.8672L93.1721 67.5208Z"
          fill="#9095A3"/>
    <path d="M86.9464 54.1223C86.9464 54.1223 77.0593 47.8828 76.6543 46.8262C76.6543 46.8262 81.9198 55.8981 91.0981 57.1838L86.9464 54.1223Z"
          fill="#9095A3"/>
    <path d="M86.2556 51.1736C86.2556 51.1736 74.7686 41.029 71.9414 41.1495C71.9414 41.1495 81.0953 41.2138 86.5229 50.6031L86.2556 51.1736Z"
          fill="#9095A3"/>
    <path d="M95.8146 77.2367L95.4096 77.305C92.7039 61.2142 89.2975 51.7767 85.8223 50.724L85.9397 50.3223C89.6175 51.4311 93.0442 60.7321 95.8146 77.2367Z"
          fill="#636A7C"/>
    <path d="M100.371 115.756L99.7633 115.829C99.5769 114.326 99.4149 112.783 99.2894 111.248C98.1917 97.8897 96.8145 85.6358 95.2754 76.4674L95.6116 76.0215C97.1548 85.2059 98.7993 97.8214 99.901 111.2C100.027 112.727 100.184 114.258 100.371 115.756Z"
          fill="#636A7C"/>
    <path d="M149.899 187.18C149.79 187.136 138.87 182.789 127.286 171.869C120.502 165.477 114.782 158.06 110.339 149.892C104.786 139.683 101.152 127.011 99.6172 114.629L100.265 114.902C103.708 142.696 117.245 161.274 127.808 171.258C139.279 182.082 150.085 186.385 150.187 186.425L149.899 187.18Z"
          fill="#636A7C"/>
    <g opacity="0.7">
        <path d="M155.168 154.459C155.168 154.459 160.073 152.852 163.674 155.894C163.674 155.894 161.742 157.983 156.582 156.352L155.168 154.459Z"
              fill="#CDCDCD"/>
        <path d="M154.618 154.467C154.618 154.467 152.05 158.914 154.338 163.016C154.338 163.016 156.768 161.558 156.205 156.219L154.618 154.467Z"
              fill="#CDCDCD"/>
        <path d="M150.678 148.485C150.678 148.485 152.095 144.499 160.986 148.328C160.986 148.328 160.318 150.968 156.725 151.337C153.132 151.707 151.933 150.265 150.678 148.485Z"
              fill="#CDCDCD"/>
        <path d="M150.114 148.305C150.114 148.305 145.861 148.506 147.003 158.056C147.003 158.056 149.746 158.176 151.135 154.87C152.524 151.563 151.475 150.008 150.114 148.305Z"
              fill="#CDCDCD"/>
        <path d="M146.443 141.117C146.443 141.117 147.735 134.287 157.011 137.501C157.011 137.501 156.035 143.74 147.675 143.174L146.443 141.117Z"
              fill="#CDCDCD"/>
        <path d="M142.248 131.876C142.248 131.876 145.61 124.645 154.456 129.434C154.456 129.434 152.706 136.003 143.297 134.102L142.248 131.876Z"
              fill="#CDCDCD"/>
        <path d="M139.801 122.856C139.801 122.856 143.993 116.026 152.762 120.771C152.762 120.771 148.712 126.822 140.056 124.387L139.801 122.856Z"
              fill="#CDCDCD"/>
        <path d="M137.537 114.061C137.537 114.061 141.75 106.958 150.17 111.686C150.17 111.686 145.168 118.163 137.78 115.527L137.537 114.061Z"
              fill="#CDCDCD"/>
        <path d="M136.711 106.062C136.711 106.062 140.899 97.1184 148.773 101.458C148.773 101.458 143.998 109.332 136.962 107.593L136.711 106.062Z"
              fill="#CDCDCD"/>
        <path d="M136.477 96.5998C136.477 96.5998 141.009 87.6685 148.79 92.7067C148.79 92.7067 143.01 100.742 136.716 98.0663L136.477 96.5998Z"
              fill="#CDCDCD"/>
        <path d="M137.072 88.0144C137.072 88.0144 142.743 79.3925 149.288 81.4174C149.288 81.4174 143.387 90.5496 137.105 90.0594L137.072 88.0144Z"
              fill="#CDCDCD"/>
        <path d="M138.221 79.7819C138.221 79.7819 144.702 69.3078 149.842 71.626C149.842 71.626 145.127 79.6975 137.93 81.6059L138.221 79.7819Z"
              fill="#CDCDCD"/>
        <path d="M140.203 70.1277C140.203 70.1277 145.963 61.4937 151.366 62.5343C151.366 62.5343 146.668 71.2888 139.652 72.6227L140.203 70.1277Z"
              fill="#CDCDCD"/>
        <path d="M141.973 61.1083C141.973 61.1083 148.515 52.6711 152.079 53.4023C152.079 53.4023 147.814 62.2895 141.896 62.7595L141.973 61.1083Z"
              fill="#CDCDCD"/>
        <path d="M143.775 52.7562C143.775 52.7562 149.017 43.1138 152.751 43.1781C152.751 43.1781 149.973 51.4826 143.917 53.624L143.775 52.7562Z"
              fill="#CDCDCD"/>
        <path d="M145.391 41.6232C145.391 41.6232 150.19 34.0941 153.366 33.5879C153.366 33.5879 150.166 43.1259 145.5 43.7968L145.391 41.6232Z"
              fill="#CDCDCD"/>
        <path d="M146.226 34.2457L149.657 19.6133C149.657 19.6133 151.969 31.9676 145.918 36.8893L146.226 34.2457Z"
              fill="#CDCDCD"/>
        <path d="M146.056 18.7497C146.056 18.7497 145.121 7.14667 144.367 6.29492C144.367 6.29492 149.981 15.166 146.846 23.804L146.056 18.7497Z"
              fill="#CDCDCD"/>
        <path d="M146.197 141.009C146.197 141.009 139.717 138.341 137.363 147.807C137.363 147.807 143.159 150.41 147.258 143.158L146.197 141.009Z"
              fill="#CDCDCD"/>
        <path d="M141.997 131.555C141.997 131.555 134.249 129.453 132.256 139.252C132.256 139.252 138.453 142.153 143.038 133.784L141.997 131.555Z"
              fill="#CDCDCD"/>
        <path d="M139.559 123.458C139.559 123.458 133.41 118.295 126.598 125.543C126.598 125.543 132.357 130.015 139.806 124.989L139.559 123.458Z"
              fill="#CDCDCD"/>
        <path d="M137.364 114.09C137.364 114.09 131.102 108.674 124.621 115.798C124.621 115.798 131.434 120.378 137.603 115.557L137.364 114.09Z"
              fill="#CDCDCD"/>
        <path d="M136.752 106.291C136.752 106.291 131.599 97.8538 124.252 103.02C124.252 103.02 129.87 110.333 136.671 107.842L136.752 106.291Z"
              fill="#CDCDCD"/>
        <path d="M136.929 96.4802C136.929 96.4802 131.777 87.8864 124.373 93.4469C124.373 93.4469 130.708 101.08 136.796 97.9587L136.929 96.4802Z"
              fill="#CDCDCD"/>
        <path d="M137.853 87.9342C137.853 87.9342 134.763 78.1029 127.922 78.2917C127.922 78.2917 131.081 88.6815 137.258 89.9109L137.853 87.9342Z"
              fill="#CDCDCD"/>
        <path d="M138.376 79.7754C138.376 79.7754 135.833 67.7425 130.215 68.2085C130.215 68.2085 131.908 77.3849 138.032 81.5914L138.376 79.7754Z"
              fill="#CDCDCD"/>
        <path d="M140.725 69.6853C140.725 69.6853 137.42 59.8661 131.924 59.4844C131.924 59.4844 134.18 69.1469 140.608 72.2405L140.725 69.6853Z"
              fill="#CDCDCD"/>
        <path d="M142.612 61.0812C142.612 61.0812 140.838 50.587 137.346 49.5625C137.346 49.5625 136.897 59.3938 141.891 62.5758L142.612 61.0812Z"
              fill="#CDCDCD"/>
        <path d="M144.002 52.5988C144.002 52.5988 141.779 41.8515 138.178 40.8672C138.178 40.8672 138.433 49.6137 143.617 53.3863L144.002 52.5988Z"
              fill="#CDCDCD"/>
        <path d="M146.002 42.4096C146.002 42.4096 144.544 33.619 141.814 31.9355C141.814 31.9355 141.004 41.9556 145.055 44.3904L146.002 42.4096Z"
              fill="#CDCDCD"/>
        <path d="M145.874 33.845L141.151 19.5742C141.151 19.5742 139.936 32.0853 146.416 36.4686L145.874 33.845Z"
              fill="#CDCDCD"/>
        <path d="M143.95 19.2325C143.95 19.2325 136.363 10.3494 136.307 9.22852C136.307 9.22852 138.628 19.4455 146.988 23.3788L143.95 19.2325Z"
              fill="#CDCDCD"/>
        <path d="M144.172 16.2148C144.172 16.2148 136.246 3.13724 133.512 2.41406C133.512 2.41406 142.228 5.18224 144.577 15.7367L144.172 16.2148Z"
              fill="#CDCDCD"/>
        <path d="M145.484 43.8887L145.079 43.8325C147.319 27.6774 146.902 17.6573 143.896 15.6284L144.127 15.2949C147.315 17.4524 147.781 27.3399 145.484 43.8887Z"
              fill="#636A7C"/>
        <path d="M138.275 82.056L137.672 81.9475C137.947 80.4569 138.255 78.9382 138.595 77.4316C141.556 64.3541 143.918 52.2528 145.193 43.0443L145.651 42.7148C144.371 51.9555 142.156 64.4706 139.195 77.5682C138.855 79.0427 138.547 80.5533 138.275 82.056Z"
              fill="#636A7C"/>
        <path d="M164.144 164.84C164.055 164.768 154.933 157.396 147.132 143.547C142.573 135.443 139.339 126.673 137.549 117.564C135.309 106.178 135.637 93.0084 137.889 80.7344L138.424 81.1844C133.381 108.738 140.733 130.473 147.837 143.125C155.533 156.841 164.557 164.137 164.65 164.21L164.144 164.84Z"
              fill="#636A7C"/>
    </g>
    <path opacity="0.1"
          d="M323.476 281.639L282.846 297.232L223.459 320C221.219 315.874 217.914 310.229 213.823 303.528C199.76 280.406 176.486 244.444 155.773 212.841C132.426 177.232 112.336 147.164 112.336 147.164L126.881 142.981L245.688 108.803L323.476 281.639Z"
          fill="#202939"/>
    <path d="M324.285 278.827L283.655 294.419L224.268 317.188C222.028 313.061 218.723 307.417 214.632 300.715C200.569 277.593 177.295 241.631 156.581 210.028C133.235 174.419 113.145 144.351 113.145 144.351L127.69 140.169L246.496 105.99L324.285 278.827Z"
          fill="white"/>
    <path opacity="0.1"
          d="M324.286 278.827L283.657 294.419C260.964 299.108 237.808 301.22 214.634 300.715C200.571 277.593 177.297 241.631 156.583 210.028L127.691 140.169L246.498 105.99L324.286 278.827Z"
          fill="#202939"/>
    <path

            d="M354.513 269.128C354.513 269.128 291.392 306.163 197.155 297.807L122.02 116.131L158.024 109.996L282.485 88.7949L353.104 265.617L354.513 269.128Z"
            fill="#9095A3"
    />
    <path opacity="0.1"
          d="M353.105 265.617C338.24 266.34 321.05 266.272 303.747 264.227C285.026 262.049 266.215 257.541 250.054 249.289C236.558 242.391 225.019 234.898 214.953 225.902C188.784 202.551 172.586 169.149 158.041 109.996L282.502 88.7949L353.105 265.617Z"
          fill="#202939"/>
    <path d="M399.405 255.461C399.405 255.461 352.858 264.509 305.525 258.936C286.804 256.747 267.973 252.251 251.832 243.998C238.336 237.1 226.797 229.607 216.731 220.612C184.328 191.684 167.231 147.401 149.596 57.9317C149.596 57.9317 226.959 76.4492 303.394 35.8867C303.394 35.8867 329.175 195.497 399.405 255.461Z"
          fill="white"/>
    <path opacity="0.1"
          d="M305.524 258.936C286.803 256.746 267.972 252.25 251.831 243.998C238.335 237.1 226.796 229.607 216.73 220.611C244.31 218.389 248.275 203.432 248.275 203.432C268.722 235.621 305.524 258.936 305.524 258.936Z"
          fill="#202939"/>
    <path
            opacity="0.3"
            d="M189.602 90.7794C189.602 90.7794 231.159 95.4841 270.055 73.8047L272.72 82.294C272.72 82.294 235.509 100.699 189.602 100.699V90.7794Z"
            fill="#9095A3"
    />
    <path opacity="0.3"
          d="M189.602 132.68C189.602 132.68 230.916 129.373 276.908 107.324L278.464 110.852C278.464 110.852 261.537 131.981 189.602 137.501V132.68Z"
          fill="#202939"/>
    <path opacity="0.3"
          d="M194.498 149.023C194.498 149.023 235.812 145.717 281.805 123.672L283.36 127.199C283.36 127.199 266.438 148.348 194.498 153.873V149.023Z"
          fill="#202939"/>
    <path opacity="0.3"
          d="M198.979 166.641C198.979 166.641 240.293 163.334 286.285 141.289L287.841 144.817C287.841 144.817 270.894 165.954 198.979 171.49V166.641Z"
          fill="#202939"/>
    <path opacity="0.3"
          d="M204.297 181.74C204.297 181.74 245.611 178.434 291.604 156.389L293.159 159.916C293.159 159.916 276.236 181.057 204.297 186.594L204.297 181.74Z"
          fill="#202939"/>
    <path opacity="0.1"
          d="M209.197 198.1C209.197 198.1 250.512 194.793 296.504 172.748L298.059 176.276C298.059 176.276 281.133 197.417 209.197 202.949V198.1Z"
          fill="#202939"/>
    <path
            opacity="0.3"
            d="M283.732 100.227L295.293 96.3229L299.228 107.79L287.668 111.694L283.732 100.227Z"
            fill="#9095A3"
    />
    <path
            opacity="0.3"
            d="M290.309 117.285L301.869 113.381L305.805 124.849L294.244 128.752L290.309 117.285Z"
            fill="#9095A3"
    />
    <path
            opacity="0.3"
            d="M300.852 150.109L312.412 146.206L316.348 157.673L304.787 161.576L300.852 150.109Z"
            fill="#9095A3"
    />
    <path
            opacity="0.3"
            d="M306.9 167.727L318.461 163.823L322.396 175.29L310.836 179.194L306.9 167.727Z"
            fill="#9095A3"
    />
    <path
            opacity="0.3"
            d="M295.672 135.008L307.232 131.104L311.168 142.571L299.607 146.475L295.672 135.008Z"
            fill="#9095A3"
    />
    <path d="M291.567 104.889L286.103 102.245C285.946 102.169 285.825 102.034 285.768 101.87C285.711 101.705 285.723 101.525 285.799 101.369L286.379 100.188C286.455 100.031 286.591 99.9111 286.757 99.8545C286.922 99.7979 287.104 99.8095 287.262 99.8869L290.943 101.667L294.787 93.8483C294.947 93.5234 295.341 93.3872 295.67 93.5429L296.861 94.1215C297.019 94.1968 297.14 94.3319 297.197 94.4964C297.255 94.661 297.243 94.8414 297.165 94.9973L292.45 104.588C292.373 104.744 292.237 104.863 292.072 104.92C291.906 104.976 291.725 104.965 291.567 104.889V104.889Z"
          fill="#636A7C"/>
    <path d="M303.503 138.705L298.039 136.062C297.881 135.986 297.761 135.851 297.704 135.686C297.647 135.522 297.658 135.342 297.735 135.186L298.314 134.005C298.476 133.679 298.872 133.544 299.201 133.703L302.879 135.483L306.719 127.657C306.879 127.332 307.273 127.196 307.602 127.352L308.788 127.93C308.947 128.006 309.068 128.14 309.126 128.305C309.183 128.469 309.173 128.649 309.096 128.806L304.382 138.396C304.218 138.72 303.824 138.854 303.495 138.697L303.503 138.705Z"
          fill="#636A7C"/>
    <path d="M298.143 122.038L292.679 119.394C292.352 119.235 292.215 118.844 292.372 118.518L292.955 117.337C293.031 117.18 293.167 117.06 293.333 117.003C293.499 116.947 293.681 116.958 293.838 117.036L297.52 118.815L301.364 110.985C301.44 110.829 301.576 110.709 301.742 110.653C301.908 110.596 302.089 110.607 302.247 110.684L303.437 111.258C303.764 111.42 303.899 111.812 303.741 112.138L299.022 121.736C298.946 121.892 298.809 122.012 298.644 122.068C298.478 122.125 298.297 122.114 298.139 122.038H298.143Z"
          fill="#636A7C"/>
    <path d="M308.688 153.973L303.224 151.329C303.067 151.253 302.946 151.118 302.889 150.954C302.832 150.79 302.844 150.61 302.92 150.454L303.5 149.272C303.576 149.116 303.713 148.997 303.878 148.94C304.044 148.884 304.225 148.895 304.383 148.971L308.064 150.751L311.908 142.932C312.07 142.607 312.465 142.471 312.795 142.627L313.982 143.206C314.14 143.281 314.261 143.416 314.319 143.581C314.376 143.745 314.364 143.926 314.286 144.082L309.575 153.672C309.412 153.996 309.017 154.13 308.688 153.973V153.973Z"
          fill="#636A7C"/>
</svg>
