<svg preserveAspectRatio="xMidYMid meet" viewBox="0 0 544 372" fill="none" xmlns="http://www.w3.org/2000/svg">
    <g clip-path="url(#clip0_4964_26574)">
        <path opacity="0.1"
              d="M167.97 18.7941C186.426 2.30242 215.4 -1.05571 241.771 0.256719C324.602 4.38082 399.372 44.4355 464.049 89.7445C487.462 106.147 510.514 123.84 525.726 146.412C556.668 192.394 547.487 256.096 504.468 293.974C489.831 306.864 472.086 316.743 453.87 325.505C421.482 341.076 386.543 353.575 349.777 357.134C323.561 359.67 297.045 357.601 270.962 354.07C198.15 344.178 126.68 322.31 66.7728 284.88C40.487 268.468 15.722 248.062 4.89323 221.496C-5.93557 194.93 0.994862 161.297 27.8221 145.581C38.9192 139.08 52.1822 136.146 65.172 133.386C84.2919 129.332 103.713 125.329 120.969 117.081C138.789 108.562 159.886 92.0844 156.36 73.2248C152.575 53.0059 149.538 35.2345 167.97 18.7941Z"
              fill="#1134E3"/>
        <path d="M160.668 209.152C160.668 209.152 165.55 205.681 170.602 207.825C170.602 207.825 169.19 210.805 162.895 210.768L160.668 209.152Z"
              fill="#1134E3"/>
        <path d="M160.061 209.353C160.061 209.353 158.756 215.167 162.73 218.941C162.73 218.941 164.933 216.48 162.429 210.754L160.061 209.353Z"
              fill="#1134E3"/>
        <path d="M153.605 204.061C153.605 204.061 153.784 199.152 164.99 200.352C164.99 200.352 165.164 203.509 161.313 205.153C157.461 206.797 155.616 205.616 153.605 204.061Z"
              fill="#1134E3"/>
        <path d="M152.914 204.052C152.914 204.052 148.257 205.733 152.862 215.943C152.862 215.943 155.941 215.135 156.332 210.992C156.722 206.849 155.018 205.481 152.914 204.052Z"
              fill="#1134E3"/>
        <path d="M146.336 197.349C146.336 197.349 145.394 189.316 156.807 189.708C156.807 189.708 157.895 196.971 148.422 199.208L146.336 197.349Z"
              fill="#1134E3"/>
        <path d="M138.459 188.54C138.459 188.54 139.669 179.353 151.172 181.637C151.172 181.637 151.52 189.53 140.418 190.647L138.459 188.54Z"
              fill="#1134E3"/>
        <path d="M132.598 179.344C132.598 179.344 134.867 170.335 146.251 172.586C146.251 172.586 143.897 180.689 133.412 180.96L132.598 179.344Z"
              fill="#1134E3"/>
        <path d="M127.019 170.363C127.019 170.363 129.217 161.022 140.201 163.395C140.201 163.395 136.906 172.302 127.786 171.909L127.019 170.363Z"
              fill="#1134E3"/>
        <path d="M123.313 161.769C123.313 161.769 124.843 150.405 135.084 152.516C135.084 152.516 132.532 162.899 124.114 163.38L123.313 161.769Z"
              fill="#1134E3"/>
        <path d="M119.749 151.349C119.749 151.349 121.665 139.883 132.061 142.802C132.061 142.802 128.445 153.708 120.526 152.895L119.749 151.349Z"
              fill="#1134E3"/>
        <path d="M117.414 141.63C117.414 141.63 120.71 130.113 128.676 130.117C128.676 130.117 125.309 142.261 118.167 143.886L117.414 141.63Z"
              fill="#1134E3"/>
        <path d="M115.804 132.092C115.804 132.092 119.349 118.239 125.856 119.052C125.856 119.052 123.44 129.626 116.114 134.217L115.804 132.092Z"
              fill="#1134E3"/>
        <path d="M114.659 120.687C114.659 120.687 118.035 109.132 124.401 108.432C124.401 108.432 122.235 119.758 114.914 123.648L114.659 120.687Z"
              fill="#1134E3"/>
        <path d="M113.473 110.076C113.473 110.076 117.795 98.4692 122.004 98.0488C122.004 98.0488 120.371 109.375 113.968 111.934L113.473 110.076Z"
              fill="#1134E3"/>
        <path d="M112.564 100.184C112.564 100.184 115.013 87.6619 119.184 86.4756C119.184 86.4756 119.001 96.6434 113.021 101.094L112.564 100.184Z"
              fill="#1134E3"/>
        <path d="M110.479 87.2736C110.479 87.2736 113.177 77.2692 116.529 75.6299C116.529 75.6299 116.303 87.3063 111.35 89.6415L110.479 87.2736Z"
              fill="#1134E3"/>
        <path d="M108.831 78.8015L107.536 61.3896C107.536 61.3896 114.41 74.3084 109.419 81.8607L108.831 78.8015Z"
              fill="#1134E3"/>
        <path d="M103.228 61.6606C103.228 61.6606 98.148 49.1015 97.0181 48.4336C97.0181 48.4336 106.34 56.3735 105.869 67.0131L103.228 61.6606Z"
              fill="#1134E3"/>
        <path d="M146.025 197.303C146.025 197.303 137.904 196.56 138.586 207.872C138.586 207.872 145.931 208.774 147.951 199.321L146.025 197.303Z"
              fill="#1134E3"/>
        <path d="M138.068 188.251C138.068 188.251 128.737 188.573 129.942 200.133C129.942 200.133 137.828 201.226 139.999 190.367L138.068 188.251Z"
              fill="#1134E3"/>
        <path d="M132.537 180.101C132.537 180.101 123.911 176.482 118.883 186.86C118.883 186.86 126.835 189.844 133.346 181.722L132.537 180.101Z"
              fill="#1134E3"/>
        <path d="M126.83 170.456C126.83 170.456 117.998 166.589 113.285 176.724C113.285 176.724 122.442 179.465 127.607 171.997L126.83 170.456Z"
              fill="#1134E3"/>
        <path d="M123.431 162.007C123.431 162.007 114.777 154.413 108.426 162.671C108.426 162.671 117.207 168.854 123.883 163.754L123.431 162.007Z"
              fill="#1134E3"/>
        <path d="M120.21 151.059C120.21 151.059 111.5 143.288 105.215 151.993C105.215 151.993 114.9 158.275 120.578 152.736L120.21 151.059Z"
              fill="#1134E3"/>
        <path d="M118.261 141.261C118.261 141.261 111.401 131.406 103.868 133.947C103.868 133.947 110.997 144.39 118.28 143.638L118.261 141.261Z"
              fill="#1134E3"/>
        <path d="M115.997 132.022C115.997 132.022 108.977 119.542 102.903 121.985C102.903 121.985 107.979 131.588 116.242 134.152L115.997 132.022Z"
              fill="#1134E3"/>
        <path d="M115.078 120.019C115.078 120.019 107.988 110.258 101.759 111.72C101.759 111.72 107.63 121.668 115.841 122.896L115.078 120.019Z"
              fill="#1134E3"/>
        <path d="M114.175 109.823C114.175 109.823 108.548 98.7823 104.32 98.843C104.32 98.843 107.244 109.912 113.897 111.724L114.175 109.823Z"
              fill="#1134E3"/>
        <path d="M112.762 99.931C112.762 99.931 106.547 88.7684 102.206 88.9085C102.206 88.9085 105.54 98.5299 112.607 100.94L112.762 99.931Z"
              fill="#1134E3"/>
        <path d="M111.43 87.9179C111.43 87.9179 106.745 78.6609 103.129 77.7314C103.129 77.7314 105.733 89.1276 111.048 90.4353L111.43 87.9179Z"
              fill="#1134E3"/>
        <path d="M108.304 78.4935L98.0916 64.2764C98.0916 64.2764 101.119 78.5776 109.82 81.2211L108.304 78.4935Z"
              fill="#1134E3"/>
        <path d="M101.067 62.9173C101.067 62.9173 89.5743 55.6639 89.1035 54.4355C89.1035 54.4355 95.2241 64.9817 105.893 66.4762L101.067 62.9173Z"
              fill="#1134E3"/>
        <path d="M100.262 59.4883C100.262 59.4883 86.9096 47.6951 83.6233 47.8352C83.6233 47.8352 94.2638 47.91 100.573 58.825L100.262 59.4883Z"
              fill="#1134E3"/>
        <path d="M111.373 89.7861L110.902 89.8655C107.757 71.1599 103.798 60.1888 99.7581 58.9651L99.8946 58.498C104.17 59.7871 108.153 70.5994 111.373 89.7861Z"
              fill="#636A7C"/>
        <path d="M116.67 134.568L115.964 134.652C115.747 132.905 115.559 131.112 115.413 129.327C114.137 113.798 112.536 99.5526 110.747 88.8944L111.138 88.376C112.932 99.0529 114.843 113.718 116.124 129.271C116.27 131.046 116.453 132.826 116.67 134.568Z"
              fill="#636A7C"/>
        <path d="M174.241 217.597C174.114 217.545 161.421 212.492 147.956 199.797C140.07 192.367 133.421 183.744 128.257 174.249C121.802 162.381 117.579 147.651 115.794 133.256L116.547 133.573C120.549 165.884 136.284 187.481 148.563 199.087C161.897 211.67 174.458 216.672 174.576 216.719L174.241 217.597Z"
              fill="#636A7C"/>
        <g opacity="0.7">
            <path d="M180.367 179.559C180.367 179.559 186.068 177.69 190.254 181.226C190.254 181.226 188.008 183.655 182.01 181.758L180.367 179.559Z"
                  fill="#1134E3"/>
            <path d="M179.726 179.568C179.726 179.568 176.741 184.739 179.401 189.507C179.401 189.507 182.226 187.812 181.572 181.605L179.726 179.568Z"
                  fill="#1134E3"/>
            <path d="M175.145 172.614C175.145 172.614 176.793 167.981 187.128 172.432C187.128 172.432 186.351 175.501 182.175 175.93C177.998 176.36 176.605 174.683 175.145 172.614Z"
                  fill="#1134E3"/>
            <path d="M174.491 172.403C174.491 172.403 169.547 172.637 170.875 183.739C170.875 183.739 174.062 183.879 175.677 180.035C177.292 176.191 176.073 174.384 174.491 172.403Z"
                  fill="#1134E3"/>
            <path d="M170.225 164.048C170.225 164.048 171.727 156.108 182.509 159.845C182.509 159.845 181.374 167.098 171.657 166.439L170.225 164.048Z"
                  fill="#1134E3"/>
            <path d="M165.348 153.306C165.348 153.306 169.255 144.899 179.538 150.467C179.538 150.467 177.504 158.103 166.567 155.894L165.348 153.306Z"
                  fill="#1134E3"/>
            <path d="M162.504 142.82C162.504 142.82 167.377 134.88 177.57 140.396C177.57 140.396 172.862 147.43 162.801 144.6L162.504 142.82Z"
                  fill="#1134E3"/>
            <path d="M159.872 132.596C159.872 132.596 164.769 124.339 174.557 129.836C174.557 129.836 168.742 137.365 160.155 134.301L159.872 132.596Z"
                  fill="#1134E3"/>
            <path d="M158.912 123.298C158.912 123.298 163.78 112.901 172.933 117.945C172.933 117.945 167.382 127.1 159.204 125.077L158.912 123.298Z"
                  fill="#1134E3"/>
            <path d="M158.638 112.298C158.638 112.298 163.907 101.916 172.951 107.772C172.951 107.772 166.233 117.114 158.916 114.003L158.638 112.298Z"
                  fill="#1134E3"/>
            <path d="M159.331 102.317C159.331 102.317 165.922 92.2941 173.53 94.6481C173.53 94.6481 166.671 105.264 159.368 104.694L159.331 102.317Z"
                  fill="#1134E3"/>
            <path d="M160.668 92.7476C160.668 92.7476 168.201 80.5714 174.175 83.2663C174.175 83.2663 168.695 92.6495 160.329 94.868L160.668 92.7476Z"
                  fill="#1134E3"/>
            <path d="M162.97 81.5242C162.97 81.5242 169.665 71.4872 175.946 72.6969C175.946 72.6969 170.484 82.874 162.33 84.4246L162.97 81.5242Z"
                  fill="#1134E3"/>
            <path d="M165.027 71.0387C165.027 71.0387 172.631 61.2305 176.774 62.0805C176.774 62.0805 171.817 72.4118 164.938 72.9583L165.027 71.0387Z"
                  fill="#1134E3"/>
            <path d="M167.123 61.3283C167.123 61.3283 173.215 50.119 177.556 50.1937C177.556 50.1937 174.326 59.8478 167.287 62.3372L167.123 61.3283Z"
                  fill="#1134E3"/>
            <path d="M169.001 48.387C169.001 48.387 174.58 39.6344 178.272 39.0459C178.272 39.0459 174.552 50.1338 169.128 50.9138L169.001 48.387Z"
                  fill="#1134E3"/>
            <path d="M169.971 39.8119L173.959 22.8018C173.959 22.8018 176.647 37.1637 169.613 42.8851L169.971 39.8119Z"
                  fill="#1134E3"/>
            <path d="M169.773 21.7971C169.773 21.7971 168.686 8.30852 167.81 7.31836C167.81 7.31836 174.336 17.6309 170.691 27.6726L169.773 21.7971Z"
                  fill="#1134E3"/>
            <path d="M169.938 163.922C169.938 163.922 162.405 160.82 159.67 171.824C159.67 171.824 166.407 174.851 171.172 166.42L169.938 163.922Z"
                  fill="#1134E3"/>
            <path d="M165.056 152.932C165.056 152.932 156.049 150.489 153.733 161.881C153.733 161.881 160.936 165.253 166.266 155.524L165.056 152.932Z"
                  fill="#1134E3"/>
            <path d="M162.221 143.521C162.221 143.521 155.074 137.52 147.155 145.945C147.155 145.945 153.85 151.144 162.509 145.301L162.221 143.521Z"
                  fill="#1134E3"/>
            <path d="M159.67 132.629C159.67 132.629 152.391 126.333 144.858 134.614C144.858 134.614 152.777 139.939 159.947 134.334L159.67 132.629Z"
                  fill="#1134E3"/>
            <path d="M158.959 123.564C158.959 123.564 152.97 113.756 144.429 119.762C144.429 119.762 150.959 128.263 158.864 125.367L158.959 123.564Z"
                  fill="#1134E3"/>
            <path d="M159.166 112.158C159.166 112.158 153.177 102.168 144.571 108.632C144.571 108.632 151.934 117.506 159.011 113.877L159.166 112.158Z"
                  fill="#1134E3"/>
            <path d="M160.239 102.224C160.239 102.224 156.647 90.7953 148.695 91.0148C148.695 91.0148 152.367 103.093 159.547 104.522L160.239 102.224Z"
                  fill="#1134E3"/>
            <path d="M160.847 92.7382C160.847 92.7382 157.89 78.7499 151.36 79.2917C151.36 79.2917 153.328 89.9593 160.446 94.8493L160.847 92.7382Z"
                  fill="#1134E3"/>
            <path d="M163.577 81.0099C163.577 81.0099 159.735 69.5951 153.346 69.1514C153.346 69.1514 155.969 80.384 163.441 83.9804L163.577 81.0099Z"
                  fill="#1134E3"/>
            <path d="M165.771 71.0057C165.771 71.0057 163.709 58.8062 159.651 57.6152C159.651 57.6152 159.128 69.0441 164.933 72.7432L165.771 71.0057Z"
                  fill="#1134E3"/>
            <path d="M167.386 61.1468C167.386 61.1468 164.802 48.6531 160.616 47.5088C160.616 47.5088 160.913 57.6766 166.939 62.0622L167.386 61.1468Z"
                  fill="#1134E3"/>
            <path d="M169.712 49.3021C169.712 49.3021 168.017 39.0829 164.844 37.126C164.844 37.126 163.902 48.7743 168.61 51.6047L169.712 49.3021Z"
                  fill="#1134E3"/>
            <path d="M169.561 39.3447L164.072 22.7549C164.072 22.7549 162.659 37.299 170.192 42.3946L169.561 39.3447Z"
                  fill="#1134E3"/>
            <path d="M167.325 22.3572C167.325 22.3572 158.507 12.0306 158.441 10.7275C158.441 10.7275 161.138 22.6048 170.856 27.1772L167.325 22.3572Z"
                  fill="#1134E3"/>
            <path d="M167.584 18.85C167.584 18.85 158.37 3.64734 155.192 2.80664C155.192 2.80664 165.324 6.02465 168.055 18.2942L167.584 18.85Z"
                  fill="#1134E3"/>
            <path d="M169.11 51.0206L168.639 50.9552C171.242 32.1749 170.757 20.5266 167.264 18.1679L167.532 17.7803C171.238 20.2884 171.779 31.7826 169.11 51.0206Z"
                  fill="#636A7C"/>
            <path d="M160.729 95.3913L160.027 95.2652C160.347 93.5324 160.705 91.7669 161.101 90.0155C164.542 74.8128 167.287 60.7451 168.77 50.0402L169.302 49.6572C167.815 60.3995 165.239 74.9483 161.798 90.1743C161.402 91.8884 161.044 93.6445 160.729 95.3913Z"
                  fill="#636A7C"/>
            <path d="M190.8 191.628C190.696 191.544 180.094 182.973 171.026 166.874C165.726 157.453 161.966 147.258 159.886 136.669C157.282 123.433 157.664 108.123 160.282 93.8545L160.903 94.3776C155.041 126.408 163.587 151.676 171.845 166.383C180.79 182.329 191.28 190.81 191.388 190.895L190.8 191.628Z"
                  fill="#636A7C"/>
        </g>
        <path opacity="0.1"
              d="M376.006 327.406L328.778 345.532L259.747 372C257.143 367.204 253.301 360.642 248.546 352.851C232.199 325.972 205.146 284.166 181.068 247.427C153.93 206.032 130.578 171.078 130.578 171.078L147.485 166.216L285.585 126.483L376.006 327.406Z"
              fill="#202939"/>
        <path d="M376.947 324.136L329.72 342.263L260.688 368.731C258.085 363.934 254.243 357.372 249.488 349.582C233.141 322.702 206.088 280.896 182.01 244.158C154.872 202.763 131.52 167.808 131.52 167.808L148.427 162.946L286.527 123.214L376.947 324.136Z"
              fill="white"/>
        <path opacity="0.1"
              d="M376.947 324.136L329.72 342.263C303.342 347.713 276.425 350.169 249.488 349.582C233.141 322.703 206.088 280.896 182.01 244.158L148.427 162.946L286.527 123.214L376.947 324.136Z"
              fill="#202939"/>
        <path d="M412.085 312.861C412.085 312.861 338.712 355.915 229.172 346.2L141.835 135.002L183.686 127.87L328.359 103.224L410.446 308.779L412.085 312.861Z"
              fill="#1134E3"/>
        <path opacity="0.1"
              d="M410.446 308.779C393.167 309.62 373.185 309.541 353.072 307.163C331.311 304.632 309.446 299.392 290.66 289.798C274.973 281.779 261.559 273.068 249.859 262.611C219.44 235.466 200.612 196.635 183.705 127.87L328.378 103.224L410.446 308.779Z"
              fill="#202939"/>
        <path d="M464.265 296.972C464.265 296.972 410.159 307.49 355.139 301.012C333.378 298.466 311.49 293.24 292.727 283.647C277.04 275.627 263.626 266.917 251.926 256.459C214.261 222.831 194.388 171.353 173.888 67.3441C173.888 67.3441 263.815 88.8707 352.663 41.7168C352.663 41.7168 382.63 227.264 464.265 296.972Z"
              fill="white"/>
        <path opacity="0.1"
              d="M355.139 301.012C333.378 298.467 311.489 293.24 292.727 283.647C277.04 275.628 263.626 266.917 251.926 256.46C283.984 253.877 288.594 236.488 288.594 236.488C312.36 273.909 355.139 301.012 355.139 301.012Z"
              fill="#202939"/>
        <path opacity="0.3"
              d="M220.391 105.531C220.391 105.531 268.697 111 313.91 85.7979L317.008 95.6667C317.008 95.6667 273.754 117.063 220.391 117.063V105.531Z"
              fill="#1134E3"/>
        <path opacity="0.3"
              d="M220.391 154.241C220.391 154.241 268.415 150.397 321.876 124.765L323.684 128.865C323.684 128.865 304.008 153.428 220.391 159.845V154.241Z"
              fill="#202939"/>
        <path opacity="0.3"
              d="M226.083 173.24C226.083 173.24 274.107 169.396 327.568 143.769L329.376 147.869C329.376 147.869 309.705 172.455 226.083 178.877V173.24Z"
              fill="#202939"/>
        <path opacity="0.3"
              d="M231.291 193.72C231.291 193.72 279.314 189.876 332.775 164.249L334.583 168.35C334.583 168.35 314.884 192.922 231.291 199.358V193.72Z"
              fill="#202939"/>
        <path opacity="0.3"
              d="M237.472 211.272C237.472 211.272 285.496 207.428 338.957 181.801L340.765 185.902C340.765 185.902 321.094 210.478 237.472 216.914L237.472 211.272Z"
              fill="#202939"/>
        <path opacity="0.1"
              d="M243.169 230.291C243.169 230.291 291.193 226.447 344.654 200.819L346.462 204.92C346.462 204.92 326.786 229.497 243.169 235.928V230.291Z"
              fill="#202939"/>
        <path opacity="0.3" d="M329.809 116.513L343.246 111.975L347.821 125.305L334.383 129.843L329.809 116.513Z"
              fill="#1134E3"/>
        <path opacity="0.3" d="M337.453 136.345L350.891 131.807L355.466 145.137L342.028 149.675L337.453 136.345Z"
              fill="#1134E3"/>
        <path opacity="0.3" d="M349.708 174.503L363.146 169.965L367.721 183.295L354.283 187.833L349.708 174.503Z"
              fill="#1134E3"/>
        <path opacity="0.3" d="M356.74 194.982L370.178 190.444L374.752 203.775L361.315 208.313L356.74 194.982Z"
              fill="#1134E3"/>
        <path opacity="0.3" d="M343.686 156.946L357.124 152.408L361.698 165.739L348.261 170.277L343.686 156.946Z"
              fill="#1134E3"/>
        <path d="M338.915 121.933L332.563 118.86C332.38 118.772 332.24 118.615 332.174 118.424C332.108 118.233 332.121 118.024 332.21 117.842L332.883 116.469C332.972 116.287 333.13 116.147 333.323 116.081C333.516 116.015 333.727 116.029 333.91 116.119L338.189 118.188L342.658 109.099C342.844 108.721 343.302 108.563 343.684 108.744L345.068 109.416C345.252 109.504 345.393 109.661 345.459 109.852C345.526 110.044 345.512 110.253 345.421 110.435L339.941 121.583C339.852 121.765 339.693 121.904 339.501 121.969C339.308 122.035 339.097 122.022 338.915 121.933Z"
              fill="#36B37E"/>
        <path d="M352.79 161.246L346.438 158.172C346.255 158.084 346.115 157.927 346.049 157.736C345.983 157.545 345.996 157.336 346.085 157.154L346.758 155.781C346.946 155.402 347.407 155.246 347.789 155.431L352.064 157.5L356.528 148.402C356.714 148.024 357.172 147.866 357.554 148.047L358.934 148.719C359.118 148.807 359.259 148.964 359.326 149.155C359.393 149.346 359.381 149.555 359.292 149.737L353.811 160.886C353.622 161.262 353.163 161.418 352.78 161.236L352.79 161.246Z"
              fill="#36B37E"/>
        <path d="M346.561 141.868L340.209 138.795C339.829 138.61 339.669 138.156 339.852 137.777L340.53 136.403C340.618 136.221 340.776 136.081 340.969 136.016C341.162 135.95 341.373 135.963 341.556 136.053L345.836 138.122L350.304 129.019C350.393 128.838 350.551 128.699 350.744 128.633C350.936 128.568 351.147 128.58 351.33 128.669L352.714 129.337C353.094 129.525 353.251 129.98 353.067 130.36L347.582 141.518C347.493 141.699 347.335 141.838 347.142 141.904C346.95 141.969 346.739 141.957 346.556 141.868H346.561Z"
              fill="#36B37E"/>
        <path d="M358.816 178.994L352.465 175.921C352.282 175.833 352.142 175.675 352.076 175.485C352.009 175.294 352.022 175.084 352.112 174.903L352.785 173.53C352.874 173.348 353.033 173.209 353.225 173.144C353.418 173.078 353.628 173.091 353.811 173.179L358.091 175.249L362.559 166.16C362.747 165.781 363.207 165.623 363.59 165.805L364.97 166.477C365.154 166.565 365.294 166.722 365.361 166.913C365.427 167.104 365.413 167.314 365.323 167.495L359.847 178.644C359.658 179.02 359.199 179.176 358.816 178.994Z"
              fill="#36B37E"/>
    </g>
    <defs>
        <clipPath id="clip0_4964_26574">
            <rect width="544" height="372" fill="white"/>
        </clipPath>
    </defs>
</svg>
