<svg preserveAspectRatio="xMidYMid meet" viewBox="0 0 268 240" fill="none" xmlns="http://www.w3.org/2000/svg">
    <g clip-path="url(#clip0_7931_15495)">
        <path d="M137.248 0.523186L128.536 2.76702L21.2028 30.4116L12.4909 32.6554C8.26217 33.7496 4.64073 36.4744 2.42105 40.2321C0.201377 43.9897 -0.435266 48.4733 0.650795 52.6991L38.4278 199.007C39.5234 203.23 42.2516 206.847 46.0139 209.064C49.7763 211.281 54.2654 211.917 58.4966 210.832L58.5191 210.827L183.231 178.706L183.254 178.7C187.482 177.606 191.104 174.881 193.324 171.123C195.543 167.366 196.18 162.882 195.094 158.656L157.317 12.3485C156.221 8.12512 153.493 4.50819 149.731 2.29127C145.968 0.0743513 141.479 -0.561511 137.248 0.523186Z"
              fill="#F2F2F2"/>
        <path d="M138.433 5.11056L128.114 7.76823L23.9941 34.5852L13.6755 37.2428C10.6641 38.022 8.08522 39.9624 6.50452 42.6383C4.92383 45.3142 4.47046 48.5071 5.24387 51.5164L43.0209 197.824C43.8011 200.832 45.7439 203.408 48.4232 204.986C51.1024 206.565 54.2992 207.018 57.3123 206.245L57.3348 206.24L182.047 174.119L182.07 174.113C185.081 173.334 187.66 171.393 189.241 168.718C190.821 166.042 191.275 162.849 190.501 159.84L152.724 13.5317C151.944 10.5241 150.001 7.94843 147.322 6.36971C144.643 4.79099 141.446 4.33816 138.433 5.11056Z"
              fill="white"/>
        <path d="M130.641 52.4885L67.5524 68.7375C66.8478 68.919 66.0998 68.8135 65.4731 68.4442C64.8464 68.0749 64.3922 67.472 64.2105 66.7683C64.0288 66.0645 64.1344 65.3175 64.5042 64.6915C64.8739 64.0656 65.4775 63.612 66.1822 63.4305L129.271 47.1814C129.975 47.0007 130.723 47.1066 131.349 47.476C131.975 47.8454 132.429 48.4479 132.611 49.1513C132.792 49.8546 132.687 50.6012 132.318 51.227C131.948 51.8527 131.345 52.3065 130.641 52.4885Z"
              fill="#F2F2F2"/>
        <path d="M143.913 58.6219L69.8645 77.6936C69.1598 77.8751 68.4119 77.7696 67.7851 77.4003C67.1584 77.031 66.7042 76.4282 66.5225 75.7244C66.3408 75.0206 66.4464 74.2736 66.8162 73.6477C67.1859 73.0217 67.7895 72.5681 68.4942 72.3866L142.543 53.3148C143.247 53.1334 143.995 53.2389 144.622 53.6082C145.249 53.9775 145.703 54.5803 145.885 55.2841C146.066 55.9878 145.961 56.7349 145.591 57.3608C145.221 57.9868 144.617 58.4404 143.913 58.6219Z"
              fill="#F2F2F2"/>
        <path d="M141.004 92.6234L77.9152 108.872C77.5663 108.962 77.2031 108.983 76.8464 108.932C76.4896 108.882 76.1462 108.762 75.8359 108.579C75.5256 108.396 75.2543 108.154 75.0377 107.867C74.821 107.579 74.6632 107.252 74.5732 106.903C74.4833 106.555 74.4629 106.192 74.5133 105.836C74.5637 105.479 74.6839 105.136 74.8669 104.826C75.05 104.516 75.2925 104.246 75.5804 104.029C75.8683 103.813 76.196 103.655 76.5449 103.565L139.634 87.3163C139.983 87.2264 140.346 87.2061 140.703 87.2564C141.059 87.3068 141.403 87.4268 141.713 87.6096C142.023 87.7925 142.295 88.0346 142.511 88.3222C142.728 88.6097 142.886 88.9371 142.976 89.2855C143.066 89.634 143.086 89.9968 143.036 90.3531C142.985 90.7094 142.865 91.0523 142.682 91.3623C142.499 91.6722 142.257 91.9431 141.969 92.1595C141.681 92.3759 141.353 92.5335 141.004 92.6234Z"
              fill="#F2F2F2"/>
        <path d="M154.276 98.7562L80.2272 117.828C79.8783 117.918 79.5151 117.938 79.1584 117.888C78.8016 117.837 78.4582 117.717 78.1479 117.535C77.8376 117.352 77.5663 117.11 77.3497 116.822C77.133 116.535 76.9752 116.207 76.8853 115.859C76.7953 115.51 76.7749 115.147 76.8253 114.791C76.8757 114.435 76.9959 114.092 77.179 113.782C77.362 113.472 77.6045 113.201 77.8924 112.985C78.1803 112.768 78.508 112.611 78.8569 112.521L152.905 93.4491C153.61 93.2676 154.358 93.3732 154.985 93.7425C155.611 94.1118 156.066 94.7146 156.247 95.4184C156.429 96.1221 156.323 96.8692 155.954 97.4951C155.584 98.1211 154.98 98.5747 154.276 98.7562Z"
              fill="#F2F2F2"/>
        <path d="M151.367 132.758L88.2782 149.007C87.5737 149.188 86.8262 149.082 86.1998 148.712C85.5735 148.343 85.1196 147.74 84.938 147.037C84.7564 146.334 84.8618 145.587 85.2312 144.961C85.6006 144.335 86.2037 143.882 86.9079 143.7L149.997 127.451C150.701 127.269 151.449 127.375 152.076 127.744C152.703 128.113 153.157 128.716 153.339 129.42C153.52 130.124 153.415 130.871 153.045 131.497C152.675 132.123 152.072 132.576 151.367 132.758Z"
              fill="#F2F2F2"/>
        <path d="M164.639 138.891L90.5904 157.963C90.2414 158.053 89.878 158.074 89.521 158.023C89.164 157.973 88.8204 157.853 88.5098 157.671C88.1992 157.488 87.9277 157.246 87.7109 156.958C87.4941 156.67 87.3361 156.343 87.2461 155.994C87.1561 155.645 87.1357 155.282 87.1862 154.926C87.2367 154.569 87.3571 154.226 87.5404 153.916C87.7238 153.606 87.9665 153.335 88.2547 153.119C88.5429 152.903 88.871 152.745 89.2202 152.656L163.269 133.584C163.973 133.402 164.721 133.508 165.348 133.877C165.975 134.247 166.429 134.849 166.611 135.553C166.792 136.257 166.687 137.004 166.317 137.63C165.947 138.256 165.343 138.709 164.639 138.891Z"
              fill="#F2F2F2"/>
        <path d="M56.782 85.3988L34.4554 91.1492C34.1176 91.2358 33.7591 91.1851 33.4587 91.0081C33.1582 90.831 32.9404 90.5422 32.8529 90.205L27.7279 70.3561C27.6412 70.0186 27.692 69.6606 27.8692 69.3606C28.0465 69.0605 28.3357 68.8429 28.6733 68.7556L50.9999 63.0052C51.3377 62.9186 51.6962 62.9693 51.9966 63.1463C52.297 63.3234 52.5149 63.6122 52.6023 63.9494L57.7274 83.7984C57.8141 84.1358 57.7633 84.4938 57.5861 84.7939C57.4088 85.0939 57.1196 85.3115 56.782 85.3988Z"
              fill="#E6E6E6"/>
        <path d="M67.1448 125.533L44.8182 131.283C44.4804 131.37 44.1219 131.319 43.8215 131.142C43.521 130.965 43.3032 130.676 43.2157 130.339L38.0907 110.49C38.004 110.153 38.0548 109.795 38.232 109.495C38.4093 109.195 38.6984 108.977 39.0361 108.89L61.3627 103.139C61.7005 103.053 62.059 103.104 62.3594 103.281C62.6598 103.458 62.8777 103.746 62.9651 104.084L68.0902 123.933C68.1769 124.27 68.1261 124.628 67.9488 124.928C67.7716 125.228 67.4824 125.446 67.1448 125.533Z"
              fill="#E6E6E6"/>
        <path d="M77.5076 165.668L55.181 171.418C54.8431 171.505 54.4847 171.454 54.1843 171.277C53.8838 171.1 53.666 170.811 53.5785 170.474L48.4535 150.625C48.3667 150.288 48.4176 149.93 48.5948 149.63C48.7721 149.33 49.0612 149.112 49.3989 149.025L71.7255 143.274C72.0633 143.188 72.4218 143.238 72.7222 143.415C73.0226 143.592 73.2405 143.881 73.3279 144.218L78.453 164.067C78.5397 164.405 78.4889 164.763 78.3116 165.063C78.1344 165.363 77.8452 165.581 77.5076 165.668Z"
              fill="#E6E6E6"/>
        <path d="M224.26 37.6104H95.4212C91.0529 37.6153 86.8649 39.3506 83.7761 42.4356C80.6872 45.5206 78.9497 49.7033 78.9448 54.0662V205.161C78.9497 209.524 80.6872 213.706 83.7761 216.791C86.8649 219.876 91.0529 221.612 95.4212 221.616H224.26C228.628 221.612 232.816 219.876 235.905 216.791C238.994 213.706 240.731 209.524 240.736 205.161V54.0662C240.731 49.7033 238.994 45.5206 235.905 42.4356C232.816 39.3506 228.628 37.6153 224.26 37.6104Z"
              fill="#E6E6E6"/>
        <path d="M224.26 42.3477H95.4212C92.3104 42.3511 89.3281 43.5869 87.1284 45.7838C84.9288 47.9807 83.6915 50.9593 83.688 54.0662V205.161C83.6915 208.268 84.9288 211.246 87.1284 213.443C89.3281 215.64 92.3105 216.876 95.4212 216.879H224.26C227.371 216.876 230.353 215.64 232.553 213.443C234.752 211.246 235.99 208.268 235.993 205.161V54.0662C235.99 50.9594 234.752 47.9807 232.553 45.7838C230.353 43.5869 227.371 42.3512 224.26 42.3477Z"
              fill="white"/>
        <path d="M259.063 231.202C270.809 219.471 270.809 200.451 259.063 188.72C247.317 176.989 228.274 176.989 216.528 188.72C204.782 200.451 204.782 219.471 216.528 231.202C228.274 242.933 247.317 242.933 259.063 231.202Z"
              fill="#43A788"/>
        <path d="M233.271 227.468C232.698 227.468 232.133 227.335 231.62 227.078C231.108 226.822 230.662 226.45 230.318 225.991L221.265 213.92C220.974 213.532 220.762 213.09 220.642 212.621C220.522 212.151 220.495 211.663 220.563 211.183C220.632 210.703 220.794 210.241 221.041 209.824C221.288 209.407 221.615 209.043 222.003 208.752C222.391 208.461 222.832 208.249 223.302 208.129C223.771 208.009 224.26 207.982 224.74 208.051C225.22 208.119 225.681 208.282 226.099 208.529C226.516 208.776 226.88 209.102 227.171 209.49L233.094 217.387L248.307 194.568C248.576 194.165 248.921 193.818 249.324 193.549C249.727 193.279 250.179 193.091 250.654 192.996C251.13 192.901 251.619 192.9 252.095 192.994C252.57 193.089 253.023 193.275 253.426 193.544C253.829 193.813 254.176 194.159 254.446 194.562C254.715 194.965 254.903 195.416 254.998 195.892C255.093 196.367 255.094 196.857 255 197.332C254.906 197.808 254.719 198.26 254.45 198.663L236.343 225.824C236.015 226.315 235.575 226.721 235.058 227.007C234.541 227.292 233.964 227.45 233.374 227.467C233.339 227.467 233.305 227.468 233.271 227.468Z"
              fill="white"/>
        <path d="M204.87 125.374H139.717C139.356 125.374 138.999 125.304 138.666 125.166C138.333 125.028 138.03 124.827 137.775 124.572C137.52 124.318 137.317 124.015 137.179 123.683C137.041 123.35 136.97 122.994 136.97 122.633C136.97 122.273 137.041 121.917 137.179 121.584C137.317 121.251 137.52 120.949 137.775 120.695C138.03 120.44 138.333 120.238 138.666 120.101C138.999 119.963 139.356 119.893 139.717 119.893H204.87C205.597 119.894 206.294 120.183 206.808 120.697C207.322 121.211 207.611 121.907 207.611 122.633C207.611 123.36 207.322 124.056 206.808 124.57C206.294 125.084 205.597 125.373 204.87 125.374Z"
              fill="#E6E6E6"/>
        <path d="M216.188 134.622H139.717C139.356 134.623 138.999 134.552 138.666 134.415C138.333 134.277 138.03 134.075 137.775 133.821C137.52 133.566 137.317 133.264 137.179 132.931C137.041 132.599 136.97 132.242 136.97 131.882C136.97 131.522 137.041 131.165 137.179 130.833C137.317 130.5 137.52 130.198 137.775 129.943C138.03 129.689 138.333 129.487 138.666 129.349C138.999 129.212 139.356 129.141 139.717 129.142H216.188C216.916 129.142 217.614 129.43 218.128 129.944C218.643 130.458 218.932 131.155 218.932 131.882C218.932 132.609 218.643 133.306 218.128 133.82C217.614 134.334 216.916 134.622 216.188 134.622Z"
              fill="#E6E6E6"/>
        <path d="M204.87 166.822H139.717C139.356 166.822 138.999 166.751 138.666 166.614C138.333 166.476 138.03 166.274 137.775 166.02C137.52 165.765 137.317 165.463 137.179 165.131C137.041 164.798 136.97 164.441 136.97 164.081C136.97 163.721 137.041 163.364 137.179 163.032C137.317 162.699 137.52 162.397 137.775 162.142C138.03 161.888 138.333 161.686 138.666 161.549C138.999 161.411 139.356 161.34 139.717 161.341H204.87C205.598 161.341 206.296 161.63 206.81 162.143C207.325 162.657 207.614 163.354 207.614 164.081C207.614 164.808 207.325 165.505 206.81 166.019C206.296 166.533 205.598 166.822 204.87 166.822Z"
              fill="#E6E6E6"/>
        <path d="M216.188 176.07H139.717C139.356 176.07 138.999 176 138.666 175.862C138.333 175.725 138.03 175.523 137.775 175.268C137.52 175.014 137.317 174.712 137.179 174.379C137.041 174.046 136.97 173.69 136.97 173.33C136.97 172.97 137.041 172.613 137.179 172.28C137.317 171.948 137.52 171.645 137.775 171.391C138.03 171.136 138.333 170.935 138.666 170.797C138.999 170.66 139.356 170.589 139.717 170.589H216.188C216.549 170.589 216.906 170.66 217.239 170.797C217.572 170.935 217.875 171.136 218.13 171.391C218.385 171.645 218.588 171.948 218.726 172.28C218.864 172.613 218.935 172.97 218.935 173.33C218.935 173.69 218.864 174.046 218.726 174.379C218.588 174.712 218.385 175.014 218.13 175.268C217.875 175.523 217.572 175.725 217.239 175.862C216.906 176 216.549 176.07 216.188 176.07Z"
              fill="#E6E6E6"/>
        <path d="M125.122 138.821H102.065C101.716 138.821 101.382 138.682 101.135 138.436C100.889 138.189 100.75 137.855 100.75 137.507V117.009C100.75 116.66 100.889 116.326 101.135 116.08C101.382 115.834 101.716 115.695 102.065 115.695H125.122C125.471 115.695 125.805 115.834 126.052 116.08C126.299 116.326 126.437 116.66 126.438 117.009V137.507C126.437 137.855 126.299 138.189 126.052 138.436C125.805 138.682 125.471 138.821 125.122 138.821Z"
              fill="#E6E6E6"/>
        <path d="M125.122 180.268H102.065C101.716 180.268 101.382 180.129 101.135 179.883C100.889 179.637 100.75 179.303 100.75 178.954V158.456C100.75 158.108 100.889 157.774 101.135 157.527C101.382 157.281 101.716 157.142 102.065 157.142H125.122C125.471 157.142 125.805 157.281 126.052 157.527C126.299 157.774 126.437 158.108 126.438 158.456V178.954C126.437 179.303 126.299 179.637 126.052 179.883C125.805 180.129 125.471 180.268 125.122 180.268Z"
              fill="#E6E6E6"/>
        <path d="M204.942 79.2346H156.907C156.18 79.2346 155.482 78.9459 154.967 78.432C154.453 77.918 154.164 77.221 154.164 76.4942C154.164 75.7675 154.453 75.0704 154.967 74.5565C155.482 74.0426 156.18 73.7539 156.907 73.7539H204.942C205.67 73.7539 206.367 74.0426 206.882 74.5565C207.397 75.0704 207.686 75.7675 207.686 76.4942C207.686 77.221 207.397 77.918 206.882 78.432C206.367 78.9459 205.67 79.2346 204.942 79.2346Z"
              fill="#E1E1E1"/>
        <path d="M216.26 88.4831H156.907C156.547 88.4831 156.19 88.4122 155.857 88.2745C155.524 88.1368 155.222 87.9349 154.967 87.6805C154.712 87.426 154.51 87.1239 154.372 86.7915C154.235 86.459 154.164 86.1026 154.164 85.7428C154.164 85.3829 154.235 85.0266 154.372 84.6941C154.51 84.3616 154.712 84.0595 154.967 83.8051C155.222 83.5506 155.524 83.3487 155.857 83.211C156.19 83.0733 156.547 83.0024 156.907 83.0024H216.26C216.988 83.0024 217.685 83.2911 218.2 83.8051C218.715 84.319 219.004 85.016 219.004 85.7428C219.004 86.4696 218.715 87.1666 218.2 87.6805C217.685 88.1944 216.988 88.4831 216.26 88.4831Z"
              fill="#E1E1E1"/>
        <path d="M146.277 99.6912H101.993C101.644 99.6908 101.31 99.5522 101.063 99.3059C100.816 99.0596 100.678 98.7256 100.677 98.3772V63.8594C100.678 63.511 100.816 63.177 101.063 62.9307C101.31 62.6843 101.644 62.5458 101.993 62.5454H146.277C146.625 62.5458 146.96 62.6843 147.206 62.9307C147.453 63.177 147.592 63.511 147.592 63.8594V98.3772C147.592 98.7256 147.453 99.0596 147.206 99.3059C146.96 99.5522 146.625 99.6908 146.277 99.6912Z"
              fill="#E0E0E0"/>
    </g>
    <defs>
        <clipPath id="clip0_7931_15495">
            <rect width="267.746" height="240" fill="white" transform="translate(0.126953)"/>
        </clipPath>
    </defs>
</svg>
