<svg xmlns="http://www.w3.org/2000/svg" preserveAspectRatio="xMidYMid meet" viewBox="0 0 18 18" fill="none">
    <path d="M15.9834 2.01657C15.8419 1.87519 15.6653 1.77408 15.4718 1.72366C15.2782 1.67323 15.0748 1.67532 14.8823 1.72969H14.8717L1.37596 5.82469C1.15627 5.88787 0.961044 6.01647 0.816271 6.19338C0.671498 6.37028 0.58405 6.58709 0.565572 6.81493C0.547094 7.04278 0.598463 7.27084 0.712838 7.46876C0.827213 7.66668 0.999167 7.82506 1.2058 7.92282L7.22596 10.774L10.0771 16.7941C10.1671 16.9869 10.3104 17.1499 10.4901 17.2639C10.6698 17.3779 10.8783 17.4382 11.091 17.4375C11.1234 17.4375 11.1557 17.4361 11.1881 17.4333C11.4151 17.4149 11.6311 17.3275 11.807 17.1829C11.983 17.0382 12.1105 16.8432 12.1724 16.624L16.2646 3.12821C16.2646 3.12469 16.2646 3.12118 16.2646 3.11766C16.3197 2.92568 16.3227 2.7225 16.2733 2.52899C16.2238 2.33548 16.1238 2.15861 15.9834 2.01657ZM11.0974 16.302L11.0939 16.3118L8.32635 10.4695L11.6479 7.14727C11.7489 7.04092 11.8044 6.89931 11.8026 6.75263C11.8007 6.60596 11.7416 6.46581 11.6379 6.36209C11.5341 6.25836 11.394 6.19926 11.2473 6.19738C11.1006 6.1955 10.959 6.251 10.8527 6.35203L7.53041 9.6736L1.68744 6.9061H1.69729L15.1874 2.8125L11.0974 16.302Z"
          fill="white"/>
</svg>
