<svg xmlns="http://www.w3.org/2000/svg" preserveAspectRatio="xMidYMid meet" viewBox="0 0 24 24" fill="none">
    <path d="M11.625 2.25C14.1106 2.25273 16.4935 3.24133 18.2511 4.99889C20.0087 6.75645 20.9973 9.13943 21 11.625V19.5309C20.9995 19.9204 20.8446 20.2938 20.5692 20.5692C20.2938 20.8446 19.9204 20.9995 19.5309 21H11.625C9.1386 21 6.75403 20.0123 4.99587 18.2541C3.23772 16.496 2.25 14.1114 2.25 11.625C2.25 9.1386 3.23772 6.75403 4.99587 4.99587C6.75403 3.23772 9.1386 2.25 11.625 2.25ZM9 14.25H15C15.1989 14.25 15.3897 14.171 15.5303 14.0303C15.671 13.8897 15.75 13.6989 15.75 13.5C15.75 13.3011 15.671 13.1103 15.5303 12.9697C15.3897 12.829 15.1989 12.75 15 12.75H9C8.80109 12.75 8.61032 12.829 8.46967 12.9697C8.32902 13.1103 8.25 13.3011 8.25 13.5C8.25 13.6989 8.32902 13.8897 8.46967 14.0303C8.61032 14.171 8.80109 14.25 9 14.25ZM9 11.25H15C15.1989 11.25 15.3897 11.171 15.5303 11.0303C15.671 10.8897 15.75 10.6989 15.75 10.5C15.75 10.3011 15.671 10.1103 15.5303 9.96967C15.3897 9.82902 15.1989 9.75 15 9.75H9C8.80109 9.75 8.61032 9.82902 8.46967 9.96967C8.32902 10.1103 8.25 10.3011 8.25 10.5C8.25 10.6989 8.32902 10.8897 8.46967 11.0303C8.61032 11.171 8.80109 11.25 9 11.25Z"
          fill="white"/>
</svg>
