<svg xmlns="http://www.w3.org/2000/svg" preserveAspectRatio="xMidYMid meet" viewBox="0 0 24 24" fill="none">
    <path d="M15.5304 8.46926C15.6001 8.53892 15.6555 8.62164 15.6932 8.71269C15.7309 8.80373 15.7504 8.90133 15.7504 8.99989C15.7504 9.09845 15.7309 9.19605 15.6932 9.2871C15.6555 9.37814 15.6001 9.46086 15.5304 9.53052L9.53041 15.5305C9.46072 15.6002 9.378 15.6555 9.28695 15.6932C9.19591 15.7309 9.09833 15.7503 8.99978 15.7503C8.90123 15.7503 8.80365 15.7309 8.71261 15.6932C8.62156 15.6555 8.53884 15.6002 8.46915 15.5305C8.39947 15.4608 8.3442 15.3781 8.30649 15.2871C8.26877 15.196 8.24936 15.0984 8.24936 14.9999C8.24936 14.9013 8.26877 14.8038 8.30649 14.7127C8.3442 14.6217 8.39947 14.5389 8.46915 14.4693L14.4692 8.46926C14.5388 8.39953 14.6215 8.34421 14.7126 8.30647C14.8036 8.26873 14.9012 8.2493 14.9998 8.2493C15.0983 8.2493 15.1959 8.26873 15.287 8.30647C15.378 8.34421 15.4608 8.39953 15.5304 8.46926ZM20.2123 3.78739C19.7248 3.29983 19.146 2.91307 18.509 2.6492C17.872 2.38532 17.1893 2.24951 16.4998 2.24951C15.8103 2.24951 15.1276 2.38532 14.4906 2.6492C13.8536 2.91307 13.2748 3.29983 12.7873 3.78739L9.96915 6.60458C9.82842 6.74531 9.74936 6.93618 9.74936 7.1352C9.74936 7.33423 9.82842 7.5251 9.96915 7.66583C10.1099 7.80656 10.3008 7.88562 10.4998 7.88562C10.6988 7.88562 10.8897 7.80656 11.0304 7.66583L13.8485 4.85333C14.5544 4.163 15.504 3.77887 16.4912 3.78431C17.4785 3.78975 18.4238 4.18431 19.122 4.88237C19.8202 5.58043 20.2149 6.52566 20.2205 7.51294C20.2261 8.50022 19.8422 9.44988 19.152 10.1558L16.3329 12.974C16.1922 13.1146 16.1131 13.3053 16.113 13.5042C16.1129 13.7032 16.1918 13.894 16.3324 14.0347C16.473 14.1755 16.6638 14.2546 16.8627 14.2547C17.0617 14.2548 17.2525 14.1758 17.3932 14.0352L20.2123 11.2124C20.6998 10.7249 21.0866 10.1461 21.3505 9.5091C21.6143 8.87211 21.7502 8.18937 21.7502 7.49989C21.7502 6.81041 21.6143 6.12767 21.3505 5.49068C21.0866 4.85368 20.6998 4.2749 20.2123 3.78739ZM12.9692 16.333L10.151 19.1511C9.80423 19.5057 9.39053 19.788 8.93389 19.9816C8.47725 20.1752 7.98674 20.2763 7.49076 20.279C6.99477 20.2818 6.50318 20.1861 6.04443 19.9975C5.58569 19.809 5.1689 19.5313 4.81822 19.1805C4.46753 18.8298 4.18991 18.4129 4.00143 17.9542C3.81294 17.4954 3.71734 17.0038 3.72016 16.5078C3.72298 16.0118 3.82416 15.5213 4.01785 15.0647C4.21154 14.6081 4.49388 14.1944 4.84853 13.8477L7.66572 11.0305C7.80645 10.8898 7.88551 10.6989 7.88551 10.4999C7.88551 10.3009 7.80645 10.11 7.66572 9.96926C7.52499 9.82853 7.33412 9.74947 7.13509 9.74947C6.93607 9.74947 6.7452 9.82853 6.60447 9.96926L3.78728 12.7874C2.80266 13.772 2.24951 15.1074 2.24951 16.4999C2.24951 17.8923 2.80266 19.2278 3.78728 20.2124C4.7719 21.197 6.10732 21.7502 7.49978 21.7502C8.89224 21.7502 10.2277 21.197 11.2123 20.2124L14.0304 17.3933C14.171 17.2526 14.25 17.0618 14.2499 16.8628C14.2498 16.6639 14.1707 16.4732 14.0299 16.3325C13.8892 16.1919 13.6984 16.113 13.4994 16.1131C13.3005 16.1132 13.1098 16.1923 12.9692 16.333Z"
          fill="#343330"/>
</svg>
