<svg preserveAspectRatio="xMidYMid meet" viewBox="0 0 24 24" fill="none" xmlns="http://www.w3.org/2000/svg">
    <path d="M15.75 5.25C15.75 5.05108 15.829 4.86032 15.9697 4.71967C16.1103 4.57901 16.3011 4.5 16.5 4.5H18V3C18 2.80108 18.079 2.61032 18.2197 2.46967C18.3603 2.32901 18.5511 2.25 18.75 2.25C18.9489 2.25 19.1397 2.32901 19.2804 2.46967C19.421 2.61032 19.5 2.80108 19.5 3V4.5H21C21.1989 4.5 21.3897 4.57901 21.5304 4.71967C21.671 4.86032 21.75 5.05108 21.75 5.25C21.75 5.44891 21.671 5.63967 21.5304 5.78033C21.3897 5.92098 21.1989 6 21 6H19.5V7.5C19.5 7.69891 19.421 7.88967 19.2804 8.03033C19.1397 8.17098 18.9489 8.25 18.75 8.25C18.5511 8.25 18.3603 8.17098 18.2197 8.03033C18.079 7.88967 18 7.69891 18 7.5V6H16.5C16.3011 6 16.1103 5.92098 15.9697 5.78033C15.829 5.63967 15.75 5.44891 15.75 5.25ZM21.615 10.3762C21.9577 12.413 21.6441 14.506 20.7197 16.353C19.7953 18.1999 18.3079 19.7053 16.4721 20.6518C14.6363 21.5983 12.5473 21.9369 10.5065 21.6187C8.4658 21.3005 6.57899 20.3419 5.11854 18.8815C3.65808 17.421 2.69955 15.5342 2.38135 13.4935C2.06314 11.4528 2.40172 9.36369 3.3482 7.52793C4.29468 5.69217 5.80008 4.2047 7.64706 3.28028C9.49403 2.35587 11.587 2.04235 13.6238 2.385C13.8185 2.41942 13.9917 2.52934 14.1057 2.69082C14.2198 2.8523 14.2655 3.05229 14.2329 3.24729C14.2003 3.44229 14.092 3.61652 13.9315 3.73208C13.7711 3.84764 13.5716 3.89518 13.3763 3.86437C12.1933 3.66536 10.9811 3.72653 9.82416 4.04363C8.6672 4.36072 7.59324 4.92611 6.67701 5.70046C5.76078 6.47481 5.0243 7.43952 4.51881 8.52744C4.01332 9.61537 3.75097 10.8004 3.75002 12C3.74825 14.0196 4.49051 15.969 5.83502 17.4759C6.67149 16.2638 7.84767 15.3261 9.21565 14.7806C8.48082 14.2019 7.94461 13.4085 7.68159 12.5108C7.41857 11.6132 7.44181 10.6559 7.74807 9.77207C8.05434 8.88825 8.62841 8.12183 9.39046 7.57939C10.1525 7.03696 11.0646 6.74547 12 6.74547C12.9354 6.74547 13.8475 7.03696 14.6096 7.57939C15.3716 8.12183 15.9457 8.88825 16.252 9.77207C16.5582 10.6559 16.5815 11.6132 16.3185 12.5108C16.0554 13.4085 15.5192 14.2019 14.7844 14.7806C16.1524 15.3261 17.3286 16.2638 18.165 17.4759C19.5095 15.969 20.2518 14.0196 20.25 12C20.2501 11.5389 20.2118 11.0785 20.1356 10.6237C20.1184 10.5262 20.1206 10.4262 20.1423 10.3295C20.1639 10.2328 20.2044 10.1413 20.2616 10.0604C20.3188 9.9795 20.3914 9.9107 20.4753 9.85801C20.5592 9.80531 20.6527 9.76977 20.7504 9.75342C20.8482 9.73707 20.9481 9.74025 21.0446 9.76276C21.1411 9.78528 21.2322 9.82668 21.3126 9.88459C21.393 9.9425 21.4611 10.0158 21.513 10.1002C21.5649 10.1845 21.5996 10.2784 21.615 10.3762ZM12 14.25C12.5934 14.25 13.1734 14.074 13.6667 13.7444C14.1601 13.4148 14.5446 12.9462 14.7717 12.398C14.9987 11.8499 15.0581 11.2467 14.9424 10.6647C14.8266 10.0828 14.5409 9.54823 14.1213 9.12867C13.7018 8.70912 13.1672 8.4234 12.5853 8.30764C12.0034 8.19188 11.4002 8.25129 10.852 8.47836C10.3038 8.70542 9.83526 9.08994 9.50562 9.58329C9.17597 10.0766 9.00003 10.6567 9.00003 11.25C9.00003 12.0456 9.3161 12.8087 9.8787 13.3713C10.4413 13.9339 11.2044 14.25 12 14.25ZM12 20.25C13.8313 20.2518 15.6106 19.6414 17.055 18.5156C16.5125 17.6671 15.765 16.9688 14.8816 16.485C13.9982 16.0013 13.0072 15.7478 12 15.7478C10.9928 15.7478 10.0019 16.0013 9.11845 16.485C8.23503 16.9688 7.48759 17.6671 6.94502 18.5156C8.38943 19.6414 10.1687 20.2518 12 20.25Z"
          fill="#202939"/>
</svg>
