<svg preserveAspectRatio="xMidYMid meet" viewBox="0 0 24 24" fill="none" xmlns="http://www.w3.org/2000/svg">
    <path d="M3.96938 7.71938L9.21937 2.46938C9.28908 2.39975 9.37182 2.34454 9.46286 2.3069C9.55391 2.26926 9.65148 2.24992 9.75 2.25H18.75C19.1478 2.25 19.5294 2.40804 19.8107 2.68934C20.092 2.97064 20.25 3.35218 20.25 3.75V13.25C20.25 13.4489 20.171 13.6397 20.0303 13.7803C19.8897 13.921 19.6989 14 19.5 14C19.3011 14 19.1103 13.921 18.9697 13.7803C18.829 13.6397 18.75 13.4489 18.75 13.25V3.75H10.5V8.25C10.5 8.44891 10.421 8.63968 10.2803 8.78033C10.1397 8.92098 9.94891 9 9.75 9H5.25V20.25H10.25C10.4489 20.25 10.6397 20.329 10.7803 20.4697C10.921 20.6103 11 20.8011 11 21C11 21.1989 10.921 21.3897 10.7803 21.5303C10.6397 21.671 10.4489 21.75 10.25 21.75H5.25C4.85217 21.75 4.47064 21.592 4.18934 21.3107C3.90804 21.0294 3.75 20.6478 3.75 20.25V8.25C3.74992 8.15148 3.76925 8.05391 3.8069 7.96286C3.84454 7.87182 3.89975 7.78908 3.96938 7.71938ZM9 4.81031L6.31031 7.5H9V4.81031Z"
          fill="#202939"/>
    <path d="M17.5303 16.2197C17.3897 16.079 17.1989 16 17 16C16.8011 16 16.6103 16.079 16.4697 16.2197C16.329 16.3603 16.25 16.5511 16.25 16.75V18.25H14.75C14.5511 18.25 14.3603 18.329 14.2197 18.4697C14.079 18.6103 14 18.8011 14 19C14 19.1989 14.079 19.3897 14.2197 19.5303C14.3603 19.671 14.5511 19.75 14.75 19.75H16.25V21.25C16.25 21.4489 16.329 21.6397 16.4697 21.7803C16.6103 21.921 16.8011 22 17 22C17.1989 22 17.3897 21.921 17.5303 21.7803C17.671 21.6397 17.75 21.4489 17.75 21.25V19.75H19.25C19.4489 19.75 19.6397 19.671 19.7803 19.5303C19.921 19.3897 20 19.1989 20 19C20 18.8011 19.921 18.6103 19.7803 18.4697C19.6397 18.329 19.4489 18.25 19.25 18.25H17.75V16.75C17.75 16.5511 17.671 16.3603 17.5303 16.2197Z"
          fill="#202939"/>
</svg>
