<svg preserveAspectRatio="xMidYMid meet" viewBox="0 0 167 16" fill="none" xmlns="http://www.w3.org/2000/svg">
    <path d="M0 12V3.27273H2.94886C3.63352 3.27273 4.19318 3.39631 4.62784 3.64347C5.06534 3.88778 5.3892 4.21875 5.59943 4.63636C5.80966 5.05398 5.91477 5.51989 5.91477 6.03409C5.91477 6.5483 5.80966 7.01562 5.59943 7.43608C5.39205 7.85653 5.07102 8.19176 4.63636 8.44176C4.2017 8.68892 3.64489 8.8125 2.96591 8.8125H0.852273V7.875H2.93182C3.40057 7.875 3.77699 7.79403 4.06108 7.6321C4.34517 7.47017 4.55114 7.25142 4.67898 6.97585C4.80966 6.69744 4.875 6.38352 4.875 6.03409C4.875 5.68466 4.80966 5.37216 4.67898 5.09659C4.55114 4.82102 4.34375 4.60511 4.05682 4.44886C3.76989 4.28977 3.3892 4.21023 2.91477 4.21023H1.05682V12H0Z" fill="#BABCBE"/>
    <path d="M10.3096 12.1364C9.71869 12.1364 9.20023 11.9957 8.7542 11.7145C8.31102 11.4332 7.96443 11.0398 7.71443 10.5341C7.46727 10.0284 7.34369 9.4375 7.34369 8.76136C7.34369 8.07955 7.46727 7.48437 7.71443 6.97585C7.96443 6.46733 8.31102 6.07244 8.7542 5.79119C9.20023 5.50994 9.71869 5.36932 10.3096 5.36932C10.9005 5.36932 11.4176 5.50994 11.8607 5.79119C12.3068 6.07244 12.6534 6.46733 12.9005 6.97585C13.1505 7.48437 13.2755 8.07955 13.2755 8.76136C13.2755 9.4375 13.1505 10.0284 12.9005 10.5341C12.6534 11.0398 12.3068 11.4332 11.8607 11.7145C11.4176 11.9957 10.9005 12.1364 10.3096 12.1364ZM10.3096 11.233C10.7585 11.233 11.1278 11.1179 11.4176 10.8878C11.7073 10.6577 11.9218 10.3551 12.061 9.98011C12.2002 9.60511 12.2698 9.19886 12.2698 8.76136C12.2698 8.32386 12.2002 7.91619 12.061 7.53835C11.9218 7.16051 11.7073 6.85511 11.4176 6.62216C11.1278 6.3892 10.7585 6.27273 10.3096 6.27273C9.86074 6.27273 9.49142 6.3892 9.20165 6.62216C8.91188 6.85511 8.69739 7.16051 8.55818 7.53835C8.41898 7.91619 8.34937 8.32386 8.34937 8.76136C8.34937 9.19886 8.41898 9.60511 8.55818 9.98011C8.69739 10.3551 8.91188 10.6577 9.20165 10.8878C9.49142 11.1179 9.86074 11.233 10.3096 11.233Z" fill="#BABCBE"/>
    <path d="M16.311 12L14.3166 5.45455H15.3735L16.7882 10.4659H16.8564L18.2541 5.45455H19.328L20.7087 10.4489H20.7769L22.1916 5.45455H23.2485L21.2541 12H20.2655L18.8337 6.97159H18.7314L17.2996 12H16.311Z" fill="#BABCBE"/>
    <path d="M27.3397 12.1364C26.709 12.1364 26.165 11.9972 25.7076 11.7188C25.253 11.4375 24.9022 11.0455 24.655 10.5426C24.4107 10.0369 24.2885 9.44886 24.2885 8.77841C24.2885 8.10795 24.4107 7.51705 24.655 7.00568C24.9022 6.49148 25.2459 6.09091 25.6863 5.80398C26.1294 5.5142 26.6465 5.36932 27.2374 5.36932C27.5783 5.36932 27.915 5.42614 28.2473 5.53977C28.5797 5.65341 28.8823 5.83807 29.155 6.09375C29.4277 6.34659 29.6451 6.68182 29.807 7.09943C29.9689 7.51705 30.0499 8.03125 30.0499 8.64205V9.06818H25.0044V8.19886H29.0272C29.0272 7.82955 28.9533 7.5 28.8056 7.21023C28.6607 6.92045 28.4533 6.69176 28.1834 6.52415C27.9164 6.35653 27.601 6.27273 27.2374 6.27273C26.8368 6.27273 26.4902 6.37216 26.1976 6.57102C25.9079 6.76705 25.6848 7.02273 25.5286 7.33807C25.3723 7.65341 25.2942 7.99148 25.2942 8.35227V8.93182C25.2942 9.42614 25.3794 9.84517 25.5499 10.1889C25.7232 10.5298 25.9633 10.7898 26.2701 10.9688C26.5769 11.1449 26.9334 11.233 27.3397 11.233C27.6039 11.233 27.8425 11.196 28.0556 11.1222C28.2715 11.0455 28.4576 10.9318 28.6138 10.7812C28.7701 10.6278 28.8908 10.4375 28.976 10.2102L29.9476 10.483C29.8454 10.8125 29.6735 11.1023 29.432 11.3523C29.1905 11.5994 28.8922 11.7926 28.5371 11.9318C28.182 12.0682 27.7829 12.1364 27.3397 12.1364Z" fill="#BABCBE"/>
    <path d="M31.8197 12V5.45455H32.7913V6.44318H32.8595C32.9788 6.11932 33.1947 5.85653 33.5072 5.65483C33.8197 5.45312 34.172 5.35227 34.564 5.35227C34.6379 5.35227 34.7302 5.35369 34.841 5.35653C34.9518 5.35938 35.0356 5.36364 35.0925 5.36932V6.39205C35.0584 6.38352 34.9802 6.37074 34.8581 6.35369C34.7388 6.33381 34.6123 6.32386 34.4788 6.32386C34.1606 6.32386 33.8765 6.39062 33.6265 6.52415C33.3794 6.65483 33.1834 6.83665 33.0385 7.0696C32.8964 7.29972 32.8254 7.5625 32.8254 7.85795V12H31.8197Z" fill="#BABCBE"/>
    <path d="M39.0697 12.1364C38.439 12.1364 37.895 11.9972 37.4376 11.7188C36.983 11.4375 36.6322 11.0455 36.385 10.5426C36.1407 10.0369 36.0185 9.44886 36.0185 8.77841C36.0185 8.10795 36.1407 7.51705 36.385 7.00568C36.6322 6.49148 36.9759 6.09091 37.4163 5.80398C37.8594 5.5142 38.3765 5.36932 38.9674 5.36932C39.3083 5.36932 39.645 5.42614 39.9773 5.53977C40.3097 5.65341 40.6123 5.83807 40.885 6.09375C41.1577 6.34659 41.3751 6.68182 41.537 7.09943C41.6989 7.51705 41.7799 8.03125 41.7799 8.64205V9.06818H36.7344V8.19886H40.7572C40.7572 7.82955 40.6833 7.5 40.5356 7.21023C40.3907 6.92045 40.1833 6.69176 39.9134 6.52415C39.6464 6.35653 39.331 6.27273 38.9674 6.27273C38.5668 6.27273 38.2202 6.37216 37.9276 6.57102C37.6379 6.76705 37.4148 7.02273 37.2586 7.33807C37.1023 7.65341 37.0242 7.99148 37.0242 8.35227V8.93182C37.0242 9.42614 37.1094 9.84517 37.2799 10.1889C37.4532 10.5298 37.6933 10.7898 38.0001 10.9688C38.3069 11.1449 38.6634 11.233 39.0697 11.233C39.3339 11.233 39.5725 11.196 39.7856 11.1222C40.0015 11.0455 40.1876 10.9318 40.3438 10.7812C40.5001 10.6278 40.6208 10.4375 40.706 10.2102L41.6776 10.483C41.5754 10.8125 41.4035 11.1023 41.162 11.3523C40.9205 11.5994 40.6222 11.7926 40.2671 11.9318C39.912 12.0682 39.5129 12.1364 39.0697 12.1364Z" fill="#BABCBE"/>
    <path d="M46.0213 12.1364C45.4759 12.1364 44.9943 11.9986 44.5767 11.723C44.1591 11.4446 43.8324 11.0526 43.5966 10.5469C43.3608 10.0384 43.2429 9.4375 43.2429 8.74432C43.2429 8.05682 43.3608 7.46023 43.5966 6.95455C43.8324 6.44886 44.1605 6.05824 44.581 5.78267C45.0014 5.5071 45.4872 5.36932 46.0384 5.36932C46.4645 5.36932 46.8012 5.44034 47.0483 5.58239C47.2983 5.72159 47.4886 5.88068 47.6193 6.05966C47.7529 6.2358 47.8565 6.38068 47.9304 6.49432H48.0156V3.27273H49.0213V12H48.0497V10.9943H47.9304C47.8565 11.1136 47.7514 11.2642 47.6151 11.446C47.4787 11.625 47.2841 11.7855 47.0313 11.9276C46.7784 12.0668 46.4418 12.1364 46.0213 12.1364ZM46.1577 11.233C46.5611 11.233 46.902 11.1278 47.1804 10.9176C47.4588 10.7045 47.6705 10.4105 47.8154 10.0355C47.9602 9.65767 48.0327 9.22159 48.0327 8.72727C48.0327 8.23864 47.9617 7.81108 47.8196 7.4446C47.6776 7.07528 47.4673 6.78835 47.1889 6.58381C46.9105 6.37642 46.5668 6.27273 46.1577 6.27273C45.7315 6.27273 45.3764 6.3821 45.0923 6.60085C44.8111 6.81676 44.5994 7.1108 44.4574 7.48295C44.3182 7.85227 44.2486 8.26705 44.2486 8.72727C44.2486 9.19318 44.3196 9.61648 44.4617 9.99716C44.6065 10.375 44.8196 10.6761 45.1009 10.9006C45.385 11.1222 45.7372 11.233 46.1577 11.233Z" fill="#BABCBE"/>
    <path d="M54.9942 12V3.27273H55.9999V6.49432H56.0851C56.159 6.38068 56.2613 6.2358 56.3919 6.05966C56.5255 5.88068 56.7158 5.72159 56.963 5.58239C57.213 5.44034 57.551 5.36932 57.9772 5.36932C58.5283 5.36932 59.0141 5.5071 59.4346 5.78267C59.855 6.05824 60.1831 6.44886 60.4189 6.95455C60.6547 7.46023 60.7726 8.05682 60.7726 8.74432C60.7726 9.4375 60.6547 10.0384 60.4189 10.5469C60.1831 11.0526 59.8564 11.4446 59.4388 11.723C59.0212 11.9986 58.5397 12.1364 57.9942 12.1364C57.5738 12.1364 57.2371 12.0668 56.9843 11.9276C56.7314 11.7855 56.5368 11.625 56.4005 11.446C56.2641 11.2642 56.159 11.1136 56.0851 10.9943H55.9658V12H54.9942ZM55.9829 8.72727C55.9829 9.22159 56.0553 9.65767 56.2002 10.0355C56.3451 10.4105 56.5567 10.7045 56.8351 10.9176C57.1135 11.1278 57.4544 11.233 57.8579 11.233C58.2783 11.233 58.6292 11.1222 58.9104 10.9006C59.1945 10.6761 59.4076 10.375 59.5496 9.99716C59.6945 9.61648 59.7669 9.19318 59.7669 8.72727C59.7669 8.26705 59.6959 7.85227 59.5539 7.48295C59.4147 7.1108 59.203 6.81676 58.9189 6.60085C58.6377 6.3821 58.284 6.27273 57.8579 6.27273C57.4488 6.27273 57.105 6.37642 56.8266 6.58381C56.5482 6.78835 56.338 7.07528 56.1959 7.4446C56.0539 7.81108 55.9829 8.23864 55.9829 8.72727Z" fill="#BABCBE"/>
    <path d="M62.9643 14.4545C62.7939 14.4545 62.6419 14.4403 62.5084 14.4119C62.3748 14.3864 62.2825 14.3608 62.2314 14.3352L62.4871 13.4489C62.7314 13.5114 62.9473 13.5341 63.1348 13.517C63.3223 13.5 63.4885 13.4162 63.6334 13.2656C63.7811 13.1179 63.916 12.8778 64.0382 12.5455L64.2257 12.0341L61.8052 5.45455H62.8961L64.703 10.6705H64.7711L66.578 5.45455H67.6689L64.8905 12.9545C64.7655 13.2926 64.6106 13.5724 64.426 13.794C64.2413 14.0185 64.0268 14.1847 63.7825 14.2926C63.541 14.4006 63.2683 14.4545 62.9643 14.4545Z" fill="#BABCBE"/>
    <path d="M163.357 12.6382C162.623 12.6382 162.001 12.5159 161.491 12.2714C160.991 12.0269 160.608 11.708 160.342 11.3147C160.076 10.9108 159.927 10.4749 159.896 10.0072H161.14C161.172 10.2729 161.262 10.5334 161.411 10.7885C161.57 11.033 161.81 11.235 162.129 11.3944C162.448 11.5433 162.862 11.6177 163.373 11.6177C163.532 11.6177 163.729 11.6017 163.963 11.5698C164.197 11.5379 164.42 11.4795 164.633 11.3944C164.856 11.3094 165.042 11.1818 165.191 11.0117C165.34 10.8417 165.415 10.6237 165.415 10.358C165.415 10.0284 165.287 9.77332 165.032 9.59261C164.777 9.41189 164.447 9.2737 164.043 9.17803C163.639 9.07172 163.208 8.97074 162.751 8.87506C162.304 8.77939 161.879 8.65714 161.475 8.50832C161.071 8.34887 160.741 8.13095 160.486 7.85456C160.231 7.56754 160.103 7.17954 160.103 6.69055C160.103 5.96769 160.363 5.4096 160.885 5.01628C161.416 4.61233 162.198 4.41035 163.229 4.41035C163.931 4.41035 164.5 4.52197 164.936 4.74521C165.383 4.95781 165.718 5.2342 165.941 5.57437C166.175 5.91454 166.313 6.28128 166.356 6.6746H165.143C165.101 6.33443 164.931 6.0421 164.633 5.7976C164.346 5.55311 163.867 5.43086 163.197 5.43086C161.932 5.43086 161.299 5.81355 161.299 6.57893C161.299 6.89784 161.427 7.14233 161.682 7.31242C161.937 7.4825 162.267 7.62069 162.671 7.727C163.075 7.82267 163.5 7.91834 163.947 8.01401C164.404 8.09906 164.835 8.2213 165.239 8.38076C165.643 8.54021 165.973 8.76876 166.228 9.06641C166.483 9.35343 166.611 9.74675 166.611 10.2464C166.611 11.0224 166.313 11.6177 165.718 12.0323C165.133 12.4362 164.346 12.6382 163.357 12.6382Z" fill="#BABCBE"/>
    <path d="M155.183 12.6382C154.45 12.6382 153.827 12.5159 153.317 12.2714C152.817 12.0269 152.434 11.708 152.169 11.3147C151.903 10.9108 151.754 10.4749 151.722 10.0072H152.966C152.998 10.2729 153.088 10.5334 153.237 10.7885C153.397 11.033 153.636 11.235 153.955 11.3944C154.274 11.5433 154.689 11.6177 155.199 11.6177C155.359 11.6177 155.555 11.6017 155.789 11.5698C156.023 11.5379 156.247 11.4795 156.459 11.3944C156.683 11.3094 156.869 11.1818 157.018 11.0117C157.167 10.8417 157.241 10.6237 157.241 10.358C157.241 10.0284 157.113 9.77332 156.858 9.59261C156.603 9.41189 156.273 9.2737 155.869 9.17803C155.465 9.07172 155.034 8.97074 154.577 8.87506C154.131 8.77939 153.705 8.65714 153.301 8.50832C152.897 8.34887 152.567 8.13095 152.312 7.85456C152.057 7.56754 151.929 7.17954 151.929 6.69055C151.929 5.96769 152.19 5.4096 152.711 5.01628C153.243 4.61233 154.024 4.41035 155.056 4.41035C155.758 4.41035 156.326 4.52197 156.762 4.74521C157.209 4.95781 157.544 5.2342 157.767 5.57437C158.001 5.91454 158.14 6.28128 158.182 6.6746H156.97C156.927 6.33443 156.757 6.0421 156.459 5.7976C156.172 5.55311 155.694 5.43086 155.024 5.43086C153.758 5.43086 153.126 5.81355 153.126 6.57893C153.126 6.89784 153.253 7.14233 153.508 7.31242C153.764 7.4825 154.093 7.62069 154.497 7.727C154.902 7.82267 155.327 7.91834 155.773 8.01401C156.231 8.09906 156.661 8.2213 157.066 8.38076C157.47 8.54021 157.799 8.76876 158.054 9.06641C158.31 9.35343 158.437 9.74675 158.437 10.2464C158.437 11.0224 158.14 11.6177 157.544 12.0323C156.959 12.4362 156.172 12.6382 155.183 12.6382Z" fill="#BABCBE"/>
    <path d="M145.681 12.6382C144.905 12.6382 144.224 12.4575 143.639 12.096C143.065 11.724 142.618 11.2244 142.299 10.5972C141.98 9.96998 141.821 9.27902 141.821 8.52427C141.821 7.75889 141.98 7.06792 142.299 6.45136C142.618 5.82418 143.065 5.32987 143.639 4.96844C144.224 4.59638 144.905 4.41035 145.681 4.41035C146.34 4.41035 146.904 4.53792 147.372 4.79304C147.85 5.04817 148.238 5.39365 148.536 5.82949V4.53792H149.732V12.5106H148.536V11.235C148.238 11.6602 147.85 12.0004 147.372 12.2555C146.904 12.5106 146.34 12.6382 145.681 12.6382ZM145.84 11.5539C146.436 11.5539 146.936 11.4157 147.34 11.1393C147.755 10.8629 148.068 10.4962 148.281 10.0391C148.494 9.57135 148.6 9.06641 148.6 8.52427C148.6 7.97149 148.494 7.46655 148.281 7.00945C148.068 6.55235 147.755 6.18561 147.34 5.90922C146.936 5.63283 146.436 5.49464 145.84 5.49464C145.256 5.49464 144.751 5.63283 144.325 5.90922C143.9 6.18561 143.575 6.55235 143.352 7.00945C143.129 7.46655 143.017 7.97149 143.017 8.52427C143.017 9.06641 143.129 9.57135 143.352 10.0391C143.575 10.4962 143.9 10.8629 144.325 11.1393C144.751 11.4157 145.256 11.5539 145.84 11.5539Z" fill="#BABCBE"/>
    <path d="M132.35 15.6678V4.53792H133.547V5.81355C133.844 5.37771 134.227 5.03754 134.695 4.79304C135.174 4.53792 135.743 4.41035 136.402 4.41035C137.178 4.41035 137.853 4.59638 138.428 4.96844C139.013 5.32987 139.464 5.82418 139.784 6.45136C140.103 7.06792 140.262 7.75889 140.262 8.52427C140.262 9.27902 140.103 9.96998 139.784 10.5972C139.464 11.2244 139.013 11.724 138.428 12.096C137.853 12.4575 137.178 12.6382 136.402 12.6382C135.743 12.6382 135.174 12.5106 134.695 12.2555C134.227 11.9897 133.844 11.6442 133.547 11.219V15.6678H132.35ZM136.242 11.5539C136.838 11.5539 137.343 11.4157 137.758 11.1393C138.183 10.8629 138.507 10.4962 138.731 10.0391C138.954 9.57135 139.066 9.06641 139.066 8.52427C139.066 7.97149 138.954 7.46655 138.731 7.00945C138.507 6.55235 138.183 6.18561 137.758 5.90922C137.343 5.63283 136.838 5.49464 136.242 5.49464C135.658 5.49464 135.158 5.63283 134.743 5.90922C134.328 6.18561 134.015 6.55235 133.802 7.00945C133.589 7.46655 133.483 7.97149 133.483 8.52427C133.483 9.06641 133.589 9.57135 133.802 10.0391C134.015 10.4962 134.328 10.8629 134.743 11.1393C135.158 11.4157 135.658 11.5539 136.242 11.5539Z" fill="#BABCBE"/>
    <path d="M126.534 12.6382C125.726 12.6382 125.019 12.4575 124.413 12.096C123.806 11.724 123.333 11.2244 122.993 10.5972C122.663 9.96998 122.499 9.27902 122.499 8.52427C122.499 7.75889 122.658 7.06792 122.977 6.45136C123.296 5.82418 123.753 5.32987 124.349 4.96844C124.944 4.59638 125.646 4.41035 126.454 4.41035C127.273 4.41035 127.975 4.59638 128.56 4.96844C129.155 5.32987 129.613 5.82418 129.932 6.45136C130.251 7.06792 130.41 7.75889 130.41 8.52427V9.00263H123.727C123.791 9.47036 123.939 9.90088 124.173 10.2942C124.418 10.6769 124.742 10.9852 125.146 11.219C125.55 11.4423 126.018 11.5539 126.55 11.5539C127.114 11.5539 127.587 11.4316 127.97 11.1871C128.352 10.932 128.65 10.6078 128.863 10.2145H130.171C129.894 10.9267 129.453 11.5114 128.847 11.9685C128.251 12.4149 127.48 12.6382 126.534 12.6382ZM123.743 7.88645H129.166C129.06 7.20611 128.773 6.63739 128.305 6.18029C127.837 5.72319 127.22 5.49464 126.454 5.49464C125.689 5.49464 125.072 5.72319 124.604 6.18029C124.147 6.63739 123.86 7.20611 123.743 7.88645Z" fill="#BABCBE"/>
    <path d="M117.218 12.5106V4.53792H118.415V6.4992C118.457 6.36101 118.537 6.18029 118.654 5.95706C118.781 5.72319 118.962 5.48933 119.196 5.25546C119.43 5.02159 119.723 4.82493 120.073 4.66548C120.435 4.4954 120.86 4.41035 121.35 4.41035H121.429V5.60626H121.286C120.69 5.60626 120.174 5.77103 119.738 6.10057C119.313 6.41947 118.983 6.83937 118.75 7.36025C118.526 7.8705 118.415 8.41796 118.415 9.00263V12.5106H117.218Z" fill="#BABCBE"/>
    <path d="M111.198 12.6382C110.389 12.6382 109.688 12.4575 109.092 12.096C108.497 11.724 108.039 11.2244 107.72 10.5972C107.401 9.96998 107.242 9.27902 107.242 8.52427C107.242 7.75889 107.401 7.06792 107.72 6.45136C108.039 5.82418 108.497 5.32987 109.092 4.96844C109.688 4.59638 110.389 4.41035 111.198 4.41035C112.016 4.41035 112.718 4.59638 113.303 4.96844C113.899 5.32987 114.356 5.82418 114.675 6.45136C114.994 7.06792 115.153 7.75889 115.153 8.52427C115.153 9.27902 114.994 9.96998 114.675 10.5972C114.356 11.2244 113.899 11.724 113.303 12.096C112.718 12.4575 112.016 12.6382 111.198 12.6382ZM111.198 11.5539C111.793 11.5539 112.293 11.4157 112.697 11.1393C113.112 10.8629 113.425 10.4962 113.638 10.0391C113.851 9.57135 113.957 9.06641 113.957 8.52427C113.957 7.97149 113.851 7.46655 113.638 7.00945C113.425 6.55235 113.112 6.18561 112.697 5.90922C112.293 5.63283 111.793 5.49464 111.198 5.49464C110.613 5.49464 110.113 5.63283 109.698 5.90922C109.283 6.18561 108.97 6.55235 108.757 7.00945C108.544 7.46655 108.438 7.97149 108.438 8.52427C108.438 9.06641 108.544 9.57135 108.757 10.0391C108.97 10.4962 109.283 10.8629 109.698 11.1393C110.113 11.4157 110.613 11.5539 111.198 11.5539Z" fill="#BABCBE"/>
    <path d="M100.934 12.6381C99.8815 12.6381 98.9723 12.3989 98.2067 11.9205C97.441 11.4315 96.8509 10.7778 96.4361 9.95923C96.032 9.1407 95.83 8.23181 95.83 7.23257C95.83 6.23332 96.032 5.32443 96.4361 4.5059C96.8509 3.68737 97.441 3.03893 98.2067 2.56057C98.9723 2.07157 99.8815 1.82708 100.934 1.82708C101.732 1.82708 102.45 1.97059 103.088 2.2576C103.726 2.53399 104.268 2.91668 104.715 3.40567C105.161 3.89466 105.496 4.46338 105.72 5.11183H104.459C104.194 4.46338 103.774 3.94781 103.199 3.56512C102.625 3.18244 101.902 2.99109 101.03 2.99109C100.179 2.99109 99.4508 3.18244 98.8447 3.56512C98.2492 3.93718 97.7973 4.44212 97.4889 5.07994C97.1805 5.71775 97.0263 6.4353 97.0263 7.23257C97.0263 8.01921 97.1805 8.73675 97.4889 9.38519C97.7973 10.023 98.2492 10.5333 98.8447 10.916C99.4508 11.288 100.179 11.474 101.03 11.474C101.902 11.474 102.625 11.2827 103.199 10.9C103.774 10.5173 104.194 10.0018 104.459 9.3533H105.72C105.496 9.99112 105.161 10.5598 104.715 11.0595C104.268 11.5485 103.726 11.9365 103.088 12.2235C102.45 12.4999 101.732 12.6381 100.934 12.6381Z" fill="#BABCBE"/>
    <path fill-rule="evenodd" clip-rule="evenodd" d="M161.346 12.5704L161.345 12.5698C160.802 12.3042 160.37 11.9498 160.067 11.5007L160.066 11.499L160.065 11.4973C159.768 11.0471 159.6 10.5564 159.564 10.0298L159.54 9.67499H161.435L161.47 9.96761C161.495 10.1814 161.568 10.3963 161.694 10.6137C161.814 10.7954 162.001 10.9585 162.273 11.0953C162.533 11.2153 162.893 11.2855 163.373 11.2855C163.512 11.2855 163.693 11.2714 163.918 11.2407C164.126 11.2124 164.323 11.1606 164.51 11.086L164.512 11.085L164.515 11.084C164.69 11.0172 164.83 10.9199 164.941 10.793C165.028 10.6938 165.082 10.5582 165.082 10.358C165.082 10.1293 165.001 9.97825 164.84 9.86369C164.629 9.71424 164.342 9.59017 163.966 9.50128L163.962 9.50033L163.958 9.49929C163.56 9.39458 163.135 9.29486 162.683 9.20021L162.681 9.19989C162.22 9.10112 161.78 8.97461 161.36 8.82003L161.356 8.81872L161.353 8.81731C160.909 8.64234 160.536 8.39827 160.242 8.07988L160.239 8.07759L160.237 8.07526C159.915 7.71223 159.771 7.23796 159.771 6.69055C159.771 5.87676 160.07 5.21524 160.683 4.7518C161.297 4.28575 162.162 4.07816 163.229 4.07816C163.96 4.07816 164.585 4.19351 165.083 4.44732C165.57 4.67964 165.954 4.99077 166.217 5.38913C166.479 5.77182 166.637 6.18958 166.686 6.6389L166.726 7.0068H164.85L164.814 6.7158C164.783 6.47068 164.663 6.25204 164.422 6.0543L164.42 6.05241L164.417 6.05048C164.222 5.88416 163.843 5.76305 163.197 5.76305C162.587 5.76305 162.185 5.85723 161.946 6.0021C161.733 6.13071 161.632 6.30747 161.632 6.57893C161.632 6.7921 161.708 6.93044 161.866 7.03601C162.081 7.17936 162.373 7.30476 162.752 7.4047C163.151 7.49915 163.571 7.59367 164.012 7.68826C164.487 7.77689 164.937 7.9045 165.361 8.07176C165.809 8.24854 166.185 8.50615 166.479 8.84812C166.801 9.2121 166.943 9.69168 166.943 10.2464C166.943 11.1221 166.599 11.8232 165.908 12.3049L165.907 12.3056C165.248 12.7602 164.388 12.9704 163.357 12.9704C162.588 12.9704 161.914 12.8424 161.347 12.571L161.346 12.5704ZM166.228 9.06641C165.973 8.76876 165.643 8.54021 165.239 8.38076C164.835 8.2213 164.404 8.09906 163.947 8.01401C163.5 7.91834 163.075 7.82267 162.671 7.727C162.267 7.62069 161.937 7.4825 161.682 7.31242C161.427 7.14233 161.299 6.89784 161.299 6.57893C161.299 5.81355 161.932 5.43086 163.197 5.43086C163.867 5.43086 164.346 5.55311 164.633 5.7976C164.931 6.0421 165.101 6.33443 165.143 6.6746H166.356C166.343 6.56168 166.323 6.45095 166.295 6.3424C166.226 6.07289 166.108 5.81687 165.941 5.57437C165.718 5.2342 165.383 4.95781 164.936 4.74521C164.5 4.52197 163.931 4.41035 163.229 4.41035C162.198 4.41035 161.416 4.61233 160.885 5.01628C160.363 5.4096 160.103 5.96769 160.103 6.69055C160.103 7.17954 160.231 7.56754 160.486 7.85456C160.741 8.13095 161.071 8.34887 161.475 8.50832C161.879 8.65714 162.304 8.77939 162.751 8.87506C163.208 8.97074 163.639 9.07172 164.043 9.17803C164.447 9.2737 164.777 9.41189 165.032 9.59261C165.287 9.77332 165.415 10.0284 165.415 10.358C165.415 10.6237 165.34 10.8417 165.191 11.0117C165.042 11.1818 164.856 11.3094 164.633 11.3944C164.42 11.4795 164.197 11.5379 163.963 11.5698C163.729 11.6017 163.532 11.6177 163.373 11.6177C162.862 11.6177 162.448 11.5433 162.129 11.3944C161.81 11.235 161.57 11.033 161.411 10.7885C161.262 10.5334 161.172 10.2729 161.14 10.0072H159.896C159.903 10.1198 159.918 10.2305 159.939 10.3394C160.006 10.6829 160.14 11.008 160.342 11.3147C160.608 11.708 160.991 12.0269 161.491 12.2714C162.001 12.5159 162.623 12.6382 163.357 12.6382C164.346 12.6382 165.133 12.4362 165.718 12.0323C166.313 11.6177 166.611 11.0224 166.611 10.2464C166.611 9.74675 166.483 9.35343 166.228 9.06641ZM153.172 12.5704L153.171 12.5698C152.628 12.3042 152.197 11.9498 151.893 11.5007L151.892 11.499L151.891 11.4973C151.595 11.0471 151.426 10.5564 151.39 10.0298L151.366 9.67499H153.261L153.296 9.96761C153.322 10.1814 153.394 10.3963 153.52 10.6137C153.64 10.7954 153.827 10.9585 154.1 11.0953C154.359 11.2153 154.72 11.2855 155.199 11.2855C155.338 11.2855 155.519 11.2714 155.745 11.2407C155.952 11.2124 156.149 11.1606 156.336 11.086L156.339 11.085L156.341 11.084C156.517 11.0172 156.657 10.9199 156.768 10.793C156.854 10.6938 156.909 10.5582 156.909 10.358C156.909 10.1293 156.828 9.97825 156.666 9.86369C156.455 9.71424 156.168 9.59017 155.793 9.50128L155.789 9.50033L155.785 9.49929C155.387 9.39458 154.961 9.29486 154.509 9.20021L154.508 9.19989C154.046 9.10112 153.606 8.97461 153.186 8.82003L153.183 8.81872L153.179 8.81731C152.736 8.64234 152.362 8.39827 152.068 8.07988L152.066 8.07759L152.064 8.07526C151.741 7.71223 151.597 7.23796 151.597 6.69055C151.597 5.87676 151.896 5.21524 152.51 4.7518C153.123 4.28575 153.989 4.07816 155.056 4.07816C155.787 4.07816 156.412 4.19351 156.91 4.44732C157.396 4.67964 157.781 4.99077 158.043 5.38913C158.306 5.77182 158.464 6.18958 158.512 6.6389L158.552 7.0068H156.676L156.64 6.7158C156.609 6.47068 156.489 6.25204 156.248 6.0543L156.246 6.05241L156.244 6.05048C156.049 5.88416 155.67 5.76305 155.024 5.76305C154.414 5.76305 154.012 5.85723 153.772 6.0021C153.56 6.13071 153.458 6.30747 153.458 6.57893C153.458 6.7921 153.534 6.93044 153.693 7.03601C153.908 7.17936 154.199 7.30476 154.578 7.4047C154.977 7.49915 155.397 7.59367 155.839 7.68826C156.314 7.77689 156.764 7.9045 157.188 8.07176C157.636 8.24854 158.011 8.50615 158.305 8.84812C158.627 9.2121 158.77 9.69168 158.77 10.2464C158.77 11.1221 158.426 11.8232 157.734 12.3049L157.733 12.3056C157.075 12.7602 156.214 12.9704 155.183 12.9704C154.414 12.9704 153.74 12.8424 153.173 12.571L153.172 12.5704ZM158.054 9.06641C157.799 8.76876 157.47 8.54021 157.066 8.38076C156.661 8.2213 156.231 8.09906 155.773 8.01401C155.327 7.91834 154.902 7.82267 154.497 7.727C154.093 7.62069 153.764 7.4825 153.508 7.31242C153.253 7.14233 153.126 6.89784 153.126 6.57893C153.126 5.81355 153.758 5.43086 155.024 5.43086C155.694 5.43086 156.172 5.55311 156.459 5.7976C156.757 6.0421 156.927 6.33443 156.97 6.6746H158.182C158.17 6.56168 158.15 6.45095 158.122 6.3424C158.052 6.07289 157.934 5.81687 157.767 5.57437C157.544 5.2342 157.209 4.95781 156.762 4.74521C156.326 4.52197 155.758 4.41035 155.056 4.41035C154.024 4.41035 153.243 4.61233 152.711 5.01628C152.19 5.4096 151.929 5.96769 151.929 6.69055C151.929 7.17954 152.057 7.56754 152.312 7.85456C152.567 8.13095 152.897 8.34887 153.301 8.50832C153.705 8.65714 154.131 8.77939 154.577 8.87506C155.034 8.97074 155.465 9.07172 155.869 9.17803C156.273 9.2737 156.603 9.41189 156.858 9.59261C157.113 9.77332 157.241 10.0284 157.241 10.358C157.241 10.6237 157.167 10.8417 157.018 11.0117C156.869 11.1818 156.683 11.3094 156.459 11.3944C156.247 11.4795 156.023 11.5379 155.789 11.5698C155.555 11.6017 155.359 11.6177 155.199 11.6177C154.689 11.6177 154.274 11.5433 153.955 11.3944C153.636 11.235 153.397 11.033 153.237 10.7885C153.088 10.5334 152.998 10.2729 152.966 10.0072H151.722C151.73 10.1198 151.744 10.2305 151.765 10.3394C151.832 10.6829 151.967 11.008 152.169 11.3147C152.434 11.708 152.817 12.0269 153.317 12.2714C153.827 12.5159 154.45 12.6382 155.183 12.6382C156.172 12.6382 156.959 12.4362 157.544 12.0323C158.14 11.6177 158.437 11.0224 158.437 10.2464C158.437 9.74675 158.31 9.35343 158.054 9.06641ZM143.462 12.3767L143.459 12.3748C142.834 11.97 142.348 11.4255 142.003 10.7477C141.659 10.0706 141.489 9.32745 141.489 8.52427C141.489 7.71184 141.658 6.96812 142.004 6.30003C142.348 5.62221 142.835 5.08242 143.461 4.68802C144.105 4.27819 144.849 4.07816 145.681 4.07816C146.382 4.07816 147.003 4.21385 147.53 4.50071C147.776 4.63195 148 4.78553 148.204 4.96131V4.20572H150.065V12.8428H148.204V12.0908C148 12.2643 147.775 12.4167 147.53 12.5478C147.003 12.8347 146.382 12.9704 145.681 12.9704C144.851 12.9704 144.108 12.7765 143.465 12.3786L143.462 12.3767ZM147.372 12.2555C147.689 12.0865 147.966 11.8801 148.204 11.6364C148.325 11.5123 148.436 11.3785 148.536 11.235V12.5106H149.732V4.53792H148.536V5.82949C148.436 5.68242 148.325 5.54563 148.204 5.41913C147.966 5.17077 147.689 4.96207 147.372 4.79304C146.904 4.53792 146.34 4.41035 145.681 4.41035C144.905 4.41035 144.224 4.59638 143.639 4.96844C143.065 5.32987 142.618 5.82418 142.299 6.45136C141.98 7.06792 141.821 7.75889 141.821 8.52427C141.821 9.27902 141.98 9.96998 142.299 10.5972C142.618 11.2244 143.065 11.724 143.639 12.096C144.224 12.4575 144.905 12.6382 145.681 12.6382C146.34 12.6382 146.904 12.5106 147.372 12.2555ZM147.154 10.864L147.156 10.8629C147.518 10.621 147.792 10.3022 147.979 9.90034C148.171 9.4785 148.268 9.02116 148.268 8.52427C148.268 8.01517 148.17 7.55868 147.98 7.14955C147.792 6.74707 147.519 6.42776 147.156 6.18562L147.154 6.18451L147.152 6.18338C146.814 5.95232 146.384 5.82684 145.84 5.82684C145.31 5.82684 144.87 5.9515 144.506 6.18775C144.132 6.43123 143.848 6.75203 143.651 7.15523C143.451 7.5631 143.349 8.01756 143.349 8.52427C143.349 9.01863 143.451 9.47389 143.651 9.89444C143.848 10.2971 144.132 10.6175 144.506 10.8608C144.87 11.097 145.31 11.2217 145.84 11.2217C146.384 11.2217 146.814 11.0962 147.152 10.8651L147.154 10.864ZM148.281 10.0391C148.068 10.4962 147.755 10.8629 147.34 11.1393C146.936 11.4157 146.436 11.5539 145.84 11.5539C145.256 11.5539 144.751 11.4157 144.325 11.1393C143.9 10.8629 143.575 10.4962 143.352 10.0391C143.129 9.57135 143.017 9.06641 143.017 8.52427C143.017 7.97149 143.129 7.46655 143.352 7.00945C143.575 6.55235 143.9 6.18561 144.325 5.90922C144.751 5.63283 145.256 5.49464 145.84 5.49464C146.436 5.49464 146.936 5.63283 147.34 5.90922C147.755 6.18561 148.068 6.55235 148.281 7.00945C148.494 7.46655 148.6 7.97149 148.6 8.52427C148.6 9.06641 148.494 9.57135 148.281 10.0391ZM132.018 16V4.20572H133.879V4.94598C134.079 4.77402 134.3 4.62501 134.54 4.49925C135.076 4.21395 135.7 4.07816 136.402 4.07816C137.232 4.07816 137.971 4.2776 138.605 4.68779C139.242 5.08172 139.734 5.62134 140.079 6.30001C140.425 6.96811 140.594 7.71184 140.594 8.52427C140.594 9.32745 140.424 10.0706 140.08 10.7477C139.734 11.4271 139.242 11.9718 138.606 12.3763L138.605 12.3772C137.97 12.7766 137.232 12.9704 136.402 12.9704C135.7 12.9704 135.075 12.8344 134.539 12.5486L134.535 12.5465L134.531 12.5443C134.294 12.4099 134.077 12.2562 133.879 12.0832V16H132.018ZM133.547 11.219C133.648 11.3633 133.758 11.4983 133.879 11.6242C134.114 11.8694 134.386 12.0799 134.695 12.2555C135.174 12.5106 135.743 12.6382 136.402 12.6382C137.178 12.6382 137.853 12.4575 138.428 12.096C139.013 11.724 139.464 11.2244 139.784 10.5972C140.103 9.96998 140.262 9.27902 140.262 8.52427C140.262 7.75889 140.103 7.06792 139.784 6.45136C139.464 5.82418 139.013 5.32987 138.428 4.96844C137.853 4.59638 137.178 4.41035 136.402 4.41035C135.743 4.41035 135.174 4.53792 134.695 4.79304C134.386 4.95462 134.114 5.15797 133.879 5.40311C133.758 5.52892 133.648 5.66573 133.547 5.81355V4.53792H132.35V15.6678H133.547V11.219ZM137.575 10.8618L137.577 10.8608C137.951 10.6175 138.235 10.2971 138.432 9.89444C138.632 9.47389 138.733 9.01863 138.733 8.52427C138.733 8.01756 138.631 7.5631 138.432 7.15523C138.235 6.75203 137.951 6.43123 137.577 6.18775L137.575 6.1867L137.573 6.18562C137.223 5.9522 136.785 5.82684 136.242 5.82684C135.712 5.82684 135.279 5.95157 134.927 6.18562C134.564 6.42776 134.291 6.74707 134.103 7.14955C133.913 7.55868 133.815 8.01517 133.815 8.52427C133.815 9.02116 133.912 9.4785 134.104 9.90034C134.291 10.3022 134.564 10.621 134.927 10.8629C135.279 11.097 135.712 11.2217 136.242 11.2217C136.785 11.2217 137.223 11.0963 137.573 10.8629L137.575 10.8618ZM133.802 10.0391C133.589 9.57135 133.483 9.06641 133.483 8.52427C133.483 7.97149 133.589 7.46655 133.802 7.00945C134.015 6.55235 134.328 6.18561 134.743 5.90922C135.158 5.63283 135.658 5.49464 136.242 5.49464C136.838 5.49464 137.343 5.63283 137.758 5.90922C138.183 6.18561 138.507 6.55235 138.731 7.00945C138.954 7.46655 139.066 7.97149 139.066 8.52427C139.066 9.06641 138.954 9.57135 138.731 10.0391C138.507 10.4962 138.183 10.8629 137.758 11.1393C137.343 11.4157 136.838 11.5539 136.242 11.5539C135.658 11.5539 135.158 11.4157 134.743 11.1393C134.328 10.8629 134.015 10.4962 133.802 10.0391ZM124.241 12.3802L124.239 12.3791C123.583 11.9765 123.069 11.4338 122.701 10.7555L122.7 10.7536L122.699 10.7517C122.342 10.0737 122.166 9.32923 122.166 8.52427C122.166 7.71184 122.336 6.96812 122.681 6.30003C123.028 5.61932 123.527 5.07919 124.175 4.68557C124.83 4.27656 125.594 4.07816 126.454 4.07816C127.323 4.07816 128.089 4.27585 128.735 4.68627C129.382 5.07983 129.881 5.61971 130.227 6.30001C130.573 6.96811 130.742 7.71184 130.742 8.52427V9.33482H124.13C124.202 9.61348 124.311 9.87479 124.456 10.1198C124.67 10.4535 124.953 10.723 125.31 10.9299C125.657 11.121 126.067 11.2217 126.55 11.2217C127.064 11.2217 127.471 11.1108 127.788 10.9089C128.126 10.6833 128.385 10.3998 128.571 10.0565L128.665 9.88228H130.656L130.481 10.3347C130.182 11.1041 129.703 11.7391 129.047 12.2337C128.38 12.7337 127.533 12.9704 126.534 12.9704C125.675 12.9704 124.907 12.7777 124.242 12.3813L124.241 12.3802ZM127.97 11.1871C127.587 11.4316 127.114 11.5539 126.55 11.5539C126.018 11.5539 125.55 11.4423 125.146 11.219C124.742 10.9852 124.418 10.6769 124.173 10.2942C123.996 9.99582 123.867 9.67603 123.788 9.33482C123.762 9.22626 123.742 9.11553 123.727 9.00263H130.41V8.52427C130.41 7.75889 130.251 7.06792 129.932 6.45136C129.613 5.82418 129.155 5.32987 128.56 4.96844C127.975 4.59638 127.273 4.41035 126.454 4.41035C125.646 4.41035 124.944 4.59638 124.349 4.96844C123.753 5.32987 123.296 5.82418 122.977 6.45136C122.658 7.06792 122.499 7.75889 122.499 8.52427C122.499 9.27902 122.663 9.96998 122.993 10.5972C123.333 11.2244 123.806 11.724 124.413 12.096C125.019 12.4575 125.726 12.6382 126.534 12.6382C127.48 12.6382 128.251 12.4149 128.847 11.9685C129.356 11.5845 129.749 11.1106 130.025 10.5467C130.078 10.4392 130.127 10.3285 130.171 10.2145H128.863C128.65 10.6078 128.352 10.932 127.97 11.1871ZM116.886 12.8428V4.20572H118.747V5.25065C118.814 5.17323 118.885 5.09655 118.961 5.02056C119.227 4.75475 119.554 4.53707 119.934 4.36395C120.348 4.16956 120.823 4.07816 121.35 4.07816H121.762V5.93845H121.286C120.756 5.93845 120.312 6.08358 119.939 6.36554L119.938 6.36632C119.561 6.64868 119.266 7.02201 119.053 7.49476C118.85 7.96056 118.747 8.46199 118.747 9.00263V12.8428H116.886ZM118.75 7.36025C118.983 6.83937 119.313 6.41947 119.738 6.10057C120.174 5.77103 120.69 5.60626 121.286 5.60626H121.429V4.41035H121.35C121.263 4.41035 121.179 4.41299 121.097 4.41827C120.713 4.44295 120.371 4.52536 120.073 4.66548C119.723 4.82493 119.43 5.02159 119.196 5.25546C119.014 5.4373 118.865 5.61915 118.747 5.801C118.713 5.85302 118.682 5.90504 118.654 5.95706C118.537 6.18029 118.457 6.36101 118.415 6.4992V4.53792H117.218V12.5106H118.415V9.00263C118.415 8.41796 118.526 7.8705 118.75 7.36025ZM108.918 12.3789L108.916 12.3777C108.269 11.9736 107.77 11.4286 107.424 10.7477C107.08 10.0706 106.909 9.32745 106.909 8.52427C106.909 7.71172 107.079 6.96789 107.425 6.29972C107.771 5.61918 108.27 5.07916 108.918 4.6856C109.573 4.27657 110.337 4.07816 111.198 4.07816C112.067 4.07816 112.832 4.27586 113.479 4.6863C114.126 5.0798 114.624 5.61957 114.971 6.2997C115.316 6.96787 115.486 7.71171 115.486 8.52427C115.486 9.32745 115.316 10.0706 114.971 10.7477C114.625 11.4286 114.126 11.9736 113.479 12.3777L113.478 12.3786C112.831 12.7782 112.066 12.9704 111.198 12.9704C110.338 12.9704 109.575 12.7777 108.92 12.38L108.918 12.3789ZM114.675 6.45136C114.356 5.82418 113.899 5.32987 113.303 4.96844C112.718 4.59638 112.016 4.41035 111.198 4.41035C110.389 4.41035 109.688 4.59638 109.092 4.96844C108.497 5.32987 108.039 5.82418 107.72 6.45136C107.401 7.06792 107.242 7.75889 107.242 8.52427C107.242 9.27902 107.401 9.96998 107.72 10.5972C108.039 11.2244 108.497 11.724 109.092 12.096C109.688 12.4575 110.389 12.6382 111.198 12.6382C112.016 12.6382 112.718 12.4575 113.303 12.096C113.899 11.724 114.356 11.2244 114.675 10.5972C114.994 9.96998 115.153 9.27902 115.153 8.52427C115.153 7.75889 114.994 7.06792 114.675 6.45136ZM112.511 10.864L112.513 10.8629C112.876 10.621 113.149 10.3022 113.336 9.90034C113.528 9.4785 113.625 9.02116 113.625 8.52427C113.625 8.01517 113.527 7.55868 113.337 7.14955C113.149 6.74707 112.876 6.42776 112.513 6.18562L112.511 6.18451L112.509 6.18338C112.171 5.95232 111.741 5.82684 111.198 5.82684C110.667 5.82684 110.234 5.95157 109.883 6.18562C109.519 6.42776 109.246 6.74707 109.058 7.14955C108.868 7.55868 108.77 8.01517 108.77 8.52427C108.77 9.02112 108.867 9.47842 109.059 9.90024C109.246 10.3021 109.52 10.621 109.883 10.8629C110.234 11.097 110.667 11.2217 111.198 11.2217C111.741 11.2217 112.171 11.0962 112.509 10.8651L112.511 10.864ZM113.638 10.0391C113.425 10.4962 113.112 10.8629 112.697 11.1393C112.293 11.4157 111.793 11.5539 111.198 11.5539C110.613 11.5539 110.113 11.4157 109.698 11.1393C109.283 10.8629 108.97 10.4962 108.757 10.0391C108.544 9.57135 108.438 9.06641 108.438 8.52427C108.438 7.97149 108.544 7.46655 108.757 7.00945C108.97 6.55235 109.283 6.18561 109.698 5.90922C110.113 5.63283 110.613 5.49464 111.198 5.49464C111.793 5.49464 112.293 5.63283 112.697 5.90922C113.112 6.18561 113.425 6.55235 113.638 7.00945C113.851 7.46655 113.957 7.97149 113.957 8.52427C113.957 9.06641 113.851 9.57135 113.638 10.0391ZM98.0292 12.2013L98.0278 12.2005C97.2115 11.6791 96.581 10.9803 96.1397 10.1093L96.1389 10.1078L96.1381 10.1062C95.7094 9.23778 95.4977 8.27789 95.4977 7.23257C95.4977 6.18724 95.7094 5.22735 96.1381 4.35889L96.1389 4.35734L96.1397 4.3558C96.581 3.4847 97.212 2.79066 98.0292 2.27973C98.856 1.75208 99.829 1.49488 100.934 1.49488C101.771 1.49488 102.536 1.64553 103.222 1.95371C103.9 2.24773 104.481 2.65688 104.96 3.18168C105.438 3.70539 105.796 4.3139 106.034 5.00369L106.185 5.44402H104.236L104.152 5.23781C103.911 4.64962 103.533 4.18686 103.015 3.84153C102.508 3.50373 101.854 3.32329 101.03 3.32329C100.23 3.32329 99.566 3.50265 99.0222 3.84599L99.0208 3.84683C98.479 4.18537 98.0695 4.64254 97.7881 5.2245C97.5041 5.81187 97.3586 6.47904 97.3586 7.23257C97.3586 7.97424 97.5036 8.64208 97.7885 9.24158C98.0698 9.82288 98.4793 10.2855 99.0215 10.6347C99.5654 10.9676 100.23 11.1418 101.03 11.1418C101.854 11.1418 102.508 10.9614 103.015 10.6236C103.533 10.2783 103.911 9.81551 104.152 9.22733L104.236 9.02111H106.188L106.033 9.46305C105.796 10.1417 105.438 10.7484 104.962 11.2808L104.961 11.2821L104.96 11.2835C104.481 11.8078 103.901 12.2219 103.224 12.5264L103.222 12.5274L103.22 12.5283C102.534 12.8252 101.771 12.9703 100.934 12.9703C99.8298 12.9703 98.8573 12.7187 98.0306 12.2022L98.0292 12.2013ZM98.8447 10.916C98.2492 10.5333 97.7973 10.023 97.4889 9.38519C97.1805 8.73675 97.0263 8.01921 97.0263 7.23257C97.0263 6.4353 97.1805 5.71775 97.4889 5.07994C97.7973 4.44212 98.2492 3.93718 98.8447 3.56512C99.4508 3.18244 100.179 2.99109 101.03 2.99109C101.902 2.99109 102.625 3.18244 103.199 3.56512C103.774 3.94781 104.194 4.46338 104.459 5.11183H105.72C105.681 4.99867 105.638 4.88794 105.592 4.77963C105.376 4.26732 105.083 3.80933 104.715 3.40567C104.268 2.91668 103.726 2.53399 103.088 2.2576C102.45 1.97059 101.732 1.82708 100.934 1.82708C99.8815 1.82708 98.9723 2.07157 98.2067 2.56057C97.441 3.03893 96.8509 3.68737 96.4361 4.5059C96.032 5.32443 95.83 6.23332 95.83 7.23257C95.83 8.23181 96.032 9.1407 96.4361 9.95923C96.8509 10.7778 97.441 11.4315 98.2067 11.9205C98.9723 12.3989 99.8815 12.6381 100.934 12.6381C101.732 12.6381 102.45 12.4999 103.088 12.2235C103.726 11.9365 104.268 11.5485 104.715 11.0595C105.082 10.6483 105.374 10.1903 105.59 9.6855C105.637 9.57693 105.68 9.4662 105.72 9.3533H104.459C104.194 10.0018 103.774 10.5173 103.199 10.9C102.625 11.2827 101.902 11.474 101.03 11.474C100.179 11.474 99.4508 11.288 98.8447 10.916ZM129.166 7.88645C129.148 7.77259 129.125 7.66186 129.097 7.55425C128.958 7.01888 128.694 6.5609 128.305 6.18029C127.837 5.72319 127.22 5.49464 126.454 5.49464C125.689 5.49464 125.072 5.72319 124.604 6.18029C124.223 6.5609 123.961 7.01888 123.816 7.55425C123.787 7.66186 123.762 7.77259 123.743 7.88645H129.166ZM124.161 7.55425C124.296 7.11018 124.522 6.73302 124.838 6.41659C125.233 6.03124 125.76 5.82684 126.454 5.82684C127.149 5.82684 127.677 6.03169 128.072 6.41787C128.396 6.73446 128.623 7.1111 128.753 7.55425H124.161Z" fill="#BABCBE"/>
    <path fill-rule="evenodd" clip-rule="evenodd" d="M80.5678 12.9187C83.4941 12.9187 85.8663 10.5473 85.8663 7.62205C85.8663 4.69677 83.4941 2.32537 80.5678 2.32537C77.6416 2.32537 75.2693 4.69677 75.2693 7.62205C75.2693 10.5473 77.6416 12.9187 80.5678 12.9187ZM80.5678 15.2441C84.7788 15.2441 88.1925 11.8316 88.1925 7.62205C88.1925 3.41251 84.7788 0 80.5678 0C76.3569 0 72.9432 3.41251 72.9432 7.62205C72.9432 11.8316 76.3569 15.2441 80.5678 15.2441ZM86.3771 11.7683C88.8684 11.7683 90.8879 9.74948 90.8879 7.25909C90.8879 4.7687 88.8684 2.74984 86.3771 2.74984C83.8859 2.74984 81.8663 4.7687 81.8663 7.25909C81.8663 9.74948 83.8859 11.7683 86.3771 11.7683ZM86.3771 13.4293C89.786 13.4293 92.5495 10.6668 92.5495 7.25909C92.5495 3.85137 89.786 1.08886 86.3771 1.08886C82.9682 1.08886 80.2048 3.85137 80.2048 7.25909C80.2048 10.6668 82.9682 13.4293 86.3771 13.4293Z" fill="#BABCBE"/>
</svg>
